<svg xmlns="http://www.w3.org/2000/svg" width="514pt" height="98pt" viewBox="0 0 514.25 98">
    <g class="graph">
        <path fill="#fff" d="M0 98V0h514.25v98z"/>
        <g class="node">
            <path fill="#90ee90" stroke="#000" d="M164 31H4v36h160z"/>
            <text x="80" y="-39.95" font-family="Times New Roman,serif" font-size="14" text-anchor="middle" transform="translate(4 94)">:server:data:imageanalysis</text>
        </g>
        <g class="node">
            <path fill="#add8e6" stroke="#000" d="M378.75 4H200v36h178.75z"/>
            <text x="285.38" y="-66.95" font-family="Times New Roman,serif" font-size="14" text-anchor="middle" transform="translate(4 94)">:server:domain:imageanalysis</text>
        </g>
        <g stroke="#000" class="edge">
            <path fill="none" d="M164.21 38.48c7.89-1.04 15.96-2.11 24.02-3.18"/>
            <path d="m187.72 31.83 10.38 2.16-9.46 4.78z"/>
        </g>
        <g class="node">
            <path fill="#add8e6" stroke="#000" d="M334.88 58h-91v36h91z"/>
            <text x="285.38" y="-12.95" font-family="Times New Roman,serif" font-size="14" text-anchor="middle" transform="translate(4 94)">:core:network</text>
        </g>
        <g stroke="#000" class="edge">
            <path fill="none" d="M164.21 59.52c22.68 3.01 46.93 6.23 67.93 9.01"/>
            <path d="m232.48 65.05 9.45 4.78-10.37 2.16z"/>
        </g>
        <g class="node">
            <path fill="#add8e6" stroke="#000" d="M510.25 31h-95.5v36h95.5z"/>
            <text x="458.5" y="-39.95" font-family="Times New Roman,serif" font-size="14" text-anchor="middle" transform="translate(4 94)">:core:common</text>
        </g>
        <g stroke="#ccc" class="edge">
            <path fill="none" stroke-dasharray="5,2" d="M379.2 36.01c8.2 1.3 16.36 2.59 24.18 3.82"/>
            <path fill="#ccc" d="m403.73 36.34 9.33 5.02-10.42 1.9z"/>
        </g>
        <g stroke="#ccc" class="edge">
            <path fill="none" stroke-dasharray="5,2" d="M335.34 68.91c20.74-3.28 45.63-7.2 67.8-10.7"/>
            <path fill="#ccc" d="m402.53 54.76 10.42 1.9-9.33 5.02z"/>
        </g>
    </g>
</svg>
