<svg xmlns="http://www.w3.org/2000/svg" width="1816" height="365pt" viewBox="0 0 1362.25 365.49">
    <g class="graph">
        <path fill="#fff" d="M0 365.49V0h1362.25v365.49z"/>
        <g class="node">
            <path fill="#90ee90" stroke="#000" d="M80 147.53H4v36h76z"/>
            <text x="38" y="-190.91" font-family="Times New Roman,serif" font-size="14" text-anchor="middle" transform="translate(4 361.49)">:server:app</text>
        </g>
        <g class="node">
            <path fill="#add8e6" stroke="#000" d="M270 93.53H128v36h142z"/>
            <text x="195" y="-244.91" font-family="Times New Roman,serif" font-size="14" text-anchor="middle" transform="translate(4 361.49)">:server:controller:room</text>
        </g>
        <g stroke="#000" class="edge">
            <path fill="none" d="M80.42 151.4c11.39-4.23 23.97-8.81 35.58-12.87 4.66-1.63 9.48-3.28 14.34-4.93"/>
            <path d="m128.98 130.36 10.59.13-8.36 6.51z"/>
        </g>
        <g class="node">
            <path fill="#add8e6" stroke="#000" d="M851.62 147.53h-130v36h130z"/>
            <text x="782.62" y="-190.91" font-family="Times New Roman,serif" font-size="14" text-anchor="middle" transform="translate(4 361.49)">:server:core:database</text>
        </g>
        <g stroke="#000" class="edge">
            <path fill="none" d="M53.08 147.28C65.12 127.57 87.29 97.31 116 84.53c222.01-98.78 332.5-114.66 546.75 0 25.43 13.61 12.9 36.73 36 54 3.84 2.88 8 5.45 12.33 7.75"/>
            <path d="m712.55 143.1 7.55 7.43-10.53-1.1z"/>
        </g>
        <g class="node">
            <path fill="#add8e6" stroke="#000" d="M267.38 201.53H130.62v36h136.76z"/>
            <text x="195" y="-136.91" font-family="Times New Roman,serif" font-size="14" text-anchor="middle" transform="translate(4 361.49)">:server:controller:shift</text>
        </g>
        <g stroke="#000" class="edge">
            <path fill="none" d="M80.42 179.67c11.39 4.22 23.97 8.81 35.58 12.86 4.66 1.63 9.48 3.29 14.34 4.94"/>
            <path d="m131.21 194.07 8.36 6.51-10.59.12z"/>
        </g>
        <g class="node">
            <path fill="#add8e6" stroke="#000" d="M267.38 147.53H130.62v36h136.76z"/>
            <text x="195" y="-190.91" font-family="Times New Roman,serif" font-size="14" text-anchor="middle" transform="translate(4 361.49)">:server:controller:cron</text>
        </g>
        <g stroke="#000" class="edge">
            <path fill="none" d="M80.13 165.53h38.77"/>
            <path d="m118.73 162.03 10 3.5-10 3.5z"/>
        </g>
        <g class="node">
            <path fill="#add8e6" stroke="#000" d="M282 255.53H116v36h166z"/>
            <text x="195" y="-82.91" font-family="Times New Roman,serif" font-size="14" text-anchor="middle" transform="translate(4 361.49)">:server:controller:employee</text>
        </g>
        <g stroke="#000" class="edge">
            <path fill="none" d="M55.15 183.84c13.03 18.3 35.32 46.05 60.85 62.69q2.76 1.8 5.67 3.45"/>
            <path d="m123.03 246.74 7.31 7.67-10.5-1.43z"/>
        </g>
        <g class="node">
            <path fill="#add8e6" stroke="#000" d="M480.25 255.53H328.5v36h151.75z"/>
            <text x="400.38" y="-82.91" font-family="Times New Roman,serif" font-size="14" text-anchor="middle" transform="translate(4 361.49)">:server:service:employee</text>
        </g>
        <g class="node">
            <path fill="#add8e6" stroke="#000" d="M622.25 201.53h-55v36h55z"/>
            <text x="590.75" y="-136.91" font-family="Times New Roman,serif" font-size="14" text-anchor="middle" transform="translate(4 361.49)">:shared</text>
        </g>
        <g stroke="#999" class="edge">
            <path fill="none" stroke-dasharray="5,2" d="M469.68 255.1c28.7-8.23 61.54-17.64 86.22-24.72"/>
            <path fill="#999" d="m554.93 227.02 10.58.61-8.65 6.12z"/>
        </g>
        <g class="node">
            <path fill="#add8e6" stroke="#000" d="M1358.25 255.53h-95.5v36h95.5z"/>
            <text x="1306.5" y="-82.91" font-family="Times New Roman,serif" font-size="14" text-anchor="middle" transform="translate(4 361.49)">:core:common</text>
        </g>
        <g stroke="#999" class="edge">
            <path fill="none" stroke-dasharray="5,2" d="M434.57 291.79c23.85 13.95 58.93 32.34 92.18 41.74 111.18 31.47 143.33 24 258.87 24h188.63c112.73 0 147.04 15.83 252.5-24 20.4-7.7 40.28-21.83 55.44-34.45"/>
            <path fill="#999" d="m1279.53 296.75 9.87-3.87-5.3 9.18z"/>
        </g>
        <g class="node">
            <path fill="#add8e6" stroke="#000" d="M662.75 255.53h-136v36h136z"/>
            <text x="590.75" y="-82.91" font-family="Times New Roman,serif" font-size="14" text-anchor="middle" transform="translate(4 361.49)">:server:data:employee</text>
        </g>
        <g stroke="#999" class="edge">
            <path fill="none" stroke-dasharray="5,2" d="M480.64 273.53h34.57"/>
            <path fill="#999" d="m515.01 270.03 10 3.5-10 3.5z"/>
        </g>
        <g class="node">
            <path fill="#add8e6" stroke="#000" d="M490.75 120.53H318v36h172.75z"/>
            <text x="400.38" y="-217.91" font-family="Times New Roman,serif" font-size="14" text-anchor="middle" transform="translate(4 361.49)">:server:service:housekeeping</text>
        </g>
        <g stroke="#ccc" class="edge">
            <path fill="none" stroke-dasharray="5,2" d="M270.27 120.86c11.7 1.56 24 3.19 36.21 4.81"/>
            <path fill="#ccc" d="m306.7 122.17 9.45 4.78-10.37 2.16z"/>
        </g>
        <g stroke="#999" class="edge">
            <path fill="none" stroke-dasharray="5,2" d="M445.95 157.02c23.51 10.6 53.73 24.04 80.8 35.51 9.56 4.06 19.95 8.31 29.63 12.22"/>
            <path fill="#999" d="m557.54 201.44 7.98 6.97-10.58-.47z"/>
        </g>
        <g stroke="#999" class="edge">
            <path fill="none" stroke-dasharray="5,2" d="M442.37 120.08c66.81-31.56 212.76-92.55 343.25-92.55h188.63c124.06 0 158.97 37.49 252.5 119 31.7 27.63 56.07 70.25 69.9 98.38"/>
            <path fill="#999" d="m1299.8 243.38 1.15 10.53-7.47-7.52z"/>
        </g>
        <g class="node">
            <path fill="#add8e6" stroke="#000" d="M648.12 147.53H541.38v36h106.74z"/>
            <text x="590.75" y="-190.91" font-family="Times New Roman,serif" font-size="14" text-anchor="middle" transform="translate(4 361.49)">:server:data:shift</text>
        </g>
        <g stroke="#999" class="edge">
            <path fill="none" stroke-dasharray="5,2" d="M491.02 150.81c13.02 1.87 26.26 3.76 38.72 5.55"/>
            <path fill="#999" d="m530.02 152.86 9.41 4.89-10.4 2.04z"/>
        </g>
        <g class="node">
            <path fill="#add8e6" stroke="#000" d="M650.75 93.53h-112v36h112z"/>
            <text x="590.75" y="-244.91" font-family="Times New Roman,serif" font-size="14" text-anchor="middle" transform="translate(4 361.49)">:server:data:room</text>
        </g>
        <g stroke="#999" class="edge">
            <path fill="none" stroke-dasharray="5,2" d="M491.02 126.26c12.23-1.75 24.65-3.53 36.43-5.22"/>
            <path fill="#999" d="m526.62 117.62 10.4 2.05-9.4 4.88z"/>
        </g>
        <g stroke="#333" class="edge">
            <path fill="none" stroke-dasharray="5,2" d="M851.91 163.67c87.83-.37 248.81 6.8 374.84 56.86 17.69 7.03 35.68 18 50.34 28.14"/>
            <path fill="#333" d="m1278.86 245.63 6.12 8.65-10.18-2.94z"/>
        </g>
        <g stroke="#666" class="edge">
            <path fill="none" stroke-dasharray="5,2" d="M648.39 165.53h61.68"/>
            <path fill="#666" d="m709.87 162.03 10 3.5-10 3.5z"/>
        </g>
        <g class="node">
            <path fill="#add8e6" stroke="#000" d="M1036 193.53H910.5v36H1036z"/>
            <text x="969.25" y="-144.91" font-family="Times New Roman,serif" font-size="14" text-anchor="middle" transform="translate(4 361.49)">:server:domain:shift</text>
        </g>
        <g stroke="#666" class="edge">
            <path fill="none" stroke-dasharray="5,2" d="M648.54 181.4c15.99 4.25 33.7 8.42 50.21 11.13 67.2 11.05 144.71 15.68 200.02 17.62"/>
            <path fill="#666" d="m898.83 206.65 9.88 3.83-10.11 3.17z"/>
        </g>
        <g class="node">
            <path fill="#add8e6" stroke="#000" d="M874.5 93.53H698.75v36H874.5z"/>
            <text x="782.62" y="-244.91" font-family="Times New Roman,serif" font-size="14" text-anchor="middle" transform="translate(4 361.49)">:server:domain:housekeeping</text>
        </g>
        <g stroke="#333" class="edge">
            <path fill="none" stroke-dasharray="5,2" d="M874.91 110.54c92.54 2.45 240.43 16.6 351.84 75.99 26.4 14.08 49.21 39.71 64.15 59.53"/>
            <path fill="#333" d="m1293.64 243.87 3.06 10.14-8.72-6.02z"/>
        </g>
        <g stroke="#333" class="edge">
            <path fill="none" stroke-dasharray="5,2" d="M854.94 129.92c6.74 2.59 13.37 5.46 19.56 8.61 24.97 12.73 50.25 31.81 68.84 47.27"/>
            <path fill="#333" d="m945.38 182.94 5.37 9.14-9.89-3.8z"/>
        </g>
        <g stroke="#666" class="edge">
            <path fill="none" stroke-dasharray="5,2" d="M644.94 255.04c6.08-2.68 12.15-5.54 17.81-8.51 31.56-16.55 65.21-39.11 89.3-56.22"/>
            <path fill="#666" d="m749.71 187.68 10.17-2.98-6.09 8.67z"/>
        </g>
        <g class="node">
            <path fill="#add8e6" stroke="#000" d="M1226.75 255.53H1072v36h154.75z"/>
            <text x="1145.38" y="-82.91" font-family="Times New Roman,serif" font-size="14" text-anchor="middle" transform="translate(4 361.49)">:server:domain:employee</text>
        </g>
        <g stroke="#666" class="edge">
            <path fill="none" stroke-dasharray="5,2" d="M663.24 273.53h396.87"/>
            <path fill="#666" d="m1060.03 270.03 10 3.5-10.01 3.5z"/>
        </g>
        <g class="node">
            <path fill="#add8e6" stroke="#000" d="M465.62 201.53h-122.5v36h122.5z"/>
            <text x="400.38" y="-136.91" font-family="Times New Roman,serif" font-size="14" text-anchor="middle" transform="translate(4 361.49)">:server:service:shift</text>
        </g>
        <g stroke="#ccc" class="edge">
            <path fill="none" stroke-dasharray="5,2" d="M267.72 219.53h63.76"/>
            <path fill="#ccc" d="m331.28 216.03 10 3.5-10 3.5z"/>
        </g>
        <g stroke="#999" class="edge">
            <path fill="none" stroke-dasharray="5,2" d="M466.01 219.53h89.36"/>
            <path fill="#999" d="m555.35 216.03 10 3.5-10 3.5z"/>
        </g>
        <g stroke="#999" class="edge">
            <path fill="none" stroke-dasharray="5,2" d="M465.77 232.92c8.87 3.55 17.52 8.01 24.98 13.61 23.06 17.33 11.08 39.47 36 54 99.65 58.13 143.51 19 258.87 19h188.63c112.54 0 142.1 2.84 252.5-19 8.05-1.59 16.41-3.72 24.59-6.09"/>
            <path fill="#999" d="m1250.29 291.1 10.59.43-8.55 6.26z"/>
        </g>
        <g stroke="#999" class="edge">
            <path fill="none" stroke-dasharray="5,2" d="M466.01 202.15c20.52-5.88 43.47-12.46 64.2-18.4"/>
            <path fill="#999" d="m529.12 180.42 10.57.61-8.64 6.12z"/>
        </g>
        <g stroke="#999" class="edge">
            <path fill="none" stroke-dasharray="5,2" d="M466.01 236.92c16.75 4.8 35.12 10.06 52.58 15.07"/>
            <path fill="#999" d="m519.22 248.53 8.65 6.12-10.58.61z"/>
        </g>
        <g stroke="#333" class="edge">
            <path fill="none" stroke-dasharray="5,2" d="M1036.29 217.03c51.46 5.3 126.31 14.72 190.46 29.5 8.19 1.89 16.73 4.23 25.08 6.74"/>
            <path fill="#333" d="m1252.7 249.88 8.5 6.32-10.59.36z"/>
        </g>
        <g stroke="#333" class="edge">
            <path fill="none" stroke-dasharray="5,2" d="M1026.02 229.97c18.78 6.68 40.19 14.31 59.8 21.29"/>
            <path fill="#333" d="m1086.83 247.9 8.25 6.66-10.6-.06z"/>
        </g>
        <g stroke="#ccc" class="edge">
            <path fill="none" stroke-dasharray="5,2" d="M267.72 156.54c12.55-1.66 25.88-3.43 39.09-5.19"/>
            <path fill="#ccc" d="m305.99 147.93 10.37 2.16-9.45 4.78z"/>
        </g>
        <g stroke="#ccc" class="edge">
            <path fill="none" stroke-dasharray="5,2" d="M267.72 183.52c20.57 5.46 43.23 11.47 64.05 17"/>
            <path fill="#ccc" d="m332.56 197.11 8.77 5.95-10.57.82z"/>
        </g>
        <g stroke="#333" class="edge">
            <path fill="none" stroke-dasharray="5,2" d="M1227.14 273.53h24.13"/>
            <path fill="#333" d="m1251.01 270.03 10 3.5-10 3.5z"/>
        </g>
        <g stroke="#666" class="edge">
            <path fill="none" stroke-dasharray="5,2" d="M651.18 127.3c18.56 5.28 39.58 11.26 59.39 16.89"/>
            <path fill="#666" d="m711.31 140.76 8.66 6.1-10.58.63z"/>
        </g>
        <g stroke="#666" class="edge">
            <path fill="none" stroke-dasharray="5,2" d="M651.18 111.53h35.85"/>
            <path fill="#666" d="m686.81 108.03 10 3.5-10 3.5z"/>
        </g>
        <g stroke="#ccc" class="edge">
            <path fill="none" stroke-dasharray="5,2" d="M282.43 273.53h34.34"/>
            <path fill="#ccc" d="m316.53 270.03 10 3.5-10 3.5z"/>
        </g>
    </g>
</svg>
