<svg xmlns="http://www.w3.org/2000/svg" width="407pt" height="98pt" viewBox="0 0 407 98">
    <g class="graph">
        <path fill="#fff" d="M0 98V0h407v98z"/>
        <g class="node">
            <path fill="#90ee90" stroke="#000" d="M109.25 31H4v36h105.25z"/>
            <text x="52.62" y="-39.95" font-family="Times New Roman,serif" font-size="14" text-anchor="middle" transform="translate(4 94)">:server:data:user</text>
        </g>
        <g class="node">
            <path fill="#add8e6" stroke="#000" d="M270.38 4h-124v36h124z"/>
            <text x="204.38" y="-66.95" font-family="Times New Roman,serif" font-size="14" text-anchor="middle" transform="translate(4 94)">:server:domain:user</text>
        </g>
        <g stroke="#000" class="edge">
            <path fill="none" d="M109.58 39.63c8.16-1.47 16.73-3.01 25.26-4.55"/>
            <path d="m134.03 31.67 10.47 1.67-9.22 5.22z"/>
        </g>
        <g class="node">
            <path fill="#add8e6" stroke="#000" d="M271.5 58H145.25v36H271.5z"/>
            <text x="204.38" y="-12.95" font-family="Times New Roman,serif" font-size="14" text-anchor="middle" transform="translate(4 94)">:server:core:firebase</text>
        </g>
        <g stroke="#000" class="edge">
            <path fill="none" d="M109.58 58.37c7.84 1.41 16.05 2.89 24.24 4.37"/>
            <path d="m134.23 59.26 9.22 5.21-10.46 1.67z"/>
        </g>
        <g class="node">
            <path fill="#add8e6" stroke="#000" d="M403 4h-95.5v36H403z"/>
            <text x="351.25" y="-66.95" font-family="Times New Roman,serif" font-size="14" text-anchor="middle" transform="translate(4 94)">:core:common</text>
        </g>
        <g stroke="#ccc" class="edge">
            <path fill="none" stroke-dasharray="5,2" d="M270.82 22h24.98"/>
            <path fill="#ccc" d="m295.71 18.5 10 3.5-10 3.5z"/>
        </g>
    </g>
</svg>
