<svg xmlns="http://www.w3.org/2000/svg" width="1852" height="494pt" viewBox="0 0 1388.5 494">
    <g class="graph">
        <path fill="#fff" d="M0 494V0h1388.5v494z"/>
        <g class="node">
            <path fill="#90ee90" stroke="#000" d="M80 346H4v36h76z"/>
            <text x="38" y="-120.95" font-family="Times New Roman,serif" font-size="14" text-anchor="middle" transform="translate(4 490)">:server:app</text>
        </g>
        <g class="node">
            <path fill="#add8e6" stroke="#000" d="M270 254H128v36h142z"/>
            <text x="195" y="-212.95" font-family="Times New Roman,serif" font-size="14" text-anchor="middle" transform="translate(4 490)">:server:controller:room</text>
        </g>
        <g stroke="#000" class="edge">
            <path fill="none" d="M61.88 345.63C75.92 332.71 96.04 315.69 116 304c5.49-3.22 11.36-6.23 17.35-9.03"/>
            <path d="m131.54 291.94 10.56-.85-7.72 7.25z"/>
        </g>
        <g class="node">
            <path fill="#add8e6" stroke="#000" d="M1061.88 262h-130v36h130z"/>
            <text x="992.88" y="-204.95" font-family="Times New Roman,serif" font-size="14" text-anchor="middle" transform="translate(4 490)">:server:core:database</text>
        </g>
        <g stroke="#000" class="edge">
            <path fill="none" d="M80.27 347.86c11.28-4.23 23.84-8.32 35.73-10.86 125.19-26.7 159.37-19 287.38-19h202.87c109.64 0 235.81-15.09 314.15-26.25"/>
            <path d="m919.71 288.31 10.39 2.04-9.39 4.89z"/>
        </g>
        <g class="node">
            <path fill="#add8e6" stroke="#000" d="M267.38 400H130.62v36h136.76z"/>
            <text x="195" y="-66.95" font-family="Times New Roman,serif" font-size="14" text-anchor="middle" transform="translate(4 490)">:server:controller:shift</text>
        </g>
        <g stroke="#000" class="edge">
            <path fill="none" d="M80.42 378.14c11.39 4.22 23.97 8.8 35.58 12.86 4.66 1.63 9.48 3.29 14.34 4.94"/>
            <path d="m131.21 392.54 8.36 6.51-10.59.12z"/>
        </g>
        <g class="node">
            <path fill="#add8e6" stroke="#000" d="M267.38 346H130.62v36h136.76z"/>
            <text x="195" y="-120.95" font-family="Times New Roman,serif" font-size="14" text-anchor="middle" transform="translate(4 490)">:server:controller:cron</text>
        </g>
        <g stroke="#000" class="edge">
            <path fill="none" d="M80.13 364h38.77"/>
            <path d="m118.73 360.5 10 3.5-10 3.5z"/>
        </g>
        <g class="node">
            <path fill="#add8e6" stroke="#000" d="M282 454H116v36h166z"/>
            <text x="195" y="-12.95" font-family="Times New Roman,serif" font-size="14" text-anchor="middle" transform="translate(4 490)">:server:controller:employee</text>
        </g>
        <g stroke="#000" class="edge">
            <path fill="none" d="M55.15 382.31C68.18 400.61 90.47 428.36 116 445q2.76 1.8 5.67 3.45"/>
            <path d="m123.03 445.21 7.31 7.67-10.5-1.44z"/>
        </g>
        <g class="node">
            <path fill="#add8e6" stroke="#000" d="M480.25 454H328.5v36h151.75z"/>
            <text x="400.38" y="-12.95" font-family="Times New Roman,serif" font-size="14" text-anchor="middle" transform="translate(4 490)">:server:service:employee</text>
        </g>
        <g class="node">
            <path fill="#add8e6" stroke="#000" d="M632.75 384h-55v36h55z"/>
            <text x="601.25" y="-82.95" font-family="Times New Roman,serif" font-size="14" text-anchor="middle" transform="translate(4 490)">:shared</text>
        </g>
        <g stroke="#999" class="edge">
            <path fill="none" stroke-dasharray="5,2" d="M457.89 453.52c34.23-12.05 78.09-27.49 108.84-38.31"/>
            <path fill="#999" d="m565.39 411.97 10.6-.02-8.27 6.62z"/>
        </g>
        <g class="node">
            <path fill="#add8e6" stroke="#000" d="M1384.5 239H1289v36h95.5z"/>
            <text x="1332.75" y="-227.95" font-family="Times New Roman,serif" font-size="14" text-anchor="middle" transform="translate(4 490)">:core:common</text>
        </g>
        <g stroke="#999" class="edge">
            <path fill="none" stroke-dasharray="5,2" d="M480.41 476.18C561 480.31 692.83 486 806.62 486h191.26c142.26 0 269.18-140.83 317.34-201.61"/>
            <path fill="#999" d="m1312.42 282.28 8.91-5.73-3.39 10.04z"/>
        </g>
        <g class="node">
            <path fill="#add8e6" stroke="#000" d="M875.62 216h-136v36h136z"/>
            <text x="803.62" y="-250.95" font-family="Times New Roman,serif" font-size="14" text-anchor="middle" transform="translate(4 490)">:server:data:employee</text>
        </g>
        <g stroke="#999" class="edge">
            <path fill="none" stroke-dasharray="5,2" d="M480.66 467.37c70.76-5.58 170.54-17 203.09-38.37 60.95-40.01 97.39-121.86 113.33-165.71"/>
            <path fill="#999" d="m793.75 262.2 6.61-8.28-.01 10.6z"/>
        </g>
        <g class="node">
            <path fill="#add8e6" stroke="#000" d="M683.75 200h-157v36h157z"/>
            <text x="601.25" y="-266.95" font-family="Times New Roman,serif" font-size="14" text-anchor="middle" transform="translate(4 490)">:server:data:housekeeping</text>
        </g>
        <g class="node">
            <path fill="#add8e6" stroke="#000" d="M895.5 32H719.75v36H895.5z"/>
            <text x="803.62" y="-434.95" font-family="Times New Roman,serif" font-size="14" text-anchor="middle" transform="translate(4 490)">:server:domain:housekeeping</text>
        </g>
        <g stroke="#666" class="edge">
            <path fill="none" stroke-dasharray="5,2" d="M616.23 199.51c17.17-30.1 55.19-89.64 103.52-122.51 1.62-1.1 3.28-2.15 4.98-3.17"/>
            <path fill="#666" d="m723.03 70.77 10.47-1.6-7.19 7.78z"/>
        </g>
        <g stroke="#666" class="edge">
            <path fill="none" stroke-dasharray="5,2" d="M684.07 200.73c59.41-9.81 142.49-16.15 211.43 6.27 28.48 9.26 55.62 29.98 74.48 46.99"/>
            <path fill="#666" d="m972.26 251.33 4.93 9.37-9.7-4.25z"/>
        </g>
        <g stroke="#666" class="edge">
            <path fill="none" stroke-dasharray="5,2" d="M684.01 224.21c14.41 1.15 29.47 2.35 43.91 3.51"/>
            <path fill="#666" d="m728.14 224.22 9.69 4.29-10.25 2.69z"/>
        </g>
        <g stroke="#333" class="edge">
            <path fill="none" stroke-dasharray="5,2" d="M895.86 44.95C992.35 43.84 1148.03 55.83 1253 133c33.5 24.63 57.55 67.19 70.81 95.47"/>
            <path fill="#333" d="m1326.97 226.97.93 10.55-7.31-7.67z"/>
        </g>
        <g class="node">
            <path fill="#add8e6" stroke="#000" d="M1059.62 140h-125.5v36h125.5z"/>
            <text x="992.88" y="-326.95" font-family="Times New Roman,serif" font-size="14" text-anchor="middle" transform="translate(4 490)">:server:domain:shift</text>
        </g>
        <g stroke="#333" class="edge">
            <path fill="none" stroke-dasharray="5,2" d="M881.61 68.44c4.9 2.51 9.59 5.34 13.89 8.56 23.1 17.27 13.75 35.64 36 54a75 75 0 0 0 2.95 2.31"/>
            <path fill="#333" d="m936.29 130.34 6.48 8.38-10.3-2.52z"/>
        </g>
        <g class="node">
            <path fill="#add8e6" stroke="#000" d="M1062.25 86H931.5v36h130.75z"/>
            <text x="992.88" y="-380.95" font-family="Times New Roman,serif" font-size="14" text-anchor="middle" transform="translate(4 490)">:server:domain:room</text>
        </g>
        <g stroke="#333" class="edge">
            <path fill="none" stroke-dasharray="5,2" d="M872.54 68.43c15.58 4.5 32.39 9.34 48.43 13.97"/>
            <path fill="#333" d="m921.84 79.01 8.63 6.13-10.57.59z"/>
        </g>
        <g class="node">
            <path fill="#add8e6" stroke="#000" d="M490.75 254H318v36h172.75z"/>
            <text x="400.38" y="-212.95" font-family="Times New Roman,serif" font-size="14" text-anchor="middle" transform="translate(4 490)">:server:service:housekeeping</text>
        </g>
        <g stroke="#ccc" class="edge">
            <path fill="none" stroke-dasharray="5,2" d="M270.27 272h36.21"/>
            <path fill="#ccc" d="m306.14 268.5 10 3.5-10 3.5z"/>
        </g>
        <g stroke="#999" class="edge">
            <path fill="none" stroke-dasharray="5,2" d="M433.45 290.35c35.23 23.03 95.74 62.59 134.48 87.91"/>
            <path fill="#999" d="m569.55 375.14 6.46 8.4-10.29-2.54z"/>
        </g>
        <g stroke="#999" class="edge">
            <path fill="none" stroke-dasharray="5,2" d="M473.26 253.57c16.87-4.58 35.08-9.53 52.42-14.24"/>
            <path fill="#999" d="m524.3 236.08 10.57.76-8.73 6z"/>
        </g>
        <g stroke="#999" class="edge">
            <path fill="none" stroke-dasharray="5,2" d="M419.1 253.58C465.92 193.03 626.52 4 806.62 4h191.26c119.1 0 165.23 3.87 255.12 82 43.54 37.84 66.21 103.8 76.21 141.79"/>
            <path fill="#999" d="m1332.52 226.6-.98 10.55-5.81-8.86z"/>
        </g>
        <g class="node">
            <path fill="#add8e6" stroke="#000" d="M658.62 254H551.88v36h106.74z"/>
            <text x="601.25" y="-212.95" font-family="Times New Roman,serif" font-size="14" text-anchor="middle" transform="translate(4 490)">:server:data:shift</text>
        </g>
        <g stroke="#999" class="edge">
            <path fill="none" stroke-dasharray="5,2" d="M491.16 272h49.16"/>
            <path fill="#999" d="m539.94 268.5 10 3.5-10 3.5z"/>
        </g>
        <g class="node">
            <path fill="#add8e6" stroke="#000" d="M863.62 86h-112v36h112z"/>
            <text x="803.62" y="-380.95" font-family="Times New Roman,serif" font-size="14" text-anchor="middle" transform="translate(4 490)">:server:data:room</text>
        </g>
        <g stroke="#999" class="edge">
            <path fill="none" stroke-dasharray="5,2" d="M428.34 253.73c23.56-18.01 61.82-45.28 98.41-62.73 69.9-33.33 155.6-57.78 213.62-72.13"/>
            <path fill="#999" d="m739.21 115.55 10.55 1.03-8.89 5.77z"/>
        </g>
        <g stroke="#333" class="edge">
            <path fill="none" stroke-dasharray="5,2" d="M1062.22 275.62c62.06-4.22 155.16-10.56 215.13-14.64"/>
            <path fill="#333" d="m1276.79 257.51 10.22 2.81-9.74 4.17z"/>
        </g>
        <g stroke="#666" class="edge">
            <path fill="none" stroke-dasharray="5,2" d="M658.8 273.08c67.41 1.38 184.79 3.79 261.71 5.37"/>
            <path fill="#666" d="m920.12 274.94 9.93 3.71-10.07 3.29z"/>
        </g>
        <g stroke="#666" class="edge">
            <path fill="none" stroke-dasharray="5,2" d="M658.9 262.02c21.12-4.01 45.92-8.71 69.1-13.11"/>
            <path fill="#666" d="m727.26 245.49 10.48 1.57-9.18 5.31z"/>
        </g>
        <g stroke="#666" class="edge">
            <path fill="none" stroke-dasharray="5,2" d="M658.72 257.57c8.7-3.46 17.37-7.62 25.03-12.57 19.54-12.63 15.52-26.97 36-38 62.99-33.93 144.65-45.05 202.79-48.37"/>
            <path fill="#666" d="m922.17 155.15 10.16 2.99-9.81 4z"/>
        </g>
        <g stroke="#666" class="edge">
            <path fill="none" stroke-dasharray="5,2" d="M875.96 250.54c14.46 3.55 29.82 7.33 44.56 10.95"/>
            <path fill="#666" d="m921.29 258.07 8.88 5.79-10.55 1.01z"/>
        </g>
        <g class="node">
            <path fill="#add8e6" stroke="#000" d="M1253 216h-154.75v36H1253z"/>
            <text x="1171.62" y="-250.95" font-family="Times New Roman,serif" font-size="14" text-anchor="middle" transform="translate(4 490)">:server:domain:employee</text>
        </g>
        <g stroke="#666" class="edge">
            <path fill="none" stroke-dasharray="5,2" d="M875.76 234h210.61"/>
            <path fill="#666" d="m1086.27 230.5 10 3.5-10 3.5z"/>
        </g>
        <g class="node">
            <path fill="#add8e6" stroke="#000" d="M465.62 346h-122.5v36h122.5z"/>
            <text x="400.38" y="-120.95" font-family="Times New Roman,serif" font-size="14" text-anchor="middle" transform="translate(4 490)">:server:service:shift</text>
        </g>
        <g stroke="#ccc" class="edge">
            <path fill="none" stroke-dasharray="5,2" d="M267.72 400.02c20.57-5.46 43.23-11.48 64.05-17.01"/>
            <path fill="#ccc" d="m330.76 379.66 10.57.81-8.77 5.95z"/>
        </g>
        <g stroke="#999" class="edge">
            <path fill="none" stroke-dasharray="5,2" d="M466.12 375.61c32.63 6.23 71.85 13.73 100.14 19.13"/>
            <path fill="#999" d="m566.64 391.25 9.16 5.31-10.48 1.57z"/>
        </g>
        <g stroke="#999" class="edge">
            <path fill="none" stroke-dasharray="5,2" d="M465.87 362.04c78.54-2.37 219.87-6.04 340.75-6.04h191.26c107.4 0 226.55-46.64 290.71-75.9"/>
            <path fill="#999" d="m1286.87 277.04 10.54-1.02-7.6 7.38z"/>
        </g>
        <g stroke="#999" class="edge">
            <path fill="none" stroke-dasharray="5,2" d="M445.14 345.6c31.44-14.54 75.5-34.92 109.28-50.55"/>
            <path fill="#999" d="m552.63 292.02 10.55-1.02-7.61 7.38z"/>
        </g>
        <g stroke="#333" class="edge">
            <path fill="none" stroke-dasharray="5,2" d="M1059.86 163.71c52.74 6.3 129.77 18.96 193.14 43.29 16.68 6.4 33.79 16.13 48.1 25.3"/>
            <path fill="#333" d="m1302.83 229.25 6.42 8.43-10.28-2.59z"/>
        </g>
        <g stroke="#333" class="edge">
            <path fill="none" stroke-dasharray="5,2" d="M1040.66 176.4c24.25 10.42 54.79 23.56 80.6 34.65"/>
            <path fill="#333" d="m1122.43 207.75 7.8 7.16-10.57-.73z"/>
        </g>
        <g stroke="#ccc" class="edge">
            <path fill="none" stroke-dasharray="5,2" d="M240.67 345.6c32.14-14.54 77.2-34.92 111.75-50.55"/>
            <path fill="#ccc" d="m350.85 291.92 10.55-.93-7.67 7.31z"/>
        </g>
        <g stroke="#ccc" class="edge">
            <path fill="none" stroke-dasharray="5,2" d="M267.72 364h63.76"/>
            <path fill="#ccc" d="m331.28 360.5 10 3.5-10 3.5z"/>
        </g>
        <g stroke="#333" class="edge">
            <path fill="none" stroke-dasharray="5,2" d="M1062.52 112.28c53.85 9.04 131.04 27.11 190.48 61.72 24.52 14.28 46.88 37.63 62.16 55.93"/>
            <path fill="#333" d="m1317.74 227.56 3.58 9.97-9.02-5.56z"/>
        </g>
        <g stroke="#333" class="edge">
            <path fill="none" stroke-dasharray="5,2" d="M1253.39 245.1c8.12 1.17 16.27 2.35 24.13 3.48"/>
            <path fill="#333" d="m1277.88 245.1 9.4 4.89-10.4 2.04z"/>
        </g>
        <g stroke="#666" class="edge">
            <path fill="none" stroke-dasharray="5,2" d="M833.32 122.47c17.8 13.65 42.11 33.01 62.18 51.53 27.66 25.53 57.01 57.12 76.78 79.14"/>
            <path fill="#666" d="m974.83 250.74 4.04 9.79-9.27-5.13z"/>
        </g>
        <g stroke="#666" class="edge">
            <path fill="none" stroke-dasharray="5,2" d="M864.05 104h55.55"/>
            <path fill="#666" d="m919.52 100.5 10 3.5-10 3.5z"/>
        </g>
        <g stroke="#ccc" class="edge">
            <path fill="none" stroke-dasharray="5,2" d="M282.43 472h34.34"/>
            <path fill="#ccc" d="m316.53 468.5 10 3.5-10 3.5z"/>
        </g>
    </g>
</svg>
