<svg xmlns="http://www.w3.org/2000/svg" width="1628" height="278pt" viewBox="0 0 1221 277.5">
    <g class="graph">
        <path fill="#fff" d="M0 277.5V0h1221v277.5z"/>
        <g class="node">
            <path fill="#90ee90" stroke="#000" d="M140.75 117.62H4v36h136.75z"/>
            <text x="68.38" y="-132.83" font-family="Times New Roman,serif" font-size="14" text-anchor="middle" transform="translate(4 273.5)">:server:controller:cron</text>
        </g>
        <g class="node">
            <path fill="#add8e6" stroke="#000" d="M349.5 90.62H176.75v36H349.5z"/>
            <text x="259.12" y="-159.83" font-family="Times New Roman,serif" font-size="14" text-anchor="middle" transform="translate(4 273.5)">:server:service:housekeeping</text>
        </g>
        <g stroke="#000" class="edge">
            <path fill="none" d="M140.98 125.95c7.93-1.14 16.13-2.31 24.36-3.49"/>
            <path d="m164.66 119.02 10.39 2.05-9.4 4.88z"/>
        </g>
        <g class="node">
            <path fill="#add8e6" stroke="#000" d="M324.38 144.62h-122.5v36h122.5z"/>
            <text x="259.12" y="-105.83" font-family="Times New Roman,serif" font-size="14" text-anchor="middle" transform="translate(4 273.5)">:server:service:shift</text>
        </g>
        <g stroke="#000" class="edge">
            <path fill="none" d="M140.98 145.29c16.08 2.3 33.28 4.76 49.52 7.08"/>
            <path d="m190.67 148.86 9.4 4.88-10.39 2.05z"/>
        </g>
        <g class="node">
            <path fill="#add8e6" stroke="#000" d="M1217 106.62h-95.5v36h95.5z"/>
            <text x="1165.25" y="-143.83" font-family="Times New Roman,serif" font-size="14" text-anchor="middle" transform="translate(4 273.5)">:core:common</text>
        </g>
        <g stroke="#ccc" class="edge">
            <path fill="none" stroke-dasharray="5,2" d="M284.25 90.34c22.72-19.42 61.72-49.14 101.25-62.72 109.11-37.48 143.51-19 258.88-19H833c111.72 0 233.45 58.24 294.9 92.19"/>
            <path fill="#ccc" d="m1129.26 97.56 7.01 7.94-10.44-1.84z"/>
        </g>
        <g class="node">
            <path fill="#add8e6" stroke="#000" d="M506.88 144.62H400.12v36h106.76z"/>
            <text x="449.5" y="-105.83" font-family="Times New Roman,serif" font-size="14" text-anchor="middle" transform="translate(4 273.5)">:server:data:shift</text>
        </g>
        <g stroke="#ccc" class="edge">
            <path fill="none" stroke-dasharray="5,2" d="M328.43 127.05c19.51 5.59 40.93 11.74 60.41 17.32"/>
            <path fill="#ccc" d="m389.63 140.95 8.65 6.12-10.58.61z"/>
        </g>
        <g class="node">
            <path fill="#add8e6" stroke="#000" d="M481 90.62h-55v36h55z"/>
            <text x="449.5" y="-159.83" font-family="Times New Roman,serif" font-size="14" text-anchor="middle" transform="translate(4 273.5)">:shared</text>
        </g>
        <g stroke="#ccc" class="edge">
            <path fill="none" stroke-dasharray="5,2" d="M349.77 108.62h64.5"/>
            <path fill="#ccc" d="m414.01 105.12 10 3.5-10 3.5z"/>
        </g>
        <g class="node">
            <path fill="#add8e6" stroke="#000" d="M509.5 36.62h-112v36h112z"/>
            <text x="449.5" y="-213.83" font-family="Times New Roman,serif" font-size="14" text-anchor="middle" transform="translate(4 273.5)">:server:data:room</text>
        </g>
        <g stroke="#ccc" class="edge">
            <path fill="none" stroke-dasharray="5,2" d="M328.43 90.18c18.71-5.36 39.17-11.23 57.99-16.62"/>
            <path fill="#ccc" d="m385.25 70.25 10.58.61-8.65 6.12z"/>
        </g>
        <g class="node">
            <path fill="#add8e6" stroke="#000" d="M894.75 152.62h-125.5v36h125.5z"/>
            <text x="828" y="-97.83" font-family="Times New Roman,serif" font-size="14" text-anchor="middle" transform="translate(4 273.5)">:server:domain:shift</text>
        </g>
        <g stroke="#666" class="edge">
            <path fill="none" stroke-dasharray="5,2" d="M895.1 163.48c51.17-6.06 125.6-15.28 190.4-24.86 7.84-1.16 16.08-2.46 24.2-3.79"/>
            <path fill="#666" d="m1109.11 131.38 10.44 1.82-9.29 5.09z"/>
        </g>
        <g class="node">
            <path fill="#add8e6" stroke="#000" d="M1085.5 196.62H930.75v36h154.75z"/>
            <text x="1004.12" y="-53.83" font-family="Times New Roman,serif" font-size="14" text-anchor="middle" transform="translate(4 273.5)">:server:domain:employee</text>
        </g>
        <g stroke="#666" class="edge">
            <path fill="none" stroke-dasharray="5,2" d="M894.88 186.25c9.13 2.31 18.67 4.72 28.16 7.12"/>
            <path fill="#666" d="m923.83 189.96 8.84 5.84-10.55.95z"/>
        </g>
        <g stroke="#333" class="edge">
            <path fill="none" stroke-dasharray="5,2" d="M1054.19 196.13c10.46-4.71 21.41-10.02 31.31-15.51 16.67-9.26 34.28-20.89 48.95-31.15"/>
            <path fill="#333" d="m1132.21 146.77 10.18-2.93-6.13 8.64z"/>
        </g>
        <g stroke="#ccc" class="edge">
            <path fill="none" stroke-dasharray="5,2" d="M284.25 180.9c22.72 19.41 61.72 49.14 101.25 62.72 109.11 37.48 143.51 19 258.88 19H833c112.61 0 154.72 34.86 252.5-21 34.52-19.72 58.18-60.41 71.1-88.2"/>
            <path fill="#ccc" d="m1153.3 152.21 7.26-7.72-.86 10.56z"/>
        </g>
        <g class="node">
            <path fill="#add8e6" stroke="#000" d="M521.5 198.62h-136v36h136z"/>
            <text x="449.5" y="-51.83" font-family="Times New Roman,serif" font-size="14" text-anchor="middle" transform="translate(4 273.5)">:server:data:employee</text>
        </g>
        <g stroke="#ccc" class="edge">
            <path fill="none" stroke-dasharray="5,2" d="M324.76 180c16.75 4.8 35.12 10.07 52.58 15.07"/>
            <path fill="#ccc" d="m377.97 191.61 8.65 6.12-10.58.61z"/>
        </g>
        <g stroke="#ccc" class="edge">
            <path fill="none" stroke-dasharray="5,2" d="M324.76 162.62h63.63"/>
            <path fill="#ccc" d="m388.39 159.12 10 3.5-10 3.5z"/>
        </g>
        <g stroke="#ccc" class="edge">
            <path fill="none" stroke-dasharray="5,2" d="M324.76 145.23c29.61-8.48 64.3-18.43 90.06-25.81"/>
            <path fill="#ccc" d="m413.58 116.13 10.58.61-8.65 6.12z"/>
        </g>
        <g stroke="#999" class="edge">
            <path fill="none" stroke-dasharray="5,2" d="M521.99 216.37c99.69-.36 286.42-1.03 396.87-1.43"/>
            <path fill="#999" d="m918.76 211.44 10.02 3.46-9.99 3.54z"/>
        </g>
        <g class="node">
            <path fill="#add8e6" stroke="#000" d="M710.38 106.62h-130v36h130z"/>
            <text x="641.38" y="-143.83" font-family="Times New Roman,serif" font-size="14" text-anchor="middle" transform="translate(4 273.5)">:server:core:database</text>
        </g>
        <g stroke="#999" class="edge">
            <path fill="none" stroke-dasharray="5,2" d="M501.98 198.19c6.6-2.76 13.26-5.67 19.52-8.57 27.17-12.62 56.88-28.29 80.28-41.07"/>
            <path fill="#999" d="m599.95 145.56 10.45-1.76-7.08 7.89z"/>
        </g>
        <g stroke="#999" class="edge">
            <path fill="none" stroke-dasharray="5,2" d="M507.25 163.74c65.22 1.38 176.59 3.75 250.19 5.31"/>
            <path fill="#999" d="m757.47 165.55 9.93 3.72-10.07 3.28z"/>
        </g>
        <g class="node">
            <path fill="#add8e6" stroke="#000" d="M733.25 52.62H557.5v36h175.75z"/>
            <text x="641.38" y="-197.83" font-family="Times New Roman,serif" font-size="14" text-anchor="middle" transform="translate(4 273.5)">:server:domain:housekeeping</text>
        </g>
        <g stroke="#999" class="edge">
            <path fill="none" stroke-dasharray="5,2" d="M506.86 144.13c5.11-2.57 10.08-5.41 14.64-8.51 19.23-13.1 16.25-25.71 36-38 1.99-1.24 4.04-2.43 6.14-3.56"/>
            <path fill="#999" d="m561.88 91.02 10.52-1.25-7.45 7.54z"/>
        </g>
        <g stroke="#999" class="edge">
            <path fill="none" stroke-dasharray="5,2" d="M507.14 152.08c19.16-3.83 41.22-8.25 61.96-12.4"/>
            <path fill="#999" d="m568.16 136.3 10.49 1.47-9.12 5.39z"/>
        </g>
        <g stroke="#666" class="edge">
            <path fill="none" stroke-dasharray="5,2" d="M733.66 76.58c88.77 6.54 230.19 18.23 351.84 34.04 7.86 1.02 16.11 2.24 24.23 3.52"/>
            <path fill="#666" d="m1110.28 110.69 9.31 5.06-10.43 1.85z"/>
        </g>
        <g stroke="#666" class="edge">
            <path fill="none" stroke-dasharray="5,2" d="M713.69 89.01c6.74 2.58 13.37 5.45 19.56 8.61 24.97 12.73 50.25 31.8 68.84 47.26"/>
            <path fill="#666" d="m804.13 142.03 5.37 9.13-9.89-3.79z"/>
        </g>
        <g stroke="#666" class="edge">
            <path fill="none" stroke-dasharray="5,2" d="M710.63 124.62h399.3"/>
            <path fill="#666" d="m1109.63 121.12 10 3.5-10 3.5z"/>
        </g>
        <g stroke="#999" class="edge">
            <path fill="none" stroke-dasharray="5,2" d="M509.93 59.29c11.31.95 23.54 1.98 35.85 3.02"/>
            <path fill="#999" d="m545.9 58.81 9.67 4.32-10.26 2.65z"/>
        </g>
        <g stroke="#999" class="edge">
            <path fill="none" stroke-dasharray="5,2" d="M500.72 73c6.98 2.84 14.08 5.78 20.78 8.62 16.12 6.83 19.61 9.83 36 16 4.41 1.66 8.97 3.29 13.58 4.89"/>
            <path fill="#999" d="m572.12 99.17 8.35 6.52-10.59.11z"/>
        </g>
    </g>
</svg>
