<svg xmlns="http://www.w3.org/2000/svg" width="1068" height="173pt" viewBox="0 0 801.25 172.7">
    <g class="graph">
        <path fill="#fff" d="M0 172.7V0h801.25v172.7z"/>
        <g class="node">
            <path fill="#90ee90" stroke="#000" d="M80 60.29H4v36h76z"/>
            <text x="38" y="-85.36" font-family="Times New Roman,serif" font-size="14" text-anchor="middle" transform="translate(4 168.7)">:server:app</text>
        </g>
        <g class="node">
            <path fill="#add8e6" stroke="#000" d="M282 14.29H116v36h166z"/>
            <text x="195" y="-131.36" font-family="Times New Roman,serif" font-size="14" text-anchor="middle" transform="translate(4 168.7)">:server:controller:employee</text>
        </g>
        <g stroke="#000" class="edge">
            <path fill="none" d="M80.13 67.28c13.53-4.02 29.35-8.71 44.91-13.33"/>
            <path d="m123.72 50.69 10.58.51-8.59 6.2z"/>
        </g>
        <g class="node">
            <path fill="#add8e6" stroke="#000" d="M642.88 60.29h-130v36h130z"/>
            <text x="573.88" y="-85.36" font-family="Times New Roman,serif" font-size="14" text-anchor="middle" transform="translate(4 168.7)">:server:core:database</text>
        </g>
        <g stroke="#000" class="edge">
            <path fill="none" d="M80.12 78.29h421.39"/>
            <path d="m501.25 74.79 10 3.5-10 3.5z"/>
        </g>
        <g class="node">
            <path fill="#add8e6" stroke="#000" d="M270 106.29H128v36h142z"/>
            <text x="195" y="-39.36" font-family="Times New Roman,serif" font-size="14" text-anchor="middle" transform="translate(4 168.7)">:server:controller:room</text>
        </g>
        <g stroke="#000" class="edge">
            <path fill="none" d="M80.13 89.31c13.53 4.02 29.35 8.71 44.91 13.33"/>
            <path d="m125.71 99.19 8.59 6.2-10.58.51z"/>
        </g>
        <g class="node">
            <path fill="#add8e6" stroke="#000" d="M454 14.29H318v36h136z"/>
            <text x="382" y="-131.36" font-family="Times New Roman,serif" font-size="14" text-anchor="middle" transform="translate(4 168.7)">:server:data:employee</text>
        </g>
        <g stroke="#ccc" class="edge">
            <path fill="none" stroke-dasharray="5,2" d="M282.49 32.29h23.76"/>
            <path fill="#ccc" d="m306.13 28.79 10 3.5-10 3.5z"/>
        </g>
        <g stroke="#999" class="edge">
            <path fill="none" stroke-dasharray="5,2" d="M454.48 48.64c15.18 3.68 31.39 7.61 46.87 11.36"/>
            <path fill="#999" d="m502.11 56.58 8.9 5.76-10.55 1.04z"/>
        </g>
        <g class="node">
            <path fill="#add8e6" stroke="#000" d="M797.25 114.29h-95.5v36h95.5z"/>
            <text x="745.5" y="-31.36" font-family="Times New Roman,serif" font-size="14" text-anchor="middle" transform="translate(4 168.7)">:core:common</text>
        </g>
        <g stroke="#999" class="edge">
            <path fill="none" stroke-dasharray="5,2" d="M454.18 30.19c70.84-1.06 176.9 1 211.57 21.1 24.95 14.47 14.96 34.27 36 54q.93.87 1.89 1.71"/>
            <path fill="#999" d="m705.58 104.08 5.78 8.88-10.05-3.33z"/>
        </g>
        <g class="node">
            <path fill="#add8e6" stroke="#000" d="M777 60.29h-55v36h55z"/>
            <text x="745.5" y="-85.36" font-family="Times New Roman,serif" font-size="14" text-anchor="middle" transform="translate(4 168.7)">:shared</text>
        </g>
        <g stroke="#999" class="edge">
            <path fill="none" stroke-dasharray="5,2" d="M454.38 15.71c57.58-11.09 141.89-19.95 211.37 2.58 21.02 6.82 41.18 21.21 56.33 34.19"/>
            <path fill="#999" d="m724.13 49.61 5.14 9.27-9.8-4.04z"/>
        </g>
        <g stroke="#666" class="edge">
            <path fill="none" stroke-dasharray="5,2" d="M638.73 96.78c9.06 2.83 18.29 5.73 27.02 8.51 8.01 2.56 16.45 5.27 24.74 7.96"/>
            <path fill="#666" d="m691.41 109.87 8.43 6.42-10.6.24z"/>
        </g>
        <g stroke="#666" class="edge">
            <path fill="none" stroke-dasharray="5,2" d="M643 78.29h67.19"/>
            <path fill="#666" d="m710.03 74.79 10 3.5-10 3.5z"/>
        </g>
        <g class="node">
            <path fill="#add8e6" stroke="#000" d="M442 106.29H330v36h112z"/>
            <text x="382" y="-39.36" font-family="Times New Roman,serif" font-size="14" text-anchor="middle" transform="translate(4 168.7)">:server:data:room</text>
        </g>
        <g stroke="#ccc" class="edge">
            <path fill="none" stroke-dasharray="5,2" d="M270.47 124.29h48.07"/>
            <path fill="#ccc" d="m318.17 120.79 10 3.5-10 3.5z"/>
        </g>
        <g stroke="#999" class="edge">
            <path fill="none" stroke-dasharray="5,2" d="m442.43 110.87 59.11-14.33"/>
            <path fill="#999" d="m500.66 93.16 10.54 1.04-8.89 5.76z"/>
        </g>
        <g class="node">
            <path fill="#add8e6" stroke="#000" d="M665.75 114.29H490v36h175.75z"/>
            <text x="573.88" y="-31.36" font-family="Times New Roman,serif" font-size="14" text-anchor="middle" transform="translate(4 168.7)">:server:domain:housekeeping</text>
        </g>
        <g stroke="#999" class="edge">
            <path fill="none" stroke-dasharray="5,2" d="M442.43 126.63c11.31.48 23.54.99 35.85 1.51"/>
            <path fill="#999" d="m478.22 124.63 9.85 3.92-10.14 3.08z"/>
        </g>
        <g stroke="#999" class="edge">
            <path fill="none" stroke-dasharray="5,2" d="M430.8 142.71c18 6.63 39.26 13.29 59.2 16.58 77.07 12.74 98.61 12.27 175.75 0 8.11-1.28 16.5-3.24 24.69-5.53"/>
            <path fill="#999" d="m689.4 150.42 10.59.49-8.58 6.22z"/>
        </g>
        <g stroke="#666" class="edge">
            <path fill="none" stroke-dasharray="5,2" d="M666.17 132.29h23.87"/>
            <path fill="#666" d="m689.98 128.79 10 3.5-10 3.5z"/>
        </g>
        <g stroke="#666" class="edge">
            <path fill="none" stroke-dasharray="5,2" d="M638.73 113.81c9.06-2.83 18.29-5.74 27.02-8.52 14.77-4.7 30.99-9.97 45.13-14.6"/>
            <path fill="#666" d="m709.67 87.41 10.59.21-8.41 6.44z"/>
        </g>
    </g>
</svg>
