<svg xmlns="http://www.w3.org/2000/svg" width="439pt" height="136pt" viewBox="0 0 439.25 136">
    <g class="graph">
        <path fill="#fff" d="M0 136V0h439.25v136z"/>
        <g class="node">
            <path fill="#90ee90" stroke="#000" d="M149.75 50H4v36h145.75z"/>
            <text x="72.88" y="-58.95" font-family="Times New Roman,serif" font-size="14" text-anchor="middle" transform="translate(4 132)">:domain:imageAnalysis</text>
        </g>
        <g class="node">
            <path fill="#add8e6" stroke="#000" d="M303.75 4h-118v36h118z"/>
            <text x="240.75" y="-104.95" font-family="Times New Roman,serif" font-size="14" text-anchor="middle" transform="translate(4 132)">:domain:employee</text>
        </g>
        <g stroke="#000" class="edge">
            <path fill="none" d="M144.39 49.56c9.82-2.73 19.96-5.54 29.85-8.28"/>
            <path d="m173.22 37.93 10.57.7-8.7 6.04z"/>
        </g>
        <g class="node">
            <path fill="#add8e6" stroke="#000" d="M435.25 50h-95.5v36h95.5z"/>
            <text x="383.5" y="-58.95" font-family="Times New Roman,serif" font-size="14" text-anchor="middle" transform="translate(4 132)">:core:common</text>
        </g>
        <g stroke="#000" class="edge">
            <path fill="none" d="M150.23 68h177.94"/>
            <path d="m328.02 64.5 10 3.5-10 3.5z"/>
        </g>
        <g class="node">
            <path fill="#add8e6" stroke="#000" d="M291.75 96h-94v36h94z"/>
            <text x="240.75" y="-12.95" font-family="Times New Roman,serif" font-size="14" text-anchor="middle" transform="translate(4 132)">:domain:room</text>
        </g>
        <g stroke="#000" class="edge">
            <path fill="none" d="M144.39 86.44c14.08 3.91 28.82 8 42.5 11.79"/>
            <path d="m187.45 94.76 8.7 6.04-10.57.7z"/>
        </g>
        <g stroke="#ccc" class="edge">
            <path fill="none" stroke-dasharray="5,2" d="M302.19 40.44c8.71 2.85 17.72 5.8 26.46 8.65"/>
            <path fill="#ccc" d="m329.68 45.75 8.42 6.43-10.59.22z"/>
        </g>
        <g stroke="#ccc" class="edge">
            <path fill="none" stroke-dasharray="5,2" d="M292.23 98.81c11.76-3.85 24.54-8.02 36.78-12.02"/>
            <path fill="#ccc" d="m327.56 83.58 10.59.22-8.42 6.43z"/>
        </g>
    </g>
</svg>
