<svg xmlns="http://www.w3.org/2000/svg" width="1876" height="624" viewBox="0 0 1407.25 468.3">
    <g class="graph">
        <path fill="#fff" d="M0 468.3V0h1407.25v468.3z"/>
        <g class="node">
            <path fill="#90ee90" stroke="#000" d="M140.75 281H4v36h136.75z"/>
            <text x="68.38" y="-160.25" font-family="Times New Roman,serif" font-size="14" text-anchor="middle" transform="translate(4 464.3)">:server:controller:cron</text>
        </g>
        <g class="node">
            <path fill="#add8e6" stroke="#000" d="M349.5 254H176.75v36H349.5z"/>
            <text x="259.12" y="-187.25" font-family="Times New Roman,serif" font-size="14" text-anchor="middle" transform="translate(4 464.3)">:server:service:housekeeping</text>
        </g>
        <g stroke="#000" class="edge">
            <path fill="none" d="M140.98 289.33c7.93-1.14 16.13-2.31 24.36-3.49"/>
            <path d="m164.66 282.41 10.39 2.04-9.4 4.88z"/>
        </g>
        <g class="node">
            <path fill="#add8e6" stroke="#000" d="M324.38 308h-122.5v36h122.5z"/>
            <text x="259.12" y="-133.25" font-family="Times New Roman,serif" font-size="14" text-anchor="middle" transform="translate(4 464.3)">:server:service:shift</text>
        </g>
        <g stroke="#000" class="edge">
            <path fill="none" d="M140.98 308.67c16.08 2.3 33.28 4.76 49.52 7.08"/>
            <path d="m190.67 312.24 9.4 4.88-10.39 2.05z"/>
        </g>
        <g class="node">
            <path fill="#add8e6" stroke="#000" d="M539.88 308H388.12v36h151.76z"/>
            <text x="460" y="-133.25" font-family="Times New Roman,serif" font-size="14" text-anchor="middle" transform="translate(4 464.3)">:server:service:employee</text>
        </g>
        <g class="node">
            <path fill="#add8e6" stroke="#000" d="M693.88 400h-55v36h55z"/>
            <text x="662.38" y="-41.25" font-family="Times New Roman,serif" font-size="14" text-anchor="middle" transform="translate(4 464.3)">:shared</text>
        </g>
        <g stroke="#999" class="edge">
            <path fill="none" stroke-dasharray="5,2" d="M507.82 344.47c11.45 5.31 23.68 11.36 34.68 17.53 16.77 9.41 18.86 15.28 36 24 15.56 7.91 33.56 14.87 49.13 20.26"/>
            <path fill="#999" d="m628.66 402.92 8.37 6.5-10.6.13z"/>
        </g>
        <g class="node">
            <path fill="#add8e6" stroke="#000" d="M1403.25 124h-95.5v36h95.5z"/>
            <text x="1351.5" y="-317.25" font-family="Times New Roman,serif" font-size="14" text-anchor="middle" transform="translate(4 464.3)">:core:common</text>
        </g>
        <g stroke="#999" class="edge">
            <path fill="none" stroke-dasharray="5,2" d="M534.57 344.46c14.44 3.29 29.61 6.36 43.93 8.54 121.61 18.52 153.11 19 276.12 19h180.76c108.95 0 152.14 4.11 236.37-65 42.92-35.22 65.65-98.34 75.85-135.47"/>
            <path fill="#999" d="m1344.2 170.72 5.91-8.79.86 10.56z"/>
        </g>
        <g class="node">
            <path fill="#add8e6" stroke="#000" d="M734.38 254h-136v36h136z"/>
            <text x="662.38" y="-187.25" font-family="Times New Roman,serif" font-size="14" text-anchor="middle" transform="translate(4 464.3)">:server:data:employee</text>
        </g>
        <g stroke="#999" class="edge">
            <path fill="none" stroke-dasharray="5,2" d="M533.4 307.57c17.27-4.66 35.95-9.69 53.68-14.47"/>
            <path fill="#999" d="m585.94 289.78 10.56.78-8.74 5.98z"/>
        </g>
        <g class="node">
            <path fill="#add8e6" stroke="#000" d="M719 308H613.75v36H719z"/>
            <text x="662.38" y="-133.25" font-family="Times New Roman,serif" font-size="14" text-anchor="middle" transform="translate(4 464.3)">:server:data:user</text>
        </g>
        <g stroke="#999" class="edge">
            <path fill="none" stroke-dasharray="5,2" d="M540.18 326h62.01"/>
            <path fill="#999" d="m601.99 322.5 10 3.5-10 3.5z"/>
        </g>
        <g class="node">
            <path fill="#add8e6" stroke="#000" d="M542.5 200h-157v36h157z"/>
            <text x="460" y="-241.25" font-family="Times New Roman,serif" font-size="14" text-anchor="middle" transform="translate(4 464.3)">:server:data:housekeeping</text>
        </g>
        <g class="node">
            <path fill="#add8e6" stroke="#000" d="M754.25 32H578.5v36h175.75z"/>
            <text x="662.38" y="-409.25" font-family="Times New Roman,serif" font-size="14" text-anchor="middle" transform="translate(4 464.3)">:server:domain:housekeeping</text>
        </g>
        <g stroke="#999" class="edge">
            <path fill="none" stroke-dasharray="5,2" d="M474.98 199.51c17.17-30.1 55.19-89.64 103.52-122.51 1.62-1.1 3.28-2.16 4.98-3.17"/>
            <path fill="#999" d="m581.78 70.77 10.47-1.6-7.19 7.78z"/>
        </g>
        <g class="node">
            <path fill="#add8e6" stroke="#000" d="M920.62 178h-130v36h130z"/>
            <text x="851.62" y="-263.25" font-family="Times New Roman,serif" font-size="14" text-anchor="middle" transform="translate(4 464.3)">:server:core:database</text>
        </g>
        <g stroke="#999" class="edge">
            <path fill="none" stroke-dasharray="5,2" d="M542.91 213.6c68.65-3.88 168.03-9.49 236.01-13.33"/>
            <path fill="#999" d="m778.69 196.78 10.19 2.93-9.79 4.06z"/>
        </g>
        <g stroke="#999" class="edge">
            <path fill="none" stroke-dasharray="5,2" d="M533.4 236.43c17.27 4.66 35.95 9.69 53.68 14.47"/>
            <path fill="#999" d="m587.76 247.46 8.74 5.98-10.56.77z"/>
        </g>
        <g stroke="#666" class="edge">
            <path fill="none" stroke-dasharray="5,2" d="M754.6 48.97c118.99.67 337.89 9.33 517.15 58.03 11.52 3.13 23.55 7.52 34.75 12.13"/>
            <path fill="#666" d="m1307.73 115.85 7.83 7.14-10.58-.7z"/>
        </g>
        <g class="node">
            <path fill="#add8e6" stroke="#000" d="M918.38 124h-125.5v36h125.5z"/>
            <text x="851.62" y="-317.25" font-family="Times New Roman,serif" font-size="14" text-anchor="middle" transform="translate(4 464.3)">:server:domain:shift</text>
        </g>
        <g stroke="#666" class="edge">
            <path fill="none" stroke-dasharray="5,2" d="M737.99 68.49c5.67 2.51 11.17 5.34 16.26 8.51 19.75 12.29 16.86 24.77 36 38 1.54 1.06 3.13 2.1 4.76 3.11"/>
            <path fill="#666" d="m796.34 114.84 7 7.95-10.43-1.85z"/>
        </g>
        <g class="node">
            <path fill="#add8e6" stroke="#000" d="M921 70H790.25v36H921z"/>
            <text x="851.62" y="-371.25" font-family="Times New Roman,serif" font-size="14" text-anchor="middle" transform="translate(4 464.3)">:server:domain:room</text>
        </g>
        <g stroke="#666" class="edge">
            <path fill="none" stroke-dasharray="5,2" d="M754.7 67.72c8.03 1.63 16.13 3.27 24.05 4.88"/>
            <path fill="#666" d="m779.22 69.12 9.11 5.42-10.5 1.44z"/>
        </g>
        <g stroke="#333" class="edge">
            <path fill="none" stroke-dasharray="5,2" d="M920.95 189.02c97.53-10.58 281.38-30.52 375.23-40.7"/>
            <path fill="#333" d="m1295.61 144.86 10.32 2.41-9.56 4.55z"/>
        </g>
        <g class="node">
            <path fill="#add8e6" stroke="#000" d="M517.38 254H410.62v36h106.76z"/>
            <text x="460" y="-187.25" font-family="Times New Roman,serif" font-size="14" text-anchor="middle" transform="translate(4 464.3)">:server:data:shift</text>
        </g>
        <g stroke="#999" class="edge">
            <path fill="none" stroke-dasharray="5,2" d="M517.7 258.79c19.09-4.61 40.87-9.66 60.8-13.79 67.57-14.02 144.96-27.54 200.58-36.81"/>
            <path fill="#999" d="m778.33 204.77 10.44 1.81-9.3 5.09z"/>
        </g>
        <g stroke="#999" class="edge">
            <path fill="none" stroke-dasharray="5,2" d="M517.65 272h69.1"/>
            <path fill="#999" d="m586.46 268.5 10 3.5-10 3.5z"/>
        </g>
        <g stroke="#999" class="edge">
            <path fill="none" stroke-dasharray="5,2" d="M517.82 256.48c8.48-3.3 16.99-7.13 24.68-11.48 18.13-10.26 17.49-20.45 36-30 64.44-33.27 145.37-52.35 202.92-62.6"/>
            <path fill="#999" d="m780.66 148.98 10.45 1.75-9.25 5.15z"/>
        </g>
        <g stroke="#ccc" class="edge">
            <path fill="none" stroke-dasharray="5,2" d="M332.01 290.43c16.87 4.58 35.08 9.53 52.42 14.23"/>
            <path fill="#ccc" d="m384.89 301.16 8.73 6-10.57.76z"/>
        </g>
        <g stroke="#ccc" class="edge">
            <path fill="none" stroke-dasharray="5,2" d="M335.42 290.31c4.97 2.54 9.73 5.42 14.08 8.69 23.06 17.33 12.28 37.58 36 54 2.52 1.74 166.32 39.16 242.13 56.42"/>
            <path fill="#ccc" d="m628.13 405.94 8.97 5.63-10.52 1.2z"/>
        </g>
        <g stroke="#ccc" class="edge">
            <path fill="none" stroke-dasharray="5,2" d="M332.01 253.57c16.87-4.58 35.08-9.53 52.42-14.24"/>
            <path fill="#ccc" d="m383.05 236.08 10.57.76-8.73 5.99z"/>
        </g>
        <g stroke="#ccc" class="edge">
            <path fill="none" stroke-dasharray="5,2" d="M277.85 253.58C324.67 193.03 485.27 4 665.38 4h370c110.35 0 138.34 25.33 236.37 76 19.2 9.92 38.64 24.22 53.85 36.59"/>
            <path fill="#ccc" d="m1327.41 113.54 5.45 9.09-9.92-3.7z"/>
        </g>
        <g stroke="#ccc" class="edge">
            <path fill="none" stroke-dasharray="5,2" d="M349.91 272h49.16"/>
            <path fill="#ccc" d="m398.69 268.5 10 3.5-10 3.5z"/>
        </g>
        <g class="node">
            <path fill="#add8e6" stroke="#000" d="M722.38 86h-112v36h112z"/>
            <text x="662.38" y="-355.25" font-family="Times New Roman,serif" font-size="14" text-anchor="middle" transform="translate(4 464.3)">:server:data:room</text>
        </g>
        <g stroke="#ccc" class="edge">
            <path fill="none" stroke-dasharray="5,2" d="M287.09 253.73c23.56-18.01 61.82-45.29 98.41-62.73 69.9-33.33 155.6-57.78 213.62-72.13"/>
            <path fill="#ccc" d="m597.96 115.55 10.55 1.03-8.89 5.77z"/>
        </g>
        <g stroke="#666" class="edge">
            <path fill="none" stroke-dasharray="5,2" d="M719.02 253.56c11.64-4.32 23.9-9 35.23-13.56 16.36-6.59 34.03-14.18 49.92-21.18"/>
            <path fill="#666" d="m802.38 215.79 10.56-.85-7.73 7.25z"/>
        </g>
        <g class="node">
            <path fill="#add8e6" stroke="#000" d="M1111.75 216H957v36h154.75z"/>
            <text x="1030.38" y="-225.25" font-family="Times New Roman,serif" font-size="14" text-anchor="middle" transform="translate(4 464.3)">:server:domain:employee</text>
        </g>
        <g stroke="#666" class="edge">
            <path fill="none" stroke-dasharray="5,2" d="M734.51 265.03c59.18-6.15 145.83-15.14 210.61-21.87"/>
            <path fill="#666" d="m944.72 239.68 10.31 2.45-9.58 4.52z"/>
        </g>
        <g class="node">
            <path fill="#add8e6" stroke="#000" d="M1271.75 262h-124v36h124z"/>
            <text x="1205.75" y="-179.25" font-family="Times New Roman,serif" font-size="14" text-anchor="middle" transform="translate(4 464.3)">:server:domain:user</text>
        </g>
        <g stroke="#666" class="edge">
            <path fill="none" stroke-dasharray="5,2" d="M719.34 312.52c21.76-5.11 47.41-10.43 70.91-13.52 120.52-15.86 262.06-19.11 345.8-19.46"/>
            <path fill="#666" d="m1135.95 276.04 10.01 3.48-9.99 3.52z"/>
        </g>
        <g class="node">
            <path fill="#add8e6" stroke="#000" d="M918.75 308H792.5v36h126.25z"/>
            <text x="851.62" y="-133.25" font-family="Times New Roman,serif" font-size="14" text-anchor="middle" transform="translate(4 464.3)">:server:core:firebase</text>
        </g>
        <g stroke="#666" class="edge">
            <path fill="none" stroke-dasharray="5,2" d="M719.04 326h61.78"/>
            <path fill="#666" d="m780.63 322.5 10 3.5-10 3.5z"/>
        </g>
        <g stroke="#333" class="edge">
            <path fill="none" stroke-dasharray="5,2" d="M1244.72 261.52c9.19-5.7 18.86-12.38 27.03-19.52 24.72-21.61 48.1-51.01 63.67-72.34"/>
            <path fill="#333" d="m1332.44 167.81 8.67-6.09-2.98 10.17z"/>
        </g>
        <g stroke="#333" class="edge">
            <path fill="none" stroke-dasharray="5,2" d="M1112.11 230.9c47.36-3.98 108.61-12.93 159.64-32.9 18.86-7.38 37.73-19.68 52.68-30.88"/>
            <path fill="#333" d="m1321.95 164.62 10.05-3.34-5.77 8.88z"/>
        </g>
        <g stroke="#333" class="edge">
            <path fill="none" stroke-dasharray="5,2" d="M1104.89 252.44c10.31 2.74 20.96 5.56 31.33 8.31"/>
            <path fill="#333" d="m1137.1 257.37 8.77 5.94-10.57.82z"/>
        </g>
        <g stroke="#666" class="edge">
            <path fill="none" stroke-dasharray="5,2" d="M918.67 142h377.27"/>
            <path fill="#666" d="m1295.78 138.5 10 3.5-10 3.5z"/>
        </g>
        <g stroke="#666" class="edge">
            <path fill="none" stroke-dasharray="5,2" d="M902.67 160.47c6.21 2.73 12.47 5.62 18.33 8.53 24.92 12.37 51.94 27.92 73.24 40.72"/>
            <path fill="#666" d="m995.86 206.6 6.74 8.18-10.37-2.19z"/>
        </g>
        <g stroke="#666" class="edge">
            <path fill="none" stroke-dasharray="5,2" d="M921.15 92.78c81.77 6.38 226.97 18.82 350.6 35.22 7.85 1.04 16.1 2.27 24.23 3.56"/>
            <path fill="#666" d="m1296.53 128.11 9.3 5.06-10.43 1.84z"/>
        </g>
        <g stroke="#ccc" class="edge">
            <path fill="none" stroke-dasharray="5,2" d="M324.87 326h51.67"/>
            <path fill="#ccc" d="m376.36 322.5 10 3.5-10 3.5z"/>
        </g>
        <g stroke="#ccc" class="edge">
            <path fill="none" stroke-dasharray="5,2" d="M291.25 344.23c23.77 14.99 59.81 35.4 94.25 45.77 83.64 25.18 187.04 28.84 241.75 28.76"/>
            <path fill="#ccc" d="m626.94 415.26 10.02 3.44-9.97 3.56z"/>
        </g>
        <g stroke="#ccc" class="edge">
            <path fill="none" stroke-dasharray="5,2" d="M281.98 344.39C304.13 366 344.05 401.15 385.5 419c115.71 49.83 153.89 45 279.88 45h370c112.73 0 157.69-11.27 236.37-92 55.15-56.6 73.85-152.56 79.95-200.67"/>
            <path fill="#ccc" d="m1348.19 171.22 4.63-9.53 2.32 10.34z"/>
        </g>
        <g stroke="#ccc" class="edge">
            <path fill="none" stroke-dasharray="5,2" d="M324.87 309.5c23.57-6.4 50.58-13.73 74.42-20.2"/>
            <path fill="#ccc" d="m398.33 285.93 10.56.76-8.73 6z"/>
        </g>
        <g stroke="#999" class="edge">
            <path fill="none" stroke-dasharray="5,2" d="M700.34 122.47c24.51 13.48 58.93 31.87 89.91 46.53 2.88 1.36 5.84 2.72 8.84 4.08"/>
            <path fill="#999" d="m800.26 169.77 7.73 7.24-10.56-.84z"/>
        </g>
        <g stroke="#999" class="edge">
            <path fill="none" stroke-dasharray="5,2" d="M722.8 99.26c17.41-1.49 36.95-3.16 55.55-4.74"/>
            <path fill="#999" d="m778.01 91.03 10.26 2.64-9.66 4.34z"/>
        </g>
    </g>
</svg>
