<svg xmlns="http://www.w3.org/2000/svg" width="1075pt" height="386pt" viewBox="0 0 1074.5 386">
    <g class="graph">
        <path fill="#fff" d="M0 386V0h1074.5v386z"/>
        <g class="node">
            <path fill="#90ee90" stroke="#000" d="M176.75 180H4v36h172.75z"/>
            <text x="86.38" y="-178.95" font-family="Times New Roman,serif" font-size="14" text-anchor="middle" transform="translate(4 382)">:server:service:housekeeping</text>
        </g>
        <g class="node">
            <path fill="#add8e6" stroke="#000" d="M367.12 96H215.38v36h151.74z"/>
            <text x="287.25" y="-262.95" font-family="Times New Roman,serif" font-size="14" text-anchor="middle" transform="translate(4 382)">:server:service:employee</text>
        </g>
        <g stroke="#000" class="edge">
            <path fill="none" d="M131.34 179.62c23.57-10.68 54.04-24.24 81.41-35.62 5.97-2.48 12.23-5.02 18.49-7.51"/>
            <path d="m229.74 133.32 10.59-.41-8.02 6.93z"/>
        </g>
        <g class="node">
            <path fill="#add8e6" stroke="#000" d="M521.12 4h-55v36h55z"/>
            <text x="489.62" y="-354.95" font-family="Times New Roman,serif" font-size="14" text-anchor="middle" transform="translate(4 382)">:shared</text>
        </g>
        <g stroke="#000" class="edge">
            <path fill="none" d="M106.14 179.54c20.98-24.95 61.88-69 106.61-92.54 79.58-41.88 185.86-57.01 241.78-62.3"/>
            <path d="m454.22 21.22 10.27 2.61-9.65 4.36z"/>
        </g>
        <g class="node">
            <path fill="#add8e6" stroke="#000" d="M369.75 207h-157v36h157z"/>
            <text x="287.25" y="-151.95" font-family="Times New Roman,serif" font-size="14" text-anchor="middle" transform="translate(4 382)">:server:data:housekeeping</text>
        </g>
        <g stroke="#000" class="edge">
            <path fill="none" d="M177.16 209.65c7.93 1.07 15.98 2.17 23.94 3.25"/>
            <path d="m201.34 209.4 9.43 4.81-10.38 2.12z"/>
        </g>
        <g class="node">
            <path fill="#add8e6" stroke="#000" d="M1070.5 253H975v36h95.5z"/>
            <text x="1018.75" y="-105.95" font-family="Times New Roman,serif" font-size="14" text-anchor="middle" transform="translate(4 382)">:core:common</text>
        </g>
        <g stroke="#000" class="edge">
            <path fill="none" d="M113.25 216.32C171.14 262.86 334.75 382 492.62 382h191.26C801 382 830.04 358.97 939 316c14.67-5.78 30.03-13.6 43.47-21.09"/>
            <path d="m980.61 291.95 10.42-1.91-6.96 7.99z"/>
        </g>
        <g class="node">
            <path fill="#add8e6" stroke="#000" d="M344.62 153H237.88v36h106.74z"/>
            <text x="287.25" y="-205.95" font-family="Times New Roman,serif" font-size="14" text-anchor="middle" transform="translate(4 382)">:server:data:shift</text>
        </g>
        <g stroke="#000" class="edge">
            <path fill="none" d="M177.16 186.35c16.49-2.24 33.5-4.54 49.16-6.67"/>
            <path d="m225.57 176.25 10.38 2.12-9.44 4.82z"/>
        </g>
        <g class="node">
            <path fill="#add8e6" stroke="#000" d="M549.62 264h-112v36h112z"/>
            <text x="489.62" y="-94.95" font-family="Times New Roman,serif" font-size="14" text-anchor="middle" transform="translate(4 382)">:server:data:room</text>
        </g>
        <g stroke="#000" class="edge">
            <path fill="none" d="M125.12 216.44c23.79 12.14 56.78 27.26 87.63 35.56 71.19 19.14 155.67 26.14 213.05 28.66"/>
            <path d="m425.9 277.16 9.85 3.9-10.13 3.1z"/>
        </g>
        <g stroke="#ccc" class="edge">
            <path fill="none" stroke-dasharray="5,2" d="M323.97 95.77c22.46-12.54 53.49-29.15 81.78-41.77 15.83-7.06 33.73-13.85 49.16-19.35"/>
            <path fill="#ccc" d="M453.62 31.4h10.59l-8.28 6.61z"/>
        </g>
        <g stroke="#ccc" class="edge">
            <path fill="none" stroke-dasharray="5,2" d="M358.4 95.52c15.42-3.54 31.86-6.7 47.35-8.52C642.83 59.19 741.24 17.32 939 151c33.5 22.65 57.42 63.77 70.67 91.49"/>
            <path fill="#ccc" d="m1012.75 240.82.99 10.55-7.35-7.63z"/>
        </g>
        <g class="node">
            <path fill="#add8e6" stroke="#000" d="M561.62 96h-136v36h136z"/>
            <text x="489.62" y="-262.95" font-family="Times New Roman,serif" font-size="14" text-anchor="middle" transform="translate(4 382)">:server:data:employee</text>
        </g>
        <g stroke="#ccc" class="edge">
            <path fill="none" stroke-dasharray="5,2" d="M367.43 114h46.33"/>
            <path fill="#ccc" d="m413.75 110.5 10 3.5-10 3.5z"/>
        </g>
        <g class="node">
            <path fill="#add8e6" stroke="#000" d="M581.5 318H405.75v36H581.5z"/>
            <text x="489.62" y="-40.95" font-family="Times New Roman,serif" font-size="14" text-anchor="middle" transform="translate(4 382)">:server:domain:housekeeping</text>
        </g>
        <g stroke="#ccc" class="edge">
            <path fill="none" stroke-dasharray="5,2" d="M312.59 243.4c21.7 18.77 57.74 47.64 93.16 65.6 2.91 1.47 5.91 2.88 8.97 4.23"/>
            <path fill="#ccc" d="m416 309.97 7.92 7.04-10.58-.56z"/>
        </g>
        <g class="node">
            <path fill="#add8e6" stroke="#000" d="M747.88 142h-130v36h130z"/>
            <text x="678.88" y="-216.95" font-family="Times New Roman,serif" font-size="14" text-anchor="middle" transform="translate(4 382)">:server:core:database</text>
        </g>
        <g stroke="#ccc" class="edge">
            <path fill="none" stroke-dasharray="5,2" d="M370.16 212c68.79-11.47 168.44-28.1 236.43-39.44"/>
            <path fill="#ccc" d="m605.7 169.16 10.44 1.81-9.28 5.09z"/>
        </g>
        <g stroke="#ccc" class="edge">
            <path fill="none" stroke-dasharray="5,2" d="M350.51 206.59c6.59-2.63 13.13-5.51 19.24-8.59 32.79-16.55 67.04-40.62 91.03-58.75"/>
            <path fill="#ccc" d="m458.49 136.59 10.07-3.3-5.81 8.86z"/>
        </g>
        <g stroke="#999" class="edge">
            <path fill="none" stroke-dasharray="5,2" d="M581.93 331.1c48.98-3.15 111.15-7.85 166.32-14.1 85.21-9.65 106.33-13.92 190.75-29 7.94-1.42 16.29-3.01 24.5-4.64"/>
            <path fill="#999" d="m962.59 279.97 10.5 1.46-9.12 5.41z"/>
        </g>
        <g class="node">
            <path fill="#add8e6" stroke="#000" d="M745.62 196h-125.5v36h125.5z"/>
            <text x="678.88" y="-162.95" font-family="Times New Roman,serif" font-size="14" text-anchor="middle" transform="translate(4 382)">:server:domain:shift</text>
        </g>
        <g stroke="#999" class="edge">
            <path fill="none" stroke-dasharray="5,2" d="M566.46 317.61c5.28-2.53 10.36-5.38 15.04-8.61 21.37-14.75 17.52-27.77 36-46 8.56-8.45 18.6-16.73 28.17-24"/>
            <path fill="#999" d="m643.3 236.4 10.12-3.15-5.96 8.77z"/>
        </g>
        <g class="node">
            <path fill="#add8e6" stroke="#000" d="M748.25 272H617.5v36h130.75z"/>
            <text x="678.88" y="-86.95" font-family="Times New Roman,serif" font-size="14" text-anchor="middle" transform="translate(4 382)">:server:domain:room</text>
        </g>
        <g stroke="#999" class="edge">
            <path fill="none" stroke-dasharray="5,2" d="M569.71 317.56c11.99-2.95 24.41-6 36.43-8.95"/>
            <path fill="#999" d="m605.01 305.28 10.55 1.01-8.88 5.79z"/>
        </g>
        <g stroke="#666" class="edge">
            <path fill="none" stroke-dasharray="5,2" d="M748.11 151.98c53.77-3.81 131.08-2.34 190.89 27.02 28.47 13.97 51.62 42.42 66.12 64.01"/>
            <path fill="#666" d="m1008.05 241.09 2.48 10.3-8.36-6.51z"/>
        </g>
        <g stroke="#ccc" class="edge">
            <path fill="none" stroke-dasharray="5,2" d="M344.8 169.52c67.41-1.91 184.79-5.22 261.71-7.39"/>
            <path fill="#ccc" d="m605.95 158.64 10.1 3.22-9.9 3.78z"/>
        </g>
        <g stroke="#ccc" class="edge">
            <path fill="none" stroke-dasharray="5,2" d="M344.9 156.02c22.02-6.26 48.03-13.66 72.04-20.49"/>
            <path fill="#ccc" d="m415.77 132.22 10.58.63-8.66 6.11z"/>
        </g>
        <g stroke="#ccc" class="edge">
            <path fill="none" stroke-dasharray="5,2" d="M344.8 176.8c68.1 7.52 187.21 20.66 264.07 29.14"/>
            <path fill="#ccc" d="m608.84 202.42 9.55 4.57-10.32 2.39z"/>
        </g>
        <g stroke="#999" class="edge">
            <path fill="none" stroke-dasharray="5,2" d="M561.96 130.54c14.46 3.55 29.82 7.33 44.56 10.95"/>
            <path fill="#999" d="m607.29 138.07 8.88 5.79-10.55 1.01z"/>
        </g>
        <g class="node">
            <path fill="#add8e6" stroke="#000" d="M939 188H784.25v36H939z"/>
            <text x="857.62" y="-170.95" font-family="Times New Roman,serif" font-size="14" text-anchor="middle" transform="translate(4 382)">:server:domain:employee</text>
        </g>
        <g stroke="#999" class="edge">
            <path fill="none" stroke-dasharray="5,2" d="M562.11 110.07c52.17-.92 125.48 2.46 186.14 22.93 30.53 10.3 60.92 30.82 82.38 47.49"/>
            <path fill="#999" d="m832.72 177.68 5.64 8.97-10-3.49z"/>
        </g>
        <g stroke="#999" class="edge">
            <path fill="none" stroke-dasharray="5,2" d="M745.94 226.03a3157 3157 0 0 0 38.31 6.97c61.12 10.67 131.3 21.76 179.43 29.18"/>
            <path fill="#999" d="m963.97 258.68 9.35 4.98-10.41 1.94z"/>
        </g>
        <g stroke="#999" class="edge">
            <path fill="none" stroke-dasharray="5,2" d="M745.69 211.2c8.68-.39 17.74-.8 26.79-1.21"/>
            <path fill="#999" d="m772.26 206.5 10.15 3.04-9.83 3.95z"/>
        </g>
        <g stroke="#999" class="edge">
            <path fill="none" stroke-dasharray="5,2" d="M748.62 286.36c62.11-3.49 155.03-8.72 214.87-12.08"/>
            <path fill="#999" d="m962.94 270.8 10.18 2.93-9.79 4.06z"/>
        </g>
        <g stroke="#666" class="edge">
            <path fill="none" stroke-dasharray="5,2" d="M907.8 224.45c18.06 7.38 39.04 15.95 58.04 23.71"/>
            <path fill="#666" d="m967.13 244.91 7.93 7.02-10.58-.54z"/>
        </g>
        <g stroke="#ccc" class="edge">
            <path fill="none" stroke-dasharray="5,2" d="M549.7 268.31c11.33-4.55 22.6-10.52 31.8-18.31 24.62-20.83 11.85-41.63 36-63 .91-.8 1.84-1.58 2.8-2.35"/>
            <path fill="#ccc" d="m618 181.99 10.23-2.77-6.27 8.54z"/>
        </g>
        <g stroke="#ccc" class="edge">
            <path fill="none" stroke-dasharray="5,2" d="M550.05 284.37c17.41.74 36.95 1.58 55.55 2.37"/>
            <path fill="#ccc" d="m605.68 283.24 9.84 3.93-10.14 3.06z"/>
        </g>
    </g>
</svg>
