<svg xmlns="http://www.w3.org/2000/svg" width="866pt" height="173pt" viewBox="0 0 865.75 173.25">
    <g class="graph">
        <path fill="#fff" d="M0 173.25V0h865.75v173.25z"/>
        <g class="node">
            <path fill="#90ee90" stroke="#000" d="M161 75.82H4v36h157z"/>
            <text x="78.5" y="-70.38" font-family="Times New Roman,serif" font-size="14" text-anchor="middle" transform="translate(4 169.25)">:server:data:housekeeping</text>
        </g>
        <g class="node">
            <path fill="#add8e6" stroke="#000" d="M372.75 48.82H197v36h175.75z"/>
            <text x="280.88" y="-97.38" font-family="Times New Roman,serif" font-size="14" text-anchor="middle" transform="translate(4 169.25)">:server:domain:housekeeping</text>
        </g>
        <g stroke="#000" class="edge">
            <path fill="none" d="M161.26 83.35c7.85-1.06 15.89-2.15 23.92-3.23"/>
            <path d="m184.63 76.66 10.38 2.14-9.44 4.8z"/>
        </g>
        <g class="node">
            <path fill="#add8e6" stroke="#000" d="M349.88 102.82h-130v36h130z"/>
            <text x="280.88" y="-43.38" font-family="Times New Roman,serif" font-size="14" text-anchor="middle" transform="translate(4 169.25)">:server:core:database</text>
        </g>
        <g stroke="#000" class="edge">
            <path fill="none" d="M161.26 104.3c15.49 2.09 31.73 4.28 47.15 6.35"/>
            <path d="m208.52 107.14 9.44 4.8-10.38 2.13z"/>
        </g>
        <g class="node">
            <path fill="#add8e6" stroke="#000" d="M861.75 51.82h-95.5v36h95.5z"/>
            <text x="810" y="-94.38" font-family="Times New Roman,serif" font-size="14" text-anchor="middle" transform="translate(4 169.25)">:core:common</text>
        </g>
        <g stroke="#ccc" class="edge">
            <path fill="none" stroke-dasharray="5,2" d="M317.75 48.42c24.11-12.81 58.5-28.77 91-35.6 122.23-25.67 267.72 11.01 346.54 36.36"/>
            <path fill="#ccc" d="m756.11 45.77 8.41 6.44-10.59.21z"/>
        </g>
        <g class="node">
            <path fill="#add8e6" stroke="#000" d="M539.5 21.82H408.75v36H539.5z"/>
            <text x="470.12" y="-124.38" font-family="Times New Roman,serif" font-size="14" text-anchor="middle" transform="translate(4 169.25)">:server:domain:room</text>
        </g>
        <g stroke="#ccc" class="edge">
            <path fill="none" stroke-dasharray="5,2" d="M373.2 54.23c7.94-1.14 15.94-2.3 23.78-3.43"/>
            <path fill="#ccc" d="m396.41 47.35 10.4 2.04-9.4 4.89z"/>
        </g>
        <g class="node">
            <path fill="#add8e6" stroke="#000" d="M536.88 75.82h-125.5v36h125.5z"/>
            <text x="470.12" y="-70.38" font-family="Times New Roman,serif" font-size="14" text-anchor="middle" transform="translate(4 169.25)">:server:domain:shift</text>
        </g>
        <g stroke="#ccc" class="edge">
            <path fill="none" stroke-dasharray="5,2" d="M373.2 79.41c8.88 1.29 17.84 2.58 26.55 3.83"/>
            <path fill="#ccc" d="m400.14 79.76 9.4 4.89-10.4 2.04z"/>
        </g>
        <g stroke="#999" class="edge">
            <path fill="none" stroke-dasharray="5,2" d="M539.87 45.57c62.11 5.52 155.03 13.77 214.87 19.08"/>
            <path fill="#999" d="m754.72 61.14 9.65 4.37-10.27 2.6z"/>
        </g>
        <g class="node">
            <path fill="#add8e6" stroke="#000" d="M730.25 97.82H575.5v36h154.75z"/>
            <text x="648.88" y="-48.38" font-family="Times New Roman,serif" font-size="14" text-anchor="middle" transform="translate(4 169.25)">:server:domain:employee</text>
        </g>
        <g stroke="#666" class="edge">
            <path fill="none" stroke-dasharray="5,2" d="M717.68 97.38c12.31-3.56 25.15-7.27 37.27-10.78"/>
            <path fill="#666" d="m753.81 83.29 10.58.59-8.64 6.14z"/>
        </g>
        <g stroke="#999" class="edge">
            <path fill="none" stroke-dasharray="5,2" d="M537.1 89.42c62.01-4.4 156.7-11.13 217.44-15.44"/>
            <path fill="#999" d="m754.11 70.5 10.23 2.78-9.73 4.2z"/>
        </g>
        <g stroke="#999" class="edge">
            <path fill="none" stroke-dasharray="5,2" d="M536.94 101.52c8.78 1.09 17.94 2.23 27.09 3.37"/>
            <path fill="#999" d="m564.18 101.38 9.49 4.71-10.36 2.24z"/>
        </g>
        <g stroke="#ccc" class="edge">
            <path fill="none" stroke-dasharray="5,2" d="M348.68 139.25c88.36 22.57 252.96 52.19 381.57 3.57 24.57-9.28 46.56-29.56 61.68-46.39"/>
            <path fill="#ccc" d="m789.02 94.44 9.18-5.28-3.88 9.86z"/>
        </g>
    </g>
</svg>
