<svg xmlns="http://www.w3.org/2000/svg" width="1171pt" height="218pt" viewBox="0 0 1170.75 218">
    <g class="graph">
        <path fill="#fff" d="M0 218V0h1170.75v218z"/>
        <g class="node">
            <path fill="#90ee90" stroke="#000" d="M140.75 97H4v36h136.75z"/>
            <text x="68.38" y="-93.95" font-family="Times New Roman,serif" font-size="14" text-anchor="middle" transform="translate(4 214)">:server:controller:shift</text>
        </g>
        <g class="node">
            <path fill="#add8e6" stroke="#000" d="M299.25 97h-122.5v36h122.5z"/>
            <text x="234" y="-93.95" font-family="Times New Roman,serif" font-size="14" text-anchor="middle" transform="translate(4 214)">:server:service:shift</text>
        </g>
        <g stroke="#000" class="edge">
            <path fill="none" d="M140.87 115h24.3"/>
            <path d="m164.95 111.5 10 3.5-10 3.5z"/>
        </g>
        <g class="node">
            <path fill="#add8e6" stroke="#000" d="M1166.75 51h-95.5v36h95.5z"/>
            <text x="1115" y="-139.95" font-family="Times New Roman,serif" font-size="14" text-anchor="middle" transform="translate(4 214)">:core:common</text>
        </g>
        <g stroke="#ccc" class="edge">
            <path fill="none" stroke-dasharray="5,2" d="M266.57 96.65c18.69-11.7 44.33-26.36 68.68-35.65C445.33 19.02 476.31 4 594.12 4h188.63c98.64 0 210.67 27.45 277.02 46.68"/>
            <path fill="#ccc" d="m1060.75 47.32 8.61 6.18-10.58.54z"/>
        </g>
        <g class="node">
            <path fill="#add8e6" stroke="#000" d="M471.25 124h-136v36h136z"/>
            <text x="399.25" y="-66.95" font-family="Times New Roman,serif" font-size="14" text-anchor="middle" transform="translate(4 214)">:server:data:employee</text>
        </g>
        <g stroke="#ccc" class="edge">
            <path fill="none" stroke-dasharray="5,2" d="M299.32 124.98c8 1.32 16.28 2.69 24.53 4.05"/>
            <path fill="#ccc" d="m324.24 125.55 9.29 5.08-10.43 1.83z"/>
        </g>
        <g class="node">
            <path fill="#add8e6" stroke="#000" d="M456.62 70H349.88v36h106.74z"/>
            <text x="399.25" y="-120.95" font-family="Times New Roman,serif" font-size="14" text-anchor="middle" transform="translate(4 214)">:server:data:shift</text>
        </g>
        <g stroke="#ccc" class="edge">
            <path fill="none" stroke-dasharray="5,2" d="M299.32 105.02c12.72-2.1 26.18-4.33 39.02-6.45"/>
            <path fill="#ccc" d="m337.5 95.16 10.44 1.82-9.3 5.09z"/>
        </g>
        <g class="node">
            <path fill="#add8e6" stroke="#000" d="M430.75 178h-55v36h55z"/>
            <text x="399.25" y="-12.95" font-family="Times New Roman,serif" font-size="14" text-anchor="middle" transform="translate(4 214)">:shared</text>
        </g>
        <g stroke="#ccc" class="edge">
            <path fill="none" stroke-dasharray="5,2" d="M269.25 133.29c18.69 10.97 43.37 24.86 66 35.71 9.45 4.53 19.87 8.98 29.61 12.92"/>
            <path fill="#ccc" d="m366.08 178.64 8.01 6.93-10.59-.42z"/>
        </g>
        <g class="node">
            <path fill="#add8e6" stroke="#000" d="M683 32H507.25v36H683z"/>
            <text x="591.12" y="-158.95" font-family="Times New Roman,serif" font-size="14" text-anchor="middle" transform="translate(4 214)">:server:domain:housekeeping</text>
        </g>
        <g stroke="#666" class="edge">
            <path fill="none" stroke-dasharray="5,2" d="M683.48 53.18c106.85 3.89 284.78 10.37 376.27 13.7"/>
            <path fill="#666" d="m1059.62 63.37 9.86 3.86-10.12 3.14z"/>
        </g>
        <g class="node">
            <path fill="#add8e6" stroke="#000" d="M844.5 78H719v36h125.5z"/>
            <text x="777.75" y="-112.95" font-family="Times New Roman,serif" font-size="14" text-anchor="middle" transform="translate(4 214)">:server:domain:shift</text>
        </g>
        <g stroke="#666" class="edge">
            <path fill="none" stroke-dasharray="5,2" d="M670.16 68.44c12.28 3.07 25.02 6.24 37.3 9.3"/>
            <path fill="#666" d="m708.24 74.33 8.86 5.81-10.55.98z"/>
        </g>
        <g class="node">
            <path fill="#add8e6" stroke="#000" d="M660.12 124h-130v36h130z"/>
            <text x="591.12" y="-66.95" font-family="Times New Roman,serif" font-size="14" text-anchor="middle" transform="translate(4 214)">:server:core:database</text>
        </g>
        <g stroke="#999" class="edge">
            <path fill="none" stroke-dasharray="5,2" d="M471.73 142h46.87"/>
            <path fill="#999" d="m518.21 138.5 10 3.5-10 3.5z"/>
        </g>
        <g class="node">
            <path fill="#add8e6" stroke="#000" d="M1035.25 170H880.5v36h154.75z"/>
            <text x="953.88" y="-20.95" font-family="Times New Roman,serif" font-size="14" text-anchor="middle" transform="translate(4 214)">:server:domain:employee</text>
        </g>
        <g stroke="#999" class="edge">
            <path fill="none" stroke-dasharray="5,2" d="M465.89 160.45c13.52 3.4 27.83 6.52 41.36 8.55 124.47 18.72 270.36 21.41 361.4 20.82"/>
            <path fill="#999" d="m868.48 186.32 10.03 3.42-9.97 3.58z"/>
        </g>
        <g stroke="#999" class="edge">
            <path fill="none" stroke-dasharray="5,2" d="M456.89 77.47c12.09-2.42 25.33-5.07 38.66-7.74"/>
            <path fill="#999" d="m494.78 66.31 10.49 1.47-9.12 5.4z"/>
        </g>
        <g stroke="#999" class="edge">
            <path fill="none" stroke-dasharray="5,2" d="M457 89.12c65.22 1.39 176.59 3.75 250.19 5.32"/>
            <path fill="#999" d="m707.22 90.94 9.93 3.71-10.07 3.29z"/>
        </g>
        <g stroke="#999" class="edge">
            <path fill="none" stroke-dasharray="5,2" d="M456.89 102.97c19.16 5.45 41.22 11.72 61.96 17.62"/>
            <path fill="#999" d="m519.77 117.21 8.66 6.11-10.58.63z"/>
        </g>
        <g stroke="#666" class="edge">
            <path fill="none" stroke-dasharray="5,2" d="M844.63 91.02c61.41-4.95 154.82-12.47 214.98-17.32"/>
            <path fill="#666" d="m1059.06 70.24 10.24 2.68-9.68 4.29z"/>
        </g>
        <g stroke="#666" class="edge">
            <path fill="none" stroke-dasharray="5,2" d="M817.57 114.4c27.16 14.35 65.1 34.39 94.53 49.94"/>
            <path fill="#666" d="m913.57 161.16 7.21 7.77-10.48-1.58z"/>
        </g>
        <g stroke="#666" class="edge">
            <path fill="none" stroke-dasharray="5,2" d="M660.6 138.57c50.22-3.03 121.63-8.14 183.9-15.57 85.29-10.17 106.86-12.58 190.75-31 8.01-1.76 16.4-3.82 24.63-5.98"/>
            <path fill="#666" d="m1058.94 82.65 10.56.78-8.75 5.98z"/>
        </g>
        <g stroke="#666" class="edge">
            <path fill="none" stroke-dasharray="5,2" d="M1010.94 169.63c8.44-3.94 16.85-8.49 24.31-13.63 23.93-16.5 46.34-40.84 61.79-59.58"/>
            <path fill="#666" d="m1094.3 94.24 9-5.59-3.54 9.98z"/>
        </g>
    </g>
</svg>
