<svg xmlns="http://www.w3.org/2000/svg" width="1884" height="588" viewBox="0 0 1412.5 440.62">
    <g class="graph">
        <path fill="#fff" d="M0 440.62V0h1412.5v440.62z"/>
        <g class="node">
            <path fill="#90ee90" stroke="#000" d="M146 242H4v36h142z"/>
            <text x="71" y="-171.57" font-family="Times New Roman,serif" font-size="14" text-anchor="middle" transform="translate(4 436.62)">:server:controller:room</text>
        </g>
        <g class="node">
            <path fill="#add8e6" stroke="#000" d="M354.75 215H182v36h172.75z"/>
            <text x="264.38" y="-198.57" font-family="Times New Roman,serif" font-size="14" text-anchor="middle" transform="translate(4 436.62)">:server:service:housekeeping</text>
        </g>
        <g stroke="#000" class="edge">
            <path fill="none" d="M146.45 250.06c7.91-1.11 16.07-2.27 24.24-3.42"/>
            <path d="m169.93 243.22 10.39 2.06-9.41 4.87z"/>
        </g>
        <g class="node">
            <path fill="#add8e6" stroke="#000" d="M336.38 269h-136v36h136z"/>
            <text x="264.38" y="-144.57" font-family="Times New Roman,serif" font-size="14" text-anchor="middle" transform="translate(4 436.62)">:server:core:controller</text>
        </g>
        <g stroke="#000" class="edge">
            <path fill="none" d="M146.45 269.94c13.79 1.95 28.33 4 42.37 5.98"/>
            <path d="m189.03 272.41 9.41 4.87-10.39 2.07z"/>
        </g>
        <g class="node">
            <path fill="#add8e6" stroke="#000" d="M545.12 96H393.38v36h151.74z"/>
            <text x="465.25" y="-317.57" font-family="Times New Roman,serif" font-size="14" text-anchor="middle" transform="translate(4 436.62)">:server:service:employee</text>
        </g>
        <g class="node">
            <path fill="#add8e6" stroke="#000" d="M699.12 4h-55v36h55z"/>
            <text x="667.62" y="-409.57" font-family="Times New Roman,serif" font-size="14" text-anchor="middle" transform="translate(4 436.62)">:shared</text>
        </g>
        <g stroke="#999" class="edge">
            <path fill="none" stroke-dasharray="5,2" d="M501.97 95.77c22.46-12.54 53.49-29.15 81.78-41.77 15.83-7.06 33.73-13.85 49.16-19.34"/>
            <path fill="#999" d="M631.62 31.4h10.59l-8.28 6.61z"/>
        </g>
        <g class="node">
            <path fill="#add8e6" stroke="#000" d="M1408.5 318H1313v36h95.5z"/>
            <text x="1356.75" y="-95.57" font-family="Times New Roman,serif" font-size="14" text-anchor="middle" transform="translate(4 436.62)">:core:common</text>
        </g>
        <g stroke="#999" class="edge">
            <path fill="none" stroke-dasharray="5,2" d="M539.82 95.54c14.44-3.29 29.61-6.36 43.93-8.54 121.61-18.52 153.11-19 276.13-19h180.74c108.96 0 154.9-7.34 236.38 65 51.88 46.06 71.83 129.45 79.02 173.66"/>
            <path fill="#999" d="m1359.44 305.86-1.97 10.41-4.95-9.37z"/>
        </g>
        <g class="node">
            <path fill="#add8e6" stroke="#000" d="M739.62 150h-136v36h136z"/>
            <text x="667.62" y="-263.57" font-family="Times New Roman,serif" font-size="14" text-anchor="middle" transform="translate(4 436.62)">:server:data:employee</text>
        </g>
        <g stroke="#999" class="edge">
            <path fill="none" stroke-dasharray="5,2" d="M538.65 132.43c17.27 4.66 35.95 9.69 53.68 14.47"/>
            <path fill="#999" d="m593.01 143.46 8.74 5.98-10.56.78z"/>
        </g>
        <g class="node">
            <path fill="#add8e6" stroke="#000" d="M724.25 96H619v36h105.25z"/>
            <text x="667.62" y="-317.57" font-family="Times New Roman,serif" font-size="14" text-anchor="middle" transform="translate(4 436.62)">:server:data:user</text>
        </g>
        <g stroke="#999" class="edge">
            <path fill="none" stroke-dasharray="5,2" d="M545.43 114h62.01"/>
            <path fill="#999" d="m607.24 110.5 10 3.5-10 3.5z"/>
        </g>
        <g class="node">
            <path fill="#add8e6" stroke="#000" d="M547.75 188h-157v36h157z"/>
            <text x="465.25" y="-225.57" font-family="Times New Roman,serif" font-size="14" text-anchor="middle" transform="translate(4 436.62)">:server:data:housekeeping</text>
        </g>
        <g class="node">
            <path fill="#add8e6" stroke="#000" d="M759.5 280H583.75v36H759.5z"/>
            <text x="667.62" y="-133.57" font-family="Times New Roman,serif" font-size="14" text-anchor="middle" transform="translate(4 436.62)">:server:domain:housekeeping</text>
        </g>
        <g stroke="#999" class="edge">
            <path fill="none" stroke-dasharray="5,2" d="M526.52 224.47c7.21 2.7 14.44 5.57 21.23 8.53 27.75 12.09 57.81 27.94 81.25 40.96"/>
            <path fill="#999" d="m630.61 270.85 7.01 7.94-10.43-1.83z"/>
        </g>
        <g class="node">
            <path fill="#add8e6" stroke="#000" d="M925.88 226h-130v36h130z"/>
            <text x="856.88" y="-187.57" font-family="Times New Roman,serif" font-size="14" text-anchor="middle" transform="translate(4 436.62)">:server:core:database</text>
        </g>
        <g stroke="#999" class="edge">
            <path fill="none" stroke-dasharray="5,2" d="M548.16 213.6c68.79 6.71 168.44 16.43 236.43 23.06"/>
            <path fill="#999" d="m784.52 233.14 9.61 4.45-10.29 2.51z"/>
        </g>
        <g stroke="#999" class="edge">
            <path fill="none" stroke-dasharray="5,2" d="M548.01 191.26c14.55-2.76 29.77-5.65 44.33-8.41"/>
            <path fill="#999" d="m591.37 179.47 10.48 1.57-9.17 5.31z"/>
        </g>
        <g stroke="#666" class="edge">
            <path fill="none" stroke-dasharray="5,2" d="M759.95 297.97c117.73.76 333.75 4.97 517.05 24.03 7.88.82 16.15 1.92 24.28 3.15"/>
            <path fill="#666" d="m1301.81 321.69 9.33 5.03-10.43 1.89z"/>
        </g>
        <g class="node">
            <path fill="#add8e6" stroke="#000" d="M923.62 318h-125.5v36h125.5z"/>
            <text x="856.88" y="-95.57" font-family="Times New Roman,serif" font-size="14" text-anchor="middle" transform="translate(4 436.62)">:server:domain:shift</text>
        </g>
        <g stroke="#666" class="edge">
            <path fill="none" stroke-dasharray="5,2" d="M759.95 315.72c8.98 1.83 18.04 3.66 26.85 5.45"/>
            <path fill="#666" d="m787.2 317.68 9.11 5.42-10.5 1.44z"/>
        </g>
        <g class="node">
            <path fill="#add8e6" stroke="#000" d="M926.25 372H795.5v36h130.75z"/>
            <text x="856.88" y="-41.57" font-family="Times New Roman,serif" font-size="14" text-anchor="middle" transform="translate(4 436.62)">:server:domain:room</text>
        </g>
        <g stroke="#666" class="edge">
            <path fill="none" stroke-dasharray="5,2" d="M705.59 316.47c24.51 13.48 58.93 31.88 89.91 46.53 2.88 1.36 5.84 2.73 8.84 4.08"/>
            <path fill="#666" d="m805.51 363.77 7.73 7.24-10.56-.83z"/>
        </g>
        <g stroke="#ccc" class="edge">
            <path fill="none" stroke-dasharray="5,2" d="M300.01 214.67c34.31-20.53 90.05-53.88 127.88-76.52"/>
            <path fill="#ccc" d="m425.9 135.26 10.38-2.13-6.79 8.14z"/>
        </g>
        <g stroke="#ccc" class="edge">
            <path fill="none" stroke-dasharray="5,2" d="M279.07 214.96C296.84 183.7 337.73 119.71 390.75 87c76.89-47.43 185.07-60.28 241.78-63.74"/>
            <path fill="#ccc" d="m632.14 19.77 10.17 2.96-9.8 4.03z"/>
        </g>
        <g stroke="#ccc" class="edge">
            <path fill="none" stroke-dasharray="5,2" d="M355.16 221.36c7.93-1.08 15.98-2.17 23.94-3.26"/>
            <path fill="#ccc" d="m378.39 214.67 10.38 2.12-9.43 4.82z"/>
        </g>
        <g stroke="#ccc" class="edge">
            <path fill="none" stroke-dasharray="5,2" d="M343.61 251.46c4 2.49 7.76 5.33 11.14 8.54 33.3 31.71 2.62 65.37 36 97 93.83 88.9 150.63 79 279.87 79h370c102.09 0 214.49-47.17 274.87-76.72"/>
            <path fill="#ccc" d="m1313.57 356.33 10.51-1.31-7.4 7.58z"/>
        </g>
        <g class="node">
            <path fill="#add8e6" stroke="#000" d="M522.62 242H415.88v36h106.74z"/>
            <text x="465.25" y="-171.57" font-family="Times New Roman,serif" font-size="14" text-anchor="middle" transform="translate(4 436.62)">:server:data:shift</text>
        </g>
        <g stroke="#ccc" class="edge">
            <path fill="none" stroke-dasharray="5,2" d="M355.16 244.65c16.49 2.24 33.5 4.55 49.16 6.67"/>
            <path fill="#ccc" d="m404.51 247.82 9.44 4.81-10.38 2.12z"/>
        </g>
        <g class="node">
            <path fill="#add8e6" stroke="#000" d="M727.62 372h-112v36h112z"/>
            <text x="667.62" y="-41.57" font-family="Times New Roman,serif" font-size="14" text-anchor="middle" transform="translate(4 436.62)">:server:data:room</text>
        </g>
        <g stroke="#ccc" class="edge">
            <path fill="none" stroke-dasharray="5,2" d="M335.54 251.45c6.61 2.57 13.13 5.42 19.21 8.55 17.79 9.15 18.43 17.45 36 27 69.33 37.7 155.32 67.02 213.55 84.58"/>
            <path fill="#ccc" d="m605.17 368.18 8.58 6.21-10.58.5z"/>
        </g>
        <g stroke="#333" class="edge">
            <path fill="none" stroke-dasharray="5,2" d="M926.03 238.4c83.56-4.97 232.91-5.78 350.97 37.6 20.47 7.52 40.35 21.65 55.5 34.3"/>
            <path fill="#333" d="m1334.42 307.34 5.27 9.19-9.85-3.9z"/>
        </g>
        <g stroke="#999" class="edge">
            <path fill="none" stroke-dasharray="5,2" d="M522.8 257.84c67.41-2.76 184.79-7.58 261.71-10.74"/>
            <path fill="#999" d="m783.91 243.62 10.14 3.08-9.85 3.91z"/>
        </g>
        <g stroke="#999" class="edge">
            <path fill="none" stroke-dasharray="5,2" d="M522.78 242.91c8.43-3.09 17-6.44 24.97-9.91 27.75-12.09 57.81-27.94 81.25-40.96"/>
            <path fill="#999" d="m627.19 189.05 10.43-1.84-7.01 7.94z"/>
        </g>
        <g stroke="#999" class="edge">
            <path fill="none" stroke-dasharray="5,2" d="M494.37 278.44c21.97 15.62 55.99 36.96 89.38 46.56 66.65 19.16 146.06 20.19 202.58 17.46"/>
            <path fill="#999" d="m785.98 338.97 10.18 2.96-9.8 4.03z"/>
        </g>
        <g stroke="#666" class="edge">
            <path fill="none" stroke-dasharray="5,2" d="M724.27 186.44c11.64 4.32 23.9 9 35.23 13.56 16.36 6.59 34.03 14.18 49.92 21.18"/>
            <path fill="#666" d="m810.46 217.81 7.73 7.25-10.56-.85z"/>
        </g>
        <g class="node">
            <path fill="#add8e6" stroke="#000" d="M1117 188H962.25v36H1117z"/>
            <text x="1035.62" y="-225.57" font-family="Times New Roman,serif" font-size="14" text-anchor="middle" transform="translate(4 436.62)">:server:domain:employee</text>
        </g>
        <g stroke="#666" class="edge">
            <path fill="none" stroke-dasharray="5,2" d="M739.76 174.97c59.18 6.15 145.83 15.14 210.61 21.87"/>
            <path fill="#666" d="m950.7 193.35 9.58 4.52-10.31 2.45z"/>
        </g>
        <g class="node">
            <path fill="#add8e6" stroke="#000" d="M1277 142h-124v36h124z"/>
            <text x="1211" y="-271.57" font-family="Times New Roman,serif" font-size="14" text-anchor="middle" transform="translate(4 436.62)">:server:domain:user</text>
        </g>
        <g stroke="#666" class="edge">
            <path fill="none" stroke-dasharray="5,2" d="M724.59 127.48c21.76 5.11 47.41 10.43 70.91 13.52 120.52 15.86 262.06 19.11 345.8 19.46"/>
            <path fill="#666" d="m1141.22 156.96 9.99 3.52-10.01 3.48z"/>
        </g>
        <g class="node">
            <path fill="#add8e6" stroke="#000" d="M924 96H797.75v36H924z"/>
            <text x="856.88" y="-317.57" font-family="Times New Roman,serif" font-size="14" text-anchor="middle" transform="translate(4 436.62)">:server:core:firebase</text>
        </g>
        <g stroke="#666" class="edge">
            <path fill="none" stroke-dasharray="5,2" d="M724.29 114h61.78"/>
            <path fill="#666" d="m785.88 110.5 10 3.5-10 3.5z"/>
        </g>
        <g stroke="#333" class="edge">
            <path fill="none" stroke-dasharray="5,2" d="M1253.94 178.37c8.18 5.01 16.36 10.94 23.06 17.63 32.73 32.71 57.46 80.91 71.03 111.37"/>
            <path fill="#333" d="m1351.15 305.77.76 10.56-7.18-7.78z"/>
        </g>
        <g stroke="#333" class="edge">
            <path fill="none" stroke-dasharray="5,2" d="M1117.37 202.68c48.5 1.1 110.99 8.62 159.63 35.32 29.28 16.08 52.66 46.97 67 69.79"/>
            <path fill="#333" d="m1346.99 305.96 2.17 10.37-8.16-6.75z"/>
        </g>
        <g stroke="#333" class="edge">
            <path fill="none" stroke-dasharray="5,2" d="M1110.14 187.56c10.31-2.74 20.96-5.56 31.33-8.31"/>
            <path fill="#333" d="m1140.55 175.87 10.57.82-8.77 5.94z"/>
        </g>
        <g stroke="#666" class="edge">
            <path fill="none" stroke-dasharray="5,2" d="M923.92 336h377.27"/>
            <path fill="#666" d="m1301.03 332.5 10 3.5-10 3.5z"/>
        </g>
        <g stroke="#666" class="edge">
            <path fill="none" stroke-dasharray="5,2" d="M886.82 317.65c30.71-22.58 83-61.04 117.48-86.4"/>
            <path fill="#666" d="m1002.17 228.47 10.13-3.1-5.98 8.74z"/>
        </g>
        <g stroke="#666" class="edge">
            <path fill="none" stroke-dasharray="5,2" d="M926.71 382.97c97.71-10.6 281.21-30.5 374.85-40.66"/>
            <path fill="#666" d="m1300.97 338.86 10.32 2.4-9.56 4.56z"/>
        </g>
        <g stroke="#999" class="edge">
            <path fill="none" stroke-dasharray="5,2" d="M697.52 371.75c17.47-12.9 41.31-30.68 61.98-46.75 23.51-18.27 49.67-39.41 69.39-55.51"/>
            <path fill="#999" d="m826.61 266.84 9.96-3.63-5.53 9.04z"/>
        </g>
        <g stroke="#999" class="edge">
            <path fill="none" stroke-dasharray="5,2" d="M728.05 390h55.55"/>
            <path fill="#999" d="m783.52 386.5 10 3.5-10 3.5z"/>
        </g>
    </g>
</svg>
