<svg xmlns="http://www.w3.org/2000/svg" width="1024pt" height="185pt" viewBox="0 0 1024.25 184.65">
    <g class="graph">
        <path fill="#fff" d="M0 184.65V0h1024.25v184.65z"/>
        <g class="node">
            <path fill="#90ee90" stroke="#000" d="M176.75 60.72H4v36h172.75z"/>
            <text x="86.38" y="-96.88" font-family="Times New Roman,serif" font-size="14" text-anchor="middle" transform="translate(4 180.65)">:server:service:housekeeping</text>
        </g>
        <g class="node">
            <path fill="#add8e6" stroke="#000" d="M1020.25 52.72h-95.5v36h95.5z"/>
            <text x="968.5" y="-104.88" font-family="Times New Roman,serif" font-size="14" text-anchor="middle" transform="translate(4 180.65)">:core:common</text>
        </g>
        <g stroke="#000" class="edge">
            <path fill="none" d="M124.54 60.29c23.79-12.3 57.03-27.62 88.21-35.57 101.48-25.87 130.15-19 234.87-19h188.63c98.64 0 210.67 27.46 277.02 46.68"/>
            <path d="m914.25 49.04 8.61 6.18-10.58.54z"/>
        </g>
        <g class="node">
            <path fill="#add8e6" stroke="#000" d="M322.12 87.72H215.38v36h106.74z"/>
            <text x="264.75" y="-69.88" font-family="Times New Roman,serif" font-size="14" text-anchor="middle" transform="translate(4 180.65)">:server:data:shift</text>
        </g>
        <g stroke="#000" class="edge">
            <path fill="none" d="M177.24 91.87c9.01 1.38 18.06 2.76 26.76 4.09"/>
            <path d="m204.36 92.48 9.36 4.97-10.42 1.95z"/>
        </g>
        <g class="node">
            <path fill="#add8e6" stroke="#000" d="M324.75 33.72h-112v36h112z"/>
            <text x="264.75" y="-123.88" font-family="Times New Roman,serif" font-size="14" text-anchor="middle" transform="translate(4 180.65)">:server:data:room</text>
        </g>
        <g stroke="#000" class="edge">
            <path fill="none" d="M177.24 65.58c8-1.23 16.03-2.46 23.83-3.65"/>
            <path d="m200.37 58.5 10.41 1.94-9.35 4.97z"/>
        </g>
        <g class="node">
            <path fill="#add8e6" stroke="#000" d="M296.25 141.72h-55v36h55z"/>
            <text x="264.75" y="-15.88" font-family="Times New Roman,serif" font-size="14" text-anchor="middle" transform="translate(4 180.65)">:shared</text>
        </g>
        <g stroke="#000" class="edge">
            <path fill="none" d="M131.4 97.1c29.78 13.68 70.13 32.21 99.2 45.56"/>
            <path d="m231.76 139.34 7.62 7.35-10.54-.99z"/>
        </g>
        <g class="node">
            <path fill="#add8e6" stroke="#000" d="M698 133.72H572.5v36H698z"/>
            <text x="631.25" y="-23.88" font-family="Times New Roman,serif" font-size="14" text-anchor="middle" transform="translate(4 180.65)">:server:domain:shift</text>
        </g>
        <g stroke="#999" class="edge">
            <path fill="none" stroke-dasharray="5,2" d="M698.29 169.36c52.97 11.65 129.94 20.33 190.46-6.64 29.27-13.04 52.52-42.12 66.83-64.11"/>
            <path fill="#999" d="m952.46 97 8.26-6.64-2.32 10.34z"/>
        </g>
        <g class="node">
            <path fill="#add8e6" stroke="#000" d="M888.75 117.72H734v36h154.75z"/>
            <text x="807.38" y="-39.88" font-family="Times New Roman,serif" font-size="14" text-anchor="middle" transform="translate(4 180.65)">:server:domain:employee</text>
        </g>
        <g stroke="#999" class="edge">
            <path fill="none" stroke-dasharray="5,2" d="m698.13 146.04 24.41-2.25"/>
            <path fill="#999" d="m721.97 140.33 10.28 2.57-9.64 4.4z"/>
        </g>
        <g stroke="#666" class="edge">
            <path fill="none" stroke-dasharray="5,2" d="M857.55 117.27c18.06-7.38 39.04-15.95 58.04-23.71"/>
            <path fill="#666" d="m914.23 90.33 10.58-.54-7.93 7.02z"/>
        </g>
        <g class="node">
            <path fill="#add8e6" stroke="#000" d="M536.5 33.72H360.75v36H536.5z"/>
            <text x="444.62" y="-123.88" font-family="Times New Roman,serif" font-size="14" text-anchor="middle" transform="translate(4 180.65)">:server:domain:housekeeping</text>
        </g>
        <g stroke="#999" class="edge">
            <path fill="none" stroke-dasharray="5,2" d="M536.98 54.9c106.85 3.89 284.78 10.37 376.27 13.7"/>
            <path fill="#999" d="m913.12 65.09 9.86 3.87-10.12 3.13z"/>
        </g>
        <g stroke="#999" class="edge">
            <path fill="none" stroke-dasharray="5,2" d="M516.94 70.11c6.74 2.59 13.37 5.46 19.56 8.61 24.97 12.73 50.25 31.81 68.84 47.27"/>
            <path fill="#999" d="m607.38 123.13 5.37 9.14-9.89-3.8z"/>
        </g>
        <g stroke="#ccc" class="edge">
            <path fill="none" stroke-dasharray="5,2" d="M322.21 123.41c12.5 3.62 25.89 7.02 38.54 9.31 67.01 12.12 144.55 16.63 199.91 18.25"/>
            <path fill="#ccc" d="m560.71 147.47 9.91 3.76-10.09 3.23z"/>
        </g>
        <g class="node">
            <path fill="#add8e6" stroke="#000" d="M513.62 87.72h-130v36h130z"/>
            <text x="444.62" y="-69.88" font-family="Times New Roman,serif" font-size="14" text-anchor="middle" transform="translate(4 180.65)">:server:core:database</text>
        </g>
        <g stroke="#ccc" class="edge">
            <path fill="none" stroke-dasharray="5,2" d="M322.16 105.72h49.69"/>
            <path fill="#ccc" d="m371.79 102.22 10 3.5-10 3.5z"/>
        </g>
        <g stroke="#999" class="edge">
            <path fill="none" stroke-dasharray="5,2" d="M513.88 101.41c102.34-6.86 300.82-20.17 399.3-26.78"/>
            <path fill="#999" d="m912.67 71.16 10.21 2.82-9.74 4.16z"/>
        </g>
        <g stroke="#ccc" class="edge">
            <path fill="none" stroke-dasharray="5,2" d="M325.06 51.72h24.04"/>
            <path fill="#ccc" d="m348.83 48.22 10 3.5-10 3.5z"/>
        </g>
        <g stroke="#ccc" class="edge">
            <path fill="none" stroke-dasharray="5,2" d="M325.06 68.51c16.06 4.88 33.84 10.27 50.76 15.41"/>
            <path fill="#ccc" d="m376.78 80.56 8.56 6.25-10.59.45z"/>
        </g>
    </g>
</svg>
