<svg xmlns="http://www.w3.org/2000/svg" width="1084" height="328" viewBox="0 0 812.5 245.93">
    <g class="graph">
        <path fill="#fff" d="M0 245.93V0h812.5v245.93z"/>
        <g class="node">
            <path fill="#90ee90" stroke="#000" d="M126.5 44.93H4v36h122.5z"/>
            <text x="61.25" y="-173.95" font-family="Times New Roman,serif" font-size="14" text-anchor="middle" transform="translate(4 241.93)">:server:service:shift</text>
        </g>
        <g class="node">
            <path fill="#add8e6" stroke="#000" d="M314.25 67.93H162.5v36h151.75z"/>
            <text x="234.38" y="-150.95" font-family="Times New Roman,serif" font-size="14" text-anchor="middle" transform="translate(4 241.93)">:server:service:employee</text>
        </g>
        <g stroke="#000" class="edge">
            <path fill="none" d="M126.58 71.04c7.94 1.07 16.2 2.18 24.46 3.29"/>
            <path d="m151.35 70.84 9.44 4.8-10.37 2.13z"/>
        </g>
        <g class="node">
            <path fill="#add8e6" stroke="#000" d="M291.75 121.93H185v36h106.75z"/>
            <text x="234.38" y="-96.95" font-family="Times New Roman,serif" font-size="14" text-anchor="middle" transform="translate(4 241.93)">:server:data:shift</text>
        </g>
        <g stroke="#000" class="edge">
            <path fill="none" d="M99.13 81.39c18.35 9.96 41.81 22.1 63.37 31.54a424 424 0 0 0 11.62 4.87"/>
            <path d="m175.21 114.47 8.04 6.9-10.59-.38z"/>
        </g>
        <g class="node">
            <path fill="#add8e6" stroke="#000" d="M808.5 67.93H713v36h95.5z"/>
            <text x="756.75" y="-150.95" font-family="Times New Roman,serif" font-size="14" text-anchor="middle" transform="translate(4 241.93)">:core:common</text>
        </g>
        <g stroke="#000" class="edge">
            <path fill="none" d="M126.8 45.22c11.77-3.05 24.07-5.99 35.7-8.29 141.54-28.03 180.69-42.76 323.75-24 75.9 9.96 160.7 34.82 215.46 52.77"/>
            <path d="m702.76 62.36 8.39 6.47-10.59.17z"/>
        </g>
        <g class="node">
            <path fill="#add8e6" stroke="#000" d="M445.75 21.93h-55v36h55z"/>
            <text x="414.25" y="-196.95" font-family="Times New Roman,serif" font-size="14" text-anchor="middle" transform="translate(4 241.93)">:shared</text>
        </g>
        <g stroke="#000" class="edge">
            <path fill="none" d="M126.99 58.95C199.46 54.2 318.44 46.4 379.1 42.43"/>
            <path d="m378.71 38.95 10.2 2.84-9.75 4.14z"/>
        </g>
        <g class="node">
            <path fill="#add8e6" stroke="#000" d="M486.25 113.93h-136v36h136z"/>
            <text x="414.25" y="-104.95" font-family="Times New Roman,serif" font-size="14" text-anchor="middle" transform="translate(4 241.93)">:server:data:employee</text>
        </g>
        <g stroke="#ccc" class="edge">
            <path fill="none" stroke-dasharray="5,2" d="M310.7 104.37c9.31 2.41 18.88 4.89 28.3 7.32"/>
            <path fill="#ccc" d="m339.68 108.25 8.81 5.9-10.56.88z"/>
        </g>
        <g stroke="#ccc" class="edge">
            <path fill="none" stroke-dasharray="5,2" d="M314.49 85.93h386.7"/>
            <path fill="#ccc" d="m701.05 82.43 10 3.5-10 3.5z"/>
        </g>
        <g stroke="#ccc" class="edge">
            <path fill="none" stroke-dasharray="5,2" d="M310.7 67.49c23.43-6.06 48.56-12.56 68.53-17.73"/>
            <path fill="#ccc" d="m378.31 46.38 10.56.89-8.81 5.89z"/>
        </g>
        <g class="node">
            <path fill="#add8e6" stroke="#000" d="M481 205.93H355.5v36H481z"/>
            <text x="414.25" y="-12.95" font-family="Times New Roman,serif" font-size="14" text-anchor="middle" transform="translate(4 241.93)">:server:domain:shift</text>
        </g>
        <g class="node">
            <path fill="#add8e6" stroke="#000" d="M677 167.93H522.25v36H677z"/>
            <text x="595.62" y="-50.95" font-family="Times New Roman,serif" font-size="14" text-anchor="middle" transform="translate(4 241.93)">:server:domain:employee</text>
        </g>
        <g stroke="#999" class="edge">
            <path fill="none" stroke-dasharray="5,2" d="M481.48 210.75c9.49-2.01 19.42-4.12 29.33-6.22"/>
            <path fill="#999" d="m509.97 201.13 10.51 1.36-9.06 5.49z"/>
        </g>
        <g stroke="#999" class="edge">
            <path fill="none" stroke-dasharray="5,2" d="M481.4 236.42c55.1 7.72 135.87 10.55 195.6-23.49 37.67-21.47 61.13-67.91 73.07-98.29"/>
            <path fill="#999" d="m746.64 113.82 6.78-8.15-.22 10.6z"/>
        </g>
        <g stroke="#666" class="edge">
            <path fill="none" stroke-dasharray="5,2" d="M660.03 167.5c5.88-2.58 11.64-5.43 16.97-8.57 21.46-12.61 42.45-31.23 57.93-46.5"/>
            <path fill="#666" d="m732.34 110.07 9.52-4.65-4.55 9.57z"/>
        </g>
        <g stroke="#ccc" class="edge">
            <path fill="none" stroke-dasharray="5,2" d="M278.41 158.36c26.41 12.48 61.51 29.05 89.81 42.41"/>
            <path fill="#ccc" d="m369.39 197.46 7.55 7.43-10.54-1.1z"/>
        </g>
        <g stroke="#ccc" class="edge">
            <path fill="none" stroke-dasharray="5,2" d="M291.78 137.57c14.68-.66 30.96-1.39 46.81-2.1"/>
            <path fill="#ccc" d="m338.36 131.97 10.15 3.05-9.84 3.95z"/>
        </g>
        <g class="node">
            <path fill="#add8e6" stroke="#000" d="M664.62 113.93h-130v36h130z"/>
            <text x="595.62" y="-104.95" font-family="Times New Roman,serif" font-size="14" text-anchor="middle" transform="translate(4 241.93)">:server:core:database</text>
        </g>
        <g stroke="#ccc" class="edge">
            <path fill="none" stroke-dasharray="5,2" d="M292.15 150.85c18.31 3.29 39.03 6.46 58.1 8.08 60.23 5.12 75.98 7.11 136 0 12.05-1.43 24.68-3.69 36.94-6.31"/>
            <path fill="#ccc" d="m522.32 149.23 10.53 1.23-9 5.6z"/>
        </g>
        <g stroke="#999" class="edge">
            <path fill="none" stroke-dasharray="5,2" d="M480.48 150.36c14.78 4.45 30.71 9.25 45.95 13.83"/>
            <path fill="#999" d="m527.35 160.82 8.57 6.23-10.59.47z"/>
        </g>
        <g stroke="#999" class="edge">
            <path fill="none" stroke-dasharray="5,2" d="M486.55 131.93h36.25"/>
            <path fill="#999" d="m522.7 128.43 10 3.5-10 3.5z"/>
        </g>
        <g stroke="#666" class="edge">
            <path fill="none" stroke-dasharray="5,2" d="M664.43 113.49c12.31-3.56 25.15-7.28 37.27-10.78"/>
            <path fill="#666" d="m700.56 99.4 10.58.58-8.64 6.14z"/>
        </g>
    </g>
</svg>
