<svg xmlns="http://www.w3.org/2000/svg" width="490pt" height="264" viewBox="0 0 489.75 198">
    <g class="graph">
        <path fill="#fff" d="M0 198V0h489.75v198z"/>
        <g class="node">
            <path fill="#90ee90" stroke="#000" d="M73.25 77H4v36h69.25z"/>
            <text x="34.62" y="-93.95" font-family="Times New Roman,serif" font-size="14" text-anchor="middle" transform="translate(4 194)">:data:auth</text>
        </g>
        <g class="node">
            <path fill="#add8e6" stroke="#000" d="M198.75 50h-88v36h88z"/>
            <text x="150.75" y="-120.95" font-family="Times New Roman,serif" font-size="14" text-anchor="middle" transform="translate(4 194)">:domain:auth</text>
        </g>
        <g stroke="#000" class="edge">
            <path fill="none" d="M73.56 86.97c8.13-1.92 17.01-4.02 25.81-6.11"/>
            <path d="m98.4 77.5 10.54 1.1-8.93 5.71z"/>
        </g>
        <g class="node">
            <path fill="#add8e6" stroke="#000" d="M354.25 4h-118v36h118z"/>
            <text x="291.25" y="-166.95" font-family="Times New Roman,serif" font-size="14" text-anchor="middle" transform="translate(4 194)">:domain:employee</text>
        </g>
        <g stroke="#000" class="edge">
            <path fill="none" d="M57.31 76.69C70.41 64.37 89.37 48.96 109.25 41c36.38-14.57 79.84-19.6 115.5-20.85"/>
            <path d="m224.43 16.65 10.09 3.25-9.91 3.75z"/>
        </g>
        <g class="node">
            <path fill="#add8e6" stroke="#000" d="M200.25 104h-91v36h91z"/>
            <text x="150.75" y="-66.95" font-family="Times New Roman,serif" font-size="14" text-anchor="middle" transform="translate(4 194)">:core:network</text>
        </g>
        <g stroke="#000" class="edge">
            <path fill="none" d="M73.56 103.03c7.76 1.84 16.22 3.84 24.63 5.83"/>
            <path d="m98.76 105.39 8.93 5.71-10.54 1.11z"/>
        </g>
        <g class="node">
            <path fill="#add8e6" stroke="#000" d="M182.25 158h-55v36h55z"/>
            <text x="150.75" y="-12.95" font-family="Times New Roman,serif" font-size="14" text-anchor="middle" transform="translate(4 194)">:shared</text>
        </g>
        <g stroke="#000" class="edge">
            <path fill="none" d="M62.03 113.43c13.41 10.76 30.96 24.39 47.22 35.57 2.65 1.82 5.43 3.66 8.24 5.48"/>
            <path d="m119.19 151.41 6.61 8.28-10.33-2.35z"/>
        </g>
        <g stroke="#ccc" class="edge">
            <path fill="none" stroke-dasharray="5,2" d="M199.19 53.57c9.11-3.02 18.91-6.28 28.64-9.51"/>
            <path fill="#ccc" d="m226.71 40.74 10.59.17-8.39 6.48z"/>
        </g>
        <g class="node">
            <path fill="#add8e6" stroke="#000" d="M485.75 50h-95.5v36h95.5z"/>
            <text x="434" y="-120.95" font-family="Times New Roman,serif" font-size="14" text-anchor="middle" transform="translate(4 194)">:core:common</text>
        </g>
        <g stroke="#ccc" class="edge">
            <path fill="none" stroke-dasharray="5,2" d="M199.08 68h179.43"/>
            <path fill="#ccc" d="m378.35 64.5 10 3.5-10 3.5z"/>
        </g>
        <g stroke="#999" class="edge">
            <path fill="none" stroke-dasharray="5,2" d="M352.69 40.44c8.71 2.85 17.72 5.8 26.46 8.65"/>
            <path fill="#999" d="m380.18 45.75 8.42 6.43-10.59.22z"/>
        </g>
        <g stroke="#ccc" class="edge">
            <path fill="none" stroke-dasharray="5,2" d="M200.63 113.38c48.25-9.26 125.16-24.03 178.07-34.19"/>
            <path fill="#ccc" d="m377.97 75.77 10.48 1.55-9.16 5.32z"/>
        </g>
    </g>
</svg>
