<svg xmlns="http://www.w3.org/2000/svg" width="1024" height="232pt" viewBox="0 0 767.5 232">
    <g class="graph">
        <path fill="#fff" d="M0 232V0h767.5v232z"/>
        <g class="node">
            <path fill="#90ee90" stroke="#000" d="M126.5 146H4v36h122.5z"/>
            <text x="61.25" y="-58.95" font-family="Times New Roman,serif" font-size="14" text-anchor="middle" transform="translate(4 228)">:server:service:shift</text>
        </g>
        <g class="node">
            <path fill="#add8e6" stroke="#000" d="M269.25 100H162.5v36h106.75z"/>
            <text x="211.88" y="-104.95" font-family="Times New Roman,serif" font-size="14" text-anchor="middle" transform="translate(4 228)">:server:data:shift</text>
        </g>
        <g stroke="#000" class="edge">
            <path fill="none" d="M125.85 145.56c8.51-2.64 17.3-5.36 25.88-8.02"/>
            <path d="m150.43 134.28 10.58.39-8.51 6.3z"/>
        </g>
        <g class="node">
            <path fill="#add8e6" stroke="#000" d="M763.5 100H668v36h95.5z"/>
            <text x="711.75" y="-104.95" font-family="Times New Roman,serif" font-size="14" text-anchor="middle" transform="translate(4 228)">:core:common</text>
        </g>
        <g stroke="#000" class="edge">
            <path fill="none" d="M126.7 167.5c104.11 4.8 323.59 9.53 505.3-22.5 8.08-1.42 16.46-3.46 24.64-5.78"/>
            <path d="m655.6 135.87 10.59.47-8.56 6.24z"/>
        </g>
        <g class="node">
            <path fill="#add8e6" stroke="#000" d="M243.38 192h-55v36h55z"/>
            <text x="211.88" y="-12.95" font-family="Times New Roman,serif" font-size="14" text-anchor="middle" transform="translate(4 228)">:shared</text>
        </g>
        <g stroke="#000" class="edge">
            <path fill="none" d="M125.85 182.44c17.41 5.4 35.95 11.13 51.58 15.97"/>
            <path d="m178.27 195.01 8.52 6.3-10.59.38z"/>
        </g>
        <g class="node">
            <path fill="#add8e6" stroke="#000" d="M436 4H310.5v36H436z"/>
            <text x="369.25" y="-200.95" font-family="Times New Roman,serif" font-size="14" text-anchor="middle" transform="translate(4 228)">:server:domain:shift</text>
        </g>
        <g stroke="#ccc" class="edge">
            <path fill="none" stroke-dasharray="5,2" d="M237.12 99.51c17.19-15.03 43-36.02 68.13-50.51 2.16-1.25 4.39-2.46 6.67-3.65"/>
            <path fill="#ccc" d="m310.23 42.28 10.53-1.23-7.46 7.53z"/>
        </g>
        <g class="node">
            <path fill="#add8e6" stroke="#000" d="M441.25 58h-136v36h136z"/>
            <text x="369.25" y="-146.95" font-family="Times New Roman,serif" font-size="14" text-anchor="middle" transform="translate(4 228)">:server:data:employee</text>
        </g>
        <g stroke="#ccc" class="edge">
            <path fill="none" stroke-dasharray="5,2" d="M269.48 103.78c7.89-2.13 16.18-4.37 24.47-6.61"/>
            <path fill="#ccc" d="m292.8 93.85 10.57.77-8.74 5.99z"/>
        </g>
        <g class="node">
            <path fill="#add8e6" stroke="#000" d="M619.62 100h-130v36h130z"/>
            <text x="550.62" y="-104.95" font-family="Times New Roman,serif" font-size="14" text-anchor="middle" transform="translate(4 228)">:server:core:database</text>
        </g>
        <g stroke="#ccc" class="edge">
            <path fill="none" stroke-dasharray="5,2" d="M269.49 118h208.66"/>
            <path fill="#ccc" d="m477.78 114.5 10 3.5-10 3.5z"/>
        </g>
        <g class="node">
            <path fill="#add8e6" stroke="#000" d="M632 46H477.25v36H632z"/>
            <text x="550.62" y="-158.95" font-family="Times New Roman,serif" font-size="14" text-anchor="middle" transform="translate(4 228)">:server:domain:employee</text>
        </g>
        <g stroke="#999" class="edge">
            <path fill="none" stroke-dasharray="5,2" d="M436.48 36.57c9.49 2.22 19.42 4.55 29.33 6.87"/>
            <path fill="#999" d="m466.54 40.02 8.94 5.68-10.53 1.13z"/>
        </g>
        <g stroke="#999" class="edge">
            <path fill="none" stroke-dasharray="5,2" d="M436.45 13.77C490.51 9.32 569.69 9.44 632 37c25.95 11.48 48.44 34.92 63.4 53.65"/>
            <path fill="#999" d="m698.08 88.39 3.31 10.07-8.86-5.8z"/>
        </g>
        <g stroke="#999" class="edge">
            <path fill="none" stroke-dasharray="5,2" d="M441.55 71.5c7.84-.53 15.92-1.07 23.99-1.61"/>
            <path fill="#999" d="m465.18 66.41 10.21 2.82-9.74 4.16z"/>
        </g>
        <g stroke="#999" class="edge">
            <path fill="none" stroke-dasharray="5,2" d="M441.55 91.76c11.95 2.8 24.47 5.73 36.63 8.57"/>
            <path fill="#999" d="m478.8 96.89 8.94 5.68-10.53 1.13z"/>
        </g>
        <g stroke="#666" class="edge">
            <path fill="none" stroke-dasharray="5,2" d="M609.94 82.43c15.07 5.12 31.49 10.69 46.76 15.87"/>
            <path fill="#666" d="m657.81 94.98 8.34 6.53-10.59.1z"/>
        </g>
        <g stroke="#999" class="edge">
            <path fill="none" stroke-dasharray="5,2" d="M619.89 118h36.76"/>
            <path fill="#999" d="m656.35 114.5 10 3.5-10 3.5z"/>
        </g>
    </g>
</svg>
