<svg xmlns="http://www.w3.org/2000/svg" width="1159pt" height="296pt" viewBox="0 0 1158.75 296.35">
    <g class="graph">
        <path fill="#fff" d="M0 296.35V0h1158.75v296.35z"/>
        <g class="node">
            <path fill="#90ee90" stroke="#000" d="M140.75 128H4v36h136.75z"/>
            <text x="68.38" y="-141.3" font-family="Times New Roman,serif" font-size="14" text-anchor="middle" transform="translate(4 292.35)">:server:controller:shift</text>
        </g>
        <g class="node">
            <path fill="#add8e6" stroke="#000" d="M306 101H183.5v36H306z"/>
            <text x="240.75" y="-168.3" font-family="Times New Roman,serif" font-size="14" text-anchor="middle" transform="translate(4 292.35)">:server:service:shift</text>
        </g>
        <g stroke="#000" class="edge">
            <path fill="none" d="M141.2 135.25c10.05-1.6 20.43-3.24 30.56-4.85"/>
            <path d="m171.13 126.96 10.43 1.89-9.33 5.02z"/>
        </g>
        <g class="node">
            <path fill="#add8e6" stroke="#000" d="M312.75 155h-136v36h136z"/>
            <text x="240.75" y="-114.3" font-family="Times New Roman,serif" font-size="14" text-anchor="middle" transform="translate(4 292.35)">:server:core:controller</text>
        </g>
        <g stroke="#000" class="edge">
            <path fill="none" d="M141.2 156.74c7.89 1.25 15.98 2.54 23.99 3.81"/>
            <path d="m165.61 157.07 9.33 5.02-10.42 1.89z"/>
        </g>
        <g class="node">
            <path fill="#add8e6" stroke="#000" d="M500.5 78H348.75v36H500.5z"/>
            <text x="420.62" y="-191.3" font-family="Times New Roman,serif" font-size="14" text-anchor="middle" transform="translate(4 292.35)">:server:service:employee</text>
        </g>
        <g stroke="#ccc" class="edge">
            <path fill="none" stroke-dasharray="5,2" d="M306.47 111.14c9.9-1.28 20.33-2.62 30.71-3.97"/>
            <path fill="#ccc" d="m336.53 103.73 10.36 2.19-9.47 4.75z"/>
        </g>
        <g class="node">
            <path fill="#add8e6" stroke="#000" d="M1154.75 24h-95.5v36h95.5z"/>
            <text x="1103" y="-245.3" font-family="Times New Roman,serif" font-size="14" text-anchor="middle" transform="translate(4 292.35)">:core:common</text>
        </g>
        <g stroke="#ccc" class="edge">
            <path fill="none" stroke-dasharray="5,2" d="M279.13 100.52C341.08 68.01 478.89 4 603.5 4h183.38c105.39 0 132.21 2.94 236.37 19 8.01 1.23 16.4 2.81 24.64 4.53"/>
            <path fill="#ccc" d="m1048.46 24.08 9.03 5.55-10.52 1.29z"/>
        </g>
        <g class="node">
            <path fill="#add8e6" stroke="#000" d="M478 178H371.25v36H478z"/>
            <text x="420.62" y="-91.3" font-family="Times New Roman,serif" font-size="14" text-anchor="middle" transform="translate(4 292.35)">:server:data:shift</text>
        </g>
        <g stroke="#ccc" class="edge">
            <path fill="none" stroke-dasharray="5,2" d="M292.35 137.49c6.86 2.8 13.83 5.7 20.4 8.51 19.99 8.53 41.83 18.28 60.8 26.9"/>
            <path fill="#ccc" d="m374.74 169.59 7.65 7.33-10.55-.96z"/>
        </g>
        <g class="node">
            <path fill="#add8e6" stroke="#000" d="M632 124h-55v36h55z"/>
            <text x="600.5" y="-145.3" font-family="Times New Roman,serif" font-size="14" text-anchor="middle" transform="translate(4 292.35)">:shared</text>
        </g>
        <g stroke="#ccc" class="edge">
            <path fill="none" stroke-dasharray="5,2" d="M306.44 122.9c74.16 4.77 197.39 12.69 259.22 16.66"/>
            <path fill="#ccc" d="m565.56 136.05 9.75 4.13-10.2 2.85z"/>
        </g>
        <g stroke="#999" class="edge">
            <path fill="none" stroke-dasharray="5,2" d="M474.04 77.56C493.2 71.1 515.61 64.57 536.5 61c184.49-31.59 407.37-26.87 511.1-22.25"/>
            <path fill="#999" d="m1047.72 35.25 9.83 3.96-10.15 3.03z"/>
        </g>
        <g class="node">
            <path fill="#add8e6" stroke="#000" d="M657.12 70H551.88v36h105.24z"/>
            <text x="600.5" y="-199.3" font-family="Times New Roman,serif" font-size="14" text-anchor="middle" transform="translate(4 292.35)">:server:data:user</text>
        </g>
        <g stroke="#999" class="edge">
            <path fill="none" stroke-dasharray="5,2" d="M500.8 92.61c13.07-.58 26.54-1.19 39.26-1.76"/>
            <path fill="#999" d="m539.83 87.36 10.14 3.04-9.83 3.95z"/>
        </g>
        <g stroke="#999" class="edge">
            <path fill="none" stroke-dasharray="5,2" d="M496.95 114.44c23.43 6.06 48.56 12.56 68.53 17.72"/>
            <path fill="#999" d="m566.31 128.76 8.81 5.9-10.56.88z"/>
        </g>
        <g class="node">
            <path fill="#add8e6" stroke="#000" d="M672.5 178h-136v36h136z"/>
            <text x="600.5" y="-91.3" font-family="Times New Roman,serif" font-size="14" text-anchor="middle" transform="translate(4 292.35)">:server:data:employee</text>
        </g>
        <g stroke="#999" class="edge">
            <path fill="none" stroke-dasharray="5,2" d="M450.29 114.3c21.91 15.75 55.18 38.44 86.21 54.7 2.53 1.32 5.13 2.62 7.79 3.9"/>
            <path fill="#999" d="m545.66 169.68 7.64 7.34-10.55-.98z"/>
        </g>
        <g class="node">
            <path fill="#add8e6" stroke="#000" d="M1023.25 116h-124v36h124z"/>
            <text x="957.25" y="-153.3" font-family="Times New Roman,serif" font-size="14" text-anchor="middle" transform="translate(4 292.35)">:server:domain:user</text>
        </g>
        <g stroke="#333" class="edge">
            <path fill="none" stroke-dasharray="5,2" d="M990.99 115.6c22.04-14.1 52.66-33.7 76.76-49.13"/>
            <path fill="#333" d="m1065.72 63.62 10.31-2.44-6.54 8.33z"/>
        </g>
        <g class="node">
            <path fill="#add8e6" stroke="#000" d="M667.25 232h-125.5v36h125.5z"/>
            <text x="600.5" y="-37.3" font-family="Times New Roman,serif" font-size="14" text-anchor="middle" transform="translate(4 292.35)">:server:domain:shift</text>
        </g>
        <g stroke="#999" class="edge">
            <path fill="none" stroke-dasharray="5,2" d="M478.03 211.91c16.88 5.12 35.89 10.89 53.91 16.36"/>
            <path fill="#999" d="m532.71 224.85 8.55 6.25-10.59.44z"/>
        </g>
        <g class="node">
            <path fill="#add8e6" stroke="#000" d="M850.88 216h-130v36h130z"/>
            <text x="781.88" y="-53.3" font-family="Times New Roman,serif" font-size="14" text-anchor="middle" transform="translate(4 292.35)">:server:core:database</text>
        </g>
        <g stroke="#999" class="edge">
            <path fill="none" stroke-dasharray="5,2" d="M443.15 214.44c20.28 19.86 55.73 50.28 93.35 62.56 57.46 18.75 76.56 10.98 136 0 21.75-4.02 44.74-12.08 64.21-20.14"/>
            <path fill="#999" d="m735.18 253.71 10.57-.7-7.83 7.14z"/>
        </g>
        <g stroke="#999" class="edge">
            <path fill="none" stroke-dasharray="5,2" d="M478.03 196h46.81"/>
            <path fill="#999" d="m524.76 192.5 10 3.5-10 3.5z"/>
        </g>
        <g stroke="#666" class="edge">
            <path fill="none" stroke-dasharray="5,2" d="M657.5 103.58c16.21 4.33 34.23 8.61 51 11.42 59.76 10 128.38 14.74 178.88 16.98"/>
            <path fill="#666" d="m887.48 128.48 9.84 3.92-10.14 3.08z"/>
        </g>
        <g class="node">
            <path fill="#add8e6" stroke="#000" d="M849 70H722.75v36H849z"/>
            <text x="781.88" y="-199.3" font-family="Times New Roman,serif" font-size="14" text-anchor="middle" transform="translate(4 292.35)">:server:core:firebase</text>
        </g>
        <g stroke="#666" class="edge">
            <path fill="none" stroke-dasharray="5,2" d="M657.38 88h53.56"/>
            <path fill="#666" d="m710.79 84.5 10 3.5-10 3.5z"/>
        </g>
        <g stroke="#666" class="edge">
            <path fill="none" stroke-dasharray="5,2" d="M665.61 268.41c88.24 23.02 253.63 50.46 357.64-29.41 53.52-41.1 72.76-123.26 79.42-167.37"/>
            <path fill="#666" d="m1099.19 71.19 4.83-9.43 2.11 10.38z"/>
        </g>
        <g class="node">
            <path fill="#add8e6" stroke="#000" d="M863.25 162H708.5v36h154.75z"/>
            <text x="781.88" y="-107.3" font-family="Times New Roman,serif" font-size="14" text-anchor="middle" transform="translate(4 292.35)">:server:domain:employee</text>
        </g>
        <g stroke="#666" class="edge">
            <path fill="none" stroke-dasharray="5,2" d="M651.72 231.62c6.98-2.85 14.08-5.79 20.78-8.62 16.12-6.83 19.73-9.53 36-16 4-1.6 8.14-3.2 12.32-4.78"/>
            <path fill="#666" d="m719.25 199.07 10.59-.19-8.15 6.76z"/>
        </g>
        <g stroke="#333" class="edge">
            <path fill="none" stroke-dasharray="5,2" d="M851.34 237.75c51.09-.24 121.94-8.09 171.91-43.75 41.75-29.8 64.61-87.45 75.22-122.55"/>
            <path fill="#333" d="m1095.07 70.59 6.11-8.65.62 10.57z"/>
        </g>
        <g stroke="#666" class="edge">
            <path fill="none" stroke-dasharray="5,2" d="M672.8 210.25c11.95 2.54 24.47 5.19 36.63 7.76"/>
            <path fill="#666" d="m709.93 214.54 9.05 5.5-10.51 1.35z"/>
        </g>
        <g stroke="#666" class="edge">
            <path fill="none" stroke-dasharray="5,2" d="m672.8 189.99 23.99-2.14"/>
            <path fill="#666" d="m696.37 184.38 10.27 2.59-9.65 4.38z"/>
        </g>
        <g stroke="#333" class="edge">
            <path fill="none" stroke-dasharray="5,2" d="M856.39 161.55c10.31-2.73 20.96-5.56 31.33-8.31"/>
            <path fill="#333" d="m886.8 149.86 10.57.82-8.77 5.95z"/>
        </g>
        <g stroke="#333" class="edge">
            <path fill="none" stroke-dasharray="5,2" d="M863.63 189.87c48.8 2.56 111.61-1.28 159.62-28.87 35.05-20.15 58.7-61.89 71.45-90.17"/>
            <path fill="#333" d="m1091.44 69.55 7.17-7.8-.74 10.57z"/>
        </g>
    </g>
</svg>
