<svg xmlns="http://www.w3.org/2000/svg" width="865pt" height="250pt" viewBox="0 0 865 250">
    <g class="graph">
        <path fill="#fff" d="M0 250V0h865v250z"/>
        <g class="node">
            <path fill="#90ee90" stroke="#000" d="M164 112H4v36h160z"/>
            <text x="80" y="-110.95" font-family="Times New Roman,serif" font-size="14" text-anchor="middle" transform="translate(4 246)">:server:data:imageanalysis</text>
        </g>
        <g class="node">
            <path fill="#add8e6" stroke="#000" d="M334.88 4h-91v36h91z"/>
            <text x="285.38" y="-218.95" font-family="Times New Roman,serif" font-size="14" text-anchor="middle" transform="translate(4 246)">:core:network</text>
        </g>
        <g stroke="#000" class="edge">
            <path fill="none" d="M106.58 111.62C128.76 93.52 164.9 66.17 200 49c10.27-5.02 21.67-9.34 32.77-12.96"/>
            <path d="m231.69 32.71 10.59.39-8.53 6.3z"/>
        </g>
        <g class="node">
            <path fill="#add8e6" stroke="#000" d="M345.38 166h-112v36h112z"/>
            <text x="285.38" y="-56.95" font-family="Times New Roman,serif" font-size="14" text-anchor="middle" transform="translate(4 246)">:server:data:room</text>
        </g>
        <g stroke="#000" class="edge">
            <path fill="none" d="M154.42 148.43c21.85 5.8 45.92 12.2 67.56 17.94"/>
            <path d="m222.82 162.97 8.76 5.95-10.56.82z"/>
        </g>
        <g class="node">
            <path fill="#add8e6" stroke="#000" d="M378.75 58H200v36h178.75z"/>
            <text x="285.38" y="-164.95" font-family="Times New Roman,serif" font-size="14" text-anchor="middle" transform="translate(4 246)">:server:domain:imageanalysis</text>
        </g>
        <g stroke="#000" class="edge">
            <path fill="none" d="M154.42 111.57c17.25-4.58 35.88-9.53 53.6-14.24"/>
            <path d="m206.9 94.01 10.56.82-8.77 5.95z"/>
        </g>
        <g class="node">
            <path fill="#add8e6" stroke="#000" d="M557.12 210h-130v36h130z"/>
            <text x="488.12" y="-12.95" font-family="Times New Roman,serif" font-size="14" text-anchor="middle" transform="translate(4 246)">:server:core:database</text>
        </g>
        <g stroke="#000" class="edge">
            <path fill="none" d="M103.84 148.39c21.34 19.52 58.12 49.33 96.16 62.61 70.05 24.46 155.31 26.49 215.4 23.75"/>
            <path d="m415.02 231.26 10.16 2.98-9.8 4.01z"/>
        </g>
        <g class="node">
            <path fill="#add8e6" stroke="#000" d="M357.38 112h-136v36h136z"/>
            <text x="285.38" y="-110.95" font-family="Times New Roman,serif" font-size="14" text-anchor="middle" transform="translate(4 246)">:server:data:employee</text>
        </g>
        <g stroke="#000" class="edge">
            <path fill="none" d="M164.21 130h45.46"/>
            <path d="m209.41 126.5 10 3.5-10 3.5z"/>
        </g>
        <g class="node">
            <path fill="#add8e6" stroke="#000" d="M861 111h-95.5v36H861z"/>
            <text x="809.25" y="-111.95" font-family="Times New Roman,serif" font-size="14" text-anchor="middle" transform="translate(4 246)">:core:common</text>
        </g>
        <g stroke="#ccc" class="edge">
            <path fill="none" stroke-dasharray="5,2" d="M335.26 16.21C417.29 7.57 595.31-2.1 729.5 55c24.16 10.28 46.05 30.58 61.23 47.32"/>
            <path fill="#ccc" d="m793.09 99.71 3.95 9.83-9.22-5.22z"/>
        </g>
        <g class="node">
            <path fill="#add8e6" stroke="#000" d="M557.5 156H426.75v36H557.5z"/>
            <text x="488.12" y="-66.95" font-family="Times New Roman,serif" font-size="14" text-anchor="middle" transform="translate(4 246)">:server:domain:room</text>
        </g>
        <g stroke="#ccc" class="edge">
            <path fill="none" stroke-dasharray="5,2" d="M345.76 181.24c21.35-1.06 46.12-2.3 69.09-3.44"/>
            <path fill="#ccc" d="m414.65 174.31 10.16 2.99-9.81 4z"/>
        </g>
        <g stroke="#ccc" class="edge">
            <path fill="none" stroke-dasharray="5,2" d="M345.76 196.14c21.55 4.72 46.57 10.21 69.73 15.28"/>
            <path fill="#ccc" d="m416.19 207.99 9.01 5.56-10.51 1.28z"/>
        </g>
        <g class="node">
            <path fill="#add8e6" stroke="#000" d="M729.5 88h-124v36h124z"/>
            <text x="663.5" y="-134.95" font-family="Times New Roman,serif" font-size="14" text-anchor="middle" transform="translate(4 246)">:server:domain:user</text>
        </g>
        <g stroke="#666" class="edge">
            <path fill="none" stroke-dasharray="5,2" d="M729.88 115.82c8.09 1.3 16.36 2.62 24.4 3.9"/>
            <path fill="#666" d="m754.61 116.23 9.32 5.04-10.43 1.88z"/>
        </g>
        <g stroke="#ccc" class="edge">
            <path fill="none" stroke-dasharray="5,2" d="M378.95 63.06C469.03 53.01 611.74 45.75 729.5 79c18.15 5.13 36.32 15.39 50.98 25.29"/>
            <path fill="#ccc" d="m782.17 101.2 6.17 8.61-10.19-2.89z"/>
        </g>
        <g stroke="#ccc" class="edge">
            <path fill="none" stroke-dasharray="5,2" d="M362.16 94.48c5.78 2.52 11.39 5.34 16.59 8.52 19.59 11.95 17.18 23.88 36 37 5.41 3.78 11.32 7.28 17.36 10.5"/>
            <path fill="#ccc" d="m433.63 147.35 7.37 7.6-10.5-1.35z"/>
        </g>
        <g class="node">
            <path fill="#add8e6" stroke="#000" d="M569.5 95H414.75v36H569.5z"/>
            <text x="488.12" y="-127.95" font-family="Times New Roman,serif" font-size="14" text-anchor="middle" transform="translate(4 246)">:server:domain:employee</text>
        </g>
        <g stroke="#ccc" class="edge">
            <path fill="none" stroke-dasharray="5,2" d="M379.01 92.34c8 1.47 16.09 2.96 24.08 4.44"/>
            <path fill="#ccc" d="m403.61 93.31 9.2 5.26-10.47 1.63z"/>
        </g>
        <g stroke="#999" class="edge">
            <path fill="none" stroke-dasharray="5,2" d="M557.7 164.89c57.48-8.1 140.79-19.85 196.27-27.67"/>
            <path fill="#999" d="m753.48 133.75 10.39 2.07-9.42 4.86z"/>
        </g>
        <g stroke="#ccc" class="edge">
            <path fill="none" stroke-dasharray="5,2" d="M557.57 211.46c47.81-12.68 114.38-31.22 171.93-50.46 8.72-2.92 17.88-6.21 26.79-9.55"/>
            <path fill="#ccc" d="m754.99 148.2 10.59-.29-8.1 6.83z"/>
        </g>
        <g stroke="#ccc" class="edge">
            <path fill="none" stroke-dasharray="5,2" d="M357.47 145.82c7.48 3.11 14.75 6.8 21.28 11.18 20.98 14.07 15.33 29.47 36 44q2.37 1.665 4.89 3.21"/>
            <path fill="#ccc" d="m421.19 201.07 7.08 7.88-10.45-1.75z"/>
        </g>
        <g stroke="#ccc" class="edge">
            <path fill="none" stroke-dasharray="5,2" d="M357.78 124.29c14.67-1.24 30.39-2.57 45.71-3.87"/>
            <path fill="#ccc" d="m402.78 116.97 10.26 2.64-9.67 4.33z"/>
        </g>
        <g stroke="#999" class="edge">
            <path fill="none" stroke-dasharray="5,2" d="M569.93 109.9c7.91-.32 15.93-.64 23.8-.96"/>
            <path fill="#999" d="m593.46 105.45 10.13 3.09-9.85 3.9z"/>
        </g>
        <g stroke="#999" class="edge">
            <path fill="none" stroke-dasharray="5,2" d="M569.96 128.52c11.85 1.86 23.99 3.46 35.54 4.48 54.9 4.85 68.9 1.33 124 0 7.82-.19 16.05-.48 24.16-.82"/>
            <path fill="#999" d="m753.35 128.69 10.14 3.06-9.83 3.94z"/>
        </g>
    </g>
</svg>
