<svg xmlns="http://www.w3.org/2000/svg" width="463pt" height="98pt" viewBox="0 0 463.25 98">
    <g class="graph">
        <path fill="#fff" d="M0 98V0h463.25v98z"/>
        <g class="node">
            <path fill="#90ee90" stroke="#000" d="M116 31H4v36h112z"/>
            <text x="56" y="-39.95" font-family="Times New Roman,serif" font-size="14" text-anchor="middle" transform="translate(4 94)">:server:data:room</text>
        </g>
        <g class="node">
            <path fill="#add8e6" stroke="#000" d="M327.75 4H152v36h175.75z"/>
            <text x="235.88" y="-66.95" font-family="Times New Roman,serif" font-size="14" text-anchor="middle" transform="translate(4 94)">:server:domain:housekeeping</text>
        </g>
        <g stroke="#000" class="edge">
            <path fill="none" d="M116.31 40.61c7.71-1.18 15.82-2.41 24.04-3.65"/>
            <path d="m139.69 33.52 10.41 1.96-9.36 4.96z"/>
        </g>
        <g class="node">
            <path fill="#add8e6" stroke="#000" d="M304.88 58h-130v36h130z"/>
            <text x="235.88" y="-12.95" font-family="Times New Roman,serif" font-size="14" text-anchor="middle" transform="translate(4 94)">:server:core:database</text>
        </g>
        <g stroke="#000" class="edge">
            <path fill="none" d="M116.31 57.39c14.85 2.26 31.17 4.74 46.92 7.13"/>
            <path d="m163.72 61.05 9.36 4.96-10.41 1.96z"/>
        </g>
        <g class="node">
            <path fill="#add8e6" stroke="#000" d="M459.25 4h-95.5v36h95.5z"/>
            <text x="407.5" y="-66.95" font-family="Times New Roman,serif" font-size="14" text-anchor="middle" transform="translate(4 94)">:core:common</text>
        </g>
        <g stroke="#ccc" class="edge">
            <path fill="none" stroke-dasharray="5,2" d="M328.17 22h23.87"/>
            <path fill="#ccc" d="m351.98 18.5 10 3.5-10 3.5z"/>
        </g>
        <g stroke="#ccc" class="edge">
            <path fill="none" stroke-dasharray="5,2" d="M300.73 57.52c9.06-2.83 18.29-5.74 27.02-8.52 8.01-2.55 16.45-5.27 24.74-7.96"/>
            <path fill="#ccc" d="m351.24 37.77 10.6.23-8.43 6.42z"/>
        </g>
        <g class="node">
            <path fill="#add8e6" stroke="#000" d="M439 58h-55v36h55z"/>
            <text x="407.5" y="-12.95" font-family="Times New Roman,serif" font-size="14" text-anchor="middle" transform="translate(4 94)">:shared</text>
        </g>
        <g stroke="#ccc" class="edge">
            <path fill="none" stroke-dasharray="5,2" d="M305 76h67.19"/>
            <path fill="#ccc" d="m372.03 72.5 10 3.5-10 3.5z"/>
        </g>
    </g>
</svg>
