<svg xmlns="http://www.w3.org/2000/svg" width="484" height="206pt" viewBox="0 0 362.75 206">
    <g class="graph">
        <path fill="#fff" d="M0 206V0h362.75v206z"/>
        <g class="node">
            <path fill="#90ee90" stroke="#000" d="M73.25 85H4v36h69.25z"/>
            <text x="34.62" y="-93.95" font-family="Times New Roman,serif" font-size="14" text-anchor="middle" transform="translate(4 202)">:data:auth</text>
        </g>
        <g class="node">
            <path fill="#add8e6" stroke="#000" d="M213.75 4h-91v36h91z"/>
            <text x="164.25" y="-174.95" font-family="Times New Roman,serif" font-size="14" text-anchor="middle" transform="translate(4 202)">:core:network</text>
        </g>
        <g stroke="#000" class="edge">
            <path fill="none" d="M60.67 84.67C74.04 73.54 92.01 59.51 109.25 49c1.85-1.13 3.75-2.24 5.69-3.33"/>
            <path d="m113.04 42.71 10.48-1.62-7.18 7.8z"/>
        </g>
        <g class="node">
            <path fill="#add8e6" stroke="#000" d="M227.25 58h-118v36h118z"/>
            <text x="164.25" y="-120.95" font-family="Times New Roman,serif" font-size="14" text-anchor="middle" transform="translate(4 202)">:domain:employee</text>
        </g>
        <g stroke="#000" class="edge">
            <path fill="none" d="M73.49 95.84c7.6-1.61 15.93-3.38 24.4-5.17"/>
            <path d="m97.05 87.27 10.51 1.36-9.06 5.49z"/>
        </g>
        <g class="node">
            <path fill="#add8e6" stroke="#000" d="M212.25 112h-88v36h88z"/>
            <text x="164.25" y="-66.95" font-family="Times New Roman,serif" font-size="14" text-anchor="middle" transform="translate(4 202)">:domain:auth</text>
        </g>
        <g stroke="#000" class="edge">
            <path fill="none" d="M73.49 110.16c12.12 2.57 26.09 5.52 39.5 8.36"/>
            <path d="m113.52 115.05 9.06 5.5-10.51 1.35z"/>
        </g>
        <g class="node">
            <path fill="#add8e6" stroke="#000" d="M195.75 166h-55v36h55z"/>
            <text x="164.25" y="-12.95" font-family="Times New Roman,serif" font-size="14" text-anchor="middle" transform="translate(4 202)">:shared</text>
        </g>
        <g stroke="#000" class="edge">
            <path fill="none" d="M60.67 121.33c13.37 11.13 31.34 25.16 48.58 35.67 6.56 4 13.81 7.81 20.91 11.25"/>
            <path d="m131.37 164.95 7.59 7.39-10.55-1.05z"/>
        </g>
        <g class="node">
            <path fill="#add8e6" stroke="#000" d="M358.75 58h-95.5v36h95.5z"/>
            <text x="307" y="-120.95" font-family="Times New Roman,serif" font-size="14" text-anchor="middle" transform="translate(4 202)">:core:common</text>
        </g>
        <g stroke="#ccc" class="edge">
            <path fill="none" stroke-dasharray="5,2" d="M214.17 39.23c12.19 4.68 25.57 9.81 38.35 14.72"/>
            <path fill="#ccc" d="m253.59 50.61 8.08 6.85-10.59-.32z"/>
        </g>
        <g stroke="#ccc" class="edge">
            <path fill="none" stroke-dasharray="5,2" d="M227.72 76h23.95"/>
            <path fill="#ccc" d="m251.55 72.5 10 3.5-10 3.5z"/>
        </g>
        <g stroke="#ccc" class="edge">
            <path fill="none" stroke-dasharray="5,2" d="M212.63 113.36c12.62-4.84 26.6-10.21 39.94-15.33"/>
            <path fill="#ccc" d="m251.09 94.85 10.59-.31-8.08 6.85z"/>
        </g>
    </g>
</svg>
