<svg xmlns="http://www.w3.org/2000/svg" width="286pt" height="152pt" viewBox="0 0 286 152">
    <g class="graph">
        <path fill="#fff" d="M0 152V0h286v152z"/>
        <g class="node">
            <path fill="#90ee90" stroke="#000" d="M140 58H4v36h136z"/>
            <text x="68" y="-66.95" font-family="Times New Roman,serif" font-size="14" text-anchor="middle" transform="translate(4 148)">:server:data:employee</text>
        </g>
        <g class="node">
            <path fill="#add8e6" stroke="#000" d="M256.5 4h-55v36h55z"/>
            <text x="225" y="-120.95" font-family="Times New Roman,serif" font-size="14" text-anchor="middle" transform="translate(4 148)">:shared</text>
        </g>
        <g stroke="#000" class="edge">
            <path fill="none" d="M125.91 57.57c21.26-7.41 45.27-15.78 64.67-22.53"/>
            <path d="m189.38 31.75 10.6.01-8.29 6.6z"/>
        </g>
        <g class="node">
            <path fill="#add8e6" stroke="#000" d="M276.75 58h-95.5v36h95.5z"/>
            <text x="225" y="-66.95" font-family="Times New Roman,serif" font-size="14" text-anchor="middle" transform="translate(4 148)">:core:common</text>
        </g>
        <g stroke="#000" class="edge">
            <path fill="none" d="M140.08 76h29.36"/>
            <path d="m169.37 72.5 10 3.5-10 3.5z"/>
        </g>
        <g class="node">
            <path fill="#add8e6" stroke="#000" d="M282 112H176v36h106z"/>
            <text x="225" y="-12.95" font-family="Times New Roman,serif" font-size="14" text-anchor="middle" transform="translate(4 148)">:server:core:data</text>
        </g>
        <g stroke="#000" class="edge">
            <path fill="none" d="M125.91 94.43c12.54 4.37 26.03 9.07 38.98 13.58"/>
            <path d="m165.87 104.65 8.29 6.59-10.59.02z"/>
        </g>
    </g>
</svg>
