<svg xmlns="http://www.w3.org/2000/svg" width="973pt" height="464" viewBox="0 0 972.5 348">
    <g class="graph">
        <path fill="#fff" d="M0 348V0h972.5v348z"/>
        <g class="node">
            <path fill="#90ee90" stroke="#000" d="M126.5 189H4v36h122.5z"/>
            <text x="61.25" y="-131.95" font-family="Times New Roman,serif" font-size="14" text-anchor="middle" transform="translate(4 344)">:server:service:shift</text>
        </g>
        <g class="node">
            <path fill="#add8e6" stroke="#000" d="M314.25 216H162.5v36h151.75z"/>
            <text x="234.38" y="-104.95" font-family="Times New Roman,serif" font-size="14" text-anchor="middle" transform="translate(4 344)">:server:service:employee</text>
        </g>
        <g stroke="#000" class="edge">
            <path fill="none" d="M126.58 216.52c7.94 1.25 16.2 2.55 24.46 3.86"/>
            <path d="m151.47 216.9 9.33 5.02-10.42 1.9z"/>
        </g>
        <g class="node">
            <path fill="#add8e6" stroke="#000" d="M968.5 70H873v36h95.5z"/>
            <text x="916.75" y="-250.95" font-family="Times New Roman,serif" font-size="14" text-anchor="middle" transform="translate(4 344)">:core:common</text>
        </g>
        <g stroke="#000" class="edge">
            <path fill="none" d="M82.86 188.63C129.95 138.66 270.48 4 417.25 4h183.37C707.03 4 736.45 7.18 837 42c15.75 5.45 32 13.8 45.89 21.9"/>
            <path d="m884.48 60.77 6.77 8.15-10.38-2.15z"/>
        </g>
        <g class="node">
            <path fill="#add8e6" stroke="#000" d="M291.75 162H185v36h106.75z"/>
            <text x="234.38" y="-158.95" font-family="Times New Roman,serif" font-size="14" text-anchor="middle" transform="translate(4 344)">:server:data:shift</text>
        </g>
        <g stroke="#000" class="edge">
            <path fill="none" d="M126.58 197.48c15.26-2.41 31.69-5 47.1-7.43"/>
            <path d="m172.77 186.65 10.43 1.9-9.33 5.01z"/>
        </g>
        <g class="node">
            <path fill="#add8e6" stroke="#000" d="M445.75 308h-55v36h55z"/>
            <text x="414.25" y="-12.95" font-family="Times New Roman,serif" font-size="14" text-anchor="middle" transform="translate(4 344)">:shared</text>
        </g>
        <g stroke="#000" class="edge">
            <path fill="none" d="M94.34 225.35c18.69 11.55 44.14 26.04 68.16 35.65 74.31 29.73 166.33 49.23 216.95 58.56"/>
            <path d="m379.79 316.07 9.21 5.22-10.46 1.66z"/>
        </g>
        <g stroke="#ccc" class="edge">
            <path fill="none" stroke-dasharray="5,2" d="M303.98 252.48c15.06 3.54 31.12 6.7 46.27 8.52 144.19 17.3 183.45 23.53 326.75 0 74.06-12.16 100-8.92 160-54 31.79-23.89 55.87-63.63 69.64-90.55"/>
            <path fill="#ccc" d="m903.33 115.25 7.57-7.42-1.3 10.52z"/>
        </g>
        <g class="node">
            <path fill="#add8e6" stroke="#000" d="M470.88 216H365.62v36h105.26z"/>
            <text x="414.25" y="-104.95" font-family="Times New Roman,serif" font-size="14" text-anchor="middle" transform="translate(4 344)">:server:data:user</text>
        </g>
        <g stroke="#ccc" class="edge">
            <path fill="none" stroke-dasharray="5,2" d="M314.55 234h39.26"/>
            <path fill="#ccc" d="m353.72 230.5 10 3.5-10 3.5z"/>
        </g>
        <g stroke="#ccc" class="edge">
            <path fill="none" stroke-dasharray="5,2" d="M272.14 252.29c21.95 12.12 51.58 28.21 78.11 41.71 9.62 4.9 20.11 10.01 29.88 14.68"/>
            <path fill="#ccc" d="m381.46 305.44 7.54 7.45-10.54-1.13z"/>
        </g>
        <g class="node">
            <path fill="#add8e6" stroke="#000" d="M486.25 162h-136v36h136z"/>
            <text x="414.25" y="-158.95" font-family="Times New Roman,serif" font-size="14" text-anchor="middle" transform="translate(4 344)">:server:data:employee</text>
        </g>
        <g stroke="#ccc" class="edge">
            <path fill="none" stroke-dasharray="5,2" d="M300.09 215.57c14.66-4.45 30.46-9.25 45.56-13.83"/>
            <path fill="#ccc" d="m344.47 198.44 10.59.44-8.56 6.25z"/>
        </g>
        <g class="node">
            <path fill="#add8e6" stroke="#000" d="M481 108H355.5v36H481z"/>
            <text x="414.25" y="-212.95" font-family="Times New Roman,serif" font-size="14" text-anchor="middle" transform="translate(4 344)">:server:domain:shift</text>
        </g>
        <g class="node">
            <path fill="#add8e6" stroke="#000" d="M677 124H522.25v36H677z"/>
            <text x="595.62" y="-196.95" font-family="Times New Roman,serif" font-size="14" text-anchor="middle" transform="translate(4 344)">:server:domain:employee</text>
        </g>
        <g stroke="#999" class="edge">
            <path fill="none" stroke-dasharray="5,2" d="M481.48 131.55c9.39.84 19.21 1.71 29.01 2.59"/>
            <path fill="#999" d="m510.8 130.65 9.65 4.38-10.27 2.59z"/>
        </g>
        <g stroke="#999" class="edge">
            <path fill="none" stroke-dasharray="5,2" d="M440.38 107.57c19.67-15.84 50.59-37.52 81.87-46.57 116.85-33.79 260.73-8.42 339.37 10.78"/>
            <path fill="#999" d="m862.42 68.37 8.85 5.83-10.55.96z"/>
        </g>
        <g class="node">
            <path fill="#add8e6" stroke="#000" d="M837 162H713v36h124z"/>
            <text x="771" y="-158.95" font-family="Times New Roman,serif" font-size="14" text-anchor="middle" transform="translate(4 344)">:server:domain:user</text>
        </g>
        <g stroke="#666" class="edge">
            <path fill="none" stroke-dasharray="5,2" d="M677.43 158.83c8 1.76 16.12 3.54 24.07 5.28"/>
            <path fill="#666" d="m702.11 160.66 9.02 5.56-10.52 1.28z"/>
        </g>
        <g stroke="#666" class="edge">
            <path fill="none" stroke-dasharray="5,2" d="M677.47 129c56.58-9.58 132.35-22.4 183.99-31.14"/>
            <path fill="#666" d="m860.81 94.42 10.44 1.79-9.27 5.12z"/>
        </g>
        <g stroke="#333" class="edge">
            <path fill="none" stroke-dasharray="5,2" d="M807.89 161.68c9.44-5.56 19.76-11.76 29.11-17.68 15.75-9.97 32.86-21.43 47.41-31.38"/>
            <path fill="#333" d="m882.09 109.96 10.23-2.78-6.26 8.55z"/>
        </g>
        <g stroke="#ccc" class="edge">
            <path fill="none" stroke-dasharray="5,2" d="M291.78 164.09c16.88-5.12 35.89-10.9 53.91-16.37"/>
            <path fill="#ccc" d="m344.42 144.45 10.59.45-8.55 6.25z"/>
        </g>
        <g class="node">
            <path fill="#add8e6" stroke="#000" d="M664.62 70h-130v36h130z"/>
            <text x="595.62" y="-250.95" font-family="Times New Roman,serif" font-size="14" text-anchor="middle" transform="translate(4 344)">:server:core:database</text>
        </g>
        <g stroke="#ccc" class="edge">
            <path fill="none" stroke-dasharray="5,2" d="M257.38 161.51c20.42-19.6 55.76-49.48 92.87-62.51 55.45-19.46 122.17-21.34 172.49-18.82"/>
            <path fill="#ccc" d="m522.89 76.68 9.78 4.07-10.18 2.92z"/>
        </g>
        <g stroke="#ccc" class="edge">
            <path fill="none" stroke-dasharray="5,2" d="M291.78 180h46.81"/>
            <path fill="#ccc" d="m338.51 176.5 10 3.5-10 3.5z"/>
        </g>
        <g stroke="#999" class="edge">
            <path fill="none" stroke-dasharray="5,2" d="M471.31 218.74c16.21-4.32 34.21-8.67 50.94-11.74 59.76-10.97 128.39-17.97 178.88-22.08"/>
            <path fill="#999" d="m700.83 181.43 10.25 2.7-9.69 4.28z"/>
        </g>
        <g class="node">
            <path fill="#add8e6" stroke="#000" d="M662.75 216H536.5v36h126.25z"/>
            <text x="595.62" y="-104.95" font-family="Times New Roman,serif" font-size="14" text-anchor="middle" transform="translate(4 344)">:server:core:firebase</text>
        </g>
        <g stroke="#999" class="edge">
            <path fill="none" stroke-dasharray="5,2" d="M471.13 234h53.56"/>
            <path fill="#999" d="m524.54 230.5 10 3.5-10 3.5z"/>
        </g>
        <g stroke="#666" class="edge">
            <path fill="none" stroke-dasharray="5,2" d="M664.82 88h196.51"/>
            <path fill="#666" d="m861.24 84.5 10 3.5-10 3.5z"/>
        </g>
        <g stroke="#999" class="edge">
            <path fill="none" stroke-dasharray="5,2" d="M486.55 165.74c7.93-1.68 16.11-3.41 24.26-5.14"/>
            <path fill="#999" d="m509.91 157.22 10.51 1.35-9.06 5.49z"/>
        </g>
        <g stroke="#999" class="edge">
            <path fill="none" stroke-dasharray="5,2" d="M471.61 161.51c5.11-2.57 10.08-5.4 14.64-8.51 19.23-13.09 16.49-25.33 36-38 1.81-1.18 3.68-2.31 5.6-3.4"/>
            <path fill="#999" d="m525.89 108.67 10.5-1.48-7.28 7.7z"/>
        </g>
    </g>
</svg>
