<svg xmlns="http://www.w3.org/2000/svg" width="641pt" height="116pt" viewBox="0 0 641.25 115.87">
    <g class="graph">
        <path fill="#fff" d="M0 115.87V0h641.25v115.87z"/>
        <g class="node">
            <path fill="#90ee90" stroke="#000" d="M146 21.87H4v36h142z"/>
            <text x="71" y="-66.95" font-family="Times New Roman,serif" font-size="14" text-anchor="middle" transform="translate(4 111.87)">:server:controller:room</text>
        </g>
        <g class="node">
            <path fill="#add8e6" stroke="#000" d="M294 21.87H182v36h112z"/>
            <text x="234" y="-66.95" font-family="Times New Roman,serif" font-size="14" text-anchor="middle" transform="translate(4 111.87)">:server:data:room</text>
        </g>
        <g stroke="#000" class="edge">
            <path fill="none" d="M146.15 39.87h24"/>
            <path d="m170.09 36.37 10 3.5-10 3.5z"/>
        </g>
        <g class="node">
            <path fill="#add8e6" stroke="#000" d="M505.75 75.87H330v36h175.75z"/>
            <text x="413.88" y="-12.95" font-family="Times New Roman,serif" font-size="14" text-anchor="middle" transform="translate(4 111.87)">:server:domain:housekeeping</text>
        </g>
        <g class="node">
            <path fill="#add8e6" stroke="#000" d="M637.25 21.87h-95.5v36h95.5z"/>
            <text x="585.5" y="-66.95" font-family="Times New Roman,serif" font-size="14" text-anchor="middle" transform="translate(4 111.87)">:core:common</text>
        </g>
        <g stroke="#999" class="edge">
            <path fill="none" stroke-dasharray="5,2" d="M478.73 75.39c9.06-2.83 18.29-5.74 27.02-8.52 8.01-2.55 16.45-5.27 24.74-7.96"/>
            <path fill="#999" d="m529.24 55.64 10.6.23-8.43 6.42z"/>
        </g>
        <g class="node">
            <path fill="#add8e6" stroke="#000" d="M617 75.87h-55v36h55z"/>
            <text x="585.5" y="-12.95" font-family="Times New Roman,serif" font-size="14" text-anchor="middle" transform="translate(4 111.87)">:shared</text>
        </g>
        <g stroke="#999" class="edge">
            <path fill="none" stroke-dasharray="5,2" d="M506.17 93.87h44.19"/>
            <path fill="#999" d="m550.32 90.37 10 3.5-10 3.5z"/>
        </g>
        <g stroke="#ccc" class="edge">
            <path fill="none" stroke-dasharray="5,2" d="M294.31 56.66c16.06 4.88 33.84 10.27 50.76 15.41"/>
            <path fill="#ccc" d="m346.03 68.71 8.56 6.25-10.59.44z"/>
        </g>
        <g stroke="#ccc" class="edge">
            <path fill="none" stroke-dasharray="5,2" d="M291.84 21.4c12.37-3.54 25.6-6.71 38.16-8.53 77.3-11.23 98.61-12.27 175.75 0 8.11 1.29 16.5 3.25 24.69 5.53"/>
            <path fill="#ccc" d="m531.41 15.04 8.58 6.21-10.59.49z"/>
        </g>
        <g class="node">
            <path fill="#add8e6" stroke="#000" d="M482.88 21.87h-130v36h130z"/>
            <text x="413.88" y="-66.95" font-family="Times New Roman,serif" font-size="14" text-anchor="middle" transform="translate(4 111.87)">:server:core:database</text>
        </g>
        <g stroke="#ccc" class="edge">
            <path fill="none" stroke-dasharray="5,2" d="M294.31 39.87h46.92"/>
            <path fill="#ccc" d="m341.06 36.37 10 3.5-10 3.5z"/>
        </g>
        <g stroke="#999" class="edge">
            <path fill="none" stroke-dasharray="5,2" d="M483 39.87h47.13"/>
            <path fill="#999" d="m529.95 36.37 10 3.5-10 3.5z"/>
        </g>
        <g stroke="#999" class="edge">
            <path fill="none" stroke-dasharray="5,2" d="M478.73 58.35c9.06 2.83 18.29 5.74 27.02 8.52 14.77 4.7 30.99 9.97 45.13 14.6"/>
            <path fill="#999" d="m551.85 78.11 8.41 6.44-10.59.21z"/>
        </g>
    </g>
</svg>
