<svg xmlns="http://www.w3.org/2000/svg" width="628" height="152pt" viewBox="0 0 471 152">
    <g class="graph">
        <path fill="#fff" d="M0 152V0h471v152z"/>
        <g class="node">
            <path fill="#90ee90" stroke="#000" d="M94.25 85H4v36h90.25z"/>
            <text x="45.12" y="-39.95" font-family="Times New Roman,serif" font-size="14" text-anchor="middle" transform="translate(4 148)">:feature:room</text>
        </g>
        <g class="node">
            <path fill="#add8e6" stroke="#000" d="M205.5 58h-75.25v36h75.25z"/>
            <text x="163.88" y="-66.95" font-family="Times New Roman,serif" font-size="14" text-anchor="middle" transform="translate(4 148)">:data:room</text>
        </g>
        <g stroke="#000" class="edge">
            <path fill="none" d="M94.6 92.72c7.97-1.85 16.31-3.78 24.37-5.64"/>
            <path d="m118.11 83.68 10.53 1.16-8.95 5.66z"/>
        </g>
        <g class="node">
            <path fill="#add8e6" stroke="#000" d="M196.5 112h-57.25v36h57.25z"/>
            <text x="163.88" y="-12.95" font-family="Times New Roman,serif" font-size="14" text-anchor="middle" transform="translate(4 148)">:core:ui</text>
        </g>
        <g stroke="#000" class="edge">
            <path fill="none" d="M94.6 113.28c10.98 2.54 22.65 5.24 33.34 7.72"/>
            <path d="m128.65 117.57 8.96 5.66-10.53 1.16z"/>
        </g>
        <g class="node">
            <path fill="#add8e6" stroke="#000" d="M334 4h-91v36h91z"/>
            <text x="284.5" y="-120.95" font-family="Times New Roman,serif" font-size="14" text-anchor="middle" transform="translate(4 148)">:core:network</text>
        </g>
        <g class="node">
            <path fill="#add8e6" stroke="#000" d="M467 27h-95.5v36H467z"/>
            <text x="415.25" y="-97.95" font-family="Times New Roman,serif" font-size="14" text-anchor="middle" transform="translate(4 148)">:core:common</text>
        </g>
        <g stroke="#999" class="edge">
            <path fill="none" stroke-dasharray="5,2" d="M334.17 29.98c8.28 1.48 17.04 3.04 25.66 4.58"/>
            <path fill="#999" d="m360.31 31.09 9.23 5.21-10.46 1.69z"/>
        </g>
        <g stroke="#ccc" class="edge">
            <path fill="none" stroke-dasharray="5,2" d="M205.76 59.21c9.79-4.46 20.54-9.35 30.94-14.08"/>
            <path fill="#ccc" d="m235 42.06 10.55-.96-7.65 7.33z"/>
        </g>
        <g class="node">
            <path fill="#add8e6" stroke="#000" d="M335.5 58h-94v36h94z"/>
            <text x="284.5" y="-66.95" font-family="Times New Roman,serif" font-size="14" text-anchor="middle" transform="translate(4 148)">:domain:room</text>
        </g>
        <g stroke="#ccc" class="edge">
            <path fill="none" stroke-dasharray="5,2" d="M205.76 76h23.85"/>
            <path fill="#ccc" d="m229.49 72.5 10 3.5-10 3.5z"/>
        </g>
        <g class="node">
            <path fill="#add8e6" stroke="#000" d="M446.75 104h-55v36h55z"/>
            <text x="415.25" y="-20.95" font-family="Times New Roman,serif" font-size="14" text-anchor="middle" transform="translate(4 148)">:shared</text>
        </g>
        <g stroke="#ccc" class="edge">
            <path fill="none" stroke-dasharray="5,2" d="M205.65 91.69c11.31 4.28 23.94 8.5 35.85 11.31 46.82 11.04 102.16 15.68 138.28 17.62"/>
            <path fill="#ccc" d="m379.92 117.12 9.82 3.99-10.16 3z"/>
        </g>
        <g stroke="#999" class="edge">
            <path fill="none" stroke-dasharray="5,2" d="M335.98 64.81c7.92-1.91 16.24-3.91 24.42-5.88"/>
            <path fill="#999" d="m359.39 55.57 10.54 1.06-8.9 5.75z"/>
        </g>
        <g stroke="#999" class="edge">
            <path fill="none" stroke-dasharray="5,2" d="M335.98 92.61c14.67 5.24 30.67 10.96 44.64 15.95"/>
            <path fill="#999" d="m381.65 105.21 8.24 6.66-10.59-.07z"/>
        </g>
    </g>
</svg>
