<svg xmlns="http://www.w3.org/2000/svg" width="968" height="344" viewBox="0 0 726.25 257.54">
    <g class="graph">
        <path fill="#fff" d="M0 257.54V0h726.25v257.54z"/>
        <g class="node">
            <path fill="#90ee90" stroke="#000" d="M92 171.54H4v36h88z"/>
            <text x="44" y="-58.95" font-family="Times New Roman,serif" font-size="14" text-anchor="middle" transform="translate(4 253.54)">:feature:hotel</text>
        </g>
        <g class="node">
            <path fill="#add8e6" stroke="#000" d="M255 125.54H128v36h127z"/>
            <text x="187.5" y="-104.95" font-family="Times New Roman,serif" font-size="14" text-anchor="middle" transform="translate(4 253.54)">:data:imageAnalysis</text>
        </g>
        <g stroke="#000" class="edge">
            <path fill="none" d="M92.22 175.49c9.72-3.16 20.25-6.58 30.69-9.98"/>
            <path d="m121.68 162.23 10.59.24-8.42 6.42z"/>
        </g>
        <g class="node">
            <path fill="#add8e6" stroke="#000" d="M401.5 171.54h-75.25v36h75.25z"/>
            <text x="359.88" y="-58.95" font-family="Times New Roman,serif" font-size="14" text-anchor="middle" transform="translate(4 253.54)">:data:room</text>
        </g>
        <g stroke="#000" class="edge">
            <path fill="none" d="M92.31 189.54h222.38"/>
            <path d="m314.36 186.04 10 3.5-10 3.5z"/>
        </g>
        <g class="node">
            <path fill="#add8e6" stroke="#000" d="M220.12 217.54h-57.24v36h57.24z"/>
            <text x="187.5" y="-12.95" font-family="Times New Roman,serif" font-size="14" text-anchor="middle" transform="translate(4 253.54)">:core:ui</text>
        </g>
        <g stroke="#000" class="edge">
            <path fill="none" d="m92.22 203.59 59.53 19.35"/>
            <path d="m152.83 219.61 8.43 6.42-10.59.24z"/>
        </g>
        <g stroke="#ccc" class="edge">
            <path fill="none" stroke-dasharray="5,2" d="M255.46 160.54c19.62 5.3 40.94 11.05 59.37 16.03"/>
            <path fill="#ccc" d="m315.69 173.18 8.74 5.98-10.56.77z"/>
        </g>
        <g class="node">
            <path fill="#add8e6" stroke="#000" d="M559.25 133.54h-55v36h55z"/>
            <text x="527.75" y="-96.95" font-family="Times New Roman,serif" font-size="14" text-anchor="middle" transform="translate(4 253.54)">:shared</text>
        </g>
        <g stroke="#ccc" class="edge">
            <path fill="none" stroke-dasharray="5,2" d="M234.31 125.12c17.21-6.63 37.55-13.28 56.69-16.58 63.84-11 82.46-13.79 145.75 0 1.58.34 31.18 13.93 56.75 25.74"/>
            <path fill="#ccc" d="m494.77 131.01 7.61 7.38-10.55-1.02z"/>
        </g>
        <g class="node">
            <path fill="#add8e6" stroke="#000" d="M436.75 25.54H291v36h145.75z"/>
            <text x="359.88" y="-204.95" font-family="Times New Roman,serif" font-size="14" text-anchor="middle" transform="translate(4 253.54)">:domain:imageAnalysis</text>
        </g>
        <g stroke="#ccc" class="edge">
            <path fill="none" stroke-dasharray="5,2" d="M216.38 125.19c19.46-14.49 47.98-34.7 74.62-49.65 5.36-3.01 11.06-5.95 16.81-8.75"/>
            <path fill="#ccc" d="m306.24 63.66 10.54-1.11-7.55 7.44z"/>
        </g>
        <g class="node">
            <path fill="#add8e6" stroke="#000" d="M577.25 187.54h-91v36h91z"/>
            <text x="527.75" y="-42.95" font-family="Times New Roman,serif" font-size="14" text-anchor="middle" transform="translate(4 253.54)">:core:network</text>
        </g>
        <g stroke="#ccc" class="edge">
            <path fill="none" stroke-dasharray="5,2" d="M209.68 161.8c18.21 17.89 48.78 44 81.32 54.74 60.57 20 134.42 12.15 184.02 2.6"/>
            <path fill="#ccc" d="m474.17 215.74 10.5 1.45-9.11 5.41z"/>
        </g>
        <g class="node">
            <path fill="#add8e6" stroke="#000" d="M413.5 117.54h-99.25v36h99.25z"/>
            <text x="359.88" y="-112.95" font-family="Times New Roman,serif" font-size="14" text-anchor="middle" transform="translate(4 253.54)">:data:employee</text>
        </g>
        <g stroke="#ccc" class="edge">
            <path fill="none" stroke-dasharray="5,2" d="M255.46 140.58c15.33-.72 31.7-1.48 46.92-2.2"/>
            <path fill="#ccc" d="m302.09 134.89 10.15 3.03-9.82 3.96z"/>
        </g>
        <g stroke="#ccc" class="edge">
            <path fill="none" stroke-dasharray="5,2" d="M401.69 181.11c27.06-6.2 63.72-14.6 91.06-20.86"/>
            <path fill="#ccc" d="m491.83 156.87 10.53 1.17-8.97 5.65z"/>
        </g>
        <g stroke="#ccc" class="edge">
            <path fill="none" stroke-dasharray="5,2" d="M401.69 193.09c21.42 2.07 48.86 4.71 72.93 7.04"/>
            <path fill="#ccc" d="m474.64 196.61 9.62 4.45-10.29 2.52z"/>
        </g>
        <g class="node">
            <path fill="#add8e6" stroke="#000" d="M578.75 79.54h-94v36h94z"/>
            <text x="527.75" y="-150.95" font-family="Times New Roman,serif" font-size="14" text-anchor="middle" transform="translate(4 253.54)">:domain:room</text>
        </g>
        <g stroke="#ccc" class="edge">
            <path fill="none" stroke-dasharray="5,2" d="M401.88 179.24c11.7-4.17 24.32-9.7 34.87-16.7 19.38-12.86 17.12-24.41 36-38 1.35-.97 2.74-1.93 4.17-2.86"/>
            <path fill="#ccc" d="m474.99 118.76 10.38-2.11-6.8 8.13z"/>
        </g>
        <g class="node">
            <path fill="#add8e6" stroke="#000" d="M722.25 79.54h-95.5v36h95.5z"/>
            <text x="670.5" y="-150.95" font-family="Times New Roman,serif" font-size="14" text-anchor="middle" transform="translate(4 253.54)">:core:common</text>
        </g>
        <g stroke="#999" class="edge">
            <path fill="none" stroke-dasharray="5,2" d="M411.22 25.07C458.18 9.29 532.06-7.4 590.75 16.54c26.43 10.78 49 34.53 63.86 53.54"/>
            <path fill="#999" d="m657.36 67.91 3.2 10.1-8.8-5.9z"/>
        </g>
        <g class="node">
            <path fill="#add8e6" stroke="#000" d="M590.75 25.54h-118v36h118z"/>
            <text x="527.75" y="-204.95" font-family="Times New Roman,serif" font-size="14" text-anchor="middle" transform="translate(4 253.54)">:domain:employee</text>
        </g>
        <g stroke="#999" class="edge">
            <path fill="none" stroke-dasharray="5,2" d="M437.15 43.54H461"/>
            <path fill="#999" d="m460.9 40.04 10 3.5-10 3.5z"/>
        </g>
        <g stroke="#999" class="edge">
            <path fill="none" stroke-dasharray="5,2" d="M421.5 61.97c16.78 5.47 35.17 11.45 51.99 16.93"/>
            <path fill="#999" d="m474.42 75.52 8.43 6.43-10.59.23z"/>
        </g>
        <g stroke="#999" class="edge">
            <path fill="none" stroke-dasharray="5,2" d="M576.41 187.2c4.98-2.66 9.86-5.56 14.34-8.66 22.39-15.49 44.24-37.25 59.86-54.32"/>
            <path fill="#999" d="m647.89 122.02 9.28-5.11-4.07 9.78z"/>
        </g>
        <g stroke="#999" class="edge">
            <path fill="none" stroke-dasharray="5,2" d="m413.75 140.25 78.86 7.61"/>
            <path fill="#999" d="m492.72 144.36 9.62 4.44-10.29 2.52z"/>
        </g>
        <g stroke="#999" class="edge">
            <path fill="none" stroke-dasharray="5,2" d="M413.77 153.38c7.72 2.97 15.6 6.09 22.98 9.16 8.8 3.66 26.46 11.68 44.13 19.81"/>
            <path fill="#999" d="m482.23 179.12 7.61 7.37-10.55-1.02z"/>
        </g>
        <g stroke="#999" class="edge">
            <path fill="none" stroke-dasharray="5,2" d="M393.24 117.31c21.48-13.52 51.91-32.08 79.51-46.77 2.19-1.17 4.44-2.33 6.72-3.49"/>
            <path fill="#999" d="m477.73 64 10.52-1.3-7.41 7.57z"/>
        </g>
        <g stroke="#666" class="edge">
            <path fill="none" stroke-dasharray="5,2" d="M580.79 61.97c11.35 4.35 23.55 9.04 35.26 13.53"/>
            <path fill="#666" d="m617.13 72.16 8.08 6.85-10.59-.31z"/>
        </g>
        <g stroke="#999" class="edge">
            <path fill="none" stroke-dasharray="5,2" d="M579.23 97.54h36.04"/>
            <path fill="#999" d="m615.08 94.04 10 3.5-10 3.5z"/>
        </g>
    </g>
</svg>
