<svg xmlns="http://www.w3.org/2000/svg" width="1201pt" height="544" viewBox="0 0 1200.75 407.58">
    <g class="graph">
        <path fill="#fff" d="M0 407.58V0h1200.75v407.58z"/>
        <g class="node">
            <path fill="#90ee90" stroke="#000" d="M80 161.43H4v36h76z"/>
            <text x="38" y="-219.1" font-family="Times New Roman,serif" font-size="14" text-anchor="middle" transform="translate(4 403.58)">:server:app</text>
        </g>
        <g class="node">
            <path fill="#add8e6" stroke="#000" d="M270 84.43H128v36h142z"/>
            <text x="195" y="-296.1" font-family="Times New Roman,serif" font-size="14" text-anchor="middle" transform="translate(4 403.58)">:server:controller:room</text>
        </g>
        <g stroke="#000" class="edge">
            <path fill="none" d="M66.28 160.96c13.85-10.32 32.1-22.82 49.72-31.53 3.06-1.52 6.22-2.97 9.45-4.37"/>
            <path d="m123.92 121.9 10.58-.54-7.93 7.02z"/>
        </g>
        <g class="node">
            <path fill="#add8e6" stroke="#000" d="M851.62 184.43h-130v36h130z"/>
            <text x="782.62" y="-196.1" font-family="Times New Roman,serif" font-size="14" text-anchor="middle" transform="translate(4 403.58)">:server:core:database</text>
        </g>
        <g stroke="#000" class="edge">
            <path fill="none" d="M80.13 181.65c11.49.64 24.2 1.29 35.87 1.78 215.51 8.96 470.21 14.9 594.21 17.5"/>
            <path d="m709.99 197.43 9.93 3.71-10.07 3.29z"/>
        </g>
        <g class="node">
            <path fill="#add8e6" stroke="#000" d="M267.38 230.43H130.62v36h136.76z"/>
            <text x="195" y="-150.1" font-family="Times New Roman,serif" font-size="14" text-anchor="middle" transform="translate(4 403.58)">:server:controller:shift</text>
        </g>
        <g stroke="#000" class="edge">
            <path fill="none" d="M77.57 197.81c12.04 6.18 25.72 12.93 38.43 18.62 7.11 3.18 14.64 6.36 22.14 9.42"/>
            <path d="m139.3 222.54 7.98 6.97-10.59-.47z"/>
        </g>
        <g class="node">
            <path fill="#add8e6" stroke="#000" d="M282 138.43H116v36h166z"/>
            <text x="195" y="-242.1" font-family="Times New Roman,serif" font-size="14" text-anchor="middle" transform="translate(4 403.58)">:server:controller:employee</text>
        </g>
        <g stroke="#000" class="edge">
            <path fill="none" d="M80.13 173.92c7.53-1.12 15.77-2.34 24.29-3.61"/>
            <path d="m103.82 166.86 10.41 2-9.38 4.93z"/>
        </g>
        <g class="node">
            <path fill="#add8e6" stroke="#000" d="M480.25 138.43H328.5v36h151.75z"/>
            <text x="400.38" y="-242.1" font-family="Times New Roman,serif" font-size="14" text-anchor="middle" transform="translate(4 403.58)">:server:service:employee</text>
        </g>
        <g class="node">
            <path fill="#add8e6" stroke="#000" d="M622.25 138.43h-55v36h55z"/>
            <text x="590.75" y="-242.1" font-family="Times New Roman,serif" font-size="14" text-anchor="middle" transform="translate(4 403.58)">:shared</text>
        </g>
        <g stroke="#999" class="edge">
            <path fill="none" stroke-dasharray="5,2" d="M480.64 156.43h75.06"/>
            <path fill="#999" d="m555.48 152.93 10 3.5-10 3.5z"/>
        </g>
        <g class="node">
            <path fill="#add8e6" stroke="#000" d="M1196.75 92.43h-95.5v36h95.5z"/>
            <text x="1145" y="-288.1" font-family="Times New Roman,serif" font-size="14" text-anchor="middle" transform="translate(4 403.58)">:core:common</text>
        </g>
        <g stroke="#999" class="edge">
            <path fill="none" stroke-dasharray="5,2" d="M477.83 137.97c16.01-3.42 32.96-6.54 48.92-8.54 205.78-25.81 452.75-23.58 563.07-20.86"/>
            <path fill="#999" d="m1089.59 105.06 9.9 3.76-10.08 3.24z"/>
        </g>
        <g class="node">
            <path fill="#add8e6" stroke="#000" d="M662.75 230.43h-136v36h136z"/>
            <text x="590.75" y="-150.1" font-family="Times New Roman,serif" font-size="14" text-anchor="middle" transform="translate(4 403.58)">:server:data:employee</text>
        </g>
        <g stroke="#999" class="edge">
            <path fill="none" stroke-dasharray="5,2" d="M443.04 174.82c29.65 14.48 71.15 34.75 103.1 50.35"/>
            <path fill="#999" d="m547.34 221.86 7.45 7.54-10.52-1.25z"/>
        </g>
        <g class="node">
            <path fill="#add8e6" stroke="#000" d="M490.75 84.43H318v36h172.75z"/>
            <text x="400.38" y="-296.1" font-family="Times New Roman,serif" font-size="14" text-anchor="middle" transform="translate(4 403.58)">:server:service:housekeeping</text>
        </g>
        <g stroke="#ccc" class="edge">
            <path fill="none" stroke-dasharray="5,2" d="M270.27 102.43h36.21"/>
            <path fill="#ccc" d="m306.14 98.93 10 3.5-10 3.5z"/>
        </g>
        <g stroke="#999" class="edge">
            <path fill="none" stroke-dasharray="5,2" d="M469.68 120.86c28.7 8.23 61.54 17.64 86.22 24.72"/>
            <path fill="#999" d="m556.86 142.21 8.65 6.12-10.58.61z"/>
        </g>
        <g stroke="#999" class="edge">
            <path fill="none" stroke-dasharray="5,2" d="M430.82 83.96c23.56-15.87 60.23-37.58 95.93-46.53 232.66-58.38 309.6-35.69 538.5 36 11.96 3.74 24.48 8.73 36.06 13.84"/>
            <path fill="#999" d="m1102.6 84.01 7.66 7.32-10.55-.94z"/>
        </g>
        <g class="node">
            <path fill="#add8e6" stroke="#000" d="M650.75 46.43h-112v36h112z"/>
            <text x="590.75" y="-334.1" font-family="Times New Roman,serif" font-size="14" text-anchor="middle" transform="translate(4 403.58)">:server:data:room</text>
        </g>
        <g stroke="#999" class="edge">
            <path fill="none" stroke-dasharray="5,2" d="M491.02 85.15c12.23-2.47 24.65-4.97 36.43-7.35"/>
            <path fill="#999" d="m526.54 74.41 10.49 1.46-9.11 5.4z"/>
        </g>
        <g stroke="#333" class="edge">
            <path fill="none" stroke-dasharray="5,2" d="M852.05 185.98c67.56-17.25 172.77-44.11 237.85-60.72"/>
            <path fill="#333" d="m1088.76 121.94 10.55.91-8.82 5.87z"/>
        </g>
        <g class="node">
            <path fill="#add8e6" stroke="#000" d="M648.12 284.43H541.38v36h106.74z"/>
            <text x="590.75" y="-96.1" font-family="Times New Roman,serif" font-size="14" text-anchor="middle" transform="translate(4 403.58)">:server:data:shift</text>
        </g>
        <g stroke="#666" class="edge">
            <path fill="none" stroke-dasharray="5,2" d="M644.09 283.98c6.34-2.72 12.7-5.61 18.66-8.55 29.38-14.55 61.17-33.52 85.05-48.48"/>
            <path fill="#666" d="m745.91 224 10.33-2.39-6.59 8.3z"/>
        </g>
        <g class="node">
            <path fill="#add8e6" stroke="#000" d="M849.38 282.43h-125.5v36h125.5z"/>
            <text x="782.62" y="-98.1" font-family="Times New Roman,serif" font-size="14" text-anchor="middle" transform="translate(4 403.58)">:server:domain:shift</text>
        </g>
        <g stroke="#666" class="edge">
            <path fill="none" stroke-dasharray="5,2" d="M648.39 301.87c19.72-.21 42.51-.45 63.77-.67"/>
            <path fill="#666" d="m711.91 297.7 10.03 3.4-9.96 3.6z"/>
        </g>
        <g class="node">
            <path fill="#add8e6" stroke="#000" d="M874.5 46.43H698.75v36H874.5z"/>
            <text x="782.62" y="-334.1" font-family="Times New Roman,serif" font-size="14" text-anchor="middle" transform="translate(4 403.58)">:server:domain:housekeeping</text>
        </g>
        <g stroke="#333" class="edge">
            <path fill="none" stroke-dasharray="5,2" d="M874.99 73.3c54.75 5.86 126.73 14.1 190.26 23.13 7.84 1.11 16.09 2.38 24.21 3.7"/>
            <path fill="#333" d="m1090.02 96.67 9.29 5.08-10.43 1.83z"/>
        </g>
        <g stroke="#666" class="edge">
            <path fill="none" stroke-dasharray="5,2" d="M663.23 232.08c15.18-3.68 31.39-7.61 46.87-11.36"/>
            <path fill="#666" d="m709.21 217.34 10.55 1.04-8.9 5.76z"/>
        </g>
        <g class="node">
            <path fill="#add8e6" stroke="#000" d="M1065.25 230.43H910.5v36h154.75z"/>
            <text x="983.88" y="-150.1" font-family="Times New Roman,serif" font-size="14" text-anchor="middle" transform="translate(4 403.58)">:server:domain:employee</text>
        </g>
        <g stroke="#666" class="edge">
            <path fill="none" stroke-dasharray="5,2" d="M662.99 248.43h235.93"/>
            <path fill="#666" d="m898.62 244.93 10 3.5-10 3.5z"/>
        </g>
        <g class="node">
            <path fill="#add8e6" stroke="#000" d="M465.62 230.43h-122.5v36h122.5z"/>
            <text x="400.38" y="-150.1" font-family="Times New Roman,serif" font-size="14" text-anchor="middle" transform="translate(4 403.58)">:server:service:shift</text>
        </g>
        <g stroke="#ccc" class="edge">
            <path fill="none" stroke-dasharray="5,2" d="M267.72 248.43h63.76"/>
            <path fill="#ccc" d="m331.28 244.93 10 3.5-10 3.5z"/>
        </g>
        <g stroke="#999" class="edge">
            <path fill="none" stroke-dasharray="5,2" d="M443.04 230.03c33.04-16.14 80.8-39.46 113.65-55.51"/>
            <path fill="#999" d="m554.92 171.5 10.52-1.25-7.45 7.54z"/>
        </g>
        <g stroke="#999" class="edge">
            <path fill="none" stroke-dasharray="5,2" d="M424.91 266.9c22.51 19.89 61.59 50.33 101.84 62.53 229.1 69.42 343.62 128.02 538.5-11 58.5-41.74 75.66-131.7 80.68-178.44"/>
            <path fill="#999" d="m1142.42 139.95 4.43-9.62 2.54 10.28z"/>
        </g>
        <g stroke="#999" class="edge">
            <path fill="none" stroke-dasharray="5,2" d="M466.01 265.81c20.52 5.88 43.47 12.46 64.2 18.4"/>
            <path fill="#999" d="m531.05 280.81 8.64 6.12-10.57.61z"/>
        </g>
        <g stroke="#999" class="edge">
            <path fill="none" stroke-dasharray="5,2" d="M466.01 248.43h49.12"/>
            <path fill="#999" d="m514.85 244.93 10 3.5-10 3.5z"/>
        </g>
        <g stroke="#333" class="edge">
            <path fill="none" stroke-dasharray="5,2" d="M1014.16 229.93c15.13-11.31 34.57-26.31 51.09-40.5 19.63-16.87 40.71-37.03 56.68-52.77"/>
            <path fill="#333" d="m1119.14 134.5 9.57-4.55-4.64 9.52z"/>
        </g>
        <g stroke="#666" class="edge">
            <path fill="none" stroke-dasharray="5,2" d="M620.96 82.75c33.48 24.33 92.74 67.4 130.3 94.7"/>
            <path fill="#666" d="m753.05 174.42 6.03 8.71-10.14-3.04z"/>
        </g>
        <g stroke="#666" class="edge">
            <path fill="none" stroke-dasharray="5,2" d="M651.18 64.43h35.85"/>
            <path fill="#666" d="m686.81 60.93 10 3.5-10 3.5z"/>
        </g>
        <g stroke="#333" class="edge">
            <path fill="none" stroke-dasharray="5,2" d="M849.6 311.03c60.36 6.86 152.05 7.71 215.65-35.6 46.45-31.64 68.09-97.35 77.12-135.62"/>
            <path fill="#333" d="m1138.88 139.38 5.57-9.02 1.26 10.52z"/>
        </g>
        <g stroke="#333" class="edge">
            <path fill="none" stroke-dasharray="5,2" d="M849.85 284.19c17.48-4.57 36.76-9.6 55.2-14.41"/>
            <path fill="#333" d="m904.06 266.42 10.56.86-8.79 5.91z"/>
        </g>
        <g stroke="#ccc" class="edge">
            <path fill="none" stroke-dasharray="5,2" d="M282.43 156.43h34.34"/>
            <path fill="#ccc" d="m316.53 152.93 10 3.5-10 3.5z"/>
        </g>
    </g>
</svg>
