<svg xmlns="http://www.w3.org/2000/svg" width="754pt" height="290pt" viewBox="0 0 754 290">
    <g class="graph">
        <path fill="#fff" d="M0 290V0h754v290z"/>
        <g class="node">
            <path fill="#90ee90" stroke="#000" d="M95.75 131H4v36h91.75z"/>
            <text x="45.88" y="-131.95" font-family="Times New Roman,serif" font-size="14" text-anchor="middle" transform="translate(4 286)">:composeApp</text>
        </g>
        <g class="node">
            <path fill="#add8e6" stroke="#000" d="M419.5 4H327v36h92.5z"/>
            <text x="369.25" y="-258.95" font-family="Times New Roman,serif" font-size="14" text-anchor="middle" transform="translate(4 286)">:core:resource</text>
        </g>
        <g stroke="#000" class="edge">
            <path fill="none" d="M58.65 130.63c11.74-25.16 36.58-69.51 73.1-89.63C188.37 9.82 264.13 9.33 315.37 13.85"/>
            <path d="m315.44 10.34 9.61 4.47-10.29 2.5z"/>
        </g>
        <g class="node">
            <path fill="#add8e6" stroke="#000" d="M251.25 50h-97v36h97z"/>
            <text x="198.75" y="-212.95" font-family="Times New Roman,serif" font-size="14" text-anchor="middle" transform="translate(4 286)">:feature:foryou</text>
        </g>
        <g stroke="#000" class="edge">
            <path fill="none" d="M75.14 130.74c15.63-11.23 36.68-25.4 56.61-35.74 3.86-2 7.9-3.94 12.01-5.8"/>
            <path d="m142.1 86.11 10.57-.75-7.8 7.18z"/>
        </g>
        <g class="node">
            <path fill="#add8e6" stroke="#000" d="M247.88 104h-90.26v36h90.26z"/>
            <text x="198.75" y="-158.95" font-family="Times New Roman,serif" font-size="14" text-anchor="middle" transform="translate(4 286)">:feature:room</text>
        </g>
        <g stroke="#000" class="edge">
            <path fill="none" d="M96.14 140.9c15.73-2.82 33.55-6 50.01-8.95"/>
            <path d="m145.34 128.54 10.46 1.68-9.22 5.21z"/>
        </g>
        <g class="node">
            <path fill="#add8e6" stroke="#000" d="M246.75 158h-88v36h88z"/>
            <text x="198.75" y="-104.95" font-family="Times New Roman,serif" font-size="14" text-anchor="middle" transform="translate(4 286)">:feature:hotel</text>
        </g>
        <g stroke="#000" class="edge">
            <path fill="none" d="M96.14 157.1c16.01 2.87 34.19 6.12 50.9 9.11"/>
            <path d="m147.61 162.76 9.23 5.2-10.46 1.69z"/>
        </g>
        <g class="node">
            <path fill="#add8e6" stroke="#000" d="M401.88 166h-57.26v36h57.26z"/>
            <text x="369.25" y="-96.95" font-family="Times New Roman,serif" font-size="14" text-anchor="middle" transform="translate(4 286)">:core:ui</text>
        </g>
        <g stroke="#000" class="edge">
            <path fill="none" d="M71.06 167.45c15.37 12.74 37.75 28.59 60.69 35.55 68.83 20.87 153.54 5.19 201.85-7.4"/>
            <path d="m332.47 192.29 10.56.76-8.74 5.99z"/>
        </g>
        <g class="node">
            <path fill="#add8e6" stroke="#000" d="M273.75 250h-142v36h142z"/>
            <text x="198.75" y="-12.95" font-family="Times New Roman,serif" font-size="14" text-anchor="middle" transform="translate(4 286)">:feature:imageAnalysis</text>
        </g>
        <g stroke="#000" class="edge">
            <path fill="none" d="M64.35 167.31c14.81 19.12 40.15 49.01 67.4 68.69 4.07 2.94 8.46 5.71 12.97 8.29"/>
            <path d="m146.24 241.13 7.18 7.79-10.47-1.61z"/>
        </g>
        <g stroke="#ccc" class="edge">
            <path fill="none" stroke-dasharray="5,2" d="M251.58 54.94c19.96-5.45 43.3-11.82 64.1-17.5"/>
            <path fill="#ccc" d="m314.59 34.11 10.57.75-8.73 6.01z"/>
        </g>
        <g class="node">
            <path fill="#add8e6" stroke="#000" d="M422.88 58h-99.26v36h99.26z"/>
            <text x="369.25" y="-204.95" font-family="Times New Roman,serif" font-size="14" text-anchor="middle" transform="translate(4 286)">:data:employee</text>
        </g>
        <g stroke="#ccc" class="edge">
            <path fill="none" stroke-dasharray="5,2" d="M251.58 70.27c18.79.89 40.57 1.93 60.42 2.87"/>
            <path fill="#ccc" d="m312.08 69.64 9.83 3.97-10.16 3.02z"/>
        </g>
        <g class="node">
            <path fill="#add8e6" stroke="#000" d="M410.88 112h-75.26v36h75.26z"/>
            <text x="369.25" y="-150.95" font-family="Times New Roman,serif" font-size="14" text-anchor="middle" transform="translate(4 286)">:data:room</text>
        </g>
        <g stroke="#ccc" class="edge">
            <path fill="none" stroke-dasharray="5,2" d="M251.58 85.6c22.94 8.44 50.32 18.52 73.2 26.93"/>
            <path fill="#ccc" d="m325.69 109.14 8.17 6.73-10.59-.16z"/>
        </g>
        <g stroke="#ccc" class="edge">
            <path fill="none" stroke-dasharray="5,2" d="M251.75 81.48c7.88 3.58 15.56 8.02 22 13.52 24.24 20.68 12.18 40.84 36 62 6.9 6.13 15.4 11.03 23.88 14.88"/>
            <path fill="#ccc" d="m334.91 168.62 7.94 7.02-10.58-.54z"/>
        </g>
        <g class="node">
            <path fill="#add8e6" stroke="#000" d="M573.12 58h-55v36h55z"/>
            <text x="541.62" y="-204.95" font-family="Times New Roman,serif" font-size="14" text-anchor="middle" transform="translate(4 286)">:shared</text>
        </g>
        <g stroke="#999" class="edge">
            <path fill="none" stroke-dasharray="5,2" d="M423.07 76h83.51"/>
            <path fill="#999" d="m506.49 72.5 10 3.5-10 3.5z"/>
        </g>
        <g class="node">
            <path fill="#add8e6" stroke="#000" d="M604.62 4h-118v36h118z"/>
            <text x="541.62" y="-258.95" font-family="Times New Roman,serif" font-size="14" text-anchor="middle" transform="translate(4 286)">:domain:employee</text>
        </g>
        <g stroke="#999" class="edge">
            <path fill="none" stroke-dasharray="5,2" d="M423.07 60.53c16.37-5.19 34.94-11.08 52.56-16.66"/>
            <path fill="#999" d="m474.41 40.58 10.59.32-8.48 6.36z"/>
        </g>
        <g class="node">
            <path fill="#add8e6" stroke="#000" d="M591.12 112h-91v36h91z"/>
            <text x="541.62" y="-150.95" font-family="Times New Roman,serif" font-size="14" text-anchor="middle" transform="translate(4 286)">:core:network</text>
        </g>
        <g stroke="#999" class="edge">
            <path fill="none" stroke-dasharray="5,2" d="M423.07 91.47c20.6 6.53 44.69 14.17 65.97 20.91"/>
            <path fill="#999" d="m489.96 109 8.47 6.36-10.59.31z"/>
        </g>
        <g stroke="#ccc" class="edge">
            <path fill="none" stroke-dasharray="5,2" d="M248.21 109.01c8.92-3.72 17.9-8.35 25.54-14.01 20.86-15.45 15.45-30.14 36-46 2.25-1.74 4.63-3.39 7.1-4.95"/>
            <path fill="#ccc" d="m314.95 41.11 10.42-1.91-6.96 7.99z"/>
        </g>
        <g stroke="#ccc" class="edge">
            <path fill="none" stroke-dasharray="5,2" d="M248.02 109.91c19.68-5.37 43.15-11.77 64.36-17.57"/>
            <path fill="#ccc" d="m311.2 89.04 10.57.74-8.72 6.01z"/>
        </g>
        <g stroke="#ccc" class="edge">
            <path fill="none" stroke-dasharray="5,2" d="M248.02 124.1c23.38 1.11 52.11 2.48 76.04 3.61"/>
            <path fill="#ccc" d="m324.05 124.21 9.82 3.97-10.15 3.02z"/>
        </g>
        <g stroke="#ccc" class="edge">
            <path fill="none" stroke-dasharray="5,2" d="M248.02 138.29c26.67 9.81 60.3 22.19 85.84 31.58"/>
            <path fill="#ccc" d="m335.02 166.57 8.18 6.74-10.59-.17z"/>
        </g>
        <g stroke="#999" class="edge">
            <path fill="none" stroke-dasharray="5,2" d="M411.22 118.28c28.34-8.98 67.29-21.33 95.79-30.36"/>
            <path fill="#999" d="m505.72 84.66 10.6.31-8.48 6.36z"/>
        </g>
        <g class="node">
            <path fill="#add8e6" stroke="#000" d="M592.62 166h-94v36h94z"/>
            <text x="541.62" y="-96.95" font-family="Times New Roman,serif" font-size="14" text-anchor="middle" transform="translate(4 286)">:domain:room</text>
        </g>
        <g stroke="#999" class="edge">
            <path fill="none" stroke-dasharray="5,2" d="M411.22 141.72c22.25 7.05 51.04 16.18 76.18 24.14"/>
            <path fill="#999" d="m488.37 162.5 8.48 6.36-10.59.31z"/>
        </g>
        <g stroke="#999" class="edge">
            <path fill="none" stroke-dasharray="5,2" d="M411.22 130h77.28"/>
            <path fill="#999" d="m488.34 126.5 10 3.5-10 3.5z"/>
        </g>
        <g class="node">
            <path fill="#add8e6" stroke="#000" d="M750 139h-95.5v36H750z"/>
            <text x="698.25" y="-123.95" font-family="Times New Roman,serif" font-size="14" text-anchor="middle" transform="translate(4 286)">:core:common</text>
        </g>
        <g stroke="#666" class="edge">
            <path fill="none" stroke-dasharray="5,2" d="M604.64 40.44c4.88 2.54 9.58 5.38 13.86 8.56 29.05 21.55 52.95 55.96 67.47 80.13"/>
            <path fill="#666" d="m688.84 127.09 2.01 10.4-8.06-6.87z"/>
        </g>
        <g stroke="#ccc" class="edge">
            <path fill="none" stroke-dasharray="5,2" d="M247.14 164.15c23.68-6.46 53.04-14.47 77.36-21.11"/>
            <path fill="#ccc" d="m323.26 139.75 10.56.74-8.72 6.01z"/>
        </g>
        <g stroke="#ccc" class="edge">
            <path fill="none" stroke-dasharray="5,2" d="m247.14 178.06 85.98 4.08"/>
            <path fill="#ccc" d="m332.99 178.63 9.83 3.97-10.16 3.02z"/>
        </g>
        <g class="node">
            <path fill="#add8e6" stroke="#000" d="M436.75 250h-127v36h127z"/>
            <text x="369.25" y="-12.95" font-family="Times New Roman,serif" font-size="14" text-anchor="middle" transform="translate(4 286)">:data:imageAnalysis</text>
        </g>
        <g class="node">
            <path fill="#add8e6" stroke="#000" d="M618.5 250H472.75v36H618.5z"/>
            <text x="541.62" y="-12.95" font-family="Times New Roman,serif" font-size="14" text-anchor="middle" transform="translate(4 286)">:domain:imageAnalysis</text>
        </g>
        <g stroke="#999" class="edge">
            <path fill="none" stroke-dasharray="5,2" d="M437.21 268h23.9"/>
            <path fill="#999" d="m460.92 264.5 10 3.5-10 3.5z"/>
        </g>
        <g stroke="#666" class="edge">
            <path fill="none" stroke-dasharray="5,2" d="M572.16 249.67c25.74-18.48 65.65-47.13 94.28-67.68"/>
            <path fill="#666" d="m664.28 179.23 10.17-2.99-6.08 8.67z"/>
        </g>
        <g stroke="#ccc" class="edge">
            <path fill="none" stroke-dasharray="5,2" d="M274.23 268h23.66"/>
            <path fill="#ccc" d="m297.78 264.5 10 3.5-10 3.5z"/>
        </g>
        <g stroke="#ccc" class="edge">
            <path fill="none" stroke-dasharray="5,2" d="M245.02 249.61c9.49-4.36 19.5-9.07 28.73-13.61 20.26-9.97 42.52-21.66 60.75-31.43"/>
            <path fill="#ccc" d="m332.65 201.6 10.46-1.66-7.14 7.82z"/>
        </g>
        <g stroke="#666" class="edge">
            <path fill="none" stroke-dasharray="5,2" d="M593.02 175.9c15.68-2.74 33.4-5.83 49.89-8.71"/>
            <path fill="#666" d="m642.14 163.77 10.46 1.73-9.25 5.16z"/>
        </g>
        <g stroke="#666" class="edge">
            <path fill="none" stroke-dasharray="5,2" d="M591.35 137.81c16.17 2.82 34.67 6.05 51.82 9.05"/>
            <path fill="#666" d="m643.46 143.36 9.25 5.16-10.45 1.73z"/>
        </g>
    </g>
</svg>
