<svg xmlns="http://www.w3.org/2000/svg" width="872" height="122pt" viewBox="0 0 654 122.38">
    <g class="graph">
        <path fill="#fff" d="M0 122.38V0h654v122.38z"/>
        <g class="node">
            <path fill="#90ee90" stroke="#000" d="M155.75 58H4v36h151.75z"/>
            <text x="75.88" y="-37.33" font-family="Times New Roman,serif" font-size="14" text-anchor="middle" transform="translate(4 118.38)">:server:service:employee</text>
        </g>
        <g class="node">
            <path fill="#add8e6" stroke="#000" d="M327.75 4h-136v36h136z"/>
            <text x="255.75" y="-91.33" font-family="Times New Roman,serif" font-size="14" text-anchor="middle" transform="translate(4 118.38)">:server:data:employee</text>
        </g>
        <g stroke="#000" class="edge">
            <path fill="none" d="M141.59 57.56c14.66-4.45 30.46-9.24 45.56-13.83"/>
            <path d="m185.97 40.43 10.59.45-8.56 6.25z"/>
        </g>
        <g class="node">
            <path fill="#add8e6" stroke="#000" d="M287.25 58h-55v36h55z"/>
            <text x="255.75" y="-37.33" font-family="Times New Roman,serif" font-size="14" text-anchor="middle" transform="translate(4 118.38)">:shared</text>
        </g>
        <g stroke="#000" class="edge">
            <path fill="none" d="M156.05 76h64.39"/>
            <path d="m220.3 72.49 10 3.5-10 3.5z"/>
        </g>
        <g class="node">
            <path fill="#add8e6" stroke="#000" d="M650 58h-95.5v36H650z"/>
            <text x="598.25" y="-37.33" font-family="Times New Roman,serif" font-size="14" text-anchor="middle" transform="translate(4 118.38)">:core:common</text>
        </g>
        <g stroke="#000" class="edge">
            <path fill="none" d="M145.48 94.47c15.06 3.54 31.12 6.71 46.27 8.53 144.19 17.3 183.33 22.8 326.75 0 8.11-1.29 16.5-3.25 24.69-5.54"/>
            <path d="m542.15 94.12 10.59.49-8.58 6.22z"/>
        </g>
        <g class="node">
            <path fill="#add8e6" stroke="#000" d="M518.5 4H363.75v36H518.5z"/>
            <text x="437.12" y="-91.33" font-family="Times New Roman,serif" font-size="14" text-anchor="middle" transform="translate(4 118.38)">:server:domain:employee</text>
        </g>
        <g stroke="#ccc" class="edge">
            <path fill="none" stroke-dasharray="5,2" d="M328.05 22h23.99"/>
            <path fill="#ccc" d="m351.89 18.49 10 3.5-10 3.5z"/>
        </g>
        <g class="node">
            <path fill="#add8e6" stroke="#000" d="M506.12 58h-130v36h130z"/>
            <text x="437.12" y="-37.33" font-family="Times New Roman,serif" font-size="14" text-anchor="middle" transform="translate(4 118.38)">:server:core:database</text>
        </g>
        <g stroke="#ccc" class="edge">
            <path fill="none" stroke-dasharray="5,2" d="M321.98 40.43c14.78 4.45 30.71 9.24 45.95 13.83"/>
            <path fill="#ccc" d="m368.85 50.88 8.57 6.24-10.59.47z"/>
        </g>
        <g stroke="#999" class="edge">
            <path fill="none" stroke-dasharray="5,2" d="M496.44 40.43c15.07 5.11 31.49 10.68 46.76 15.87"/>
            <path fill="#999" d="m544.31 52.98 8.34 6.52-10.59.1z"/>
        </g>
        <g stroke="#999" class="edge">
            <path fill="none" stroke-dasharray="5,2" d="M506.39 76h36.76"/>
            <path fill="#999" d="m542.85 72.49 10 3.5-10 3.5z"/>
        </g>
    </g>
</svg>
