<svg xmlns="http://www.w3.org/2000/svg" width="1678pt" height="698pt" viewBox="0 0 1678.25 698.44">
    <g class="graph">
        <path fill="#fff" d="M0 698.44V0h1678.25v698.44z"/>
        <g class="node">
            <path fill="#90ee90" stroke="#000" d="M194 189H4v36h190z"/>
            <text x="95" y="-482.39" font-family="Times New Roman,serif" font-size="14" text-anchor="middle" transform="translate(4 694.44)">:server:controller:imageanalysis</text>
        </g>
        <g class="node">
            <path fill="#add8e6" stroke="#000" d="M405.75 162H230v36h175.75z"/>
            <text x="313.88" y="-509.39" font-family="Times New Roman,serif" font-size="14" text-anchor="middle" transform="translate(4 694.44)">:server:service:imageanalysis</text>
        </g>
        <g stroke="#000" class="edge">
            <path fill="none" d="M194.49 195.24c7.92-.99 15.93-1.98 23.87-2.97"/>
            <path d="m217.67 188.83 10.36 2.23-9.5 4.71z"/>
        </g>
        <g class="node">
            <path fill="#add8e6" stroke="#000" d="M385.88 216h-136v36h136z"/>
            <text x="313.88" y="-455.39" font-family="Times New Roman,serif" font-size="14" text-anchor="middle" transform="translate(4 694.44)">:server:core:controller</text>
        </g>
        <g stroke="#000" class="edge">
            <path fill="none" d="M194.49 218.77c14.59 1.81 29.53 3.67 43.72 5.44"/>
            <path d="m238.43 220.71 9.49 4.71-10.36 2.24z"/>
        </g>
        <g class="node">
            <path fill="#add8e6" stroke="#000" d="M981.38 216h-91v36h91z"/>
            <text x="931.88" y="-455.39" font-family="Times New Roman,serif" font-size="14" text-anchor="middle" transform="translate(4 694.44)">:core:network</text>
        </g>
        <g class="node">
            <path fill="#add8e6" stroke="#000" d="M1674.25 324h-95.5v36h95.5z"/>
            <text x="1622.5" y="-347.39" font-family="Times New Roman,serif" font-size="14" text-anchor="middle" transform="translate(4 694.44)">:core:common</text>
        </g>
        <g stroke="#666" class="edge">
            <path fill="none" stroke-dasharray="5,2" d="M981.73 235.38c101.52 4.01 355.97 19.02 561.02 72.62 11.04 2.89 22.57 6.92 33.39 11.2"/>
            <path fill="#666" d="m1577.36 315.92 7.91 7.04-10.58-.57z"/>
        </g>
        <g class="node">
            <path fill="#add8e6" stroke="#000" d="M806.38 162H654.62v36h151.76z"/>
            <text x="726.5" y="-509.39" font-family="Times New Roman,serif" font-size="14" text-anchor="middle" transform="translate(4 694.44)">:server:service:employee</text>
        </g>
        <g stroke="#666" class="edge">
            <path fill="none" stroke-dasharray="5,2" d="M798.54 161.53c15.62-3.54 32.27-6.71 47.96-8.53 180.86-20.94 632.92-28.33 696.25 13 50.57 33 70.87 105.79 78.51 146.67"/>
            <path fill="#666" d="m1624.67 311.84-1.75 10.44-5.15-9.26z"/>
        </g>
        <g class="node">
            <path fill="#add8e6" stroke="#000" d="M963.38 70h-55v36h55z"/>
            <text x="931.88" y="-601.39" font-family="Times New Roman,serif" font-size="14" text-anchor="middle" transform="translate(4 694.44)">:shared</text>
        </g>
        <g stroke="#666" class="edge">
            <path fill="none" stroke-dasharray="5,2" d="M779.11 161.52c10.55-4.65 21.52-9.92 31.39-15.52 17.17-9.74 18.55-16.77 36-26 16.06-8.49 34.86-15.65 50.98-21.02"/>
            <path fill="#666" d="m896.12 95.74 10.59.27-8.45 6.39z"/>
        </g>
        <g class="node">
            <path fill="#add8e6" stroke="#000" d="M1003.88 324h-136v36h136z"/>
            <text x="931.88" y="-347.39" font-family="Times New Roman,serif" font-size="14" text-anchor="middle" transform="translate(4 694.44)">:server:data:employee</text>
        </g>
        <g stroke="#666" class="edge">
            <path fill="none" stroke-dasharray="5,2" d="M751.38 198.38c16.65 15.85 40.58 39.72 59.12 62.62 18.15 22.42 12.86 36.78 36 54 3.52 2.62 7.3 4.99 11.23 7.13"/>
            <path fill="#666" d="m858.95 318.83 7.49 7.5-10.53-1.2z"/>
        </g>
        <g class="node">
            <path fill="#add8e6" stroke="#000" d="M988.5 162H883.25v36H988.5z"/>
            <text x="931.88" y="-509.39" font-family="Times New Roman,serif" font-size="14" text-anchor="middle" transform="translate(4 694.44)">:server:data:user</text>
        </g>
        <g stroke="#666" class="edge">
            <path fill="none" stroke-dasharray="5,2" d="M806.65 180h64.77"/>
            <path fill="#666" d="m871.35 176.5 10 3.5-10 3.5z"/>
        </g>
        <g class="node">
            <path fill="#add8e6" stroke="#000" d="M1025.25 270H846.5v36h178.75z"/>
            <text x="931.88" y="-401.39" font-family="Times New Roman,serif" font-size="14" text-anchor="middle" transform="translate(4 694.44)">:server:domain:imageanalysis</text>
        </g>
        <g stroke="#666" class="edge">
            <path fill="none" stroke-dasharray="5,2" d="M1025.73 290.62c118.36 4.23 334.1 14.52 517.02 37.38 7.86.98 16.12 2.18 24.24 3.46"/>
            <path fill="#666" d="m1567.54 328 9.31 5.06-10.43 1.85z"/>
        </g>
        <g class="node">
            <path fill="#add8e6" stroke="#000" d="M1382.75 324H1228v36h154.75z"/>
            <text x="1301.38" y="-347.39" font-family="Times New Roman,serif" font-size="14" text-anchor="middle" transform="translate(4 694.44)">:server:domain:employee</text>
        </g>
        <g stroke="#666" class="edge">
            <path fill="none" stroke-dasharray="5,2" d="M1025.46 304.17c12.02 2.04 24.2 4.04 35.79 5.83 51.31 7.91 108.9 15.55 155.15 21.38"/>
            <path fill="#666" d="m1216.61 327.87 9.49 4.72-10.36 2.23z"/>
        </g>
        <g class="node">
            <path fill="#add8e6" stroke="#000" d="M1192 454h-130.75v36H1192z"/>
            <text x="1122.62" y="-217.39" font-family="Times New Roman,serif" font-size="14" text-anchor="middle" transform="translate(4 694.44)">:server:domain:room</text>
        </g>
        <g stroke="#666" class="edge">
            <path fill="none" stroke-dasharray="5,2" d="M1014.85 306.45c3.76 2.5 7.27 5.33 10.4 8.55 41.83 42.95-3.62 85.01 36 130 .45.51.91 1.02 1.38 1.51"/>
            <path fill="#666" d="m1064.6 443.58 5.35 9.15-9.89-3.81z"/>
        </g>
        <g class="node">
            <path fill="#add8e6" stroke="#000" d="M809 454H652v36h157z"/>
            <text x="726.5" y="-217.39" font-family="Times New Roman,serif" font-size="14" text-anchor="middle" transform="translate(4 694.44)">:server:data:housekeeping</text>
        </g>
        <g class="node">
            <path fill="#add8e6" stroke="#000" d="M1023.75 622H848v36h175.75z"/>
            <text x="931.88" y="-49.39" font-family="Times New Roman,serif" font-size="14" text-anchor="middle" transform="translate(4 694.44)">:server:domain:housekeeping</text>
        </g>
        <g stroke="#666" class="edge">
            <path fill="none" stroke-dasharray="5,2" d="M752.5 490.29c22.91 19.86 60.76 52.4 94 79.71 18.25 14.99 38.92 31.4 55.69 44.57"/>
            <path fill="#666" d="m904.15 611.66 5.72 8.92-10.03-3.41z"/>
        </g>
        <g class="node">
            <path fill="#add8e6" stroke="#000" d="M1191.62 400h-130v36h130z"/>
            <text x="1122.62" y="-271.39" font-family="Times New Roman,serif" font-size="14" text-anchor="middle" transform="translate(4 694.44)">:server:core:database</text>
        </g>
        <g stroke="#666" class="edge">
            <path fill="none" stroke-dasharray="5,2" d="M775.58 490.44c60.23 22.14 169.86 51.27 249.67 8.56 25.43-13.61 13.75-35.64 36-54a75 75 0 0 1 2.95-2.31"/>
            <path fill="#666" d="m1062.22 439.8 10.3-2.52-6.48 8.39z"/>
        </g>
        <g stroke="#666" class="edge">
            <path fill="none" stroke-dasharray="5,2" d="M760.21 453.65c35.63-22.77 96.53-61.7 136.18-87.05"/>
            <path fill="#666" d="m894.4 363.72 10.31-2.44-6.54 8.34z"/>
        </g>
        <g stroke="#333" class="edge">
            <path fill="none" stroke-dasharray="5,2" d="M1024.14 635.24c125.96-10.87 360.91-46.5 518.61-163.24 35.08-25.97 59.06-71.64 71.84-101.35"/>
            <path fill="#333" d="m1611.31 369.42 7.05-7.9-.58 10.58z"/>
        </g>
        <g class="node">
            <path fill="#add8e6" stroke="#000" d="M1189.38 508h-125.5v36h125.5z"/>
            <text x="1122.62" y="-163.39" font-family="Times New Roman,serif" font-size="14" text-anchor="middle" transform="translate(4 694.44)">:server:domain:shift</text>
        </g>
        <g stroke="#333" class="edge">
            <path fill="none" stroke-dasharray="5,2" d="M996.58 621.51c9.84-3.92 19.73-8.43 28.67-13.51 27.15-15.41 54.36-38.2 73.58-55.85"/>
            <path fill="#333" d="m1096.27 549.75 9.7-4.27-4.92 9.39z"/>
        </g>
        <g stroke="#333" class="edge">
            <path fill="none" stroke-dasharray="5,2" d="M1007.15 621.6c6.66-3.73 12.87-8.22 18.1-13.6 35.56-36.58 1.36-71.54 36-109 .46-.5.94-.99 1.42-1.47"/>
            <path fill="#333" d="m1060.16 495.06 9.95-3.65-5.51 9.06z"/>
        </g>
        <g stroke="#666" class="edge">
            <path fill="none" stroke-dasharray="5,2" d="M1191.95 408.18c97.53-14.88 281.38-42.95 375.23-57.27"/>
            <path fill="#666" d="m1566.53 347.46 10.41 1.95-9.36 4.97z"/>
        </g>
        <g class="node">
            <path fill="#add8e6" stroke="#000" d="M783.88 362H677.12v36h106.76z"/>
            <text x="726.5" y="-309.39" font-family="Times New Roman,serif" font-size="14" text-anchor="middle" transform="translate(4 694.44)">:server:data:shift</text>
        </g>
        <g stroke="#666" class="edge">
            <path fill="none" stroke-dasharray="5,2" d="M784.23 391.6c19.48 3.88 41.79 7.87 62.27 10.4 68.61 8.49 147.28 12.49 203.58 14.36"/>
            <path fill="#666" d="m1049.99 412.86 9.88 3.81-10.1 3.19z"/>
        </g>
        <g stroke="#666" class="edge">
            <path fill="none" stroke-dasharray="5,2" d="m784.14 370.17 72.03-13.46"/>
            <path fill="#666" d="m855.52 353.27 10.47 1.6-9.19 5.28z"/>
        </g>
        <g stroke="#666" class="edge">
            <path fill="none" stroke-dasharray="5,2" d="M757.71 398.46c16.24 12.16 36.95 29.02 52.79 46.54 19.35 21.4 11.25 39.18 36 54 62.1 37.19 146.2 40.29 205.82 36.36"/>
            <path fill="#666" d="m1051.78 531.89 10.24 2.74-9.71 4.24z"/>
        </g>
        <g class="node">
            <path fill="#add8e6" stroke="#000" d="M810.5 270h-160v36h160z"/>
            <text x="726.5" y="-401.39" font-family="Times New Roman,serif" font-size="14" text-anchor="middle" transform="translate(4 694.44)">:server:data:imageanalysis</text>
        </g>
        <g stroke="#999" class="edge">
            <path fill="none" stroke-dasharray="5,2" d="M800.92 269.57c25.43-6.75 53.87-14.3 77.97-20.7"/>
            <path fill="#999" d="m877.97 245.49 10.56.82-8.77 5.95z"/>
        </g>
        <g stroke="#999" class="edge">
            <path fill="none" stroke-dasharray="5,2" d="M810.71 288h24.02"/>
            <path fill="#999" d="m834.58 284.5 10 3.5-10 3.5z"/>
        </g>
        <g stroke="#999" class="edge">
            <path fill="none" stroke-dasharray="5,2" d="M751.45 306.26c21.72 18.81 58.29 47.47 95.05 62.74 9.45 3.93 124.58 23.46 203.99 36.64"/>
            <path fill="#999" d="m1050.65 402.12 9.3 5.09-10.44 1.82z"/>
        </g>
        <g stroke="#999" class="edge">
            <path fill="none" stroke-dasharray="5,2" d="M800.92 306.43c17.91 4.76 37.3 9.91 55.62 14.77"/>
            <path fill="#999" d="m857.26 317.77 8.76 5.95-10.56.82z"/>
        </g>
        <g class="node">
            <path fill="#add8e6" stroke="#000" d="M991.88 454h-112v36h112z"/>
            <text x="931.88" y="-217.39" font-family="Times New Roman,serif" font-size="14" text-anchor="middle" transform="translate(4 694.44)">:server:data:room</text>
        </g>
        <g stroke="#999" class="edge">
            <path fill="none" stroke-dasharray="5,2" d="M757.08 306.44c16.18 12.28 37.06 29.28 53.42 46.56 18.58 19.63 17.24 29.55 36 49 15.93 16.53 35.82 32.6 52.69 45.17"/>
            <path fill="#999" d="m900.98 444.15 6 8.73-10.13-3.08z"/>
        </g>
        <g stroke="#666" class="edge">
            <path fill="none" stroke-dasharray="5,2" d="M989.43 360.39c11.84 4.32 24.3 9.01 35.82 13.61 16.38 6.55 34.05 14.12 49.94 21.12"/>
            <path fill="#666" d="m1076.24 391.76 7.72 7.25-10.56-.85z"/>
        </g>
        <g stroke="#666" class="edge">
            <path fill="none" stroke-dasharray="5,2" d="M1004.31 345.85c18.45.89 38.46 1.71 56.94 2.15 58.09 1.4 72.66 1.55 130.75 0 7.92-.21 16.15-.5 24.4-.85"/>
            <path fill="#666" d="m1215.97 343.67 10.14 3.04-9.83 3.95z"/>
        </g>
        <g class="node">
            <path fill="#add8e6" stroke="#000" d="M614.5 362H441.75v36H614.5z"/>
            <text x="524.12" y="-309.39" font-family="Times New Roman,serif" font-size="14" text-anchor="middle" transform="translate(4 694.44)">:server:service:housekeeping</text>
        </g>
        <g stroke="#999" class="edge">
            <path fill="none" stroke-dasharray="5,2" d="M541.92 398.37C580.47 451.91 701.77 607.8 846.5 667c115.09 47.08 154.78 19 279.12 19h180.76c122.09 0 156.72-47.46 236.37-140 44.9-52.16 67.58-131.87 77.08-174.57"/>
            <path fill="#999" d="m1616.35 370.96 5.5-9.06 1.35 10.51z"/>
        </g>
        <g stroke="#999" class="edge">
            <path fill="none" stroke-dasharray="5,2" d="M547.62 361.55c35.71-35.65 114.27-114.07 155.48-155.19"/>
            <path fill="#999" d="m700.43 204.07 9.55-4.59-4.6 9.55z"/>
        </g>
        <g stroke="#999" class="edge">
            <path fill="none" stroke-dasharray="5,2" d="M533.39 361.6C544.49 318 578.58 207.93 650.5 153c38.52-29.42 178.44-51.18 246.57-60.29"/>
            <path fill="#999" d="m896.27 89.28 10.38 2.17-9.46 4.77z"/>
        </g>
        <g stroke="#999" class="edge">
            <path fill="none" stroke-dasharray="5,2" d="M564.64 398.43c24.02 12.25 56.59 28.43 85.86 41.57 6.89 3.1 14.18 6.23 21.43 9.26"/>
            <path fill="#999" d="m673.17 445.99 7.9 7.05-10.58-.58z"/>
        </g>
        <g stroke="#999" class="edge">
            <path fill="none" stroke-dasharray="5,2" d="M614.97 380h50.46"/>
            <path fill="#999" d="m665.33 376.5 10 3.5-10 3.5z"/>
        </g>
        <g stroke="#999" class="edge">
            <path fill="none" stroke-dasharray="5,2" d="M610.26 398.4c75.84 17.2 187.71 42.56 258.34 58.57"/>
            <path fill="#999" d="m869.11 453.5 8.98 5.63-10.53 1.2z"/>
        </g>
        <g stroke="#ccc" class="edge">
            <path fill="none" stroke-dasharray="5,2" d="M334.36 161.67c21.55-24.29 62.97-66.74 107.39-89.67C558.52 11.72 598.09 4 729.5 4h576.88c121.2 0 156.56 44.78 236.37 136 44.84 51.25 67.5 130.08 77.03 172.52"/>
            <path fill="#ccc" d="m1623.19 311.72-1.33 10.51-5.52-9.04z"/>
        </g>
        <g stroke="#ccc" class="edge">
            <path fill="none" stroke-dasharray="5,2" d="M406.21 180H643"/>
            <path fill="#ccc" d="m642.84 176.5 10 3.5-10 3.5z"/>
        </g>
        <g stroke="#ccc" class="edge">
            <path fill="none" stroke-dasharray="5,2" d="M403.02 161.53C469.83 147.4 565.78 128.32 650.5 116c87.82-12.77 191.75-21.36 246.41-25.38"/>
            <path fill="#ccc" d="m896.38 87.15 10.23 2.77-9.73 4.21z"/>
        </g>
        <g stroke="#ccc" class="edge">
            <path fill="none" stroke-dasharray="5,2" d="m389 198.45 259.43 68.23"/>
            <path fill="#ccc" d="m649.08 263.23 8.78 5.93-10.56.84z"/>
        </g>
        <g stroke="#ccc" class="edge">
            <path fill="none" stroke-dasharray="5,2" d="M392.46 198.44c4.71 2.5 9.19 5.34 13.29 8.56 24.46 19.21 18.6 34.23 36 60 20.34 30.14 45.67 63.16 63.44 85.68"/>
            <path fill="#ccc" d="m507.89 350.46 3.47 10.01-8.96-5.66z"/>
        </g>
        <g stroke="#ccc" class="edge">
            <path fill="none" stroke-dasharray="5,2" d="M350.39 161.53C417.63 123.93 581.15 42 729.5 42h207.38c171.08 0 306.49 197.53 351.47 272.03"/>
            <path fill="#ccc" d="m1291.22 312 2.1 10.39-8.12-6.81z"/>
        </g>
        <g stroke="#ccc" class="edge">
            <path fill="none" stroke-dasharray="5,2" d="M396.28 198.49c3.45 2.5 6.65 5.32 9.47 8.51 59.81 67.68-19.87 129.04 36 200 62.71 79.67 111.13 64.62 208.75 92 160.75 45.1 215.89 77.37 374.75 26 18.78-6.07 18.79-16.34 36-26 2.19-1.23 4.45-2.43 6.75-3.61"/>
            <path fill="#ccc" d="m1066.38 492.28 10.53-1.22-7.47 7.52z"/>
        </g>
        <g class="node">
            <path fill="#add8e6" stroke="#000" d="M1542.75 175h-124v36h124z"/>
            <text x="1476.75" y="-496.39" font-family="Times New Roman,serif" font-size="14" text-anchor="middle" transform="translate(4 694.44)">:server:domain:user</text>
        </g>
        <g stroke="#333" class="edge">
            <path fill="none" stroke-dasharray="5,2" d="M988.67 180.89c51.55.92 132.91 2.44 203.33 4.11 73.19 1.74 156.83 4.11 215 5.81"/>
            <path fill="#333" d="m1406.88 187.31 9.9 3.79-10.1 3.21z"/>
        </g>
        <g class="node">
            <path fill="#add8e6" stroke="#000" d="M1189.75 194H1063.5v36h126.25z"/>
            <text x="1122.62" y="-477.39" font-family="Times New Roman,serif" font-size="14" text-anchor="middle" transform="translate(4 694.44)">:server:core:firebase</text>
        </g>
        <g stroke="#333" class="edge">
            <path fill="none" stroke-dasharray="5,2" d="M988.95 188.83c19.52 3.31 42.08 7.13 63.17 10.71"/>
            <path fill="#333" d="m1052.56 196.07 9.28 5.12-10.45 1.78z"/>
        </g>
        <g stroke="#333" class="edge">
            <path fill="none" stroke-dasharray="5,2" d="M1505.75 211.47c11.59 9.31 25.45 21.04 37 32.53 22.62 22.51 45.85 50.53 61.91 70.83"/>
            <path fill="#333" d="m1607.38 312.63 3.41 10.03-8.92-5.71z"/>
        </g>
        <g stroke="#333" class="edge">
            <path fill="none" stroke-dasharray="5,2" d="M1383.22 342h183.99"/>
            <path fill="#333" d="m1566.98 338.5 10 3.5-10 3.5z"/>
        </g>
        <g stroke="#333" class="edge">
            <path fill="none" stroke-dasharray="5,2" d="M1327.63 323.73c30.68-26.36 87.49-75.18 122.33-105.13"/>
            <path fill="#333" d="m1447.3 216.27 9.87-3.86-5.3 9.17z"/>
        </g>
        <g stroke="#333" class="edge">
            <path fill="none" stroke-dasharray="5,2" d="M1189.74 518.84c84.24-11.73 237.44-40.29 353.01-102.84 22.66-12.26 44.22-31.9 59.65-47.86"/>
            <path fill="#333" d="m1599.45 366.17 9.4-4.89-4.31 9.69z"/>
        </g>
        <g stroke="#333" class="edge">
            <path fill="none" stroke-dasharray="5,2" d="M1179.03 507.6c4.58-2.56 8.99-5.42 12.97-8.6 45-35.9 80.2-94.28 98.49-128.83"/>
            <path fill="#333" d="m1287.22 368.88 7.7-7.27-1.49 10.49z"/>
        </g>
        <g stroke="#999" class="edge">
            <path fill="none" stroke-dasharray="5,2" d="M1192.29 461.25c82.53-14.6 229.15-43.51 350.46-83.25 11.28-3.69 23.14-8.36 34.24-13.09"/>
            <path fill="#999" d="m1575.4 361.79 10.56-.8-7.76 7.21z"/>
        </g>
        <g stroke="#666" class="edge">
            <path fill="none" stroke-dasharray="5,2" d="M992.23 456.17c18.18-5.21 38.71-11.08 58.11-16.63"/>
            <path fill="#666" d="m1049.26 436.21 10.57.61-8.65 6.12z"/>
        </g>
        <g stroke="#666" class="edge">
            <path fill="none" stroke-dasharray="5,2" d="M992.23 472h57.28"/>
            <path fill="#666" d="m1049.44 468.5 10 3.5-10 3.5z"/>
        </g>
    </g>
</svg>
