<svg xmlns="http://www.w3.org/2000/svg" width="1852" height="672" viewBox="0 0 1388.5 503.97">
    <g class="graph">
        <path fill="#fff" d="M0 503.97V0h1388.5v503.97z"/>
        <g class="node">
            <path fill="#90ee90" stroke="#000" d="M80 294H4v36h76z"/>
            <text x="38" y="-182.92" font-family="Times New Roman,serif" font-size="14" text-anchor="middle" transform="translate(4 499.97)">:server:app</text>
        </g>
        <g class="node">
            <path fill="#add8e6" stroke="#000" d="M270 186H128v36h142z"/>
            <text x="195" y="-290.92" font-family="Times New Roman,serif" font-size="14" text-anchor="middle" transform="translate(4 499.97)">:server:controller:room</text>
        </g>
        <g stroke="#000" class="edge">
            <path fill="none" d="M55.15 293.7C68.18 275.4 90.47 247.65 116 231c1.84-1.19 3.73-2.34 5.67-3.44"/>
            <path d="m119.84 224.56 10.5-1.44-7.31 7.67z"/>
        </g>
        <g class="node">
            <path fill="#add8e6" stroke="#000" d="M1061.88 254h-130v36h130z"/>
            <text x="992.88" y="-222.92" font-family="Times New Roman,serif" font-size="14" text-anchor="middle" transform="translate(4 499.97)">:server:core:database</text>
        </g>
        <g stroke="#000" class="edge">
            <path fill="none" d="M53.08 330.26C65.12 349.96 87.29 380.23 116 393c130.23 57.95 326.86 209.26 779.5-2 39.92-18.63 69.69-61.77 86.06-90.66"/>
            <path d="m978.39 298.84 7.86-7.1-1.72 10.46z"/>
        </g>
        <g class="node">
            <path fill="#add8e6" stroke="#000" d="M267.38 294H130.62v36h136.76z"/>
            <text x="195" y="-182.92" font-family="Times New Roman,serif" font-size="14" text-anchor="middle" transform="translate(4 499.97)">:server:controller:shift</text>
        </g>
        <g stroke="#000" class="edge">
            <path fill="none" d="M80.13 312h38.77"/>
            <path d="m118.73 308.5 10 3.5-10 3.5z"/>
        </g>
        <g class="node">
            <path fill="#add8e6" stroke="#000" d="M267.38 240H130.62v36h136.76z"/>
            <text x="195" y="-236.92" font-family="Times New Roman,serif" font-size="14" text-anchor="middle" transform="translate(4 499.97)">:server:controller:cron</text>
        </g>
        <g stroke="#000" class="edge">
            <path fill="none" d="M80.42 297.87c11.39-4.22 23.97-8.81 35.58-12.87 4.66-1.62 9.48-3.28 14.34-4.93"/>
            <path d="m128.98 276.83 10.59.13-8.36 6.51z"/>
        </g>
        <g class="node">
            <path fill="#add8e6" stroke="#000" d="M282 348H116v36h166z"/>
            <text x="195" y="-128.92" font-family="Times New Roman,serif" font-size="14" text-anchor="middle" transform="translate(4 499.97)">:server:controller:employee</text>
        </g>
        <g stroke="#000" class="edge">
            <path fill="none" d="M80.42 326.14c11.39 4.22 23.97 8.81 35.58 12.86 4.66 1.63 9.48 3.29 14.34 4.94"/>
            <path d="m131.21 340.54 8.36 6.51-10.59.12z"/>
        </g>
        <g class="node">
            <path fill="#add8e6" stroke="#000" d="M681.12 278H529.38v36h151.74z"/>
            <text x="601.25" y="-198.92" font-family="Times New Roman,serif" font-size="14" text-anchor="middle" transform="translate(4 499.97)">:server:service:employee</text>
        </g>
        <g class="node">
            <path fill="#add8e6" stroke="#000" d="M835.12 346h-55v36h55z"/>
            <text x="803.62" y="-130.92" font-family="Times New Roman,serif" font-size="14" text-anchor="middle" transform="translate(4 499.97)">:shared</text>
        </g>
        <g stroke="#999" class="edge">
            <path fill="none" stroke-dasharray="5,2" d="M660.74 314.5c34.37 11.66 77.87 26.42 108.39 36.78"/>
            <path fill="#999" d="m769.97 347.87 8.35 6.53-10.6.1z"/>
        </g>
        <g class="node">
            <path fill="#add8e6" stroke="#000" d="M1384.5 231H1289v36h95.5z"/>
            <text x="1332.75" y="-245.92" font-family="Times New Roman,serif" font-size="14" text-anchor="middle" transform="translate(4 499.97)">:core:common</text>
        </g>
        <g stroke="#999" class="edge">
            <path fill="none" stroke-dasharray="5,2" d="M681.5 296.9c65.92.73 164.31 1.71 250 2.1 58.11.27 72.82 4.53 130.75 0 85.56-6.68 106.58-13.23 190.75-30 7.97-1.58 16.34-3.41 24.56-5.3"/>
            <path fill="#999" d="m1276.63 260.32 10.53 1.12-8.93 5.69z"/>
        </g>
        <g class="node">
            <path fill="#add8e6" stroke="#000" d="M875.62 216h-136v36h136z"/>
            <text x="803.62" y="-260.92" font-family="Times New Roman,serif" font-size="14" text-anchor="middle" transform="translate(4 499.97)">:server:data:employee</text>
        </g>
        <g stroke="#999" class="edge">
            <path fill="none" stroke-dasharray="5,2" d="M665.83 277.57c22.11-6.84 47.39-14.66 70.38-21.78"/>
            <path fill="#999" d="m734.9 252.53 10.59.39-8.52 6.3z"/>
        </g>
        <g class="node">
            <path fill="#add8e6" stroke="#000" d="M683.75 132h-157v36h157z"/>
            <text x="601.25" y="-344.92" font-family="Times New Roman,serif" font-size="14" text-anchor="middle" transform="translate(4 499.97)">:server:data:housekeeping</text>
        </g>
        <g class="node">
            <path fill="#add8e6" stroke="#000" d="M895.5 32H719.75v36H895.5z"/>
            <text x="803.62" y="-444.92" font-family="Times New Roman,serif" font-size="14" text-anchor="middle" transform="translate(4 499.97)">:server:domain:housekeeping</text>
        </g>
        <g stroke="#666" class="edge">
            <path fill="none" stroke-dasharray="5,2" d="M630.37 131.74c22.25-16.16 56.68-39.48 89.38-54.74 3.29-1.53 6.69-3.01 10.16-4.43"/>
            <path fill="#666" d="m728.45 69.39 10.59-.34-8.07 6.87z"/>
        </g>
        <g stroke="#666" class="edge">
            <path fill="none" stroke-dasharray="5,2" d="M684.05 157.23c59.57 7.44 142.89 22.02 211.45 49.77 24.53 9.93 49.52 26.09 68.42 39.81"/>
            <path fill="#666" d="m965.8 243.84 5.94 8.77-10.12-3.15z"/>
        </g>
        <g stroke="#666" class="edge">
            <path fill="none" stroke-dasharray="5,2" d="M661.12 168.36c7.65 2.78 15.37 5.7 22.63 8.64 25.21 10.22 52.73 22.84 75.32 33.61"/>
            <path fill="#666" d="m760.54 207.43 7.5 7.48-10.53-1.17z"/>
        </g>
        <g stroke="#333" class="edge">
            <path fill="none" stroke-dasharray="5,2" d="M895.85 45.56C991.98 45.04 1147 57.59 1253 133c31.71 22.57 55.7 61.21 69.48 87.64"/>
            <path fill="#333" d="m1325.54 218.94 1.37 10.51-7.62-7.36z"/>
        </g>
        <g class="node">
            <path fill="#add8e6" stroke="#000" d="M1059.62 162h-125.5v36h125.5z"/>
            <text x="992.88" y="-314.92" font-family="Times New Roman,serif" font-size="14" text-anchor="middle" transform="translate(4 499.97)">:server:domain:shift</text>
        </g>
        <g stroke="#333" class="edge">
            <path fill="none" stroke-dasharray="5,2" d="M881.61 68.45c4.9 2.5 9.59 5.34 13.89 8.55 23.1 17.28 16.25 32.98 36 54 8.01 8.53 17.61 16.69 26.93 23.82"/>
            <path fill="#333" d="m960.41 151.93 5.96 8.76-10.12-3.13z"/>
        </g>
        <g class="node">
            <path fill="#add8e6" stroke="#000" d="M1062.25 86H931.5v36h130.75z"/>
            <text x="992.88" y="-390.92" font-family="Times New Roman,serif" font-size="14" text-anchor="middle" transform="translate(4 499.97)">:server:domain:room</text>
        </g>
        <g stroke="#333" class="edge">
            <path fill="none" stroke-dasharray="5,2" d="M872.54 68.44c15.58 4.49 32.39 9.34 48.43 13.96"/>
            <path fill="#333" d="m921.84 79.01 8.63 6.13-10.57.6z"/>
        </g>
        <g class="node">
            <path fill="#add8e6" stroke="#000" d="M490.75 186H318v36h172.75z"/>
            <text x="400.38" y="-290.92" font-family="Times New Roman,serif" font-size="14" text-anchor="middle" transform="translate(4 499.97)">:server:service:housekeeping</text>
        </g>
        <g stroke="#ccc" class="edge">
            <path fill="none" stroke-dasharray="5,2" d="M270.27 204h36.21"/>
            <path fill="#ccc" d="m306.14 200.5 10 3.5-10 3.5z"/>
        </g>
        <g class="node">
            <path fill="#add8e6" stroke="#000" d="M472.38 240h-136v36h136z"/>
            <text x="400.38" y="-236.92" font-family="Times New Roman,serif" font-size="14" text-anchor="middle" transform="translate(4 499.97)">:server:core:controller</text>
        </g>
        <g stroke="#ccc" class="edge">
            <path fill="none" stroke-dasharray="5,2" d="M269.42 222.44c17.91 4.75 37.3 9.9 55.62 14.77"/>
            <path fill="#ccc" d="m325.76 233.77 8.76 5.95-10.56.82z"/>
        </g>
        <g stroke="#999" class="edge">
            <path fill="none" stroke-dasharray="5,2" d="M473.21 222.4c6.08 2.55 12.02 5.41 17.54 8.6 18.79 10.87 17.69 21.35 36 33 4.86 3.1 10.08 6 15.42 8.7"/>
            <path fill="#999" d="m543.64 269.52 7.53 7.46-10.54-1.13z"/>
        </g>
        <g stroke="#999" class="edge">
            <path fill="none" stroke-dasharray="5,2" d="M488.2 222.44c78.75 17.67 186.53 42.28 195.55 46.56 36.71 17.46 72.79 47.29 96.26 68.88"/>
            <path fill="#999" d="m782.35 335.28 4.9 9.39-9.69-4.28z"/>
        </g>
        <g stroke="#999" class="edge">
            <path fill="none" stroke-dasharray="5,2" d="M473.26 185.57c16.87-4.58 35.08-9.52 52.42-14.23"/>
            <path fill="#999" d="m524.3 168.09 10.57.75-8.73 6z"/>
        </g>
        <g stroke="#999" class="edge">
            <path fill="none" stroke-dasharray="5,2" d="M421.89 185.89c22-23.24 63.05-63.57 104.86-88.89C638.88 29.13 675.55 4 806.62 4h191.26c119.1 0 164.49 4.73 255.12 82 41.73 35.58 64.83 97.4 75.43 133.82"/>
            <path fill="#999" d="m1331.74 218.66-.7 10.57-6.04-8.7z"/>
        </g>
        <g class="node">
            <path fill="#add8e6" stroke="#000" d="M658.62 186H551.88v36h106.74z"/>
            <text x="601.25" y="-290.92" font-family="Times New Roman,serif" font-size="14" text-anchor="middle" transform="translate(4 499.97)">:server:data:shift</text>
        </g>
        <g stroke="#999" class="edge">
            <path fill="none" stroke-dasharray="5,2" d="M491.16 204h49.16"/>
            <path fill="#999" d="m539.94 200.5 10 3.5-10 3.5z"/>
        </g>
        <g class="node">
            <path fill="#add8e6" stroke="#000" d="M863.62 86h-112v36h112z"/>
            <text x="803.62" y="-390.92" font-family="Times New Roman,serif" font-size="14" text-anchor="middle" transform="translate(4 499.97)">:server:data:room</text>
        </g>
        <g stroke="#999" class="edge">
            <path fill="none" stroke-dasharray="5,2" d="M425.48 185.68c22.72-19.45 61.7-49.2 101.27-62.68 70.02-23.83 155.46-26.07 213.39-23.95"/>
            <path fill="#999" d="m739.99 95.54 9.84 3.92-10.14 3.07z"/>
        </g>
        <g stroke="#333" class="edge">
            <path fill="none" stroke-dasharray="5,2" d="M1062.22 267.62c62.06-4.22 155.16-10.56 215.13-14.64"/>
            <path fill="#333" d="m1276.79 249.51 10.22 2.81-9.74 4.17z"/>
        </g>
        <g stroke="#666" class="edge">
            <path fill="none" stroke-dasharray="5,2" d="M655.37 222.41c9.59 4.11 19.43 8.72 28.38 13.59 17.1 9.33 17.53 18.81 36 25 65.11 21.83 143.74 22.69 200.41 19.2"/>
            <path fill="#666" d="m919.82 276.72 10.22 2.81-9.74 4.17z"/>
        </g>
        <g stroke="#666" class="edge">
            <path fill="none" stroke-dasharray="5,2" d="M658.9 211.89c21.12 3.16 45.92 6.87 69.1 10.34"/>
            <path fill="#666" d="m728.36 218.75 9.37 4.94-10.41 1.98z"/>
        </g>
        <g stroke="#666" class="edge">
            <path fill="none" stroke-dasharray="5,2" d="M658.8 200.77c68.1-4.2 187.21-11.53 264.07-16.27"/>
            <path fill="#666" d="m922.19 181.04 10.19 2.88-9.76 4.1z"/>
        </g>
        <g stroke="#666" class="edge">
            <path fill="none" stroke-dasharray="5,2" d="M875.96 247.67c14.46 2.93 29.82 6.05 44.56 9.04"/>
            <path fill="#666" d="m921.05 253.25 9.1 5.42-10.49 1.44z"/>
        </g>
        <g class="node">
            <path fill="#add8e6" stroke="#000" d="M1253 208h-154.75v36H1253z"/>
            <text x="1171.62" y="-268.92" font-family="Times New Roman,serif" font-size="14" text-anchor="middle" transform="translate(4 499.97)">:server:domain:employee</text>
        </g>
        <g stroke="#666" class="edge">
            <path fill="none" stroke-dasharray="5,2" d="M875.76 232.54c59.18-1.3 145.83-3.19 210.61-4.61"/>
            <path fill="#666" d="m1086.2 224.44 10.07 3.28-9.92 3.71z"/>
        </g>
        <g class="node">
            <path fill="#add8e6" stroke="#000" d="M465.62 294h-122.5v36h122.5z"/>
            <text x="400.38" y="-182.92" font-family="Times New Roman,serif" font-size="14" text-anchor="middle" transform="translate(4 499.97)">:server:service:shift</text>
        </g>
        <g stroke="#ccc" class="edge">
            <path fill="none" stroke-dasharray="5,2" d="M267.72 312h63.76"/>
            <path fill="#ccc" d="m331.28 308.5 10 3.5-10 3.5z"/>
        </g>
        <g stroke="#ccc" class="edge">
            <path fill="none" stroke-dasharray="5,2" d="M267.72 294.02c18.35-4.87 38.37-10.19 57.26-15.2"/>
            <path fill="#ccc" d="m323.92 275.48 10.57.82-8.77 5.94z"/>
        </g>
        <g stroke="#999" class="edge">
            <path fill="none" stroke-dasharray="5,2" d="M466.12 307.12c16.31-1.31 34.26-2.76 51.67-4.16"/>
            <path fill="#999" d="m517.37 299.48 10.25 2.69-9.69 4.29z"/>
        </g>
        <g stroke="#999" class="edge">
            <path fill="none" stroke-dasharray="5,2" d="M465.88 319.85c83.82 10.86 232.81 30.17 302.64 39.22"/>
            <path fill="#999" d="m768.85 355.58 9.47 4.76-10.37 2.18z"/>
        </g>
        <g stroke="#999" class="edge">
            <path fill="none" stroke-dasharray="5,2" d="M458.77 330.44c61.88 20.19 167.35 50.96 260.98 60.56 239.17 24.53 311.88 2.81 533.25-91 16.54-7 33.63-17 47.95-26.29"/>
            <path fill="#999" d="m1298.86 270.9 10.27-2.62-6.39 8.45z"/>
        </g>
        <g stroke="#999" class="edge">
            <path fill="none" stroke-dasharray="5,2" d="M466.02 295.44c8.47-3.07 16.94-6.55 24.73-10.44 30.32-15.13 61.42-37.94 83.38-55.5"/>
            <path fill="#999" d="m571.81 226.88 9.97-3.59-5.55 9.02z"/>
        </g>
        <g stroke="#333" class="edge">
            <path fill="none" stroke-dasharray="5,2" d="M1059.97 176.67c52.62-.97 129.46 2.04 193.03 22.33 17.54 5.6 35.24 15.58 49.74 25.16"/>
            <path fill="#333" d="m1304.72 221.27 6.27 8.54-10.23-2.77z"/>
        </g>
        <g stroke="#333" class="edge">
            <path fill="none" stroke-dasharray="5,2" d="M1059.69 196.09c10.68 2.78 21.93 5.71 33.04 8.6"/>
            <path fill="#333" d="m1093.5 201.28 8.8 5.9-10.56.87z"/>
        </g>
        <g stroke="#ccc" class="edge">
            <path fill="none" stroke-dasharray="5,2" d="M267.72 240.02c17.69-4.69 36.93-9.8 55.21-14.66"/>
            <path fill="#ccc" d="m321.84 222.03 10.56.82-8.76 5.95z"/>
        </g>
        <g stroke="#ccc" class="edge">
            <path fill="none" stroke-dasharray="5,2" d="M267.72 275.99c20.57 5.46 43.23 11.47 64.05 17"/>
            <path fill="#ccc" d="m332.56 289.58 8.77 5.95-10.57.82z"/>
        </g>
        <g stroke="#333" class="edge">
            <path fill="none" stroke-dasharray="5,2" d="M1062.62 113.16c53.55 9.54 130.29 27.86 190.38 60.84 22.72 12.48 44.28 32.38 59.69 48.55"/>
            <path fill="#333" d="m1314.9 219.78 4.24 9.71-9.37-4.95z"/>
        </g>
        <g stroke="#333" class="edge">
            <path fill="none" stroke-dasharray="5,2" d="M1253.39 237.1c8.12 1.17 16.27 2.35 24.13 3.49"/>
            <path fill="#333" d="m1277.88 237.1 9.4 4.9-10.4 2.03z"/>
        </g>
        <g stroke="#666" class="edge">
            <path fill="none" stroke-dasharray="5,2" d="M863.99 117.36c11.32 4.57 22.5 10.63 31.51 18.64 26.43 23.53 15.3 42.31 36 71 10.02 13.89 23.02 27.61 34.71 38.84"/>
            <path fill="#666" d="m968.42 243.12 4.91 9.39-9.69-4.28z"/>
        </g>
        <g stroke="#666" class="edge">
            <path fill="none" stroke-dasharray="5,2" d="M864.05 104h55.55"/>
            <path fill="#666" d="m919.52 100.5 10 3.5-10 3.5z"/>
        </g>
        <g stroke="#ccc" class="edge">
            <path fill="none" stroke-dasharray="5,2" d="M282.4 364.25c58.73-2.67 139.2-9.25 208.35-25.25 20.86-4.82 43.05-12.59 62.22-20.21"/>
            <path fill="#ccc" d="m551.59 315.57 10.58-.53-7.94 7.02z"/>
        </g>
    </g>
</svg>
