<svg xmlns="http://www.w3.org/2000/svg" width="602pt" height="224pt" viewBox="0 0 602.25 223.7">
    <g class="graph">
        <path fill="#fff" d="M0 223.7V0h602.25v223.7z"/>
        <g class="node">
            <path fill="#90ee90" stroke="#000" d="M131 58H4v36h127z"/>
            <text x="63.5" y="-138.65" font-family="Times New Roman,serif" font-size="14" text-anchor="middle" transform="translate(4 219.7)">:data:imageAnalysis</text>
        </g>
        <g class="node">
            <path fill="#add8e6" stroke="#000" d="M277.5 58h-75.25v36h75.25z"/>
            <text x="235.88" y="-138.65" font-family="Times New Roman,serif" font-size="14" text-anchor="middle" transform="translate(4 219.7)">:data:room</text>
        </g>
        <g stroke="#000" class="edge">
            <path fill="none" d="M131.46 76h59.11"/>
            <path d="m190.38 72.5 10 3.5-10 3.5z"/>
        </g>
        <g class="node">
            <path fill="#add8e6" stroke="#000" d="M435.25 4h-55v36h55z"/>
            <text x="403.75" y="-192.65" font-family="Times New Roman,serif" font-size="14" text-anchor="middle" transform="translate(4 219.7)">:shared</text>
        </g>
        <g stroke="#000" class="edge">
            <path fill="none" d="M101.13 57.66C119.81 48.15 144.03 37.4 167 32c69.72-16.39 153.93-15.28 201.72-12.77"/>
            <path d="m368.76 15.72 9.79 4.07-10.19 2.92z"/>
        </g>
        <g class="node">
            <path fill="#add8e6" stroke="#000" d="M312.75 166H167v36h145.75z"/>
            <text x="235.88" y="-30.65" font-family="Times New Roman,serif" font-size="14" text-anchor="middle" transform="translate(4 219.7)">:domain:imageAnalysis</text>
        </g>
        <g stroke="#000" class="edge">
            <path fill="none" d="M87.08 94.49c18.82 17.92 49.44 44.9 79.92 62.51 2.29 1.32 4.65 2.6 7.07 3.84"/>
            <path d="m175.33 157.56 7.53 7.45-10.54-1.13z"/>
        </g>
        <g class="node">
            <path fill="#add8e6" stroke="#000" d="M453.25 58h-91v36h91z"/>
            <text x="403.75" y="-138.65" font-family="Times New Roman,serif" font-size="14" text-anchor="middle" transform="translate(4 219.7)">:core:network</text>
        </g>
        <g stroke="#000" class="edge">
            <path fill="none" d="M125.78 57.53c13.39-3.54 27.69-6.71 41.22-8.53 64.2-8.64 81.6-9.03 145.75 0 12.61 1.78 25.91 4.83 38.4 8.26"/>
            <path d="m351.79 53.8 8.64 6.13-10.58.6z"/>
        </g>
        <g class="node">
            <path fill="#add8e6" stroke="#000" d="M289.5 112h-99.25v36h99.25z"/>
            <text x="235.88" y="-84.65" font-family="Times New Roman,serif" font-size="14" text-anchor="middle" transform="translate(4 219.7)">:data:employee</text>
        </g>
        <g stroke="#000" class="edge">
            <path fill="none" d="M126.66 94.43c16.84 5.34 35.26 11.18 52.21 16.55"/>
            <path d="m179.85 107.62 8.48 6.36-10.59.32z"/>
        </g>
        <g stroke="#ccc" class="edge">
            <path fill="none" stroke-dasharray="5,2" d="M277.69 64.02c27.18-8.85 64.05-20.85 91.42-29.77"/>
            <path fill="#ccc" d="m367.8 31 10.59.23-8.42 6.43z"/>
        </g>
        <g stroke="#ccc" class="edge">
            <path fill="none" stroke-dasharray="5,2" d="M277.69 76h72.61"/>
            <path fill="#ccc" d="m350.25 72.5 10 3.5-10 3.5z"/>
        </g>
        <g class="node">
            <path fill="#add8e6" stroke="#000" d="M454.75 112h-94v36h94z"/>
            <text x="403.75" y="-84.65" font-family="Times New Roman,serif" font-size="14" text-anchor="middle" transform="translate(4 219.7)">:domain:room</text>
        </g>
        <g stroke="#ccc" class="edge">
            <path fill="none" stroke-dasharray="5,2" d="M277.69 87.99c21.19 6.89 48.27 15.71 72.14 23.48"/>
            <path fill="#ccc" d="m350.68 108.07 8.43 6.42-10.6.23z"/>
        </g>
        <g class="node">
            <path fill="#add8e6" stroke="#000" d="M598.25 139h-95.5v36h95.5z"/>
            <text x="546.5" y="-57.65" font-family="Times New Roman,serif" font-size="14" text-anchor="middle" transform="translate(4 219.7)">:core:common</text>
        </g>
        <g stroke="#ccc" class="edge">
            <path fill="none" stroke-dasharray="5,2" d="M294.85 202.48c46.42 13.07 114.74 25.52 171.9 8.52 19.34-5.75 38.37-17.61 53.3-28.76"/>
            <path fill="#ccc" d="m517.54 179.76 10.04-3.37-5.75 8.9z"/>
        </g>
        <g class="node">
            <path fill="#add8e6" stroke="#000" d="M466.75 166h-118v36h118z"/>
            <text x="403.75" y="-30.65" font-family="Times New Roman,serif" font-size="14" text-anchor="middle" transform="translate(4 219.7)">:domain:employee</text>
        </g>
        <g stroke="#ccc" class="edge">
            <path fill="none" stroke-dasharray="5,2" d="M313.15 184H337"/>
            <path fill="#ccc" d="m336.9 180.5 10 3.5-10 3.5z"/>
        </g>
        <g stroke="#ccc" class="edge">
            <path fill="none" stroke-dasharray="5,2" d="M297.5 165.57c16.78-5.47 35.17-11.45 51.99-16.93"/>
            <path fill="#ccc" d="m348.26 145.36 10.59.24-8.43 6.42z"/>
        </g>
        <g stroke="#ccc" class="edge">
            <path fill="none" stroke-dasharray="5,2" d="M450.3 94.47c5.59 2.73 11.21 5.62 16.45 8.53 15.84 8.8 32.7 19.53 47.03 29.1"/>
            <path fill="#ccc" d="m515.68 129.16 6.33 8.5-10.25-2.7z"/>
        </g>
        <g stroke="#ccc" class="edge">
            <path fill="none" stroke-dasharray="5,2" d="M289.87 116.34c8.12-3.56 16.09-7.95 22.88-13.34 22.59-17.93 14.11-35.21 36-54 6.13-5.26 13.46-9.71 20.81-13.39"/>
            <path fill="#ccc" d="m367.91 32.52 10.56-.96-7.65 7.33z"/>
        </g>
        <g stroke="#ccc" class="edge">
            <path fill="none" stroke-dasharray="5,2" d="M289.75 114.09c19.27-6.27 41.51-13.51 61.39-19.99"/>
            <path fill="#ccc" d="m349.88 90.83 10.59.24-8.42 6.42z"/>
        </g>
        <g stroke="#ccc" class="edge">
            <path fill="none" stroke-dasharray="5,2" d="M289.75 145.91c15.52 5.05 32.97 10.73 49.56 16.14"/>
            <path fill="#ccc" d="m340.19 158.65 8.43 6.43-10.59.23z"/>
        </g>
        <g stroke="#999" class="edge">
            <path fill="none" stroke-dasharray="5,2" d="M467.22 172.79c8.01-1.54 16.23-3.12 24.23-4.65"/>
            <path fill="#999" d="m490.6 164.74 10.48 1.55-9.16 5.32z"/>
        </g>
        <g stroke="#999" class="edge">
            <path fill="none" stroke-dasharray="5,2" d="M455.23 138.92c11.65 2.23 24.28 4.66 36.41 6.98"/>
            <path fill="#999" d="m491.94 142.4 9.16 5.32-10.48 1.55z"/>
        </g>
    </g>
</svg>
