<svg xmlns="http://www.w3.org/2000/svg" width="526pt" height="260pt" viewBox="0 0 525.75 260">
    <g class="graph">
        <path fill="#fff" d="M0 260V0h525.75v260z"/>
        <g class="node">
            <path fill="#90ee90" stroke="#000" d="M101 139H4v36h97z"/>
            <text x="48.5" y="-93.95" font-family="Times New Roman,serif" font-size="14" text-anchor="middle" transform="translate(4 256)">:feature:foryou</text>
        </g>
        <g class="node">
            <path fill="#add8e6" stroke="#000" d="M224.25 58H149v36h75.25z"/>
            <text x="182.62" y="-174.95" font-family="Times New Roman,serif" font-size="14" text-anchor="middle" transform="translate(4 256)">:data:room</text>
        </g>
        <g stroke="#000" class="edge">
            <path fill="none" d="M81.04 138.53C97.18 127.87 118.05 114.37 137 103c1.62-.97 3.28-1.96 4.96-2.94"/>
            <path d="m139.99 97.16 10.41-1.96-6.92 8.02z"/>
        </g>
        <g class="node">
            <path fill="#add8e6" stroke="#000" d="M215.25 166H158v36h57.25z"/>
            <text x="182.62" y="-66.95" font-family="Times New Roman,serif" font-size="14" text-anchor="middle" transform="translate(4 256)">:core:ui</text>
        </g>
        <g stroke="#000" class="edge">
            <path fill="none" d="M101.2 166.75c14.93 3.05 31.22 6.38 45.48 9.29"/>
            <path d="m147.03 172.54 9.09 5.43-10.5 1.43z"/>
        </g>
        <g class="node">
            <path fill="#add8e6" stroke="#000" d="M236.25 112H137v36h99.25z"/>
            <text x="182.62" y="-120.95" font-family="Times New Roman,serif" font-size="14" text-anchor="middle" transform="translate(4 256)">:data:employee</text>
        </g>
        <g stroke="#000" class="edge">
            <path fill="none" d="M101.2 147.25c7.93-1.62 16.24-3.32 24.42-4.99"/>
            <path d="m124.68 138.88 10.5 1.43-9.1 5.43z"/>
        </g>
        <g class="node">
            <path fill="#add8e6" stroke="#000" d="M232.88 220h-92.5v36h92.5z"/>
            <text x="182.62" y="-12.95" font-family="Times New Roman,serif" font-size="14" text-anchor="middle" transform="translate(4 256)">:core:resource</text>
        </g>
        <g stroke="#000" class="edge">
            <path fill="none" d="M81.04 175.47C97.18 186.13 118.05 199.63 137 211c1.62.97 3.28 1.96 4.96 2.94"/>
            <path d="m143.48 210.78 6.92 8.02-10.41-1.96z"/>
        </g>
        <g class="node">
            <path fill="#add8e6" stroke="#000" d="M358.75 58h-55v36h55z"/>
            <text x="327.25" y="-174.95" font-family="Times New Roman,serif" font-size="14" text-anchor="middle" transform="translate(4 256)">:shared</text>
        </g>
        <g stroke="#ccc" class="edge">
            <path fill="none" stroke-dasharray="5,2" d="M224.73 76h67.6"/>
            <path fill="#ccc" d="m292.18 72.5 10 3.5-10 3.5z"/>
        </g>
        <g class="node">
            <path fill="#add8e6" stroke="#000" d="M376.75 112h-91v36h91z"/>
            <text x="327.25" y="-120.95" font-family="Times New Roman,serif" font-size="14" text-anchor="middle" transform="translate(4 256)">:core:network</text>
        </g>
        <g stroke="#ccc" class="edge">
            <path fill="none" stroke-dasharray="5,2" d="M224.73 90.05c15.37 5.82 33.54 12.7 50.42 19.09"/>
            <path fill="#ccc" d="m275.93 105.69 8.11 6.81-10.59-.26z"/>
        </g>
        <g class="node">
            <path fill="#add8e6" stroke="#000" d="M378.25 4h-94v36h94z"/>
            <text x="327.25" y="-228.95" font-family="Times New Roman,serif" font-size="14" text-anchor="middle" transform="translate(4 256)">:domain:room</text>
        </g>
        <g stroke="#ccc" class="edge">
            <path fill="none" stroke-dasharray="5,2" d="M224.73 61.95c14.82-5.61 32.24-12.2 48.6-18.4"/>
            <path fill="#ccc" d="m271.88 40.36 10.59-.27-8.11 6.81z"/>
        </g>
        <g class="node">
            <path fill="#add8e6" stroke="#000" d="M521.75 112h-95.5v36h95.5z"/>
            <text x="470" y="-120.95" font-family="Times New Roman,serif" font-size="14" text-anchor="middle" transform="translate(4 256)">:core:common</text>
        </g>
        <g stroke="#999" class="edge">
            <path fill="none" stroke-dasharray="5,2" d="M377.17 130h37.58"/>
            <path fill="#999" d="m414.57 126.5 10 3.5-10 3.5z"/>
        </g>
        <g stroke="#ccc" class="edge">
            <path fill="none" stroke-dasharray="5,2" d="M236.31 111.57c18.58-7.04 39.44-14.94 56.78-21.5"/>
            <path fill="#ccc" d="m291.37 86.98 10.59-.27-8.11 6.81z"/>
        </g>
        <g stroke="#ccc" class="edge">
            <path fill="none" stroke-dasharray="5,2" d="M236.71 130h37.52"/>
            <path fill="#ccc" d="m273.87 126.5 10 3.5-10 3.5z"/>
        </g>
        <g class="node">
            <path fill="#add8e6" stroke="#000" d="M390.25 166h-118v36h118z"/>
            <text x="327.25" y="-66.95" font-family="Times New Roman,serif" font-size="14" text-anchor="middle" transform="translate(4 256)">:domain:employee</text>
        </g>
        <g stroke="#ccc" class="edge">
            <path fill="none" stroke-dasharray="5,2" d="M236.31 148.43c11.24 4.26 23.33 8.83 34.96 13.24"/>
            <path fill="#ccc" d="m272.26 158.3 8.11 6.81-10.59-.26z"/>
        </g>
        <g stroke="#999" class="edge">
            <path fill="none" stroke-dasharray="5,2" d="M380.29 165.57c11.35-4.35 23.55-9.04 35.26-13.53"/>
            <path fill="#999" d="m414.12 148.84 10.59-.31-8.08 6.85z"/>
        </g>
        <g stroke="#999" class="edge">
            <path fill="none" stroke-dasharray="5,2" d="M375.91 40.34c4.98 2.66 9.86 5.56 14.34 8.66 22.39 15.49 44.24 37.25 59.86 54.32"/>
            <path fill="#999" d="m452.6 100.85 4.07 9.78-9.28-5.11z"/>
        </g>
    </g>
</svg>
