<svg xmlns="http://www.w3.org/2000/svg" width="1628" height="271pt" viewBox="0 0 1221 271.24">
    <g class="graph">
        <path fill="#fff" d="M0 271.24V0h1221v271.24z"/>
        <g class="node">
            <path fill="#90ee90" stroke="#000" d="M140.75 117.62H4v36h136.75z"/>
            <text x="68.38" y="-126.57" font-family="Times New Roman,serif" font-size="14" text-anchor="middle" transform="translate(4 267.24)">:server:controller:cron</text>
        </g>
        <g class="node">
            <path fill="#add8e6" stroke="#000" d="M349.5 90.62H176.75v36H349.5z"/>
            <text x="259.12" y="-153.57" font-family="Times New Roman,serif" font-size="14" text-anchor="middle" transform="translate(4 267.24)">:server:service:housekeeping</text>
        </g>
        <g stroke="#000" class="edge">
            <path fill="none" d="M140.98 125.95c7.93-1.13 16.13-2.31 24.36-3.48"/>
            <path d="m164.66 119.03 10.39 2.05-9.4 4.88z"/>
        </g>
        <g class="node">
            <path fill="#add8e6" stroke="#000" d="M324.38 144.62h-122.5v36h122.5z"/>
            <text x="259.12" y="-99.57" font-family="Times New Roman,serif" font-size="14" text-anchor="middle" transform="translate(4 267.24)">:server:service:shift</text>
        </g>
        <g stroke="#000" class="edge">
            <path fill="none" d="M140.98 145.29c16.08 2.3 33.28 4.76 49.52 7.09"/>
            <path d="m190.67 148.86 9.4 4.88-10.39 2.05z"/>
        </g>
        <g class="node">
            <path fill="#add8e6" stroke="#000" d="M1217 68.62h-95.5v36h95.5z"/>
            <text x="1165.25" y="-175.57" font-family="Times New Roman,serif" font-size="14" text-anchor="middle" transform="translate(4 267.24)">:core:common</text>
        </g>
        <g stroke="#ccc" class="edge">
            <path fill="none" stroke-dasharray="5,2" d="M284.25 90.34c22.72-19.42 61.72-49.14 101.25-62.72 109.11-37.48 143.51-19 258.88-19H833c99.49 0 211.36 32.99 277.43 56.06"/>
            <path fill="#ccc" d="m1111.35 61.29 8.26 6.64-10.6-.04z"/>
        </g>
        <g class="node">
            <path fill="#add8e6" stroke="#000" d="M506.88 144.62H400.12v36h106.76z"/>
            <text x="449.5" y="-99.57" font-family="Times New Roman,serif" font-size="14" text-anchor="middle" transform="translate(4 267.24)">:server:data:shift</text>
        </g>
        <g stroke="#ccc" class="edge">
            <path fill="none" stroke-dasharray="5,2" d="M328.43 127.05c19.51 5.6 40.93 11.74 60.41 17.32"/>
            <path fill="#ccc" d="m389.63 140.96 8.65 6.12-10.58.61z"/>
        </g>
        <g class="node">
            <path fill="#add8e6" stroke="#000" d="M481 90.62h-55v36h55z"/>
            <text x="449.5" y="-153.57" font-family="Times New Roman,serif" font-size="14" text-anchor="middle" transform="translate(4 267.24)">:shared</text>
        </g>
        <g stroke="#ccc" class="edge">
            <path fill="none" stroke-dasharray="5,2" d="M349.77 108.62h64.5"/>
            <path fill="#ccc" d="m414.01 105.12 10 3.5-10 3.5z"/>
        </g>
        <g class="node">
            <path fill="#add8e6" stroke="#000" d="M509.5 36.62h-112v36h112z"/>
            <text x="449.5" y="-207.57" font-family="Times New Roman,serif" font-size="14" text-anchor="middle" transform="translate(4 267.24)">:server:data:room</text>
        </g>
        <g stroke="#ccc" class="edge">
            <path fill="none" stroke-dasharray="5,2" d="M328.43 90.19c18.71-5.37 39.17-11.23 57.99-16.63"/>
            <path fill="#ccc" d="m385.25 70.26 10.58.61-8.65 6.12z"/>
        </g>
        <g class="node">
            <path fill="#add8e6" stroke="#000" d="M894.75 102.62h-125.5v36h125.5z"/>
            <text x="828" y="-141.57" font-family="Times New Roman,serif" font-size="14" text-anchor="middle" transform="translate(4 267.24)">:server:domain:shift</text>
        </g>
        <g stroke="#666" class="edge">
            <path fill="none" stroke-dasharray="5,2" d="M895.22 110.38c11.78-1.74 24.02-3.42 35.53-4.76 60.92-7.1 130.94-12.35 179.09-15.51"/>
            <path fill="#666" d="m1109.57 86.62 10.21 2.85-9.76 4.14z"/>
        </g>
        <g class="node">
            <path fill="#add8e6" stroke="#000" d="M1085.5 114.62H930.75v36h154.75z"/>
            <text x="1004.12" y="-129.57" font-family="Times New Roman,serif" font-size="14" text-anchor="middle" transform="translate(4 267.24)">:server:domain:employee</text>
        </g>
        <g stroke="#666" class="edge">
            <path fill="none" stroke-dasharray="5,2" d="m894.88 124.88 24.41 1.69"/>
            <path fill="#666" d="m919.26 123.06 9.74 4.18-10.22 2.8z"/>
        </g>
        <g stroke="#333" class="edge">
            <path fill="none" stroke-dasharray="5,2" d="M1072.93 114.18c12.31-3.56 25.15-7.28 37.27-10.78"/>
            <path fill="#333" d="m1109.06 100.09 10.58.58-8.64 6.14z"/>
        </g>
        <g class="node">
            <path fill="#add8e6" stroke="#000" d="M733.25 36.62H557.5v36h175.75z"/>
            <text x="641.38" y="-207.57" font-family="Times New Roman,serif" font-size="14" text-anchor="middle" transform="translate(4 267.24)">:server:domain:housekeeping</text>
        </g>
        <g stroke="#666" class="edge">
            <path fill="none" stroke-dasharray="5,2" d="M733.73 59.98c106.85 6.55 284.78 17.46 376.27 23.07"/>
            <path fill="#666" d="m1109.97 79.54 9.77 4.11-10.2 2.88z"/>
        </g>
        <g stroke="#666" class="edge">
            <path fill="none" stroke-dasharray="5,2" d="M697.8 73.01c22.02 7.86 47.92 17.12 71 25.38"/>
            <path fill="#666" d="m769.86 95.05 8.24 6.66-10.59-.07z"/>
        </g>
        <g stroke="#ccc" class="edge">
            <path fill="none" stroke-dasharray="5,2" d="M284.25 180.9c22.72 19.42 61.72 49.14 101.25 62.72 109.11 37.48 143.51 19 258.88 19H833c116.22 0 155.93-3.34 252.5-68 30.23-20.24 54.03-55.21 68.2-79.87"/>
            <path fill="#ccc" d="m1150.53 113.26 7.91-7.04-1.79 10.44z"/>
        </g>
        <g class="node">
            <path fill="#add8e6" stroke="#000" d="M521.5 198.62h-136v36h136z"/>
            <text x="449.5" y="-45.57" font-family="Times New Roman,serif" font-size="14" text-anchor="middle" transform="translate(4 267.24)">:server:data:employee</text>
        </g>
        <g stroke="#ccc" class="edge">
            <path fill="none" stroke-dasharray="5,2" d="M324.76 180c16.75 4.8 35.12 10.07 52.58 15.08"/>
            <path fill="#ccc" d="m377.97 191.62 8.65 6.12-10.58.6z"/>
        </g>
        <g stroke="#ccc" class="edge">
            <path fill="none" stroke-dasharray="5,2" d="M324.76 162.62h63.63"/>
            <path fill="#ccc" d="m388.39 159.12 10 3.5-10 3.5z"/>
        </g>
        <g stroke="#ccc" class="edge">
            <path fill="none" stroke-dasharray="5,2" d="M324.76 145.24c29.61-8.49 64.3-18.43 90.06-25.82"/>
            <path fill="#ccc" d="m413.58 116.14 10.58.6-8.65 6.12z"/>
        </g>
        <g stroke="#999" class="edge">
            <path fill="none" stroke-dasharray="5,2" d="M521.82 213.65c56.65-3.12 139.66-9.13 211.43-20.03 65.33-9.92 138.33-26.46 192.52-39.81"/>
            <path fill="#999" d="m924.68 150.47 10.55.99-8.87 5.81z"/>
        </g>
        <g class="node">
            <path fill="#add8e6" stroke="#000" d="M710.38 148.62h-130v36h130z"/>
            <text x="641.38" y="-95.57" font-family="Times New Roman,serif" font-size="14" text-anchor="middle" transform="translate(4 267.24)">:server:core:database</text>
        </g>
        <g stroke="#999" class="edge">
            <path fill="none" stroke-dasharray="5,2" d="M521.98 198.85c15.18-4 31.39-8.26 46.87-12.34"/>
            <path fill="#999" d="m567.95 183.13 10.56.83-8.77 5.93z"/>
        </g>
        <g stroke="#999" class="edge">
            <path fill="none" stroke-dasharray="5,2" d="M507.15 149.27c16.07-3.65 33.85-7.25 50.35-9.65 67.28-9.79 144.63-14.57 199.86-16.88"/>
            <path fill="#999" d="m757.16 119.24 10.13 3.1-9.85 3.9z"/>
        </g>
        <g stroke="#999" class="edge">
            <path fill="none" stroke-dasharray="5,2" d="M507.14 163.73c19.07.4 41.01.86 61.68 1.3"/>
            <path fill="#999" d="m568.7 161.53 9.92 3.71-10.07 3.28z"/>
        </g>
        <g stroke="#666" class="edge">
            <path fill="none" stroke-dasharray="5,2" d="M710.81 179.07c88.01 14.06 249.19 29.14 374.69-19.45 24.34-9.42 46.21-29.5 61.35-46.21"/>
            <path fill="#666" d="m1143.93 111.44 9.2-5.25-3.92 9.84z"/>
        </g>
        <g stroke="#999" class="edge">
            <path fill="none" stroke-dasharray="5,2" d="M509.93 54.62h35.85"/>
            <path fill="#999" d="m545.56 51.12 10 3.5-10 3.5z"/>
        </g>
        <g stroke="#999" class="edge">
            <path fill="none" stroke-dasharray="5,2" d="M503.75 73c6.07 2.69 12.12 5.59 17.75 8.62 32.46 17.49 66.75 41.76 90.84 59.89"/>
            <path fill="#999" d="m614.32 138.62 5.84 8.84-10.08-3.27z"/>
        </g>
    </g>
</svg>
