<svg xmlns="http://www.w3.org/2000/svg" width="1816" height="343pt" viewBox="0 0 1362.25 342.88">
    <g class="graph">
        <path fill="#fff" d="M0 342.88V0h1362.25v342.88z"/>
        <g class="node">
            <path fill="#90ee90" stroke="#000" d="M80 151.92H4v36h76z"/>
            <text x="38" y="-163.91" font-family="Times New Roman,serif" font-size="14" text-anchor="middle" transform="translate(4 338.88)">:server:app</text>
        </g>
        <g class="node">
            <path fill="#add8e6" stroke="#000" d="M270 124.92H128v36h142z"/>
            <text x="195" y="-190.91" font-family="Times New Roman,serif" font-size="14" text-anchor="middle" transform="translate(4 338.88)">:server:controller:room</text>
        </g>
        <g stroke="#000" class="edge">
            <path fill="none" d="M80.13 163.46c11.08-1.93 23.69-4.13 36.44-6.35"/>
            <path d="m115.84 153.68 10.45 1.74-9.25 5.16z"/>
        </g>
        <g class="node">
            <path fill="#add8e6" stroke="#000" d="M851.62 124.92h-130v36h130z"/>
            <text x="782.62" y="-190.91" font-family="Times New Roman,serif" font-size="14" text-anchor="middle" transform="translate(4 338.88)">:server:core:database</text>
        </g>
        <g stroke="#000" class="edge">
            <path fill="none" d="M62.07 151.54c13.84-12.2 33.61-27.41 53.93-35.62 226.42-91.43 331.46-169.22 546.75-54 25.43 13.61 12.9 36.73 36 54 3.84 2.88 8 5.45 12.33 7.75"/>
            <path d="m712.55 120.49 7.55 7.43-10.53-1.1z"/>
        </g>
        <g class="node">
            <path fill="#add8e6" stroke="#000" d="M267.38 178.92H130.62v36h136.76z"/>
            <text x="195" y="-136.91" font-family="Times New Roman,serif" font-size="14" text-anchor="middle" transform="translate(4 338.88)">:server:controller:shift</text>
        </g>
        <g stroke="#000" class="edge">
            <path fill="none" d="M80.13 176.39c11.87 2.07 25.5 4.44 39.17 6.83"/>
            <path d="m119.51 179.7 9.25 5.16-10.46 1.73z"/>
        </g>
        <g class="node">
            <path fill="#add8e6" stroke="#000" d="M282 232.92H116v36h166z"/>
            <text x="195" y="-82.91" font-family="Times New Roman,serif" font-size="14" text-anchor="middle" transform="translate(4 338.88)">:server:controller:employee</text>
        </g>
        <g stroke="#000" class="edge">
            <path fill="none" d="M64.15 188.41c13.97 11.47 33.09 25.81 51.85 35.51 2.71 1.41 5.52 2.76 8.38 4.06"/>
            <path d="m125.68 224.73 7.85 7.13-10.58-.68z"/>
        </g>
        <g class="node">
            <path fill="#add8e6" stroke="#000" d="M480.25 232.92H328.5v36h151.75z"/>
            <text x="400.38" y="-82.91" font-family="Times New Roman,serif" font-size="14" text-anchor="middle" transform="translate(4 338.88)">:server:service:employee</text>
        </g>
        <g class="node">
            <path fill="#add8e6" stroke="#000" d="M622.25 178.92h-55v36h55z"/>
            <text x="590.75" y="-136.91" font-family="Times New Roman,serif" font-size="14" text-anchor="middle" transform="translate(4 338.88)">:shared</text>
        </g>
        <g stroke="#999" class="edge">
            <path fill="none" stroke-dasharray="5,2" d="M469.68 232.49c28.7-8.23 61.54-17.64 86.22-24.72"/>
            <path fill="#999" d="m554.93 204.41 10.58.61-8.65 6.12z"/>
        </g>
        <g class="node">
            <path fill="#add8e6" stroke="#000" d="M1358.25 232.92h-95.5v36h95.5z"/>
            <text x="1306.5" y="-82.91" font-family="Times New Roman,serif" font-size="14" text-anchor="middle" transform="translate(4 338.88)">:core:common</text>
        </g>
        <g stroke="#999" class="edge">
            <path fill="none" stroke-dasharray="5,2" d="M434.57 269.18c23.85 13.95 58.93 32.34 92.18 41.74 111.18 31.47 143.33 24 258.87 24h188.63c112.73 0 147.04 15.83 252.5-24 20.4-7.7 40.28-21.83 55.44-34.45"/>
            <path fill="#999" d="m1279.53 274.14 9.87-3.87-5.3 9.18z"/>
        </g>
        <g class="node">
            <path fill="#add8e6" stroke="#000" d="M662.75 232.92h-136v36h136z"/>
            <text x="590.75" y="-82.91" font-family="Times New Roman,serif" font-size="14" text-anchor="middle" transform="translate(4 338.88)">:server:data:employee</text>
        </g>
        <g stroke="#999" class="edge">
            <path fill="none" stroke-dasharray="5,2" d="M480.64 250.92h34.57"/>
            <path fill="#999" d="m515.01 247.42 10 3.5-10 3.5z"/>
        </g>
        <g class="node">
            <path fill="#add8e6" stroke="#000" d="M490.75 124.92H318v36h172.75z"/>
            <text x="400.38" y="-190.91" font-family="Times New Roman,serif" font-size="14" text-anchor="middle" transform="translate(4 338.88)">:server:service:housekeeping</text>
        </g>
        <g stroke="#ccc" class="edge">
            <path fill="none" stroke-dasharray="5,2" d="M270.27 142.92h36.21"/>
            <path fill="#ccc" d="m306.14 139.42 10 3.5-10 3.5z"/>
        </g>
        <g stroke="#999" class="edge">
            <path fill="none" stroke-dasharray="5,2" d="M469.68 161.36c28.7 8.23 61.54 17.64 86.22 24.72"/>
            <path fill="#999" d="m556.86 182.71 8.65 6.12-10.58.61z"/>
        </g>
        <g stroke="#999" class="edge">
            <path fill="none" stroke-dasharray="5,2" d="M427.18 124.69c23.24-18.52 61.81-46.69 99.57-62.77 108.39-46.16 141.06-57 258.87-57h188.63c124.06 0 158.97 37.49 252.5 119 31.7 27.63 56.07 70.25 69.9 98.38"/>
            <path fill="#999" d="m1299.8 220.77 1.15 10.53-7.47-7.52z"/>
        </g>
        <g class="node">
            <path fill="#add8e6" stroke="#000" d="M648.12 124.92H541.38v36h106.74z"/>
            <text x="590.75" y="-190.91" font-family="Times New Roman,serif" font-size="14" text-anchor="middle" transform="translate(4 338.88)">:server:data:shift</text>
        </g>
        <g stroke="#999" class="edge">
            <path fill="none" stroke-dasharray="5,2" d="M491.02 142.92h38.72"/>
            <path fill="#999" d="m529.41 139.42 10 3.5-10 3.5z"/>
        </g>
        <g class="node">
            <path fill="#add8e6" stroke="#000" d="M650.75 70.92h-112v36h112z"/>
            <text x="590.75" y="-244.91" font-family="Times New Roman,serif" font-size="14" text-anchor="middle" transform="translate(4 338.88)">:server:data:room</text>
        </g>
        <g stroke="#999" class="edge">
            <path fill="none" stroke-dasharray="5,2" d="M469.68 124.49c18.71-5.36 39.17-11.23 57.99-16.62"/>
            <path fill="#999" d="m526.5 104.56 10.58.61-8.65 6.12z"/>
        </g>
        <g stroke="#333" class="edge">
            <path fill="none" stroke-dasharray="5,2" d="M851.91 141.06c87.83-.37 248.81 6.8 374.84 56.86 17.69 7.03 35.68 18 50.34 28.14"/>
            <path fill="#333" d="m1278.86 223.02 6.12 8.65-10.18-2.94z"/>
        </g>
        <g stroke="#666" class="edge">
            <path fill="none" stroke-dasharray="5,2" d="M648.39 142.92h61.68"/>
            <path fill="#666" d="m709.87 139.42 10 3.5-10 3.5z"/>
        </g>
        <g class="node">
            <path fill="#add8e6" stroke="#000" d="M1036 170.92H910.5v36H1036z"/>
            <text x="969.25" y="-144.91" font-family="Times New Roman,serif" font-size="14" text-anchor="middle" transform="translate(4 338.88)">:server:domain:shift</text>
        </g>
        <g stroke="#666" class="edge">
            <path fill="none" stroke-dasharray="5,2" d="M648.54 158.79c15.99 4.25 33.7 8.42 50.21 11.13 67.2 11.05 144.71 15.68 200.02 17.62"/>
            <path fill="#666" d="m898.83 184.04 9.88 3.83-10.11 3.17z"/>
        </g>
        <g class="node">
            <path fill="#add8e6" stroke="#000" d="M874.5 70.92H698.75v36H874.5z"/>
            <text x="782.62" y="-244.91" font-family="Times New Roman,serif" font-size="14" text-anchor="middle" transform="translate(4 338.88)">:server:domain:housekeeping</text>
        </g>
        <g stroke="#333" class="edge">
            <path fill="none" stroke-dasharray="5,2" d="M874.91 87.93c92.54 2.45 240.43 16.6 351.84 75.99 26.4 14.08 49.21 39.71 64.15 59.53"/>
            <path fill="#333" d="m1293.64 221.26 3.06 10.14-8.72-6.02z"/>
        </g>
        <g stroke="#333" class="edge">
            <path fill="none" stroke-dasharray="5,2" d="M854.94 107.31c6.74 2.59 13.37 5.46 19.56 8.61 24.97 12.73 50.25 31.81 68.84 47.27"/>
            <path fill="#333" d="m945.38 160.33 5.37 9.14-9.89-3.8z"/>
        </g>
        <g stroke="#666" class="edge">
            <path fill="none" stroke-dasharray="5,2" d="M644.94 232.43c6.08-2.68 12.15-5.54 17.81-8.51 31.56-16.55 65.21-39.11 89.3-56.22"/>
            <path fill="#666" d="m749.71 165.07 10.17-2.98-6.09 8.67z"/>
        </g>
        <g class="node">
            <path fill="#add8e6" stroke="#000" d="M1226.75 232.92H1072v36h154.75z"/>
            <text x="1145.38" y="-82.91" font-family="Times New Roman,serif" font-size="14" text-anchor="middle" transform="translate(4 338.88)">:server:domain:employee</text>
        </g>
        <g stroke="#666" class="edge">
            <path fill="none" stroke-dasharray="5,2" d="M663.24 250.92h396.87"/>
            <path fill="#666" d="m1060.03 247.42 10 3.5-10.01 3.5z"/>
        </g>
        <g class="node">
            <path fill="#add8e6" stroke="#000" d="M465.62 178.92h-122.5v36h122.5z"/>
            <text x="400.38" y="-136.91" font-family="Times New Roman,serif" font-size="14" text-anchor="middle" transform="translate(4 338.88)">:server:service:shift</text>
        </g>
        <g stroke="#ccc" class="edge">
            <path fill="none" stroke-dasharray="5,2" d="M267.72 196.92h63.76"/>
            <path fill="#ccc" d="m331.28 193.42 10 3.5-10 3.5z"/>
        </g>
        <g stroke="#999" class="edge">
            <path fill="none" stroke-dasharray="5,2" d="M466.01 196.92h89.36"/>
            <path fill="#999" d="m555.35 193.42 10 3.5-10 3.5z"/>
        </g>
        <g stroke="#999" class="edge">
            <path fill="none" stroke-dasharray="5,2" d="M465.77 210.31c8.87 3.55 17.52 8.01 24.98 13.61 23.06 17.33 11.08 39.47 36 54 99.65 58.13 143.51 19 258.87 19h188.63c112.54 0 142.1 2.84 252.5-19 8.05-1.59 16.41-3.72 24.59-6.09"/>
            <path fill="#999" d="m1250.29 268.49 10.59.43-8.55 6.26z"/>
        </g>
        <g stroke="#999" class="edge">
            <path fill="none" stroke-dasharray="5,2" d="M466.01 179.54c20.52-5.88 43.47-12.46 64.2-18.4"/>
            <path fill="#999" d="m529.12 157.81 10.57.61-8.64 6.12z"/>
        </g>
        <g stroke="#999" class="edge">
            <path fill="none" stroke-dasharray="5,2" d="M466.01 214.31c16.75 4.8 35.12 10.06 52.58 15.07"/>
            <path fill="#999" d="m519.22 225.92 8.65 6.12-10.58.61z"/>
        </g>
        <g stroke="#333" class="edge">
            <path fill="none" stroke-dasharray="5,2" d="M1036.29 194.42c51.46 5.3 126.31 14.72 190.46 29.5 8.19 1.89 16.73 4.23 25.08 6.74"/>
            <path fill="#333" d="m1252.7 227.27 8.5 6.32-10.59.36z"/>
        </g>
        <g stroke="#333" class="edge">
            <path fill="none" stroke-dasharray="5,2" d="M1026.02 207.36c18.78 6.68 40.19 14.31 59.8 21.29"/>
            <path fill="#333" d="m1086.83 225.29 8.25 6.66-10.6-.06z"/>
        </g>
        <g stroke="#333" class="edge">
            <path fill="none" stroke-dasharray="5,2" d="M1227.14 250.92h24.13"/>
            <path fill="#333" d="m1251.01 247.42 10 3.5-10 3.5z"/>
        </g>
        <g stroke="#666" class="edge">
            <path fill="none" stroke-dasharray="5,2" d="M651.18 104.69c18.56 5.28 39.58 11.26 59.39 16.89"/>
            <path fill="#666" d="m711.31 118.15 8.66 6.1-10.58.63z"/>
        </g>
        <g stroke="#666" class="edge">
            <path fill="none" stroke-dasharray="5,2" d="M651.18 88.92h35.85"/>
            <path fill="#666" d="m686.81 85.42 10 3.5-10 3.5z"/>
        </g>
        <g stroke="#ccc" class="edge">
            <path fill="none" stroke-dasharray="5,2" d="M282.43 250.92h34.34"/>
            <path fill="#ccc" d="m316.53 247.42 10 3.5-10 3.5z"/>
        </g>
    </g>
</svg>
