<svg xmlns="http://www.w3.org/2000/svg" width="1088" height="131pt" viewBox="0 0 815.5 131.16">
    <g class="graph">
        <path fill="#fff" d="M0 131.16V0h815.5v131.16z"/>
        <g class="node">
            <path fill="#90ee90" stroke="#000" d="M116 54H4v36h112z"/>
            <text x="56" y="-50.11" font-family="Times New Roman,serif" font-size="14" text-anchor="middle" transform="translate(4 127.16)">:server:data:room</text>
        </g>
        <g class="node">
            <path fill="#add8e6" stroke="#000" d="M327.75 27H152v36h175.75z"/>
            <text x="235.88" y="-77.11" font-family="Times New Roman,serif" font-size="14" text-anchor="middle" transform="translate(4 127.16)">:server:domain:housekeeping</text>
        </g>
        <g stroke="#000" class="edge">
            <path fill="none" d="M116.31 63.61c7.71-1.17 15.82-2.4 24.04-3.65"/>
            <path d="m139.69 56.52 10.41 1.96-9.36 4.96z"/>
        </g>
        <g class="node">
            <path fill="#add8e6" stroke="#000" d="M304.88 81h-130v36h130z"/>
            <text x="235.88" y="-23.11" font-family="Times New Roman,serif" font-size="14" text-anchor="middle" transform="translate(4 127.16)">:server:core:database</text>
        </g>
        <g stroke="#000" class="edge">
            <path fill="none" d="M116.31 80.4c14.85 2.25 31.17 4.73 46.92 7.12"/>
            <path d="m163.72 84.05 9.36 4.97-10.41 1.95z"/>
        </g>
        <g class="node">
            <path fill="#add8e6" stroke="#000" d="M811.5 4H716v36h95.5z"/>
            <text x="759.75" y="-100.11" font-family="Times New Roman,serif" font-size="14" text-anchor="middle" transform="translate(4 127.16)">:core:common</text>
        </g>
        <g stroke="#ccc" class="edge">
            <path fill="none" stroke-dasharray="5,2" d="M312.56 26.52c16.69-3.54 34.47-6.7 51.19-8.52 120.62-13.09 262.94-6.4 340.82-.86"/>
            <path fill="#ccc" d="m704.36 13.61 9.72 4.22-10.23 2.76z"/>
        </g>
        <g class="node">
            <path fill="#add8e6" stroke="#000" d="M489.25 27h-125.5v36h125.5z"/>
            <text x="422.5" y="-77.11" font-family="Times New Roman,serif" font-size="14" text-anchor="middle" transform="translate(4 127.16)">:server:domain:shift</text>
        </g>
        <g stroke="#ccc" class="edge">
            <path fill="none" stroke-dasharray="5,2" d="M328.05 45h24"/>
            <path fill="#ccc" d="m351.93 41.5 10 3.5-10 3.5z"/>
        </g>
        <g stroke="#999" class="edge">
            <path fill="none" stroke-dasharray="5,2" d="M489.38 40.76c61.41-4.22 154.82-10.62 214.98-14.75"/>
            <path fill="#999" d="m703.84 22.54 10.21 2.8-9.73 4.18z"/>
        </g>
        <g class="node">
            <path fill="#add8e6" stroke="#000" d="M680 50H525.25v36H680z"/>
            <text x="598.62" y="-54.11" font-family="Times New Roman,serif" font-size="14" text-anchor="middle" transform="translate(4 127.16)">:server:domain:employee</text>
        </g>
        <g stroke="#999" class="edge">
            <path fill="none" stroke-dasharray="5,2" d="M489.38 53.18c7.93 1.04 16.17 2.13 24.41 3.22"/>
            <path fill="#999" d="m514.05 52.91 9.46 4.77-10.37 2.16z"/>
        </g>
        <g stroke="#666" class="edge">
            <path fill="none" stroke-dasharray="5,2" d="M667.43 49.56c12.31-3.56 25.15-7.27 37.27-10.78"/>
            <path fill="#666" d="m703.56 35.47 10.58.59-8.64 6.14z"/>
        </g>
        <g stroke="#ccc" class="edge">
            <path fill="none" stroke-dasharray="5,2" d="M305.27 112.02C393.22 126.81 554.35 143.16 680 95c24.37-9.34 46.24-29.41 61.37-46.15"/>
            <path fill="#ccc" d="m738.45 46.87 9.2-5.25-3.91 9.84z"/>
        </g>
    </g>
</svg>
