<svg xmlns="http://www.w3.org/2000/svg" width="460" height="152pt" viewBox="0 0 344.75 152">
    <g class="graph">
        <path fill="#fff" d="M0 152V0h344.75v152z"/>
        <g class="node">
            <path fill="#90ee90" stroke="#000" d="M79.25 58H4v36h75.25z"/>
            <text x="37.62" y="-66.95" font-family="Times New Roman,serif" font-size="14" text-anchor="middle" transform="translate(4 148)">:data:room</text>
        </g>
        <g class="node">
            <path fill="#add8e6" stroke="#000" d="M209.25 4h-94v36h94z"/>
            <text x="158.25" y="-120.95" font-family="Times New Roman,serif" font-size="14" text-anchor="middle" transform="translate(4 148)">:domain:room</text>
        </g>
        <g stroke="#000" class="edge">
            <path fill="none" d="M79.51 59.21c9.79-4.46 20.54-9.35 30.94-14.08"/>
            <path d="m108.75 42.06 10.55-.96-7.65 7.33z"/>
        </g>
        <g class="node">
            <path fill="#add8e6" stroke="#000" d="M189.75 58h-55v36h55z"/>
            <text x="158.25" y="-66.95" font-family="Times New Roman,serif" font-size="14" text-anchor="middle" transform="translate(4 148)">:shared</text>
        </g>
        <g stroke="#000" class="edge">
            <path fill="none" d="M79.51 76h43.79"/>
            <path d="m123.05 72.5 10 3.5-10 3.5z"/>
        </g>
        <g class="node">
            <path fill="#add8e6" stroke="#000" d="M207.75 112h-91v36h91z"/>
            <text x="158.25" y="-12.95" font-family="Times New Roman,serif" font-size="14" text-anchor="middle" transform="translate(4 148)">:core:network</text>
        </g>
        <g stroke="#000" class="edge">
            <path fill="none" d="M79.51 92.79c9.79 4.46 20.54 9.35 30.94 14.08"/>
            <path d="m111.65 103.57 7.65 7.33-10.55-.96z"/>
        </g>
        <g class="node">
            <path fill="#add8e6" stroke="#000" d="M340.75 58h-95.5v36h95.5z"/>
            <text x="289" y="-66.95" font-family="Times New Roman,serif" font-size="14" text-anchor="middle" transform="translate(4 148)">:core:common</text>
        </g>
        <g stroke="#ccc" class="edge">
            <path fill="none" stroke-dasharray="5,2" d="M207.2 40.43c9.84 4.13 20.39 8.55 30.59 12.83"/>
            <path fill="#ccc" d="m238.99 49.97 7.86 7.09-10.57-.64z"/>
        </g>
        <g stroke="#ccc" class="edge">
            <path fill="none" stroke-dasharray="5,2" d="M207.2 111.57c9.84-4.13 20.39-8.55 30.59-12.83"/>
            <path fill="#ccc" d="m236.28 95.58 10.57-.64-7.86 7.09z"/>
        </g>
    </g>
</svg>
