<svg xmlns="http://www.w3.org/2000/svg" width="1010pt" height="304" viewBox="0 0 1010 227.57">
    <g class="graph">
        <path fill="#fff" d="M0 227.57V0h1010v227.57z"/>
        <g class="node">
            <path fill="#90ee90" stroke="#000" d="M80 96.45H4v36h76z"/>
            <text x="38" y="-104.07" font-family="Times New Roman,serif" font-size="14" text-anchor="middle" transform="translate(4 223.57)">:server:app</text>
        </g>
        <g class="node">
            <path fill="#add8e6" stroke="#000" d="M282 50.45H116v36h166z"/>
            <text x="195" y="-150.07" font-family="Times New Roman,serif" font-size="14" text-anchor="middle" transform="translate(4 223.57)">:server:controller:employee</text>
        </g>
        <g stroke="#000" class="edge">
            <path fill="none" d="M80.13 103.43c13.53-4.02 29.35-8.71 44.91-13.33"/>
            <path d="m123.72 86.84 10.58.51-8.59 6.2z"/>
        </g>
        <g class="node">
            <path fill="#add8e6" stroke="#000" d="M851.62 96.45h-130v36h130z"/>
            <text x="782.62" y="-104.07" font-family="Times New Roman,serif" font-size="14" text-anchor="middle" transform="translate(4 223.57)">:server:core:database</text>
        </g>
        <g stroke="#000" class="edge">
            <path fill="none" d="M80.34 114.45h629.38"/>
            <path d="m709.63 110.95 10 3.5-10 3.5z"/>
        </g>
        <g class="node">
            <path fill="#add8e6" stroke="#000" d="M270 142.45H128v36h142z"/>
            <text x="195" y="-58.07" font-family="Times New Roman,serif" font-size="14" text-anchor="middle" transform="translate(4 223.57)">:server:controller:room</text>
        </g>
        <g stroke="#000" class="edge">
            <path fill="none" d="M80.13 125.46c13.53 4.02 29.35 8.71 44.91 13.33"/>
            <path d="m125.71 135.34 8.59 6.2-10.58.51z"/>
        </g>
        <g class="node">
            <path fill="#add8e6" stroke="#000" d="M490.75 142.45H318v36h172.75z"/>
            <text x="400.38" y="-58.07" font-family="Times New Roman,serif" font-size="14" text-anchor="middle" transform="translate(4 223.57)">:server:service:housekeeping</text>
        </g>
        <g class="node">
            <path fill="#add8e6" stroke="#000" d="M1006 96.45h-95.5v36h95.5z"/>
            <text x="954.25" y="-104.07" font-family="Times New Roman,serif" font-size="14" text-anchor="middle" transform="translate(4 223.57)">:core:common</text>
        </g>
        <g stroke="#999" class="edge">
            <path fill="none" stroke-dasharray="5,2" d="M457.35 178.93c89.12 28.57 275.17 74.44 417.15 16.52 26.43-10.79 49-34.53 63.86-53.54"/>
            <path fill="#999" d="m935.51 139.88 8.8-5.9-3.2 10.1z"/>
        </g>
        <g class="node">
            <path fill="#add8e6" stroke="#000" d="M650.75 142.45h-112v36h112z"/>
            <text x="590.75" y="-58.07" font-family="Times New Roman,serif" font-size="14" text-anchor="middle" transform="translate(4 223.57)">:server:data:room</text>
        </g>
        <g stroke="#999" class="edge">
            <path fill="none" stroke-dasharray="5,2" d="M491.02 160.45h36.06"/>
            <path fill="#999" d="m527 156.95 10 3.5-10 3.5z"/>
        </g>
        <g class="node">
            <path fill="#add8e6" stroke="#000" d="M985.75 12.45h-55v36h55z"/>
            <text x="954.25" y="-188.07" font-family="Times New Roman,serif" font-size="14" text-anchor="middle" transform="translate(4 223.57)">:shared</text>
        </g>
        <g stroke="#999" class="edge">
            <path fill="none" stroke-dasharray="5,2" d="M417.29 142.23c19.24-27.59 60.02-79.06 109.46-100.78C660.71-17.4 841.44 7.3 919.15 22.2"/>
            <path fill="#999" d="m919.67 18.73 9.13 5.38-10.49 1.49z"/>
        </g>
        <g class="node">
            <path fill="#add8e6" stroke="#000" d="M662.75 50.45h-136v36h136z"/>
            <text x="590.75" y="-150.07" font-family="Times New Roman,serif" font-size="14" text-anchor="middle" transform="translate(4 223.57)">:server:data:employee</text>
        </g>
        <g stroke="#ccc" class="edge">
            <path fill="none" stroke-dasharray="5,2" d="M282.06 68.45h233.03"/>
            <path fill="#ccc" d="m514.99 64.95 10 3.5-10 3.5z"/>
        </g>
        <g stroke="#999" class="edge">
            <path fill="none" stroke-dasharray="5,2" d="M663.09 68.39c56.84 1.06 140.1 5.21 211.41 19.06 8.06 1.56 16.42 3.68 24.6 6.04"/>
            <path fill="#999" d="m900.09 90.13 8.55 6.26-10.59.44z"/>
        </g>
        <g stroke="#999" class="edge">
            <path fill="none" stroke-dasharray="5,2" d="M663.23 84.79c15.18 3.68 31.39 7.61 46.87 11.36"/>
            <path fill="#999" d="m710.86 92.73 8.9 5.76-10.55 1.05z"/>
        </g>
        <g stroke="#999" class="edge">
            <path fill="none" stroke-dasharray="5,2" d="M663.02 58.88c11.89-1.57 24.17-3.11 35.73-4.43 78.15-8.94 169.87-16.84 220.35-20.97"/>
            <path fill="#999" d="m918.66 30 10.25 2.68-9.69 4.3z"/>
        </g>
        <g stroke="#666" class="edge">
            <path fill="none" stroke-dasharray="5,2" d="M851.75 114.45h47.13"/>
            <path fill="#666" d="m898.7 110.95 10 3.5-10 3.5z"/>
        </g>
        <g stroke="#666" class="edge">
            <path fill="none" stroke-dasharray="5,2" d="M824.85 96.01c28.28-14 66.99-33.17 95.25-47.17"/>
            <path fill="#666" d="m918.5 45.73 10.52-1.3-7.41 7.57z"/>
        </g>
        <g class="node">
            <path fill="#add8e6" stroke="#000" d="M874.5 150.45H698.75v36H874.5z"/>
            <text x="782.62" y="-50.07" font-family="Times New Roman,serif" font-size="14" text-anchor="middle" transform="translate(4 223.57)">:server:domain:housekeeping</text>
        </g>
        <g stroke="#333" class="edge">
            <path fill="none" stroke-dasharray="5,2" d="M847.48 149.96c9.06-2.83 18.29-5.73 27.02-8.51 8.01-2.56 16.45-5.27 24.74-7.96"/>
            <path fill="#333" d="m897.99 130.21 10.6.24-8.43 6.42z"/>
        </g>
        <g stroke="#666" class="edge">
            <path fill="none" stroke-dasharray="5,2" d="M651.18 147.02c18.48-4.48 39.39-9.54 59.11-14.32"/>
            <path fill="#666" d="m709.41 129.31 10.54 1.05-8.89 5.75z"/>
        </g>
        <g stroke="#666" class="edge">
            <path fill="none" stroke-dasharray="5,2" d="M651.18 162.78c11.31.48 23.54.99 35.85 1.51"/>
            <path fill="#666" d="m686.97 160.79 9.85 3.91-10.14 3.08z"/>
        </g>
        <g stroke="#ccc" class="edge">
            <path fill="none" stroke-dasharray="5,2" d="M270.27 160.45h36.21"/>
            <path fill="#ccc" d="m306.14 156.95 10 3.5-10 3.5z"/>
        </g>
    </g>
</svg>
