<svg xmlns="http://www.w3.org/2000/svg" width="1852" height="406pt" viewBox="0 0 1388.5 405.51">
    <g class="graph">
        <path fill="#fff" d="M0 405.51V0h1388.5v405.51z"/>
        <g class="node">
            <path fill="#90ee90" stroke="#000" d="M80 200H4v36h76z"/>
            <text x="38" y="-178.46" font-family="Times New Roman,serif" font-size="14" text-anchor="middle" transform="translate(4 401.51)">:server:app</text>
        </g>
        <g class="node">
            <path fill="#add8e6" stroke="#000" d="M270 92H128v36h142z"/>
            <text x="195" y="-286.46" font-family="Times New Roman,serif" font-size="14" text-anchor="middle" transform="translate(4 401.51)">:server:controller:room</text>
        </g>
        <g stroke="#000" class="edge">
            <path fill="none" d="M55.15 199.69C68.18 181.39 90.47 153.64 116 137q2.76-1.8 5.67-3.45"/>
            <path d="m119.84 130.56 10.5-1.44-7.31 7.67z"/>
        </g>
        <g class="node">
            <path fill="#add8e6" stroke="#000" d="M1061.88 224h-130v36h130z"/>
            <text x="992.88" y="-154.46" font-family="Times New Roman,serif" font-size="14" text-anchor="middle" transform="translate(4 401.51)">:server:core:database</text>
        </g>
        <g stroke="#000" class="edge">
            <path fill="none" d="M53.46 236.26C65.69 255.66 87.9 285.37 116 299c115.17 55.87 159.37 19 287.38 19h202.87c128.83 0 165.83 17.97 289.25-19 23.43-7.02 47.34-20.3 65.94-32.28"/>
            <path d="m959.39 263.88 10.27-2.61-6.4 8.44z"/>
        </g>
        <g class="node">
            <path fill="#add8e6" stroke="#000" d="M267.38 200H130.62v36h136.76z"/>
            <text x="195" y="-178.46" font-family="Times New Roman,serif" font-size="14" text-anchor="middle" transform="translate(4 401.51)">:server:controller:shift</text>
        </g>
        <g stroke="#000" class="edge">
            <path fill="none" d="M80.13 218h38.77"/>
            <path d="m118.73 214.5 10 3.5-10 3.5z"/>
        </g>
        <g class="node">
            <path fill="#add8e6" stroke="#000" d="M267.38 146H130.62v36h136.76z"/>
            <text x="195" y="-232.46" font-family="Times New Roman,serif" font-size="14" text-anchor="middle" transform="translate(4 401.51)">:server:controller:cron</text>
        </g>
        <g stroke="#000" class="edge">
            <path fill="none" d="M80.42 203.86c11.39-4.22 23.97-8.8 35.58-12.86 4.66-1.63 9.48-3.29 14.34-4.94"/>
            <path d="m128.98 182.83 10.59.12-8.36 6.51z"/>
        </g>
        <g class="node">
            <path fill="#add8e6" stroke="#000" d="M282 254H116v36h166z"/>
            <text x="195" y="-124.46" font-family="Times New Roman,serif" font-size="14" text-anchor="middle" transform="translate(4 401.51)">:server:controller:employee</text>
        </g>
        <g stroke="#000" class="edge">
            <path fill="none" d="M80.42 232.13c11.39 4.23 23.97 8.81 35.58 12.87 4.66 1.63 9.48 3.29 14.34 4.94"/>
            <path d="m131.21 246.54 8.36 6.5-10.59.13z"/>
        </g>
        <g class="node">
            <path fill="#add8e6" stroke="#000" d="M480.25 254H328.5v36h151.75z"/>
            <text x="400.38" y="-124.46" font-family="Times New Roman,serif" font-size="14" text-anchor="middle" transform="translate(4 401.51)">:server:service:employee</text>
        </g>
        <g class="node">
            <path fill="#add8e6" stroke="#000" d="M632.75 216h-55v36h55z"/>
            <text x="601.25" y="-162.46" font-family="Times New Roman,serif" font-size="14" text-anchor="middle" transform="translate(4 401.51)">:shared</text>
        </g>
        <g stroke="#999" class="edge">
            <path fill="none" stroke-dasharray="5,2" d="M480.56 257.63c29.3-5.6 61.6-11.77 85.84-16.4"/>
            <path fill="#999" d="m565.64 237.81 10.48 1.56-9.17 5.32z"/>
        </g>
        <g class="node">
            <path fill="#add8e6" stroke="#000" d="M1384.5 258H1289v36h95.5z"/>
            <text x="1332.75" y="-120.46" font-family="Times New Roman,serif" font-size="14" text-anchor="middle" transform="translate(4 401.51)">:core:common</text>
        </g>
        <g stroke="#999" class="edge">
            <path fill="none" stroke-dasharray="5,2" d="M421.3 290.31c21.37 23.15 61.73 62.1 105.45 79.69 115.83 46.58 155.03 24 279.87 24h191.26c113.88 0 153.65 27.72 255.12-24 28.89-14.73 52.21-44.2 66.64-66.24"/>
            <path fill="#999" d="m1316.54 302.11 8.28-6.59-2.36 10.32z"/>
        </g>
        <g class="node">
            <path fill="#add8e6" stroke="#000" d="M875.62 254h-136v36h136z"/>
            <text x="803.62" y="-124.46" font-family="Times New Roman,serif" font-size="14" text-anchor="middle" transform="translate(4 401.51)">:server:data:employee</text>
        </g>
        <g stroke="#999" class="edge">
            <path fill="none" stroke-dasharray="5,2" d="M480.38 272h247.74"/>
            <path fill="#999" d="m727.82 268.5 10 3.5-10 3.5z"/>
        </g>
        <g class="node">
            <path fill="#add8e6" stroke="#000" d="M683.75 70h-157v36h157z"/>
            <text x="601.25" y="-308.46" font-family="Times New Roman,serif" font-size="14" text-anchor="middle" transform="translate(4 401.51)">:server:data:housekeeping</text>
        </g>
        <g class="node">
            <path fill="#add8e6" stroke="#000" d="M895.5 32H719.75v36H895.5z"/>
            <text x="803.62" y="-346.46" font-family="Times New Roman,serif" font-size="14" text-anchor="middle" transform="translate(4 401.51)">:server:domain:housekeeping</text>
        </g>
        <g stroke="#666" class="edge">
            <path fill="none" stroke-dasharray="5,2" d="M684.01 73.25c7.94-1.5 16.08-3.05 24.2-4.59"/>
            <path fill="#666" d="m707.3 65.27 10.47 1.58-9.17 5.3z"/>
        </g>
        <g stroke="#666" class="edge">
            <path fill="none" stroke-dasharray="5,2" d="M683.97 86.12c74.29-.21 179.58 4.13 211.53 28.88 37.34 28.93 3.47 65.75 36 100 .48.51.98 1.01 1.48 1.5"/>
            <path fill="#666" d="m935.13 213.73 5.61 8.99-9.99-3.52z"/>
        </g>
        <g stroke="#333" class="edge">
            <path fill="none" stroke-dasharray="5,2" d="M895.6 52.46C991.16 59.1 1145.34 81.79 1253 157c32.78 22.9 56.75 63.22 70.22 90.51"/>
            <path fill="#333" d="m1326.24 245.72 1.13 10.53-7.45-7.53z"/>
        </g>
        <g class="node">
            <path fill="#add8e6" stroke="#000" d="M1059.62 170h-125.5v36h125.5z"/>
            <text x="992.88" y="-208.46" font-family="Times New Roman,serif" font-size="14" text-anchor="middle" transform="translate(4 401.51)">:server:domain:shift</text>
        </g>
        <g stroke="#333" class="edge">
            <path fill="none" stroke-dasharray="5,2" d="M875.85 68.42c7.13 3.74 13.88 8.22 19.65 13.58 28.28 26.25 8.3 52.13 36 79 .62.6 1.25 1.19 1.9 1.77"/>
            <path fill="#333" d="m935.4 159.89 5.91 8.79-10.1-3.19z"/>
        </g>
        <g class="node">
            <path fill="#add8e6" stroke="#000" d="M1062.25 116H931.5v36h130.75z"/>
            <text x="992.88" y="-262.46" font-family="Times New Roman,serif" font-size="14" text-anchor="middle" transform="translate(4 401.51)">:server:domain:room</text>
        </g>
        <g stroke="#333" class="edge">
            <path fill="none" stroke-dasharray="5,2" d="M861.88 68.42c11.21 4.21 22.88 8.84 33.62 13.58 19.21 8.47 39.9 18.95 57.47 28.27"/>
            <path fill="#333" d="m954.43 107.08 7.16 7.81-10.47-1.64z"/>
        </g>
        <g class="node">
            <path fill="#add8e6" stroke="#000" d="M490.75 116H318v36h172.75z"/>
            <text x="400.38" y="-262.46" font-family="Times New Roman,serif" font-size="14" text-anchor="middle" transform="translate(4 401.51)">:server:service:housekeeping</text>
        </g>
        <g stroke="#ccc" class="edge">
            <path fill="none" stroke-dasharray="5,2" d="M270.27 118.29c11.7 1.38 24 2.83 36.21 4.28"/>
            <path fill="#ccc" d="m306.63 119.06 9.52 4.65-10.34 2.3z"/>
        </g>
        <g stroke="#999" class="edge">
            <path fill="none" stroke-dasharray="5,2" d="M432.44 152.5c24.02 15.87 60.47 38.63 94.31 54.5 12.67 5.94 27.03 11.3 39.91 15.64"/>
            <path fill="#999" d="m567.67 219.29 8.42 6.43-10.59.22z"/>
        </g>
        <g stroke="#999" class="edge">
            <path fill="none" stroke-dasharray="5,2" d="M485.12 115.55c10-2.31 20.27-4.69 30.4-7.03"/>
            <path fill="#999" d="m514.42 105.18 10.53 1.16L516 112z"/>
        </g>
        <g stroke="#999" class="edge">
            <path fill="none" stroke-dasharray="5,2" d="M430.1 115.65C453.75 98.98 491 74.91 526.75 61 645.05 14.95 679.68 4 806.62 4h191.26c122.44 0 165.53 20.53 255.12 104 41.21 38.4 64.54 101.77 75.32 138.72"/>
            <path fill="#999" d="m1331.67 245.7-.69 10.57-6.06-8.69z"/>
        </g>
        <g class="node">
            <path fill="#add8e6" stroke="#000" d="M658.62 162H551.88v36h106.74z"/>
            <text x="601.25" y="-216.46" font-family="Times New Roman,serif" font-size="14" text-anchor="middle" transform="translate(4 401.51)">:server:data:shift</text>
        </g>
        <g stroke="#999" class="edge">
            <path fill="none" stroke-dasharray="5,2" d="M485.12 152.44c18.44 4.27 37.81 8.75 55.46 12.83"/>
            <path fill="#999" d="m541.18 161.82 8.95 5.66-10.53 1.16z"/>
        </g>
        <g class="node">
            <path fill="#add8e6" stroke="#000" d="M863.62 124h-112v36h112z"/>
            <text x="803.62" y="-254.46" font-family="Times New Roman,serif" font-size="14" text-anchor="middle" transform="translate(4 401.51)">:server:data:room</text>
        </g>
        <g stroke="#999" class="edge">
            <path fill="none" stroke-dasharray="5,2" d="M490.96 135.71c74.41 1.48 180.71 3.6 248.96 4.96"/>
            <path fill="#999" d="m739.93 137.17 9.92 3.7-10.06 3.3z"/>
        </g>
        <g stroke="#333" class="edge">
            <path fill="none" stroke-dasharray="5,2" d="M1036.5 260.37c18.28 7.71 40.67 15.77 61.75 19.63 60.46 11.06 131.03 7.89 179.44 3.3"/>
            <path fill="#333" d="m1277.08 279.85 10.3 2.48-9.6 4.48z"/>
        </g>
        <g stroke="#666" class="edge">
            <path fill="none" stroke-dasharray="5,2" d="M658.8 188.36c67.41 10.73 184.79 29.41 261.71 41.65"/>
            <path fill="#666" d="m920.74 226.5 9.32 5.03-10.42 1.88z"/>
        </g>
        <g stroke="#666" class="edge">
            <path fill="none" stroke-dasharray="5,2" d="M658.84 195.05c8.6 3.37 17.2 7.35 24.91 11.95 18.63 11.13 17.47 21.7 36 33 5.45 3.32 11.3 6.38 17.3 9.19"/>
            <path fill="#666" d="m738.09 245.82 7.75 7.23-10.56-.82z"/>
        </g>
        <g stroke="#666" class="edge">
            <path fill="none" stroke-dasharray="5,2" d="M658.8 181.08c67.96 1.39 186.72 3.83 263.6 5.41"/>
            <path fill="#666" d="m922.46 182.99 9.92 3.71-10.07 3.29z"/>
        </g>
        <g stroke="#666" class="edge">
            <path fill="none" stroke-dasharray="5,2" d="M875.96 261.21c14.46-2.31 29.82-4.78 44.56-7.14"/>
            <path fill="#666" d="m919.72 250.66 10.42 1.87-9.32 5.04z"/>
        </g>
        <g class="node">
            <path fill="#add8e6" stroke="#000" d="M1253 235h-154.75v36H1253z"/>
            <text x="1171.62" y="-143.46" font-family="Times New Roman,serif" font-size="14" text-anchor="middle" transform="translate(4 401.51)">:server:domain:employee</text>
        </g>
        <g stroke="#666" class="edge">
            <path fill="none" stroke-dasharray="5,2" d="M876.01 273.57c51.17.62 123.23.27 186.24-4.57 7.97-.61 16.24-1.43 24.5-2.38"/>
            <path fill="#666" d="m1086.15 263.17 10.35 2.27-9.51 4.68z"/>
        </g>
        <g class="node">
            <path fill="#add8e6" stroke="#000" d="M465.62 200h-122.5v36h122.5z"/>
            <text x="400.38" y="-178.46" font-family="Times New Roman,serif" font-size="14" text-anchor="middle" transform="translate(4 401.51)">:server:service:shift</text>
        </g>
        <g stroke="#ccc" class="edge">
            <path fill="none" stroke-dasharray="5,2" d="M267.72 218h63.76"/>
            <path fill="#ccc" d="m331.28 214.5 10 3.5-10 3.5z"/>
        </g>
        <g stroke="#999" class="edge">
            <path fill="none" stroke-dasharray="5,2" d="M466.12 222.89c32.49 2.61 71.5 5.75 99.76 8.02"/>
            <path fill="#999" d="m566.09 227.42 9.69 4.29-10.25 2.69z"/>
        </g>
        <g stroke="#999" class="edge">
            <path fill="none" stroke-dasharray="5,2" d="M465.83 236.19c8.42 2.8 16.92 5.78 24.92 8.81 16.37 6.2 19.69 9.62 36 16 122.34 47.83 148.52 95 279.87 95h191.26c100.64 0 213.71-34.03 280.2-57.7"/>
            <path fill="#999" d="m1276.72 295.07 10.6-.1-8.22 6.69z"/>
        </g>
        <g stroke="#999" class="edge">
            <path fill="none" stroke-dasharray="5,2" d="M466.12 206.39c23.57-4.5 50.58-9.66 74.42-14.22"/>
            <path fill="#999" d="m539.64 188.78 10.48 1.56-9.17 5.32z"/>
        </g>
        <g stroke="#333" class="edge">
            <path fill="none" stroke-dasharray="5,2" d="M1060.11 190.42c52.71 3.65 129.59 12.78 192.89 35.58 17.07 6.15 34.47 16.01 48.88 25.36"/>
            <path fill="#333" d="m1303.73 248.39 6.36 8.47-10.26-2.66z"/>
        </g>
        <g stroke="#333" class="edge">
            <path fill="none" stroke-dasharray="5,2" d="M1048.05 206.45c20.43 7.52 44.24 16.27 65.65 24.14"/>
            <path fill="#333" d="m1114.72 227.24 8.18 6.74-10.59-.17z"/>
        </g>
        <g stroke="#ccc" class="edge">
            <path fill="none" stroke-dasharray="5,2" d="M267.72 154.01c12.55-1.85 25.88-3.82 39.09-5.77"/>
            <path fill="#ccc" d="m305.96 144.83 10.4 2-9.38 4.93z"/>
        </g>
        <g stroke="#ccc" class="edge">
            <path fill="none" stroke-dasharray="5,2" d="M267.72 181.98c20.57 5.46 43.23 11.48 64.05 17.01"/>
            <path fill="#ccc" d="m332.56 195.58 8.77 5.94-10.57.82z"/>
        </g>
        <g stroke="#333" class="edge">
            <path fill="none" stroke-dasharray="5,2" d="M1062.61 140.19c53.72 7.31 130.7 22.93 190.39 55.81 24 13.22 46.02 35.22 61.31 52.81"/>
            <path fill="#333" d="m1316.92 246.48 3.77 9.9-9.12-5.39z"/>
        </g>
        <g stroke="#333" class="edge">
            <path fill="none" stroke-dasharray="5,2" d="M1253.39 264.09c8.12 1.18 16.27 2.36 24.13 3.49"/>
            <path fill="#333" d="m1277.88 264.1 9.4 4.89-10.4 2.04z"/>
        </g>
        <g stroke="#666" class="edge">
            <path fill="none" stroke-dasharray="5,2" d="M836.79 160.26c24.51 15.51 61.25 37.88 94.71 54.74 2.56 1.29 5.19 2.57 7.86 3.83"/>
            <path fill="#666" d="m940.78 215.63 7.65 7.34-10.56-.97z"/>
        </g>
        <g stroke="#666" class="edge">
            <path fill="none" stroke-dasharray="5,2" d="M864.05 139.63c17.41-.74 36.95-1.58 55.55-2.37"/>
            <path fill="#666" d="m919.38 133.76 10.14 3.07-9.84 3.93z"/>
        </g>
        <g stroke="#ccc" class="edge">
            <path fill="none" stroke-dasharray="5,2" d="M282.43 272h34.34"/>
            <path fill="#ccc" d="m316.53 268.5 10 3.5-10 3.5z"/>
        </g>
    </g>
</svg>
