<svg xmlns="http://www.w3.org/2000/svg" width="754pt" height="708" viewBox="0 0 754 530.6">
    <g class="graph">
        <path fill="#fff" d="M0 530.6V0h754v530.6z"/>
        <g class="node">
            <path fill="#90ee90" stroke="#000" d="M95.75 216H4v36h91.75z"/>
            <text x="45.88" y="-287.55" font-family="Times New Roman,serif" font-size="14" text-anchor="middle" transform="translate(4 526.6)">:composeApp</text>
        </g>
        <g class="node">
            <path fill="#add8e6" stroke="#000" d="M419.5 27H327v36h92.5z"/>
            <text x="369.25" y="-476.55" font-family="Times New Roman,serif" font-size="14" text-anchor="middle" transform="translate(4 526.6)">:core:resource</text>
        </g>
        <g stroke="#000" class="edge">
            <path fill="none" d="M60.07 215.63c12.87-23.95 38.47-65.59 71.68-89.63 55.41-40.1 132.07-61.35 183.83-71.87"/>
            <path d="m314.9 50.7 10.48 1.52-9.14 5.35z"/>
        </g>
        <g class="node">
            <path fill="#add8e6" stroke="#000" d="M251.25 135h-97v36h97z"/>
            <text x="198.75" y="-368.55" font-family="Times New Roman,serif" font-size="14" text-anchor="middle" transform="translate(4 526.6)">:feature:foryou</text>
        </g>
        <g stroke="#000" class="edge">
            <path fill="none" d="M75.14 215.75c15.63-11.24 36.68-25.41 56.61-35.75 3.86-2 7.9-3.93 12.01-5.79"/>
            <path d="m142.1 171.11 10.57-.74-7.8 7.17z"/>
        </g>
        <g class="node">
            <path fill="#add8e6" stroke="#000" d="M247.88 189h-90.26v36h90.26z"/>
            <text x="198.75" y="-314.55" font-family="Times New Roman,serif" font-size="14" text-anchor="middle" transform="translate(4 526.6)">:feature:room</text>
        </g>
        <g stroke="#000" class="edge">
            <path fill="none" d="M96.14 225.9c15.73-2.81 33.55-6 50.01-8.95"/>
            <path d="m145.34 213.54 10.46 1.69-9.22 5.2z"/>
        </g>
        <g class="node">
            <path fill="#add8e6" stroke="#000" d="M273.75 297h-142v36h142z"/>
            <text x="198.75" y="-206.55" font-family="Times New Roman,serif" font-size="14" text-anchor="middle" transform="translate(4 526.6)">:feature:imageAnalysis</text>
        </g>
        <g stroke="#000" class="edge">
            <path fill="none" d="M75.14 252.26c15.63 11.24 36.68 25.41 56.61 35.74 2.53 1.32 5.14 2.6 7.79 3.85"/>
            <path d="m140.87 288.61 7.7 7.29-10.56-.9z"/>
        </g>
        <g class="node">
            <path fill="#add8e6" stroke="#000" d="M574.25 403H517v36h57.25z"/>
            <text x="541.62" y="-100.55" font-family="Times New Roman,serif" font-size="14" text-anchor="middle" transform="translate(4 526.6)">:core:ui</text>
        </g>
        <g stroke="#000" class="edge">
            <path fill="none" d="M56.49 252.36C67.02 284.45 92.3 351.58 131.75 396c62.86 70.79 87.3 89.87 178 117 54.08 16.19 74.04 19.52 127 0 34.91-12.86 66.21-42.61 85.99-64.82"/>
            <path d="m520.06 445.92 9.19-5.28-3.89 9.85z"/>
        </g>
        <g class="node">
            <path fill="#add8e6" stroke="#000" d="M244.88 351h-84.26v36h84.26z"/>
            <text x="198.75" y="-152.55" font-family="Times New Roman,serif" font-size="14" text-anchor="middle" transform="translate(4 526.6)">:feature:auth</text>
        </g>
        <g stroke="#000" class="edge">
            <path fill="none" d="M60.23 252.17c13.05 23.71 38.84 65.09 71.52 89.83 5.52 4.18 11.77 7.79 18.2 10.89"/>
            <path d="m150.98 349.52 7.76 7.21-10.56-.8z"/>
        </g>
        <g class="node">
            <path fill="#add8e6" stroke="#000" d="M589.62 4h-88v36h88z"/>
            <text x="541.62" y="-499.55" font-family="Times New Roman,serif" font-size="14" text-anchor="middle" transform="translate(4 526.6)">:domain:auth</text>
        </g>
        <g stroke="#000" class="edge">
            <path fill="none" d="M55.82 215.82c9.49-31.61 33.21-96.84 75.93-133.82C233.04-5.67 403.47 2.02 490.27 13.04"/>
            <path d="m490.5 9.54 9.44 4.8-10.37 2.14z"/>
        </g>
        <g class="node">
            <path fill="#add8e6" stroke="#000" d="M246.75 243h-88v36h88z"/>
            <text x="198.75" y="-260.55" font-family="Times New Roman,serif" font-size="14" text-anchor="middle" transform="translate(4 526.6)">:feature:hotel</text>
        </g>
        <g stroke="#000" class="edge">
            <path fill="none" d="M96.14 242.11c16.01 2.86 34.19 6.11 50.9 9.1"/>
            <path d="m147.61 247.76 9.23 5.21-10.46 1.68z"/>
        </g>
        <g stroke="#ccc" class="edge">
            <path fill="none" stroke-dasharray="5,2" d="M224.58 134.62c20.62-17.59 53.6-44.11 85.17-62.62 2.15-1.26 4.38-2.5 6.65-3.71"/>
            <path fill="#ccc" d="m314.68 65.24 10.51-1.37-7.36 7.62z"/>
        </g>
        <g class="node">
            <path fill="#add8e6" stroke="#000" d="M422.88 135h-99.26v36h99.26z"/>
            <text x="369.25" y="-368.55" font-family="Times New Roman,serif" font-size="14" text-anchor="middle" transform="translate(4 526.6)">:data:employee</text>
        </g>
        <g stroke="#ccc" class="edge">
            <path fill="none" stroke-dasharray="5,2" d="M251.58 153H312"/>
            <path fill="#ccc" d="m311.9 149.5 10 3.5-10 3.5z"/>
        </g>
        <g stroke="#ccc" class="edge">
            <path fill="none" stroke-dasharray="5,2" d="M251.66 164.94c8.17 3.75 15.97 8.66 22.09 15.06 34.94 36.6-.07 72.53 36 108 42.19 41.5 75.3 11.2 127 40 31.9 17.77 62.88 45.98 83.4 66.68"/>
            <path fill="#ccc" d="m522.49 392.07 4.47 9.6-9.48-4.72z"/>
        </g>
        <g class="node">
            <path fill="#add8e6" stroke="#000" d="M410.88 189h-75.26v36h75.26z"/>
            <text x="369.25" y="-314.55" font-family="Times New Roman,serif" font-size="14" text-anchor="middle" transform="translate(4 526.6)">:data:room</text>
        </g>
        <g stroke="#ccc" class="edge">
            <path fill="none" stroke-dasharray="5,2" d="M251.58 168.33c22.83 7.32 50.07 16.05 72.89 23.36"/>
            <path fill="#ccc" d="m325.39 188.31 8.45 6.39-10.59.28z"/>
        </g>
        <g class="node">
            <path fill="#add8e6" stroke="#000" d="M407.88 81h-69.26v36h69.26z"/>
            <text x="369.25" y="-422.55" font-family="Times New Roman,serif" font-size="14" text-anchor="middle" transform="translate(4 526.6)">:data:auth</text>
        </g>
        <g stroke="#ccc" class="edge">
            <path fill="none" stroke-dasharray="5,2" d="M251.58 137.67c23.86-7.64 52.54-16.83 75.95-24.33"/>
            <path fill="#ccc" d="m326.18 110.09 10.59.28-8.45 6.39z"/>
        </g>
        <g class="node">
            <path fill="#add8e6" stroke="#000" d="M573.12 189h-55v36h55z"/>
            <text x="541.62" y="-314.55" font-family="Times New Roman,serif" font-size="14" text-anchor="middle" transform="translate(4 526.6)">:shared</text>
        </g>
        <g stroke="#999" class="edge">
            <path fill="none" stroke-dasharray="5,2" d="M423.07 168.48c26.78 8.49 59.45 18.84 84.18 26.68"/>
            <path fill="#999" d="m508.08 191.75 8.48 6.36-10.59.31z"/>
        </g>
        <g class="node">
            <path fill="#add8e6" stroke="#000" d="M604.62 81h-118v36h118z"/>
            <text x="541.62" y="-422.55" font-family="Times New Roman,serif" font-size="14" text-anchor="middle" transform="translate(4 526.6)">:domain:employee</text>
        </g>
        <g stroke="#999" class="edge">
            <path fill="none" stroke-dasharray="5,2" d="M423.07 137.53c16.37-5.19 34.94-11.07 52.56-16.66"/>
            <path fill="#999" d="m474.41 117.59 10.59.31-8.48 6.36z"/>
        </g>
        <g class="node">
            <path fill="#add8e6" stroke="#000" d="M591.12 135h-91v36h91z"/>
            <text x="541.62" y="-368.55" font-family="Times New Roman,serif" font-size="14" text-anchor="middle" transform="translate(4 526.6)">:core:network</text>
        </g>
        <g stroke="#999" class="edge">
            <path fill="none" stroke-dasharray="5,2" d="M423.07 153h65.38"/>
            <path fill="#999" d="m488.36 149.5 10 3.5-10 3.5z"/>
        </g>
        <g stroke="#ccc" class="edge">
            <path fill="none" stroke-dasharray="5,2" d="M248.04 196.66c9.46-3.93 18.69-9.31 25.71-16.66 34.94-36.59 1.79-70.71 36-108 2.21-2.4 4.67-4.61 7.31-6.62"/>
            <path fill="#ccc" d="m314.99 62.55 10.29-2.49-6.49 8.37z"/>
        </g>
        <g stroke="#ccc" class="edge">
            <path fill="none" stroke-dasharray="5,2" d="M248.02 192.82c19.68-6.31 43.15-13.83 64.36-20.63"/>
            <path fill="#ccc" d="m311.2 168.89 10.59.29-8.45 6.38z"/>
        </g>
        <g stroke="#ccc" class="edge">
            <path fill="none" stroke-dasharray="5,2" d="M248.03 217.87c9.35 3.9 18.54 9.13 25.72 16.13 29.95 29.23 5.45 58.41 36 87 43.5 40.73 72.26 19.45 127 43 23.97 10.32 49.85 23.9 70.25 35.22"/>
            <path fill="#ccc" d="m508.51 396.06 7.01 7.94-10.44-1.84z"/>
        </g>
        <g stroke="#ccc" class="edge">
            <path fill="none" stroke-dasharray="5,2" d="M248.02 207h76.04"/>
            <path fill="#ccc" d="m323.87 203.5 10 3.5-10 3.5z"/>
        </g>
        <g stroke="#ccc" class="edge">
            <path fill="none" stroke-dasharray="5,2" d="M260.85 333.43c4.58 2.53 8.95 5.38 12.9 8.57 22.72 18.37 11.04 39.82 36 55 60.46 36.79 146.21 34.87 195.63 29.72"/>
            <path fill="#ccc" d="m504.69 423.28 10.34 2.34-9.54 4.61z"/>
        </g>
        <g class="node">
            <path fill="#add8e6" stroke="#000" d="M436.75 243h-127v36h127z"/>
            <text x="369.25" y="-260.55" font-family="Times New Roman,serif" font-size="14" text-anchor="middle" transform="translate(4 526.6)">:data:imageAnalysis</text>
        </g>
        <g stroke="#ccc" class="edge">
            <path fill="none" stroke-dasharray="5,2" d="M261.27 296.57c13.75-4.4 28.56-9.15 42.74-13.7"/>
            <path fill="#ccc" d="m302.67 279.63 10.6.28-8.46 6.38z"/>
        </g>
        <g class="node">
            <path fill="#add8e6" stroke="#000" d="M430.38 449H316.12v36h114.26z"/>
            <text x="369.25" y="-54.55" font-family="Times New Roman,serif" font-size="14" text-anchor="middle" transform="translate(4 526.6)">:core:mediapicker</text>
        </g>
        <g stroke="#ccc" class="edge">
            <path fill="none" stroke-dasharray="5,2" d="M262.97 333.43c3.9 2.51 7.55 5.35 10.78 8.57 31.36 31.33 6.33 60.08 36 93 2.29 2.55 4.83 4.92 7.54 7.13"/>
            <path fill="#ccc" d="m319.06 439.09 6.12 8.65-10.18-2.95z"/>
        </g>
        <g stroke="#999" class="edge">
            <path fill="none" stroke-dasharray="5,2" d="M411.22 207h95.03"/>
            <path fill="#999" d="m506.24 203.5 10 3.5-10 3.5z"/>
        </g>
        <g class="node">
            <path fill="#add8e6" stroke="#000" d="M592.62 243h-94v36h94z"/>
            <text x="541.62" y="-260.55" font-family="Times New Roman,serif" font-size="14" text-anchor="middle" transform="translate(4 526.6)">:domain:room</text>
        </g>
        <g stroke="#999" class="edge">
            <path fill="none" stroke-dasharray="5,2" d="M411.22 218.72c22.25 7.05 51.04 16.18 76.18 24.15"/>
            <path fill="#999" d="m488.37 239.5 8.48 6.36-10.59.32z"/>
        </g>
        <g stroke="#999" class="edge">
            <path fill="none" stroke-dasharray="5,2" d="M411.22 195.29c22.78-7.22 52.42-16.62 77.97-24.71"/>
            <path fill="#999" d="m487.82 167.34 10.59.31-8.47 6.36z"/>
        </g>
        <g class="node">
            <path fill="#add8e6" stroke="#000" d="M750 135h-95.5v36H750z"/>
            <text x="698.25" y="-368.55" font-family="Times New Roman,serif" font-size="14" text-anchor="middle" transform="translate(4 526.6)">:core:common</text>
        </g>
        <g stroke="#666" class="edge">
            <path fill="none" stroke-dasharray="5,2" d="M599.41 117.44c14.15 4.94 29.52 10.31 43.94 15.34"/>
            <path fill="#666" d="m644.43 129.45 8.29 6.61h-10.6z"/>
        </g>
        <g stroke="#999" class="edge">
            <path fill="none" stroke-dasharray="5,2" d="M408.06 109.47c9.92 4.12 20.34 9.57 28.69 16.53 22.15 18.48 13.41 36.07 36 54 9.89 7.86 22.3 13.59 34.01 17.71"/>
            <path fill="#999" d="m507.76 194.35 8.47 6.36-10.59.31z"/>
        </g>
        <g stroke="#999" class="edge">
            <path fill="none" stroke-dasharray="5,2" d="M408.32 99h66.65"/>
            <path fill="#999" d="m474.94 95.5 10 3.5-10 3.5z"/>
        </g>
        <g stroke="#999" class="edge">
            <path fill="none" stroke-dasharray="5,2" d="M408.05 84.59c9.32-4.02 19.42-8.43 28.7-12.59 19.14-8.56 40.07-18.2 58.36-26.71"/>
            <path fill="#999" d="m493.63 42.12 10.54-1.06-7.59 7.4z"/>
        </g>
        <g stroke="#999" class="edge">
            <path fill="none" stroke-dasharray="5,2" d="M408.32 109.8c23.04 7.31 54.01 17.12 80.6 25.55"/>
            <path fill="#999" d="m489.71 131.93 8.48 6.36-10.59.31z"/>
        </g>
        <g stroke="#ccc" class="edge">
            <path fill="none" stroke-dasharray="5,2" d="M212.67 387.41c15.23 29.04 49.31 84.47 97.08 106.59 51.22 23.73 73.03 16.55 127 0 30.32-9.29 59.8-30.31 80.25-47.42"/>
            <path fill="#ccc" d="m514.46 444.15 9.86-3.87-5.3 9.18z"/>
        </g>
        <g stroke="#ccc" class="edge">
            <path fill="none" stroke-dasharray="5,2" d="M245.27 360.86c10.7-4 21.24-9.97 28.48-18.86 61.49-75.43-23.98-139.35 36-216 4.8-6.12 11.26-10.89 18.22-14.58"/>
            <path fill="#ccc" d="m326.44 108.27 10.55-.91-7.68 7.29z"/>
        </g>
        <g stroke="#ccc" class="edge">
            <path fill="none" stroke-dasharray="5,2" d="M231.71 387.3c21.15 13.63 51.06 32.43 78.04 47.7 4.91 2.79 10.09 5.61 15.29 8.36"/>
            <path fill="#ccc" d="m326.38 440.12 7.24 7.74-10.48-1.54z"/>
        </g>
        <g stroke="#666" class="edge">
            <path fill="none" stroke-dasharray="5,2" d="M575.41 40.42c13.47 9.02 29.5 20.34 43.09 31.58 20.58 17.03 42.08 38.2 58.01 54.62"/>
            <path fill="#666" d="m678.85 124 4.4 9.64-9.45-4.79z"/>
        </g>
        <g stroke="#999" class="edge">
            <path fill="none" stroke-dasharray="5,2" d="M432.41 242.57c24.62-7.8 52.61-16.67 74.48-23.6"/>
            <path fill="#999" d="m505.68 215.68 10.59.31-8.47 6.36z"/>
        </g>
        <g class="node">
            <path fill="#add8e6" stroke="#000" d="M618.5 297H472.75v36H618.5z"/>
            <text x="541.62" y="-206.55" font-family="Times New Roman,serif" font-size="14" text-anchor="middle" transform="translate(4 526.6)">:domain:imageAnalysis</text>
        </g>
        <g stroke="#999" class="edge">
            <path fill="none" stroke-dasharray="5,2" d="M432.41 279.44c13.9 4.4 28.88 9.15 43.22 13.7"/>
            <path fill="#999" d="m476.52 289.75 8.48 6.36-10.59.31z"/>
        </g>
        <g stroke="#999" class="edge">
            <path fill="none" stroke-dasharray="5,2" d="M424.26 242.61c4.43-2.56 8.68-5.43 12.49-8.61 22.15-18.47 13.41-36.06 36-54 5.08-4.03 10.83-7.51 16.81-10.49"/>
            <path fill="#999" d="m487.82 166.45 10.56-.9-7.7 7.29z"/>
        </g>
        <g stroke="#666" class="edge">
            <path fill="none" stroke-dasharray="5,2" d="M605.72 296.63c4.54-2.54 8.87-5.4 12.78-8.63 34.74-28.68 58.91-75.96 71.81-106.27"/>
            <path fill="#666" d="m686.94 180.72 7.04-7.93-.56 10.58z"/>
        </g>
        <g stroke="#666" class="edge">
            <path fill="none" stroke-dasharray="5,2" d="M592.85 246.89c8.84-3.58 17.78-7.87 25.65-12.89 23.1-14.71 45.06-36.7 60.54-54.06"/>
            <path fill="#666" d="m676.31 177.73 9.21-5.24-3.92 9.84z"/>
        </g>
        <g stroke="#999" class="edge">
            <path fill="none" stroke-dasharray="5,2" d="M430.51 451.82c24.6-6.65 52.84-14.27 75.08-20.28"/>
            <path fill="#999" d="m504.59 428.19 10.57.77-8.74 5.99z"/>
        </g>
        <g stroke="#666" class="edge">
            <path fill="none" stroke-dasharray="5,2" d="M591.35 153h51.82"/>
            <path fill="#666" d="m642.69 149.5 10 3.5-10 3.5z"/>
        </g>
        <g stroke="#ccc" class="edge">
            <path fill="none" stroke-dasharray="5,2" d="M246.92 271.98c9.61 3.91 19.2 9.13 26.83 16.02 26.25 23.73 8.49 48.76 36 71 15.32 12.39 133.43 39.73 196.09 53.59"/>
            <path fill="#ccc" d="m506.37 409.12 9.02 5.57-10.52 1.27z"/>
        </g>
        <g stroke="#ccc" class="edge">
            <path fill="none" stroke-dasharray="5,2" d="M247.14 247.1c23.68-7.59 53.04-17 77.36-24.79"/>
            <path fill="#ccc" d="m323.25 219.03 10.59.28-8.45 6.39z"/>
        </g>
    </g>
</svg>
