<svg xmlns="http://www.w3.org/2000/svg" width="1253pt" height="386pt" viewBox="0 0 1252.5 386">
    <g class="graph">
        <path fill="#fff" d="M0 386V0h1252.5v386z"/>
        <g class="node">
            <path fill="#90ee90" stroke="#000" d="M146 207H4v36h142z"/>
            <text x="71" y="-151.95" font-family="Times New Roman,serif" font-size="14" text-anchor="middle" transform="translate(4 382)">:server:controller:room</text>
        </g>
        <g class="node">
            <path fill="#add8e6" stroke="#000" d="M354.75 180H182v36h172.75z"/>
            <text x="264.38" y="-178.95" font-family="Times New Roman,serif" font-size="14" text-anchor="middle" transform="translate(4 382)">:server:service:housekeeping</text>
        </g>
        <g stroke="#000" class="edge">
            <path fill="none" d="M146.45 215.06c7.91-1.12 16.07-2.27 24.24-3.42"/>
            <path d="m169.93 208.21 10.39 2.07-9.41 4.87z"/>
        </g>
        <g class="node">
            <path fill="#add8e6" stroke="#000" d="M336.38 234h-136v36h136z"/>
            <text x="264.38" y="-124.95" font-family="Times New Roman,serif" font-size="14" text-anchor="middle" transform="translate(4 382)">:server:core:controller</text>
        </g>
        <g stroke="#000" class="edge">
            <path fill="none" d="M146.45 234.94c13.79 1.94 28.33 4 42.37 5.98"/>
            <path d="m189.03 237.41 9.41 4.86-10.39 2.07z"/>
        </g>
        <g class="node">
            <path fill="#add8e6" stroke="#000" d="M545.12 96H393.38v36h151.74z"/>
            <text x="465.25" y="-262.95" font-family="Times New Roman,serif" font-size="14" text-anchor="middle" transform="translate(4 382)">:server:service:employee</text>
        </g>
        <g class="node">
            <path fill="#add8e6" stroke="#000" d="M699.12 4h-55v36h55z"/>
            <text x="667.62" y="-354.95" font-family="Times New Roman,serif" font-size="14" text-anchor="middle" transform="translate(4 382)">:shared</text>
        </g>
        <g stroke="#999" class="edge">
            <path fill="none" stroke-dasharray="5,2" d="M501.97 95.77c22.46-12.54 53.49-29.15 81.78-41.77 15.83-7.06 33.73-13.85 49.16-19.35"/>
            <path fill="#999" d="M631.62 31.4h10.59l-8.28 6.61z"/>
        </g>
        <g class="node">
            <path fill="#add8e6" stroke="#000" d="M1248.5 272H1153v36h95.5z"/>
            <text x="1196.75" y="-86.95" font-family="Times New Roman,serif" font-size="14" text-anchor="middle" transform="translate(4 382)">:core:common</text>
        </g>
        <g stroke="#999" class="edge">
            <path fill="none" stroke-dasharray="5,2" d="M540.02 95.53C667.93 66.09 942.82 23.84 1117 150c38.25 27.7 61.84 78.98 73.6 111.19"/>
            <path fill="#999" d="m1193.79 259.7-.01 10.59-6.6-8.29z"/>
        </g>
        <g class="node">
            <path fill="#add8e6" stroke="#000" d="M739.62 96h-136v36h136z"/>
            <text x="667.62" y="-262.95" font-family="Times New Roman,serif" font-size="14" text-anchor="middle" transform="translate(4 382)">:server:data:employee</text>
        </g>
        <g stroke="#999" class="edge">
            <path fill="none" stroke-dasharray="5,2" d="M545.43 114h46.33"/>
            <path fill="#999" d="m591.75 110.5 10 3.5-10 3.5z"/>
        </g>
        <g class="node">
            <path fill="#add8e6" stroke="#000" d="M547.75 207h-157v36h157z"/>
            <text x="465.25" y="-151.95" font-family="Times New Roman,serif" font-size="14" text-anchor="middle" transform="translate(4 382)">:server:data:housekeeping</text>
        </g>
        <g class="node">
            <path fill="#add8e6" stroke="#000" d="M759.5 318H583.75v36H759.5z"/>
            <text x="667.62" y="-40.95" font-family="Times New Roman,serif" font-size="14" text-anchor="middle" transform="translate(4 382)">:server:domain:housekeeping</text>
        </g>
        <g stroke="#999" class="edge">
            <path fill="none" stroke-dasharray="5,2" d="M490.59 243.4c21.7 18.77 57.74 47.64 93.16 65.6 2.91 1.47 5.91 2.88 8.97 4.23"/>
            <path fill="#999" d="m594 309.97 7.92 7.04-10.58-.56z"/>
        </g>
        <g class="node">
            <path fill="#add8e6" stroke="#000" d="M925.88 142h-130v36h130z"/>
            <text x="856.88" y="-216.95" font-family="Times New Roman,serif" font-size="14" text-anchor="middle" transform="translate(4 382)">:server:core:database</text>
        </g>
        <g stroke="#999" class="edge">
            <path fill="none" stroke-dasharray="5,2" d="M548.16 212c68.79-11.47 168.44-28.1 236.43-39.44"/>
            <path fill="#999" d="m783.7 169.16 10.44 1.81-9.28 5.09z"/>
        </g>
        <g stroke="#999" class="edge">
            <path fill="none" stroke-dasharray="5,2" d="M528.51 206.59c6.59-2.63 13.13-5.51 19.24-8.59 32.79-16.55 67.04-40.62 91.03-58.75"/>
            <path fill="#999" d="m636.49 136.59 10.07-3.3-5.81 8.86z"/>
        </g>
        <g stroke="#666" class="edge">
            <path fill="none" stroke-dasharray="5,2" d="M759.82 329.98c48.94-3.51 111.11-8.18 166.43-12.98 74.33-6.45 159.91-15.1 215.25-20.85"/>
            <path fill="#666" d="m1141.02 292.68 10.31 2.45-9.58 4.52z"/>
        </g>
        <g class="node">
            <path fill="#add8e6" stroke="#000" d="M923.62 196h-125.5v36h125.5z"/>
            <text x="856.88" y="-162.95" font-family="Times New Roman,serif" font-size="14" text-anchor="middle" transform="translate(4 382)">:server:domain:shift</text>
        </g>
        <g stroke="#666" class="edge">
            <path fill="none" stroke-dasharray="5,2" d="M744.46 317.61c5.28-2.53 10.36-5.38 15.04-8.61 21.37-14.75 17.52-27.77 36-46 8.56-8.45 18.6-16.73 28.17-24"/>
            <path fill="#666" d="m821.3 236.4 10.12-3.15-5.96 8.77z"/>
        </g>
        <g class="node">
            <path fill="#add8e6" stroke="#000" d="M926.25 272H795.5v36h130.75z"/>
            <text x="856.88" y="-86.95" font-family="Times New Roman,serif" font-size="14" text-anchor="middle" transform="translate(4 382)">:server:domain:room</text>
        </g>
        <g stroke="#666" class="edge">
            <path fill="none" stroke-dasharray="5,2" d="M747.71 317.56c11.99-2.95 24.41-6 36.43-8.95"/>
            <path fill="#666" d="m783.01 305.28 10.55 1.01-8.88 5.79z"/>
        </g>
        <g stroke="#ccc" class="edge">
            <path fill="none" stroke-dasharray="5,2" d="M309.34 179.62c23.57-10.68 54.04-24.24 81.41-35.62 5.97-2.48 12.23-5.02 18.49-7.51"/>
            <path fill="#ccc" d="m407.74 133.32 10.59-.41-8.02 6.93z"/>
        </g>
        <g stroke="#ccc" class="edge">
            <path fill="none" stroke-dasharray="5,2" d="M284.14 179.54c20.98-24.95 61.88-69 106.61-92.54 79.58-41.88 185.86-57.01 241.78-62.3"/>
            <path fill="#ccc" d="m632.22 21.22 10.27 2.61-9.65 4.36z"/>
        </g>
        <g stroke="#ccc" class="edge">
            <path fill="none" stroke-dasharray="5,2" d="M355.16 209.65c7.93 1.07 15.98 2.17 23.94 3.25"/>
            <path fill="#ccc" d="m379.34 209.4 9.43 4.81-10.38 2.12z"/>
        </g>
        <g stroke="#ccc" class="edge">
            <path fill="none" stroke-dasharray="5,2" d="M341.75 216.47c4.61 2.49 9 5.32 13 8.53 24.87 19.92 11.83 41.23 36 62 99.62 85.62 148.52 95 279.87 95h191.26c105.09 0 222.33-41.95 287.38-69.2"/>
            <path fill="#ccc" d="m1147.66 309.68 10.57-.69-7.83 7.13z"/>
        </g>
        <g class="node">
            <path fill="#add8e6" stroke="#000" d="M522.62 153H415.88v36h106.74z"/>
            <text x="465.25" y="-205.95" font-family="Times New Roman,serif" font-size="14" text-anchor="middle" transform="translate(4 382)">:server:data:shift</text>
        </g>
        <g stroke="#ccc" class="edge">
            <path fill="none" stroke-dasharray="5,2" d="M355.16 186.35c16.49-2.24 33.5-4.54 49.16-6.67"/>
            <path fill="#ccc" d="m403.57 176.25 10.38 2.12-9.44 4.82z"/>
        </g>
        <g class="node">
            <path fill="#add8e6" stroke="#000" d="M727.62 264h-112v36h112z"/>
            <text x="667.62" y="-94.95" font-family="Times New Roman,serif" font-size="14" text-anchor="middle" transform="translate(4 382)">:server:data:room</text>
        </g>
        <g stroke="#ccc" class="edge">
            <path fill="none" stroke-dasharray="5,2" d="M335.54 216.45c6.61 2.57 13.13 5.42 19.21 8.55 17.79 9.14 17.39 19.67 36 27 69.16 27.24 154.94 32.7 213.18 32.64"/>
            <path fill="#ccc" d="m603.66 281.15 10.02 3.43-9.97 3.57z"/>
        </g>
        <g stroke="#333" class="edge">
            <path fill="none" stroke-dasharray="5,2" d="M926.3 150.63c54.23-4.72 132.11-3.81 190.7 28.37 33.15 18.2 56.8 55.96 70.12 82.35"/>
            <path fill="#333" d="m1190.18 259.65 1.19 10.52-7.49-7.48z"/>
        </g>
        <g stroke="#999" class="edge">
            <path fill="none" stroke-dasharray="5,2" d="M522.8 169.52c67.41-1.91 184.79-5.22 261.71-7.39"/>
            <path fill="#999" d="m783.95 158.64 10.1 3.22-9.9 3.78z"/>
        </g>
        <g stroke="#999" class="edge">
            <path fill="none" stroke-dasharray="5,2" d="M522.9 156.02c22.02-6.26 48.03-13.66 72.04-20.49"/>
            <path fill="#999" d="m593.77 132.22 10.58.63-8.66 6.11z"/>
        </g>
        <g stroke="#999" class="edge">
            <path fill="none" stroke-dasharray="5,2" d="M522.8 176.8c68.1 7.52 187.21 20.66 264.07 29.14"/>
            <path fill="#999" d="m786.84 202.42 9.55 4.57-10.32 2.39z"/>
        </g>
        <g stroke="#666" class="edge">
            <path fill="none" stroke-dasharray="5,2" d="M739.96 130.54c14.46 3.55 29.82 7.33 44.56 10.95"/>
            <path fill="#666" d="m785.29 138.07 8.88 5.79-10.55 1.01z"/>
        </g>
        <g class="node">
            <path fill="#add8e6" stroke="#000" d="M1117 188H962.25v36H1117z"/>
            <text x="1035.62" y="-170.95" font-family="Times New Roman,serif" font-size="14" text-anchor="middle" transform="translate(4 382)">:server:domain:employee</text>
        </g>
        <g stroke="#666" class="edge">
            <path fill="none" stroke-dasharray="5,2" d="M740.11 110.07c52.17-.92 125.48 2.46 186.14 22.93 30.53 10.3 60.92 30.82 82.38 47.49"/>
            <path fill="#666" d="m1010.72 177.68 5.64 8.97-10-3.49z"/>
        </g>
        <g stroke="#666" class="edge">
            <path fill="none" stroke-dasharray="5,2" d="M923.85 227.94c62.14 13.98 157.09 35.34 217.82 49"/>
            <path fill="#666" d="m1142.13 273.45 8.99 5.61-10.53 1.22z"/>
        </g>
        <g stroke="#666" class="edge">
            <path fill="none" stroke-dasharray="5,2" d="M923.69 211.2c8.68-.39 17.74-.8 26.79-1.21"/>
            <path fill="#666" d="m950.26 206.5 10.15 3.04-9.83 3.95z"/>
        </g>
        <g stroke="#666" class="edge">
            <path fill="none" stroke-dasharray="5,2" d="M926.62 290h214.87"/>
            <path fill="#666" d="m1141.12 286.5 10 3.5-10 3.5z"/>
        </g>
        <g stroke="#333" class="edge">
            <path fill="none" stroke-dasharray="5,2" d="M1088.04 224.44c9.71 4.17 19.77 8.79 28.96 13.56 15.66 8.13 32.25 18.24 46.44 27.37"/>
            <path fill="#333" d="m1165.1 262.28 6.46 8.4-10.28-2.54z"/>
        </g>
        <g stroke="#999" class="edge">
            <path fill="none" stroke-dasharray="5,2" d="M727.7 268.31c11.33-4.55 22.6-10.52 31.8-18.31 24.62-20.83 11.85-41.63 36-63 .91-.8 1.84-1.58 2.8-2.35"/>
            <path fill="#999" d="m796 181.99 10.23-2.77-6.27 8.54z"/>
        </g>
        <g stroke="#999" class="edge">
            <path fill="none" stroke-dasharray="5,2" d="M728.05 284.37c17.41.74 36.95 1.58 55.55 2.37"/>
            <path fill="#999" d="m783.68 283.24 9.84 3.93-10.14 3.06z"/>
        </g>
    </g>
</svg>
