<svg xmlns="http://www.w3.org/2000/svg" width="1816" height="444" viewBox="0 0 1362.25 332.8">
    <g class="graph">
        <path fill="#fff" d="M0 332.8V0h1362.25v332.8z"/>
        <g class="node">
            <path fill="#90ee90" stroke="#000" d="M80 114.84H4v36h76z"/>
            <text x="38" y="-190.91" font-family="Times New Roman,serif" font-size="14" text-anchor="middle" transform="translate(4 328.8)">:server:app</text>
        </g>
        <g class="node">
            <path fill="#add8e6" stroke="#000" d="M270 60.84H128v36h142z"/>
            <text x="195" y="-244.91" font-family="Times New Roman,serif" font-size="14" text-anchor="middle" transform="translate(4 328.8)">:server:controller:room</text>
        </g>
        <g stroke="#000" class="edge">
            <path fill="none" d="M80.42 118.71c11.39-4.23 23.97-8.81 35.58-12.87 4.66-1.63 9.48-3.28 14.34-4.93"/>
            <path d="m128.98 97.67 10.59.13-8.36 6.51z"/>
        </g>
        <g class="node">
            <path fill="#add8e6" stroke="#000" d="M851.62 60.84h-130v36h130z"/>
            <text x="782.62" y="-244.91" font-family="Times New Roman,serif" font-size="14" text-anchor="middle" transform="translate(4 328.8)">:server:core:database</text>
        </g>
        <g stroke="#000" class="edge">
            <path fill="none" d="M53.08 114.59C65.12 94.88 87.29 64.62 116 51.84c203.28-90.44 476.51-30.7 601.76 5.32"/>
            <path d="m718.62 53.77 8.61 6.16-10.58.56z"/>
        </g>
        <g class="node">
            <path fill="#add8e6" stroke="#000" d="M267.38 168.84H130.62v36h136.76z"/>
            <text x="195" y="-136.91" font-family="Times New Roman,serif" font-size="14" text-anchor="middle" transform="translate(4 328.8)">:server:controller:shift</text>
        </g>
        <g stroke="#000" class="edge">
            <path fill="none" d="M80.42 146.98c11.39 4.22 23.97 8.81 35.58 12.86 4.66 1.63 9.48 3.29 14.34 4.94"/>
            <path d="m131.21 161.38 8.36 6.51-10.59.12z"/>
        </g>
        <g class="node">
            <path fill="#add8e6" stroke="#000" d="M267.38 114.84H130.62v36h136.76z"/>
            <text x="195" y="-190.91" font-family="Times New Roman,serif" font-size="14" text-anchor="middle" transform="translate(4 328.8)">:server:controller:cron</text>
        </g>
        <g stroke="#000" class="edge">
            <path fill="none" d="M80.13 132.84h38.77"/>
            <path d="m118.73 129.34 10 3.5-10 3.5z"/>
        </g>
        <g class="node">
            <path fill="#add8e6" stroke="#000" d="M282 222.84H116v36h166z"/>
            <text x="195" y="-82.91" font-family="Times New Roman,serif" font-size="14" text-anchor="middle" transform="translate(4 328.8)">:server:controller:employee</text>
        </g>
        <g stroke="#000" class="edge">
            <path fill="none" d="M55.15 151.15c13.03 18.3 35.32 46.05 60.85 62.69q2.76 1.8 5.67 3.45"/>
            <path d="m123.03 214.05 7.31 7.67-10.5-1.43z"/>
        </g>
        <g class="node">
            <path fill="#add8e6" stroke="#000" d="M480.25 222.84H328.5v36h151.75z"/>
            <text x="400.38" y="-82.91" font-family="Times New Roman,serif" font-size="14" text-anchor="middle" transform="translate(4 328.8)">:server:service:employee</text>
        </g>
        <g class="node">
            <path fill="#add8e6" stroke="#000" d="M622.25 168.84h-55v36h55z"/>
            <text x="590.75" y="-136.91" font-family="Times New Roman,serif" font-size="14" text-anchor="middle" transform="translate(4 328.8)">:shared</text>
        </g>
        <g stroke="#999" class="edge">
            <path fill="none" stroke-dasharray="5,2" d="M469.68 222.41c28.7-8.23 61.54-17.64 86.22-24.72"/>
            <path fill="#999" d="m554.93 194.33 10.58.61-8.65 6.12z"/>
        </g>
        <g class="node">
            <path fill="#add8e6" stroke="#000" d="M1358.25 222.84h-95.5v36h95.5z"/>
            <text x="1306.5" y="-82.91" font-family="Times New Roman,serif" font-size="14" text-anchor="middle" transform="translate(4 328.8)">:core:common</text>
        </g>
        <g stroke="#999" class="edge">
            <path fill="none" stroke-dasharray="5,2" d="M434.57 259.1c23.85 13.95 58.93 32.34 92.18 41.74 111.18 31.47 143.33 24 258.87 24h188.63c112.73 0 147.04 15.83 252.5-24 20.4-7.7 40.28-21.83 55.44-34.45"/>
            <path fill="#999" d="m1279.53 264.06 9.87-3.87-5.3 9.18z"/>
        </g>
        <g class="node">
            <path fill="#add8e6" stroke="#000" d="M662.75 222.84h-136v36h136z"/>
            <text x="590.75" y="-82.91" font-family="Times New Roman,serif" font-size="14" text-anchor="middle" transform="translate(4 328.8)">:server:data:employee</text>
        </g>
        <g stroke="#999" class="edge">
            <path fill="none" stroke-dasharray="5,2" d="M480.64 240.84h34.57"/>
            <path fill="#999" d="m515.01 237.34 10 3.5-10 3.5z"/>
        </g>
        <g class="node">
            <path fill="#add8e6" stroke="#000" d="M490.75 87.84H318v36h172.75z"/>
            <text x="400.38" y="-217.91" font-family="Times New Roman,serif" font-size="14" text-anchor="middle" transform="translate(4 328.8)">:server:service:housekeeping</text>
        </g>
        <g stroke="#ccc" class="edge">
            <path fill="none" stroke-dasharray="5,2" d="M270.27 88.17c11.7 1.56 24 3.19 36.21 4.81"/>
            <path fill="#ccc" d="m306.7 89.48 9.45 4.78-10.37 2.16z"/>
        </g>
        <g stroke="#999" class="edge">
            <path fill="none" stroke-dasharray="5,2" d="M445.95 124.33c23.51 10.6 53.73 24.04 80.8 35.51 9.56 4.06 19.95 8.31 29.63 12.22"/>
            <path fill="#999" d="m557.54 168.75 7.98 6.97-10.58-.47z"/>
        </g>
        <g stroke="#999" class="edge">
            <path fill="none" stroke-dasharray="5,2" d="M438.26 87.47c23.81-12.35 57.17-27.76 88.49-35.63 111.89-28.08 143.51-19 258.87-19h188.63c117.86 0 158.81 9.5 252.5 81 33.76 25.77 57.84 69.52 71.03 98.34"/>
            <path fill="#999" d="m1300.85 210.48.84 10.56-7.24-7.73z"/>
        </g>
        <g class="node">
            <path fill="#add8e6" stroke="#000" d="M648.12 114.84H541.38v36h106.74z"/>
            <text x="590.75" y="-190.91" font-family="Times New Roman,serif" font-size="14" text-anchor="middle" transform="translate(4 328.8)">:server:data:shift</text>
        </g>
        <g stroke="#999" class="edge">
            <path fill="none" stroke-dasharray="5,2" d="M491.02 118.12c13.02 1.87 26.26 3.76 38.72 5.55"/>
            <path fill="#999" d="m530.02 120.17 9.41 4.89-10.4 2.04z"/>
        </g>
        <g class="node">
            <path fill="#add8e6" stroke="#000" d="M650.75 60.84h-112v36h112z"/>
            <text x="590.75" y="-244.91" font-family="Times New Roman,serif" font-size="14" text-anchor="middle" transform="translate(4 328.8)">:server:data:room</text>
        </g>
        <g stroke="#999" class="edge">
            <path fill="none" stroke-dasharray="5,2" d="M491.02 93.57c12.23-1.75 24.65-3.53 36.43-5.22"/>
            <path fill="#999" d="m526.62 84.93 10.4 2.05-9.4 4.88z"/>
        </g>
        <g stroke="#333" class="edge">
            <path fill="none" stroke-dasharray="5,2" d="M852 77.46c89.35.72 253.61 11.8 374.75 76.38 26.4 14.08 49.21 39.71 64.15 59.53"/>
            <path fill="#333" d="m1293.64 211.18 3.06 10.14-8.72-6.02z"/>
        </g>
        <g stroke="#666" class="edge">
            <path fill="none" stroke-dasharray="5,2" d="M648.39 117.87c19.16-5.45 41.22-11.72 61.96-17.62"/>
            <path fill="#666" d="m709.35 96.9 10.58.63-8.66 6.1z"/>
        </g>
        <g class="node">
            <path fill="#add8e6" stroke="#000" d="M874.5 114.84H698.75v36H874.5z"/>
            <text x="782.62" y="-190.91" font-family="Times New Roman,serif" font-size="14" text-anchor="middle" transform="translate(4 328.8)">:server:domain:housekeeping</text>
        </g>
        <g stroke="#666" class="edge">
            <path fill="none" stroke-dasharray="5,2" d="M648.39 132.84h38.66"/>
            <path fill="#666" d="m686.74 129.34 10 3.5-10 3.5z"/>
        </g>
        <g class="node">
            <path fill="#add8e6" stroke="#000" d="M1036 160.84H910.5v36H1036z"/>
            <text x="969.25" y="-144.91" font-family="Times New Roman,serif" font-size="14" text-anchor="middle" transform="translate(4 328.8)">:server:domain:shift</text>
        </g>
        <g stroke="#666" class="edge">
            <path fill="none" stroke-dasharray="5,2" d="M648.54 148.71c15.99 4.25 33.7 8.42 50.21 11.13 67.2 11.05 144.71 15.68 200.02 17.62"/>
            <path fill="#666" d="m898.83 173.96 9.88 3.83-10.11 3.17z"/>
        </g>
        <g stroke="#333" class="edge">
            <path fill="none" stroke-dasharray="5,2" d="M874.97 131.06c90.98 1.02 236.1 10.84 351.78 56.78 17.69 7.03 35.68 18 50.34 28.14"/>
            <path fill="#333" d="m1278.86 212.94 6.12 8.65-10.18-2.94z"/>
        </g>
        <g stroke="#333" class="edge">
            <path fill="none" stroke-dasharray="5,2" d="M861.66 151.29c12.28 3.06 25.02 6.24 37.3 9.29"/>
            <path fill="#333" d="m899.74 157.17 8.86 5.81-10.55.98z"/>
        </g>
        <g stroke="#666" class="edge">
            <path fill="none" stroke-dasharray="5,2" d="M652.61 222.37c3.7-2.5 7.13-5.33 10.14-8.53 34.66-36.85-.14-72.59 36-108 3.82-3.74 8.15-6.96 12.78-9.74"/>
            <path fill="#666" d="m709.57 93.17 10.49-1.47-7.28 7.69z"/>
        </g>
        <g class="node">
            <path fill="#add8e6" stroke="#000" d="M1226.75 222.84H1072v36h154.75z"/>
            <text x="1145.38" y="-82.91" font-family="Times New Roman,serif" font-size="14" text-anchor="middle" transform="translate(4 328.8)">:server:domain:employee</text>
        </g>
        <g stroke="#666" class="edge">
            <path fill="none" stroke-dasharray="5,2" d="M663.24 240.84h396.87"/>
            <path fill="#666" d="m1060.03 237.34 10 3.5-10.01 3.5z"/>
        </g>
        <g class="node">
            <path fill="#add8e6" stroke="#000" d="M465.62 168.84h-122.5v36h122.5z"/>
            <text x="400.38" y="-136.91" font-family="Times New Roman,serif" font-size="14" text-anchor="middle" transform="translate(4 328.8)">:server:service:shift</text>
        </g>
        <g stroke="#ccc" class="edge">
            <path fill="none" stroke-dasharray="5,2" d="M267.72 186.84h63.76"/>
            <path fill="#ccc" d="m331.28 183.34 10 3.5-10 3.5z"/>
        </g>
        <g stroke="#999" class="edge">
            <path fill="none" stroke-dasharray="5,2" d="M466.01 186.84h89.36"/>
            <path fill="#999" d="m555.35 183.34 10 3.5-10 3.5z"/>
        </g>
        <g stroke="#999" class="edge">
            <path fill="none" stroke-dasharray="5,2" d="M465.77 200.23c8.87 3.55 17.52 8.01 24.98 13.61 23.06 17.33 11.08 39.47 36 54 99.65 58.13 143.51 19 258.87 19h188.63c112.54 0 142.1 2.84 252.5-19 8.05-1.59 16.41-3.72 24.59-6.09"/>
            <path fill="#999" d="m1250.29 258.41 10.59.43-8.55 6.26z"/>
        </g>
        <g stroke="#999" class="edge">
            <path fill="none" stroke-dasharray="5,2" d="M466.01 169.46c20.52-5.88 43.47-12.46 64.2-18.4"/>
            <path fill="#999" d="m529.12 147.73 10.57.61-8.64 6.12z"/>
        </g>
        <g stroke="#999" class="edge">
            <path fill="none" stroke-dasharray="5,2" d="M466.01 204.23c16.75 4.8 35.12 10.06 52.58 15.07"/>
            <path fill="#999" d="m519.22 215.84 8.65 6.12-10.58.61z"/>
        </g>
        <g stroke="#666" class="edge">
            <path fill="none" stroke-dasharray="5,2" d="M651.18 78.84h58.84"/>
            <path fill="#666" d="m709.91 75.34 10 3.5-10 3.5z"/>
        </g>
        <g stroke="#666" class="edge">
            <path fill="none" stroke-dasharray="5,2" d="m651.18 94.61 58.52 16.64"/>
            <path fill="#666" d="m710.63 107.88 8.66 6.1-10.58.63z"/>
        </g>
        <g stroke="#333" class="edge">
            <path fill="none" stroke-dasharray="5,2" d="M1036.29 184.34c51.46 5.3 126.31 14.72 190.46 29.5 8.19 1.89 16.73 4.23 25.08 6.74"/>
            <path fill="#333" d="m1252.7 217.19 8.5 6.32-10.59.36z"/>
        </g>
        <g stroke="#333" class="edge">
            <path fill="none" stroke-dasharray="5,2" d="M1026.02 197.28c18.78 6.68 40.19 14.31 59.8 21.29"/>
            <path fill="#333" d="m1086.83 215.21 8.25 6.66-10.6-.06z"/>
        </g>
        <g stroke="#ccc" class="edge">
            <path fill="none" stroke-dasharray="5,2" d="M267.72 123.85c12.55-1.66 25.88-3.43 39.09-5.19"/>
            <path fill="#ccc" d="m305.99 115.24 10.37 2.16-9.45 4.78z"/>
        </g>
        <g stroke="#ccc" class="edge">
            <path fill="none" stroke-dasharray="5,2" d="M267.72 150.83c20.57 5.46 43.23 11.47 64.05 17"/>
            <path fill="#ccc" d="m332.56 164.42 8.77 5.95-10.57.82z"/>
        </g>
        <g stroke="#333" class="edge">
            <path fill="none" stroke-dasharray="5,2" d="M1227.14 240.84h24.13"/>
            <path fill="#333" d="m1251.01 237.34 10 3.5-10 3.5z"/>
        </g>
        <g stroke="#ccc" class="edge">
            <path fill="none" stroke-dasharray="5,2" d="M282.43 240.84h34.34"/>
            <path fill="#ccc" d="m316.53 237.34 10 3.5-10 3.5z"/>
        </g>
    </g>
</svg>
