<svg xmlns="http://www.w3.org/2000/svg" width="1010pt" height="376" viewBox="0 0 1010 281.72">
    <g class="graph">
        <path fill="#fff" d="M0 281.72V0h1010v281.72z"/>
        <g class="node">
            <path fill="#90ee90" stroke="#000" d="M80 157.49H4v36h76z"/>
            <text x="38" y="-97.18" font-family="Times New Roman,serif" font-size="14" text-anchor="middle" transform="translate(4 277.72)">:server:app</text>
        </g>
        <g class="node">
            <path fill="#add8e6" stroke="#000" d="M270 111.49H128v36h142z"/>
            <text x="195" y="-143.18" font-family="Times New Roman,serif" font-size="14" text-anchor="middle" transform="translate(4 277.72)">:server:controller:room</text>
        </g>
        <g stroke="#000" class="edge">
            <path fill="none" d="M80.13 164.47c13.53-4.02 29.35-8.71 44.91-13.33"/>
            <path d="m123.72 147.88 10.58.51-8.59 6.2z"/>
        </g>
        <g class="node">
            <path fill="#add8e6" stroke="#000" d="M851.62 149.49h-130v36h130z"/>
            <text x="782.62" y="-105.18" font-family="Times New Roman,serif" font-size="14" text-anchor="middle" transform="translate(4 277.72)">:server:core:database</text>
        </g>
        <g stroke="#000" class="edge">
            <path fill="none" d="M80.34 175.09c116.06-1.26 472.2-5.09 629.38-6.78"/>
            <path d="m709.59 164.81 10.04 3.39-9.96 3.61z"/>
        </g>
        <g class="node">
            <path fill="#add8e6" stroke="#000" d="M282 203.49H116v36h166z"/>
            <text x="195" y="-51.18" font-family="Times New Roman,serif" font-size="14" text-anchor="middle" transform="translate(4 277.72)">:server:controller:employee</text>
        </g>
        <g stroke="#000" class="edge">
            <path fill="none" d="M80.13 186.51c13.53 4.01 29.35 8.71 44.91 13.33"/>
            <path d="m125.71 196.38 8.59 6.2-10.58.51z"/>
        </g>
        <g class="node">
            <path fill="#add8e6" stroke="#000" d="M490.75 111.49H318v36h172.75z"/>
            <text x="400.38" y="-143.18" font-family="Times New Roman,serif" font-size="14" text-anchor="middle" transform="translate(4 277.72)">:server:service:housekeeping</text>
        </g>
        <g class="node">
            <path fill="#add8e6" stroke="#000" d="M1006 149.49h-95.5v36h95.5z"/>
            <text x="954.25" y="-105.18" font-family="Times New Roman,serif" font-size="14" text-anchor="middle" transform="translate(4 277.72)">:core:common</text>
        </g>
        <g stroke="#999" class="edge">
            <path fill="none" stroke-dasharray="5,2" d="M424.91 111.01c22.51-19.89 61.59-50.33 101.84-62.52 147.91-44.83 210.77-71.59 347.75 0 36.03 18.83 59.54 61.28 71.98 90.05"/>
            <path fill="#999" d="m949.72 137.2.56 10.58-7.04-7.92z"/>
        </g>
        <g class="node">
            <path fill="#add8e6" stroke="#000" d="M650.75 57.49h-112v36h112z"/>
            <text x="590.75" y="-197.18" font-family="Times New Roman,serif" font-size="14" text-anchor="middle" transform="translate(4 277.72)">:server:data:room</text>
        </g>
        <g stroke="#999" class="edge">
            <path fill="none" stroke-dasharray="5,2" d="M469.68 111.05c18.71-5.36 39.17-11.23 57.99-16.62"/>
            <path fill="#999" d="m526.5 91.12 10.58.61-8.65 6.12z"/>
        </g>
        <g class="node">
            <path fill="#add8e6" stroke="#000" d="M622.25 111.49h-55v36h55z"/>
            <text x="590.75" y="-143.18" font-family="Times New Roman,serif" font-size="14" text-anchor="middle" transform="translate(4 277.72)">:shared</text>
        </g>
        <g stroke="#999" class="edge">
            <path fill="none" stroke-dasharray="5,2" d="M491.02 129.49h64.5"/>
            <path fill="#999" d="m555.26 125.99 10 3.5-10 3.5z"/>
        </g>
        <g stroke="#ccc" class="edge">
            <path fill="none" stroke-dasharray="5,2" d="M270.27 129.49h36.21"/>
            <path fill="#ccc" d="m306.14 125.99 10 3.5-10 3.5z"/>
        </g>
        <g stroke="#333" class="edge">
            <path fill="none" stroke-dasharray="5,2" d="M851.75 167.49h47.13"/>
            <path fill="#333" d="m898.7 163.99 10 3.5-10 3.5z"/>
        </g>
        <g class="node">
            <path fill="#add8e6" stroke="#000" d="M874.5 57.49H698.75v36H874.5z"/>
            <text x="782.62" y="-197.18" font-family="Times New Roman,serif" font-size="14" text-anchor="middle" transform="translate(4 277.72)">:server:domain:housekeeping</text>
        </g>
        <g stroke="#333" class="edge">
            <path fill="none" stroke-dasharray="5,2" d="M821.54 93.88c26.47 14.36 63.42 34.4 92.09 49.95"/>
            <path fill="#333" d="m914.94 140.56 7.12 7.84-10.46-1.69z"/>
        </g>
        <g class="node">
            <path fill="#add8e6" stroke="#000" d="M480.25 203.49H328.5v36h151.75z"/>
            <text x="400.38" y="-51.18" font-family="Times New Roman,serif" font-size="14" text-anchor="middle" transform="translate(4 277.72)">:server:service:employee</text>
        </g>
        <g stroke="#999" class="edge">
            <path fill="none" stroke-dasharray="5,2" d="M462.1 239.93c90.88 26.29 273.04 65.41 412.4 8.56 26.43-10.79 49-34.53 63.86-53.54"/>
            <path fill="#999" d="m935.51 192.92 8.8-5.9-3.2 10.1z"/>
        </g>
        <g stroke="#999" class="edge">
            <path fill="none" stroke-dasharray="5,2" d="M443.04 203.09c33.04-16.13 80.8-39.46 113.65-55.5"/>
            <path fill="#999" d="m554.92 144.56 10.52-1.25-7.45 7.54z"/>
        </g>
        <g class="node">
            <path fill="#add8e6" stroke="#000" d="M662.75 203.49h-136v36h136z"/>
            <text x="590.75" y="-51.18" font-family="Times New Roman,serif" font-size="14" text-anchor="middle" transform="translate(4 277.72)">:server:data:employee</text>
        </g>
        <g stroke="#999" class="edge">
            <path fill="none" stroke-dasharray="5,2" d="M480.64 221.49h34.57"/>
            <path fill="#999" d="m515.01 217.99 10 3.5-10 3.5z"/>
        </g>
        <g stroke="#666" class="edge">
            <path fill="none" stroke-dasharray="5,2" d="M643.23 93.91c6.6 2.77 13.26 5.67 19.52 8.58 27.17 12.62 56.88 28.28 80.28 41.07"/>
            <path fill="#666" d="m744.57 140.41 7.08 7.89-10.45-1.75z"/>
        </g>
        <g stroke="#666" class="edge">
            <path fill="none" stroke-dasharray="5,2" d="M651.18 75.49h35.85"/>
            <path fill="#666" d="m686.81 71.99 10 3.5-10 3.5z"/>
        </g>
        <g stroke="#ccc" class="edge">
            <path fill="none" stroke-dasharray="5,2" d="M282.43 221.49h34.34"/>
            <path fill="#ccc" d="m316.53 217.99 10 3.5-10 3.5z"/>
        </g>
        <g stroke="#666" class="edge">
            <path fill="none" stroke-dasharray="5,2" d="M660.56 203.05c16.13-4.58 33.55-9.54 50.12-14.25"/>
            <path fill="#666" d="m709.39 185.53 10.58.63-8.66 6.1z"/>
        </g>
        <g class="node">
            <path fill="#add8e6" stroke="#000" d="M864 203.49H709.25v36H864z"/>
            <text x="782.62" y="-51.18" font-family="Times New Roman,serif" font-size="14" text-anchor="middle" transform="translate(4 277.72)">:server:domain:employee</text>
        </g>
        <g stroke="#666" class="edge">
            <path fill="none" stroke-dasharray="5,2" d="M663.23 221.49h34.3"/>
            <path fill="#666" d="m697.47 217.99 10 3.5-10 3.5z"/>
        </g>
        <g stroke="#333" class="edge">
            <path fill="none" stroke-dasharray="5,2" d="M847.48 203.01c9.06-2.84 18.29-5.74 27.02-8.52 8.01-2.55 16.45-5.27 24.74-7.96"/>
            <path fill="#333" d="m897.99 183.25 10.6.24-8.43 6.42z"/>
        </g>
    </g>
</svg>
