<svg xmlns="http://www.w3.org/2000/svg" width="1235pt" height="446pt" viewBox="0 0 1234.5 445.61">
    <g class="graph">
        <path fill="#fff" d="M0 445.61V0h1234.5v445.61z"/>
        <g class="node">
            <path fill="#90ee90" stroke="#000" d="M176.75 151H4v36h172.75z"/>
            <text x="86.38" y="-267.56" font-family="Times New Roman,serif" font-size="14" text-anchor="middle" transform="translate(4 441.61)">:server:service:housekeeping</text>
        </g>
        <g class="node">
            <path fill="#add8e6" stroke="#000" d="M367.12 124H215.38v36h151.74z"/>
            <text x="287.25" y="-294.56" font-family="Times New Roman,serif" font-size="14" text-anchor="middle" transform="translate(4 441.61)">:server:service:employee</text>
        </g>
        <g stroke="#000" class="edge">
            <path fill="none" d="M177.16 157.35c8.87-1.2 17.89-2.42 26.76-3.63"/>
            <path d="m203.19 150.29 10.38 2.12-9.44 4.81z"/>
        </g>
        <g class="node">
            <path fill="#add8e6" stroke="#000" d="M521.12 32h-55v36h55z"/>
            <text x="489.62" y="-386.56" font-family="Times New Roman,serif" font-size="14" text-anchor="middle" transform="translate(4 441.61)">:shared</text>
        </g>
        <g stroke="#000" class="edge">
            <path fill="none" d="M127.83 150.59c23.74-11.43 55.62-25.77 84.92-35.59 84.6-28.36 187.62-48.82 242.01-58.58"/>
            <path d="m453.97 53.01 10.46 1.7-9.24 5.19z"/>
        </g>
        <g class="node">
            <path fill="#add8e6" stroke="#000" d="M369.75 232h-157v36h157z"/>
            <text x="287.25" y="-186.56" font-family="Times New Roman,serif" font-size="14" text-anchor="middle" transform="translate(4 441.61)">:server:data:housekeeping</text>
        </g>
        <g stroke="#000" class="edge">
            <path fill="none" d="M130.65 187.47c23.6 10.85 54.33 24.54 82.1 35.53 3.87 1.53 7.87 3.07 11.91 4.58"/>
            <path d="m225.82 224.28 8.18 6.74-10.59-.17z"/>
        </g>
        <g class="node">
            <path fill="#add8e6" stroke="#000" d="M1230.5 208H1135v36h95.5z"/>
            <text x="1178.75" y="-210.56" font-family="Times New Roman,serif" font-size="14" text-anchor="middle" transform="translate(4 441.61)">:core:common</text>
        </g>
        <g stroke="#000" class="edge">
            <path fill="none" d="M111.89 150.77c23.08-19.67 62.37-50.72 100.86-69.77C328.37 23.77 363.61 4 492.62 4h370c113.56 0 148.63 24.92 236.38 97 32.13 26.4 56.39 68.54 70.09 96.49"/>
            <path d="m1172.21 195.9 1.12 10.53-7.45-7.53z"/>
        </g>
        <g class="node">
            <path fill="#add8e6" stroke="#000" d="M344.62 178H237.88v36h106.74z"/>
            <text x="287.25" y="-240.56" font-family="Times New Roman,serif" font-size="14" text-anchor="middle" transform="translate(4 441.61)">:server:data:shift</text>
        </g>
        <g stroke="#000" class="edge">
            <path fill="none" d="M177.16 180.65c16.49 2.24 33.5 4.55 49.16 6.67"/>
            <path d="m226.51 183.82 9.44 4.81-10.38 2.12z"/>
        </g>
        <g class="node">
            <path fill="#add8e6" stroke="#000" d="M549.62 400h-112v36h112z"/>
            <text x="489.62" y="-18.56" font-family="Times New Roman,serif" font-size="14" text-anchor="middle" transform="translate(4 441.61)">:server:data:room</text>
        </g>
        <g stroke="#000" class="edge">
            <path fill="none" d="M109.75 187.41c22.97 22.52 64.04 61.16 103 89.59 80.48 58.72 101.93 73.61 193 114 6.62 2.93 13.65 5.68 20.73 8.22"/>
            <path d="m427.47 395.86 8.33 6.55-10.6.07z"/>
        </g>
        <g stroke="#ccc" class="edge">
            <path fill="none" stroke-dasharray="5,2" d="M323.97 123.77c22.46-12.54 53.49-29.15 81.78-41.77 15.83-7.06 33.73-13.85 49.16-19.34"/>
            <path fill="#ccc" d="M453.62 59.4h10.59l-8.28 6.61z"/>
        </g>
        <g stroke="#ccc" class="edge">
            <path fill="none" stroke-dasharray="5,2" d="M361.82 123.54c14.44-3.29 29.61-6.36 43.93-8.54 121.61-18.52 153.11-19 276.13-19h180.74c106.41 0 142.94-12.9 236.38 38 27.69 15.08 50.82 43.11 65.53 64.28"/>
            <path fill="#ccc" d="m1167.37 196.23 2.65 10.26-8.47-6.37z"/>
        </g>
        <g class="node">
            <path fill="#add8e6" stroke="#000" d="M561.62 178h-136v36h136z"/>
            <text x="489.62" y="-240.56" font-family="Times New Roman,serif" font-size="14" text-anchor="middle" transform="translate(4 441.61)">:server:data:employee</text>
        </g>
        <g stroke="#ccc" class="edge">
            <path fill="none" stroke-dasharray="5,2" d="M360.65 160.43c17.27 4.66 35.95 9.69 53.68 14.47"/>
            <path fill="#ccc" d="m415.01 171.46 8.74 5.98-10.56.78z"/>
        </g>
        <g class="node">
            <path fill="#add8e6" stroke="#000" d="M546.25 124H441v36h105.25z"/>
            <text x="489.62" y="-294.56" font-family="Times New Roman,serif" font-size="14" text-anchor="middle" transform="translate(4 441.61)">:server:data:user</text>
        </g>
        <g stroke="#ccc" class="edge">
            <path fill="none" stroke-dasharray="5,2" d="M367.43 142h62.01"/>
            <path fill="#ccc" d="m429.24 138.5 10 3.5-10 3.5z"/>
        </g>
        <g class="node">
            <path fill="#add8e6" stroke="#000" d="M581.5 346H405.75v36H581.5z"/>
            <text x="489.62" y="-72.56" font-family="Times New Roman,serif" font-size="14" text-anchor="middle" transform="translate(4 441.61)">:server:domain:housekeeping</text>
        </g>
        <g stroke="#ccc" class="edge">
            <path fill="none" stroke-dasharray="5,2" d="M313.68 268.23c21.99 18.03 57.74 45.49 92.07 63.77 6.14 3.27 12.7 6.35 19.34 9.21"/>
            <path fill="#ccc" d="m426.25 337.91 7.92 7.04-10.58-.57z"/>
        </g>
        <g class="node">
            <path fill="#add8e6" stroke="#000" d="M747.88 254h-130v36h130z"/>
            <text x="678.88" y="-164.56" font-family="Times New Roman,serif" font-size="14" text-anchor="middle" transform="translate(4 441.61)">:server:core:database</text>
        </g>
        <g stroke="#ccc" class="edge">
            <path fill="none" stroke-dasharray="5,2" d="M370.16 254.4c68.65 3.88 168.03 9.49 236.01 13.33"/>
            <path fill="#ccc" d="m606.34 264.23 9.79 4.06-10.19 2.93z"/>
        </g>
        <g stroke="#ccc" class="edge">
            <path fill="none" stroke-dasharray="5,2" d="M360.65 231.57c17.27-4.66 35.95-9.69 53.68-14.47"/>
            <path fill="#ccc" d="m413.19 213.78 10.56.78-8.74 5.98z"/>
        </g>
        <g stroke="#999" class="edge">
            <path fill="none" stroke-dasharray="5,2" d="M581.79 366.9c121.05.88 344.61-9.04 517.21-82.9 18.97-8.12 37.97-21.01 52.97-32.59"/>
            <path fill="#999" d="m1149.57 248.85 10.01-3.48-5.66 8.96z"/>
        </g>
        <g class="node">
            <path fill="#add8e6" stroke="#000" d="M745.62 308h-125.5v36h125.5z"/>
            <text x="678.88" y="-110.56" font-family="Times New Roman,serif" font-size="14" text-anchor="middle" transform="translate(4 441.61)">:server:domain:shift</text>
        </g>
        <g stroke="#999" class="edge">
            <path fill="none" stroke-dasharray="5,2" d="M581.95 346.28c8.98-1.82 18.04-3.66 26.85-5.45"/>
            <path fill="#999" d="m607.81 337.46 10.5 1.44-9.11 5.42z"/>
        </g>
        <g class="node">
            <path fill="#add8e6" stroke="#000" d="M748.25 400H617.5v36h130.75z"/>
            <text x="678.88" y="-18.56" font-family="Times New Roman,serif" font-size="14" text-anchor="middle" transform="translate(4 441.61)">:server:domain:room</text>
        </g>
        <g stroke="#999" class="edge">
            <path fill="none" stroke-dasharray="5,2" d="M558.54 382.43c15.58 4.5 32.39 9.34 48.43 13.97"/>
            <path fill="#999" d="m607.84 393.01 8.63 6.13-10.57.59z"/>
        </g>
        <g stroke="#666" class="edge">
            <path fill="none" stroke-dasharray="5,2" d="M748.15 267.86C799.77 264.39 874.1 259.02 939 253c63.13-5.86 135.32-14.08 184.46-19.91"/>
            <path fill="#666" d="m1122.96 229.62 10.35 2.29-9.52 4.66z"/>
        </g>
        <g stroke="#ccc" class="edge">
            <path fill="none" stroke-dasharray="5,2" d="M344.95 209.21c19.09 4.61 40.87 9.66 60.8 13.79 67.57 14.02 144.96 27.54 200.58 36.81"/>
            <path fill="#ccc" d="m606.72 256.33 9.3 5.09-10.44 1.81z"/>
        </g>
        <g stroke="#ccc" class="edge">
            <path fill="none" stroke-dasharray="5,2" d="M344.9 196H414"/>
            <path fill="#ccc" d="m413.71 192.5 10 3.5-10 3.5z"/>
        </g>
        <g stroke="#ccc" class="edge">
            <path fill="none" stroke-dasharray="5,2" d="M345.01 210.77c8.58 3.4 17.14 7.46 24.74 12.23 19.17 12.03 16.27 24.92 36 36 63.1 35.44 144.57 52.27 202.63 60.17"/>
            <path fill="#ccc" d="m608.7 315.68 9.47 4.76-10.37 2.19z"/>
        </g>
        <g stroke="#999" class="edge">
            <path fill="none" stroke-dasharray="5,2" d="M546.27 214.44c11.64 4.32 23.9 9 35.23 13.56 16.36 6.59 34.03 14.18 49.92 21.18"/>
            <path fill="#999" d="m632.46 245.81 7.73 7.25-10.56-.85z"/>
        </g>
        <g class="node">
            <path fill="#add8e6" stroke="#000" d="M939 208H784.25v36H939z"/>
            <text x="857.62" y="-210.56" font-family="Times New Roman,serif" font-size="14" text-anchor="middle" transform="translate(4 441.61)">:server:domain:employee</text>
        </g>
        <g stroke="#999" class="edge">
            <path fill="none" stroke-dasharray="5,2" d="M561.89 202.16c18.06 1.62 37.58 3.33 55.61 4.84 51.45 4.31 109.05 8.83 155.27 12.38"/>
            <path fill="#999" d="m772.74 215.86 9.71 4.26-10.24 2.72z"/>
        </g>
        <g class="node">
            <path fill="#add8e6" stroke="#000" d="M1099 143H975v36h124z"/>
            <text x="1033" y="-275.56" font-family="Times New Roman,serif" font-size="14" text-anchor="middle" transform="translate(4 441.61)">:server:domain:user</text>
        </g>
        <g stroke="#999" class="edge">
            <path fill="none" stroke-dasharray="5,2" d="M546.53 143.82c97.01 3.41 305.97 10.74 416.88 14.63"/>
            <path fill="#999" d="m963.42 154.95 9.87 3.85-10.11 3.15z"/>
        </g>
        <g class="node">
            <path fill="#add8e6" stroke="#000" d="M746 162H619.75v36H746z"/>
            <text x="678.88" y="-256.56" font-family="Times New Roman,serif" font-size="14" text-anchor="middle" transform="translate(4 441.61)">:server:core:firebase</text>
        </g>
        <g stroke="#999" class="edge">
            <path fill="none" stroke-dasharray="5,2" d="M546.29 152.48c19.18 3.9 41.32 8.39 62.07 12.6"/>
            <path fill="#999" d="m608.8 161.6 9.11 5.42-10.5 1.44z"/>
        </g>
        <g stroke="#333" class="edge">
            <path fill="none" stroke-dasharray="5,2" d="M1078.81 179.45c16.08 7.28 34.74 15.71 51.71 23.39"/>
            <path fill="#333" d="m1131.79 199.57 7.67 7.31-10.55-.93z"/>
        </g>
        <g stroke="#666" class="edge">
            <path fill="none" stroke-dasharray="5,2" d="M939.47 226h183.99"/>
            <path fill="#666" d="m1123.23 222.5 10 3.5-10 3.5z"/>
        </g>
        <g stroke="#666" class="edge">
            <path fill="none" stroke-dasharray="5,2" d="M911.84 207.55c19.95-7.48 43.18-16.19 64.11-24.04"/>
            <path fill="#666" d="m974.65 180.26 10.59-.23-8.13 6.79z"/>
        </g>
        <g stroke="#999" class="edge">
            <path fill="none" stroke-dasharray="5,2" d="M745.99 317.87C827.66 306.55 975.29 283.9 1099 253c8.16-2.04 16.67-4.46 25.01-7.01"/>
            <path fill="#999" d="m1122.79 242.7 10.59.34-8.49 6.34z"/>
        </g>
        <g stroke="#999" class="edge">
            <path fill="none" stroke-dasharray="5,2" d="M730.75 307.5c5.97-2.69 11.93-5.55 17.5-8.5 26.93-14.25 55.71-33.02 77.4-47.96"/>
            <path fill="#999" d="m823.64 248.18 10.21-2.84-6.21 8.59z"/>
        </g>
        <g stroke="#999" class="edge">
            <path fill="none" stroke-dasharray="5,2" d="M748.72 431.11C836.06 445.01 992.8 456.37 1099 386c45.4-30.08 67.33-93.28 76.7-130.62"/>
            <path fill="#999" d="m1172.28 254.65 5.7-8.93 1.12 10.53z"/>
        </g>
        <g stroke="#ccc" class="edge">
            <path fill="none" stroke-dasharray="5,2" d="M550.04 408.86c11.45-3.98 22.67-9.68 31.46-17.86 32.14-29.91 5.33-60.58 36-92 .49-.5.99-.99 1.5-1.48"/>
            <path fill="#ccc" d="m616.81 294.79 10.02-3.43-5.69 8.94z"/>
        </g>
        <g stroke="#ccc" class="edge">
            <path fill="none" stroke-dasharray="5,2" d="M550.05 418h55.55"/>
            <path fill="#ccc" d="m605.52 414.5 10 3.5-10 3.5z"/>
        </g>
    </g>
</svg>
