<svg xmlns="http://www.w3.org/2000/svg" width="382pt" height="120" viewBox="0 0 381.5 90">
    <g class="graph">
        <path fill="#fff" d="M0 90V0h381.5v90z"/>
        <g class="node">
            <path fill="#90ee90" stroke="#000" d="M92 27H4v36h88z"/>
            <text x="44" y="-35.95" font-family="Times New Roman,serif" font-size="14" text-anchor="middle" transform="translate(4 86)">:domain:auth</text>
        </g>
        <g class="node">
            <path fill="#add8e6" stroke="#000" d="M377.5 4H282v36h95.5z"/>
            <text x="325.75" y="-58.95" font-family="Times New Roman,serif" font-size="14" text-anchor="middle" transform="translate(4 86)">:core:common</text>
        </g>
        <g stroke="#000" class="edge">
            <path fill="none" d="M92.4 41.43c47.76-3.92 124.76-10.26 177.83-14.62"/>
            <path d="m269.74 23.34 10.25 2.67-9.68 4.31z"/>
        </g>
        <g class="node">
            <path fill="#add8e6" stroke="#000" d="M246 50H128v36h118z"/>
            <text x="183" y="-12.95" font-family="Times New Roman,serif" font-size="14" text-anchor="middle" transform="translate(4 86)">:domain:employee</text>
        </g>
        <g stroke="#000" class="edge">
            <path fill="none" d="M92.35 52.28c7.76 1.3 16.02 2.69 24.3 4.08"/>
            <path d="m117.12 52.89 9.29 5.11-10.44 1.79z"/>
        </g>
        <g stroke="#ccc" class="edge">
            <path fill="none" stroke-dasharray="5,2" d="M244.44 49.56c8.71-2.85 17.72-5.8 26.46-8.65"/>
            <path fill="#ccc" d="m269.76 37.6 10.59.22-8.42 6.43z"/>
        </g>
    </g>
</svg>
