<svg xmlns="http://www.w3.org/2000/svg" width="1790pt" height="815pt" viewBox="0 0 1790.25 815.04">
    <g class="graph">
        <path fill="#fff" d="M0 815.04V0h1790.25v815.04z"/>
        <g class="node">
            <path fill="#90ee90" stroke="#000" d="M80 487H4v36h76z"/>
            <text x="38" y="-300.99" font-family="Times New Roman,serif" font-size="14" text-anchor="middle" transform="translate(4 811.04)">:server:app</text>
        </g>
        <g class="node">
            <path fill="#add8e6" stroke="#000" d="M1303.62 330h-130v36h130z"/>
            <text x="1234.62" y="-457.99" font-family="Times New Roman,serif" font-size="14" text-anchor="middle" transform="translate(4 811.04)">:server:core:database</text>
        </g>
        <g stroke="#000" class="edge">
            <path fill="none" d="M47.28 486.58C69.5 396.19 180.21 4 428.88 4h212.24c163.72 0 164.8 127.65 317.38 187 75.7 29.44 116.82-14.55 178.75 38 33.48 28.41 5.33 60.58 36 92 .49.5.99.99 1.5 1.48"/>
            <path d="m1176.89 319.71 5.69 8.93-10.02-3.43z"/>
        </g>
        <g class="node">
            <path fill="#add8e6" stroke="#000" d="M279.38 514H142.62v36h136.76z"/>
            <text x="207" y="-273.99" font-family="Times New Roman,serif" font-size="14" text-anchor="middle" transform="translate(4 811.04)">:server:controller:shift</text>
        </g>
        <g stroke="#000" class="edge">
            <path fill="none" d="M80.48 511.06c15.06 2.43 33.02 5.34 50.71 8.2"/>
            <path d="m131.62 515.78 9.32 5.05-10.43 1.86z"/>
        </g>
        <g class="node">
            <path fill="#add8e6" stroke="#000" d="M306 460H116v36h190z"/>
            <text x="207" y="-327.99" font-family="Times New Roman,serif" font-size="14" text-anchor="middle" transform="translate(4 811.04)">:server:controller:imageanalysis</text>
        </g>
        <g stroke="#000" class="edge">
            <path fill="none" d="M80.48 498.94c7.42-1.2 15.55-2.51 24-3.88"/>
            <path d="m103.82 491.62 10.43 1.86-9.31 5.05z"/>
        </g>
        <g class="node">
            <path fill="#add8e6" stroke="#000" d="M498.25 582H361.5v36h136.75z"/>
            <text x="425.88" y="-205.99" font-family="Times New Roman,serif" font-size="14" text-anchor="middle" transform="translate(4 811.04)">:server:controller:cron</text>
        </g>
        <g stroke="#000" class="edge">
            <path fill="none" d="M49.13 523.28C58.79 548.77 80.22 594 116 613c76.75 40.76 179.64 25.55 246.1 8.37"/>
            <path d="m360.83 618.09 10.56.8-8.75 5.96z"/>
        </g>
        <g class="node">
            <path fill="#add8e6" stroke="#000" d="M282 406H140v36h142z"/>
            <text x="207" y="-381.99" font-family="Times New Roman,serif" font-size="14" text-anchor="middle" transform="translate(4 811.04)">:server:controller:room</text>
        </g>
        <g stroke="#000" class="edge">
            <path fill="none" d="M63.72 486.52c13.94-11.6 33.19-26.1 52.28-35.52 4.2-2.07 8.58-4.01 13.06-5.82"/>
            <path d="m127.64 441.98 10.59-.25-8.12 6.8z"/>
        </g>
        <g class="node">
            <path fill="#add8e6" stroke="#000" d="M294 568H128v36h166z"/>
            <text x="207" y="-219.99" font-family="Times New Roman,serif" font-size="14" text-anchor="middle" transform="translate(4 811.04)">:server:controller:employee</text>
        </g>
        <g stroke="#000" class="edge">
            <path fill="none" d="M63.72 523.48C77.66 535.08 96.91 549.59 116 559c3.1 1.53 6.3 2.98 9.56 4.37"/>
            <path d="m126.74 560.07 8.02 6.93-10.59-.42z"/>
        </g>
        <g class="node">
            <path fill="#add8e6" stroke="#000" d="M1301.38 276h-125.5v36h125.5z"/>
            <text x="1234.62" y="-511.99" font-family="Times New Roman,serif" font-size="14" text-anchor="middle" transform="translate(4 811.04)">:server:domain:shift</text>
        </g>
        <g class="node">
            <path fill="#add8e6" stroke="#000" d="M1786.25 330h-95.5v36h95.5z"/>
            <text x="1734.5" y="-457.99" font-family="Times New Roman,serif" font-size="14" text-anchor="middle" transform="translate(4 811.04)">:core:common</text>
        </g>
        <g stroke="#333" class="edge">
            <path fill="none" stroke-dasharray="5,2" d="M1301.67 298.59c81.29 6.32 228.19 18.85 353.08 35.41 7.85 1.04 16.1 2.27 24.23 3.57"/>
            <path fill="#333" d="m1679.53 334.11 9.3 5.07-10.43 1.84z"/>
        </g>
        <g class="node">
            <path fill="#add8e6" stroke="#000" d="M1494.75 452H1340v36h154.75z"/>
            <text x="1413.38" y="-335.99" font-family="Times New Roman,serif" font-size="14" text-anchor="middle" transform="translate(4 811.04)">:server:domain:employee</text>
        </g>
        <g stroke="#333" class="edge">
            <path fill="none" stroke-dasharray="5,2" d="M1290.62 312.33c4.72 2.59 9.27 5.47 13.38 8.67 43.39 33.74 78.62 88.19 97.45 121.09"/>
            <path fill="#333" d="m1404.41 440.21 1.83 10.43-7.94-7.01z"/>
        </g>
        <g class="node">
            <path fill="#add8e6" stroke="#000" d="M921 352H764v36h157z"/>
            <text x="838.5" y="-435.99" font-family="Times New Roman,serif" font-size="14" text-anchor="middle" transform="translate(4 811.04)">:server:data:housekeeping</text>
        </g>
        <g stroke="#666" class="edge">
            <path fill="none" stroke-dasharray="5,2" d="M921.37 365.65c69.8-3.89 171.58-9.57 240.68-13.43"/>
            <path fill="#666" d="m1161.58 348.74 10.18 2.94-9.79 4.05z"/>
        </g>
        <g class="node">
            <path fill="#add8e6" stroke="#000" d="M1115.88 406h-136v36h136z"/>
            <text x="1043.88" y="-381.99" font-family="Times New Roman,serif" font-size="14" text-anchor="middle" transform="translate(4 811.04)">:server:data:employee</text>
        </g>
        <g stroke="#666" class="edge">
            <path fill="none" stroke-dasharray="5,2" d="M912.92 388.43c17.91 4.76 37.3 9.91 55.62 14.77"/>
            <path fill="#666" d="m969.26 399.77 8.76 5.95-10.56.82z"/>
        </g>
        <g class="node">
            <path fill="#add8e6" stroke="#000" d="M1135.75 146H960v36h175.75z"/>
            <text x="1043.88" y="-641.99" font-family="Times New Roman,serif" font-size="14" text-anchor="middle" transform="translate(4 811.04)">:server:domain:housekeeping</text>
        </g>
        <g stroke="#666" class="edge">
            <path fill="none" stroke-dasharray="5,2" d="M856 351.86c19.85-28.09 60.61-83.02 102.5-122.86 15.46-14.7 34.31-28.98 50.62-40.4"/>
            <path fill="#666" d="m1006.92 185.87 10.22-2.78-6.25 8.55z"/>
        </g>
        <g stroke="#333" class="edge">
            <path fill="none" stroke-dasharray="5,2" d="M1303.95 348h375.23"/>
            <path fill="#333" d="m1678.92 344.5 10 3.5-10 3.5z"/>
        </g>
        <g class="node">
            <path fill="#add8e6" stroke="#000" d="M1654.75 656h-124v36h124z"/>
            <text x="1588.75" y="-131.99" font-family="Times New Roman,serif" font-size="14" text-anchor="middle" transform="translate(4 811.04)">:server:domain:user</text>
        </g>
        <g stroke="#333" class="edge">
            <path fill="none" stroke-dasharray="5,2" d="M1639.24 655.65c5.81-3.83 11.22-8.35 15.51-13.65 64.54-79.64 78.79-206.65 81.9-264.07"/>
            <path fill="#333" d="m1733.16 377.8 3.95-9.83 3.04 10.15z"/>
        </g>
        <g class="node">
            <path fill="#add8e6" stroke="#000" d="M517.75 460H342v36h175.75z"/>
            <text x="425.88" y="-327.99" font-family="Times New Roman,serif" font-size="14" text-anchor="middle" transform="translate(4 811.04)">:server:service:imageanalysis</text>
        </g>
        <g stroke="#999" class="edge">
            <path fill="none" stroke-dasharray="5,2" d="M437.5 459.54C468.57 376.56 608.33 42 841.5 42h576.88c116.25 0 158.36 25.81 236.37 112 43.72 48.31 66.64 123.19 76.55 164.36"/>
            <path fill="#999" d="m1734.7 317.5-1.17 10.53-5.65-8.96z"/>
        </g>
        <g class="node">
            <path fill="#add8e6" stroke="#000" d="M922.5 460h-160v36h160z"/>
            <text x="838.5" y="-327.99" font-family="Times New Roman,serif" font-size="14" text-anchor="middle" transform="translate(4 811.04)">:server:data:imageanalysis</text>
        </g>
        <g stroke="#999" class="edge">
            <path fill="none" stroke-dasharray="5,2" d="M518.21 478h232.75"/>
            <path fill="#999" d="m750.77 474.5 10 3.5-10 3.5z"/>
        </g>
        <g class="node">
            <path fill="#add8e6" stroke="#000" d="M726.5 406H553.75v36H726.5z"/>
            <text x="636.12" y="-381.99" font-family="Times New Roman,serif" font-size="14" text-anchor="middle" transform="translate(4 811.04)">:server:service:housekeeping</text>
        </g>
        <g stroke="#999" class="edge">
            <path fill="none" stroke-dasharray="5,2" d="M501.96 459.57c17.75-4.6 36.92-9.57 55.14-14.3"/>
            <path fill="#999" d="m555.98 441.94 10.56.88-8.8 5.9z"/>
        </g>
        <g class="node">
            <path fill="#add8e6" stroke="#000" d="M1075.38 644h-55v36h55z"/>
            <text x="1043.88" y="-143.99" font-family="Times New Roman,serif" font-size="14" text-anchor="middle" transform="translate(4 811.04)">:shared</text>
        </g>
        <g stroke="#999" class="edge">
            <path fill="none" stroke-dasharray="5,2" d="M499.9 496.32c6.19 2.57 12.24 5.45 17.85 8.68 18.82 10.82 16.89 22.71 36 33 10.3 5.55 341.63 86.92 455.29 114.75"/>
            <path fill="#999" d="m1009.61 649.29 8.88 5.77-10.54 1.03z"/>
        </g>
        <g stroke="#999" class="edge">
            <path fill="none" stroke-dasharray="5,2" d="M511.78 496.49C656.87 529.61 947.32 595.76 958.5 597c78.96 8.79 101.11 16.83 178.75 0 90.97-19.72 187.88-71.75 240.18-102.75"/>
            <path fill="#999" d="m1375.61 491.26 10.38-2.13-6.78 8.14z"/>
        </g>
        <g class="node">
            <path fill="#add8e6" stroke="#000" d="M1304 214h-130.75v36H1304z"/>
            <text x="1234.62" y="-573.99" font-family="Times New Roman,serif" font-size="14" text-anchor="middle" transform="translate(4 811.04)">:server:domain:room</text>
        </g>
        <g stroke="#999" class="edge">
            <path fill="none" stroke-dasharray="5,2" d="M449.83 459.64C514.28 398.67 733.5 203.04 958.5 137c76.23-22.37 104.94-29.39 178.75 0 34.09 13.58 63.27 44.83 81.24 67.8"/>
            <path fill="#999" d="m1221.11 202.46 3.24 10.09-8.82-5.86z"/>
        </g>
        <g class="node">
            <path fill="#add8e6" stroke="#000" d="M918.38 674H766.62v36h151.76z"/>
            <text x="838.5" y="-113.99" font-family="Times New Roman,serif" font-size="14" text-anchor="middle" transform="translate(4 811.04)">:server:service:employee</text>
        </g>
        <g stroke="#999" class="edge">
            <path fill="none" stroke-dasharray="5,2" d="M505.15 496.35c4.49 2.52 8.74 5.39 12.6 8.65 27.03 22.83 8.33 48.95 36 71 61.88 49.3 100.02 11.84 172.75 43 29.35 12.58 59.73 32.19 81.89 47.92"/>
            <path fill="#999" d="m810.37 664.04 6.06 8.69-10.16-3.02z"/>
        </g>
        <g stroke="#666" class="edge">
            <path fill="none" stroke-dasharray="5,2" d="M922.85 485.18c61.45 2.23 147.14-2.1 214.4-34.18 35.02-16.7 64.5-51.07 82.27-75.51"/>
            <path fill="#666" d="m1216.47 373.74 8.62-6.15-2.9 10.19z"/>
        </g>
        <g class="node">
            <path fill="#add8e6" stroke="#000" d="M1103.88 238h-112v36h112z"/>
            <text x="1043.88" y="-549.99" font-family="Times New Roman,serif" font-size="14" text-anchor="middle" transform="translate(4 811.04)">:server:data:room</text>
        </g>
        <g stroke="#666" class="edge">
            <path fill="none" stroke-dasharray="5,2" d="M909.16 459.6c4.73-2.52 9.24-5.37 13.34-8.6 3.84-3.02 73.61-113.97 106.94-167.14"/>
            <path fill="#666" d="m1026.32 282.24 8.27-6.61-2.34 10.33z"/>
        </g>
        <g stroke="#666" class="edge">
            <path fill="none" stroke-dasharray="5,2" d="M912.92 459.57c17.91-4.76 37.3-9.9 55.62-14.77"/>
            <path fill="#666" d="m967.46 441.47 10.56.81-8.76 5.95z"/>
        </g>
        <g class="node">
            <path fill="#add8e6" stroke="#000" d="M1137.25 498H958.5v36h178.75z"/>
            <text x="1043.88" y="-289.99" font-family="Times New Roman,serif" font-size="14" text-anchor="middle" transform="translate(4 811.04)">:server:domain:imageanalysis</text>
        </g>
        <g stroke="#666" class="edge">
            <path fill="none" stroke-dasharray="5,2" d="M922.71 492.8c7.98 1.49 16.15 3.02 24.3 4.54"/>
            <path fill="#666" d="m947.42 493.86 9.19 5.27-10.47 1.61z"/>
        </g>
        <g class="node">
            <path fill="#add8e6" stroke="#000" d="M1093.38 552h-91v36h91z"/>
            <text x="1043.88" y="-235.99" font-family="Times New Roman,serif" font-size="14" text-anchor="middle" transform="translate(4 811.04)">:core:network</text>
        </g>
        <g stroke="#666" class="edge">
            <path fill="none" stroke-dasharray="5,2" d="M896.64 496.47c8.91 3.94 17.85 8.47 25.86 13.53 18.35 11.59 17.16 22.23 36 33 10.13 5.79 21.64 10.47 32.93 14.21"/>
            <path fill="#666" d="m992.16 553.77 8.53 6.28-10.59.41z"/>
        </g>
        <g stroke="#999" class="edge">
            <path fill="none" stroke-dasharray="5,2" d="M650.89 405.51C690.08 334.05 843.7 80 1046.88 80h371.5c147.95 0 263.17 171.02 303.54 239.83"/>
            <path fill="#999" d="m1724.82 317.86 1.96 10.41-8.03-6.92z"/>
        </g>
        <g stroke="#999" class="edge">
            <path fill="none" stroke-dasharray="5,2" d="M709.52 405.57c17-4.58 35.35-9.53 52.81-14.23"/>
            <path fill="#999" d="m761.04 388.06 10.57.78-8.75 5.98z"/>
        </g>
        <g stroke="#999" class="edge">
            <path fill="none" stroke-dasharray="5,2" d="M666.59 442.3c24.18 17.05 61.78 42.77 95.91 62.7 68.83 40.19 90.38 42.19 160 81 30.11 16.79 63.4 37.23 87.95 52.68"/>
            <path fill="#999" d="m1012.21 635.65 6.58 8.31-10.32-2.39z"/>
        </g>
        <g class="node">
            <path fill="#add8e6" stroke="#000" d="M895.88 406H789.12v36h106.76z"/>
            <text x="838.5" y="-381.99" font-family="Times New Roman,serif" font-size="14" text-anchor="middle" transform="translate(4 811.04)">:server:data:shift</text>
        </g>
        <g stroke="#999" class="edge">
            <path fill="none" stroke-dasharray="5,2" d="M726.97 424h50.46"/>
            <path fill="#999" d="m777.33 420.5 10 3.5-10 3.5z"/>
        </g>
        <g stroke="#999" class="edge">
            <path fill="none" stroke-dasharray="5,2" d="M664.08 405.7c23.54-18.04 61.79-45.34 98.42-62.7 71.33-33.81 158.89-58.27 217.86-72.49"/>
            <path fill="#999" d="m979.38 267.15 10.54 1.09-8.92 5.72z"/>
        </g>
        <g stroke="#999" class="edge">
            <path fill="none" stroke-dasharray="5,2" d="M654.9 442.42c34.61 46.3 125.39 167.72 166.21 222.31"/>
            <path fill="#999" d="m823.8 662.49 3.19 10.1-8.79-5.91z"/>
        </g>
        <g class="node">
            <path fill="#add8e6" stroke="#000" d="M1100.5 698H995.25v36h105.25z"/>
            <text x="1043.88" y="-89.99" font-family="Times New Roman,serif" font-size="14" text-anchor="middle" transform="translate(4 811.04)">:server:data:user</text>
        </g>
        <g stroke="#666" class="edge">
            <path fill="none" stroke-dasharray="5,2" d="M1100.86 702.55c22.16-5.16 48.38-10.54 72.39-13.55 120.57-15.12 262.09-16.89 345.81-16.3"/>
            <path fill="#666" d="m1519 669.2 9.97 3.59-10.03 3.41z"/>
        </g>
        <g class="node">
            <path fill="#add8e6" stroke="#000" d="M1301.75 698H1175.5v36h126.25z"/>
            <text x="1234.62" y="-89.99" font-family="Times New Roman,serif" font-size="14" text-anchor="middle" transform="translate(4 811.04)">:server:core:firebase</text>
        </g>
        <g stroke="#666" class="edge">
            <path fill="none" stroke-dasharray="5,2" d="M1100.95 716h62.88"/>
            <path fill="#666" d="m1163.81 712.5 10 3.5-10 3.5z"/>
        </g>
        <g stroke="#333" class="edge">
            <path fill="none" stroke-dasharray="5,2" d="M1466.5 451.6c57.08-21.82 152.16-58.17 213.18-81.5"/>
            <path fill="#333" d="m1678.29 366.89 10.59-.3-8.09 6.84z"/>
        </g>
        <g stroke="#333" class="edge">
            <path fill="none" stroke-dasharray="5,2" d="M1434.07 488.46c30.75 36.19 99.05 116.56 134.83 158.65"/>
            <path fill="#333" d="m1571.43 644.69 3.81 9.88-9.14-5.35z"/>
        </g>
        <g stroke="#666" class="edge">
            <path fill="none" stroke-dasharray="5,2" d="M896.09 409.05c9.06-3.42 18.2-7.43 26.41-12.05 18.16-10.2 17.48-20.47 36-30 65.35-33.63 147.47-52.69 205.68-62.83"/>
            <path fill="#666" d="m1163.56 300.72 10.44 1.79-9.28 5.12z"/>
        </g>
        <g stroke="#666" class="edge">
            <path fill="none" stroke-dasharray="5,2" d="M896.32 410.94c19.49-4.65 41.79-9.76 62.18-13.94 68.54-14.05 147.06-27.61 203.33-36.89"/>
            <path fill="#666" d="m1161.2 356.67 10.43 1.83-9.3 5.07z"/>
        </g>
        <g stroke="#666" class="edge">
            <path fill="none" stroke-dasharray="5,2" d="M896.14 424h72.03"/>
            <path fill="#666" d="m967.96 420.5 10 3.5-10 3.5z"/>
        </g>
        <g class="node">
            <path fill="#add8e6" stroke="#000" d="M497.88 514h-136v36h136z"/>
            <text x="425.88" y="-273.99" font-family="Times New Roman,serif" font-size="14" text-anchor="middle" transform="translate(4 811.04)">:server:core:controller</text>
        </g>
        <g stroke="#ccc" class="edge">
            <path fill="none" stroke-dasharray="5,2" d="M279.73 532h70.42"/>
            <path fill="#ccc" d="m350.15 528.5 10 3.5-10 3.5z"/>
        </g>
        <g class="node">
            <path fill="#add8e6" stroke="#000" d="M701.38 628h-122.5v36h122.5z"/>
            <text x="636.12" y="-159.99" font-family="Times New Roman,serif" font-size="14" text-anchor="middle" transform="translate(4 811.04)">:server:service:shift</text>
        </g>
        <g stroke="#ccc" class="edge">
            <path fill="none" stroke-dasharray="5,2" d="M279.5 544.14c9.54 3.71 18.72 8.55 26.5 14.86 26.55 21.55 7.28 49.44 36 68 66.95 43.28 161.09 41.31 225.34 32.9"/>
            <path fill="#ccc" d="m566.69 656.45 10.39 2.08-9.42 4.86z"/>
        </g>
        <g stroke="#666" class="edge">
            <path fill="none" stroke-dasharray="5,2" d="M1082.27 274.44c24.83 13.46 59.67 31.84 90.98 46.56 2.88 1.35 5.84 2.71 8.85 4.06"/>
            <path fill="#666" d="m1183.26 321.75 7.75 7.24-10.57-.83z"/>
        </g>
        <g stroke="#666" class="edge">
            <path fill="none" stroke-dasharray="5,2" d="M1104.23 248.96c18.01-2.29 38.31-4.87 57.55-7.31"/>
            <path fill="#666" d="m1161.09 238.2 10.36 2.21-9.48 4.74z"/>
        </g>
        <g stroke="#666" class="edge">
            <path fill="none" stroke-dasharray="5,2" d="M1101.43 405.61c11.84-4.32 24.3-9.01 35.82-13.61 16.38-6.55 34.05-14.12 49.94-21.12"/>
            <path fill="#666" d="m1185.4 367.85 10.56-.86-7.72 7.26z"/>
        </g>
        <g stroke="#666" class="edge">
            <path fill="none" stroke-dasharray="5,2" d="M1116.28 432.44c59.65 7.46 147.08 18.41 212.2 26.56"/>
            <path fill="#666" d="m1328.56 455.48 9.49 4.72-10.36 2.23z"/>
        </g>
        <g stroke="#ccc" class="edge">
            <path fill="none" stroke-dasharray="5,2" d="M306.49 478h23.6"/>
            <path fill="#ccc" d="m330.01 474.5 10 3.5-10 3.5z"/>
        </g>
        <g stroke="#ccc" class="edge">
            <path fill="none" stroke-dasharray="5,2" d="m286.03 496.43 64.53 16.07"/>
            <path fill="#ccc" d="m351.4 509.1 8.86 5.82-10.55.98z"/>
        </g>
        <g stroke="#ccc" class="edge">
            <path fill="none" stroke-dasharray="5,2" d="M478.8 581.52c13.23-6.18 27.18-13.76 38.95-22.52 41.75-31.07 80.14-78.23 102.14-107.79"/>
            <path fill="#ccc" d="m616.81 449.49 8.73-6-3.09 10.14z"/>
        </g>
        <g stroke="#ccc" class="edge">
            <path fill="none" stroke-dasharray="5,2" d="M498.49 614.94c22.04 4.87 46.59 10.29 68.93 15.22"/>
            <path fill="#ccc" d="m568.04 626.71 9.01 5.58-10.52 1.26z"/>
        </g>
        <g stroke="#999" class="edge">
            <path fill="none" stroke-dasharray="5,2" d="M667.03 664.35c23.87 16.22 60.73 39.57 95.47 54.65 120.55 52.32 152.96 81 284.38 81h371.5c106.07 0 159.28 39.87 236.37-33 56.81-53.7 76.17-303.19 81.24-389.52"/>
            <path fill="#999" d="m1732.48 377.5 4.06-9.79 2.93 10.18z"/>
        </g>
        <g stroke="#999" class="edge">
            <path fill="none" stroke-dasharray="5,2" d="M701.87 648.4c84.85 3.34 236.35 9.32 306.9 12.1"/>
            <path fill="#999" d="m1008.81 657 9.85 3.89-10.13 3.1z"/>
        </g>
        <g stroke="#999" class="edge">
            <path fill="none" stroke-dasharray="5,2" d="M647.58 627.78c14.5-38.32 53.27-127.77 114.92-176.78 4.82-3.83 10.22-7.14 15.87-9.98"/>
            <path fill="#999" d="m776.8 437.88 10.56-.89-7.7 7.28z"/>
        </g>
        <g stroke="#999" class="edge">
            <path fill="none" stroke-dasharray="5,2" d="M701.79 659.93c16.79 3.85 35.34 8.11 53.29 12.23"/>
            <path fill="#999" d="m755.72 668.72 8.96 5.65-10.53 1.17z"/>
        </g>
        <g stroke="#333" class="edge">
            <path fill="none" stroke-dasharray="5,2" d="M1304.28 240.37c82.53 11.65 229.15 35.58 350.47 72.63 10.96 3.35 22.45 7.66 33.26 12.11"/>
            <path fill="#333" d="m1689.31 321.85 7.85 7.12-10.57-.67z"/>
        </g>
        <g stroke="#ccc" class="edge">
            <path fill="none" stroke-dasharray="5,2" d="M282.05 424h260.06"/>
            <path fill="#ccc" d="m542.05 420.5 10 3.5-10 3.5z"/>
        </g>
        <g stroke="#ccc" class="edge">
            <path fill="none" stroke-dasharray="5,2" d="M282.36 438.18c8.4 3.4 16.51 7.61 23.64 12.82 23.29 17.02 12.9 36.73 36 54a90 90 0 0 0 9.42 6.14"/>
            <path fill="#ccc" d="m352.9 507.97 7.35 7.63-10.51-1.38z"/>
        </g>
        <g stroke="#333" class="edge">
            <path fill="none" stroke-dasharray="5,2" d="M1137.7 521.6c90.9 3.56 235.64 3.17 357.05-24.6 75.49-17.27 95.56-26.05 160-69 22.37-14.91 44.09-36.24 59.65-53.13"/>
            <path fill="#333" d="m1711.64 372.7 9.3-5.08-4.1 9.77z"/>
        </g>
        <g stroke="#333" class="edge">
            <path fill="none" stroke-dasharray="5,2" d="M1137.37 504.92c57.84-7.24 133.09-16.66 190.86-23.89"/>
            <path fill="#333" d="m1327.68 477.57 10.36 2.24-9.49 4.71z"/>
        </g>
        <g stroke="#333" class="edge">
            <path fill="none" stroke-dasharray="5,2" d="M1085.49 497.62c18.33-11.05 39.22-26.83 51.76-46.62 44.61-70.38-13.29-116.82 36-184 2.63-3.59 5.75-6.85 9.17-9.81"/>
            <path fill="#333" d="m1180.12 254.54 10.1-3.18-5.91 8.79z"/>
        </g>
        <g stroke="#999" class="edge">
            <path fill="none" stroke-dasharray="5,2" d="M876.61 710.41c22.4 11.51 53.06 25.45 81.89 32.59 120.7 29.88 154.78 19 279.12 19h180.76c108.49 0 160.51 16.57 236.37-61 45.43-46.45 71.4-247.57 79.76-323.67"/>
            <path fill="#999" d="m1730.99 377.31 4.54-9.57 2.42 10.31z"/>
        </g>
        <g stroke="#999" class="edge">
            <path fill="none" stroke-dasharray="5,2" d="M918.65 680.91c30.67-4.52 64.81-9.55 90.14-13.29"/>
            <path fill="#999" d="m1008.22 664.17 10.4 2-9.38 4.92z"/>
        </g>
        <g stroke="#999" class="edge">
            <path fill="none" stroke-dasharray="5,2" d="M918.65 700.87c21.39 2.52 44.46 5.25 65.05 7.68"/>
            <path fill="#999" d="m983.84 705.04 9.52 4.65-10.34 2.3z"/>
        </g>
        <g stroke="#999" class="edge">
            <path fill="none" stroke-dasharray="5,2" d="M850.8 673.56c15.58-37.74 54.99-125.19 107.7-184.56 13.74-15.48 31.74-29.53 47.91-40.57"/>
            <path fill="#999" d="m1004.14 445.73 10.27-2.61-6.4 8.44z"/>
        </g>
        <g stroke="#333" class="edge">
            <path fill="none" stroke-dasharray="5,2" d="M1115.88 182.39c7.66 3.76 15 8.25 21.37 13.61 24.68 20.76 12.96 40.44 36 63 3.89 3.81 8.27 7.32 12.88 10.52"/>
            <path fill="#333" d="m1187.97 266.55 6.56 8.32-10.32-2.42z"/>
        </g>
        <g stroke="#333" class="edge">
            <path fill="none" stroke-dasharray="5,2" d="M1136.25 167.37c121.81 7.68 347.01 32.89 518.5 115.63 20.49 9.89 40.63 25.54 55.91 39.01"/>
            <path fill="#333" d="m1712.89 319.3 5.05 9.31-9.76-4.13z"/>
        </g>
        <g stroke="#333" class="edge">
            <path fill="none" stroke-dasharray="5,2" d="M1099.95 182.4c23.4 8.43 51.33 18.49 75.9 27.34"/>
            <path fill="#333" d="m1176.86 206.39 8.22 6.68-10.59-.1z"/>
        </g>
        <g stroke="#ccc" class="edge">
            <path fill="none" stroke-dasharray="5,2" d="m286.03 567.57 64.53-16.07"/>
            <path fill="#ccc" d="m349.71 548.1 10.55.98-8.86 5.82z"/>
        </g>
        <g stroke="#ccc" class="edge">
            <path fill="none" stroke-dasharray="5,2" d="M232.76 604.22C257.04 624.28 299.37 655.48 342 669c139.24 44.16 311.23 40.21 412.77 32.31"/>
            <path fill="#ccc" d="m754.43 697.82 10.25 2.68-9.68 4.3z"/>
        </g>
        <g stroke="#333" class="edge">
            <path fill="none" stroke-dasharray="5,2" d="M1093.5 577.45c107.74 15.41 386.07 39.7 561.25-85.45 39.46-28.19 62.78-81.48 74.15-114.73"/>
            <path fill="#333" d="m1725.54 376.28 6.41-8.43.24 10.6z"/>
        </g>
    </g>
</svg>
