<svg xmlns="http://www.w3.org/2000/svg" width="448" height="152pt" viewBox="0 0 335.75 152">
    <g class="graph">
        <path fill="#fff" d="M0 152V0h335.75v152z"/>
        <g class="node">
            <path fill="#90ee90" stroke="#000" d="M73.25 58H4v36h69.25z"/>
            <text x="34.62" y="-66.95" font-family="Times New Roman,serif" font-size="14" text-anchor="middle" transform="translate(4 148)">:data:auth</text>
        </g>
        <g class="node">
            <path fill="#add8e6" stroke="#000" d="M200.25 4h-91v36h91z"/>
            <text x="150.75" y="-120.95" font-family="Times New Roman,serif" font-size="14" text-anchor="middle" transform="translate(4 148)">:core:network</text>
        </g>
        <g stroke="#000" class="edge">
            <path fill="none" d="M73.56 59.94c9.75-4.61 20.6-9.74 31.08-14.7"/>
            <path d="m103.04 42.12 10.53-1.11-7.54 7.44z"/>
        </g>
        <g class="node">
            <path fill="#add8e6" stroke="#000" d="M198.75 58h-88v36h88z"/>
            <text x="150.75" y="-66.95" font-family="Times New Roman,serif" font-size="14" text-anchor="middle" transform="translate(4 148)">:domain:auth</text>
        </g>
        <g stroke="#000" class="edge">
            <path fill="none" d="M73.56 76h25.52"/>
            <path d="m98.9 72.5 10 3.5-10 3.5z"/>
        </g>
        <g class="node">
            <path fill="#add8e6" stroke="#000" d="M182.25 112h-55v36h55z"/>
            <text x="150.75" y="-12.95" font-family="Times New Roman,serif" font-size="14" text-anchor="middle" transform="translate(4 148)">:shared</text>
        </g>
        <g stroke="#000" class="edge">
            <path fill="none" d="M73.56 92.06c13.61 6.44 29.34 13.88 43.24 20.46"/>
            <path d="m118.1 109.26 7.54 7.44-10.54-1.11z"/>
        </g>
        <g class="node">
            <path fill="#add8e6" stroke="#000" d="M331.75 31h-95.5v36h95.5z"/>
            <text x="280" y="-93.95" font-family="Times New Roman,serif" font-size="14" text-anchor="middle" transform="translate(4 148)">:core:common</text>
        </g>
        <g stroke="#ccc" class="edge">
            <path fill="none" stroke-dasharray="5,2" d="m200.61 31.52 24.33 5.16"/>
            <path fill="#ccc" d="m225.42 33.2 9.06 5.5-10.51 1.35z"/>
        </g>
        <g stroke="#ccc" class="edge">
            <path fill="none" stroke-dasharray="5,2" d="M199.19 66.78c8.21-1.74 16.92-3.59 25.5-5.41"/>
            <path fill="#ccc" d="m223.85 57.97 10.51 1.35-9.06 5.5z"/>
        </g>
    </g>
</svg>
