<svg xmlns="http://www.w3.org/2000/svg" width="673pt" height="180" viewBox="0 0 672.75 134.78">
    <g class="graph">
        <path fill="#fff" d="M0 134.78V0h672.75v134.78z"/>
        <g class="node">
            <path fill="#90ee90" stroke="#000" d="M179.75 18.78H4v36h175.75z"/>
            <text x="87.88" y="-88.95" font-family="Times New Roman,serif" font-size="14" text-anchor="middle" transform="translate(4 130.78)">:server:domain:housekeeping</text>
        </g>
        <g class="node">
            <path fill="#add8e6" stroke="#000" d="M668.75 10.78h-95.5v36h95.5z"/>
            <text x="617" y="-96.95" font-family="Times New Roman,serif" font-size="14" text-anchor="middle" transform="translate(4 130.78)">:core:common</text>
        </g>
        <g stroke="#000" class="edge">
            <path fill="none" d="M164.56 18.3c16.69-3.54 34.47-6.7 51.19-8.52 122.66-13.32 267.27.58 345.99 10.62"/>
            <path d="m561.9 16.89 9.46 4.76-10.37 2.18z"/>
        </g>
        <g class="node">
            <path fill="#add8e6" stroke="#000" d="M346.5 18.78H215.75v36H346.5z"/>
            <text x="277.12" y="-88.95" font-family="Times New Roman,serif" font-size="14" text-anchor="middle" transform="translate(4 130.78)">:server:domain:room</text>
        </g>
        <g stroke="#000" class="edge">
            <path fill="none" d="M180.2 36.78h23.78"/>
            <path d="m203.8 33.28 10 3.5-10 3.5z"/>
        </g>
        <g class="node">
            <path fill="#add8e6" stroke="#000" d="M343.88 72.78h-125.5v36h125.5z"/>
            <text x="277.12" y="-34.95" font-family="Times New Roman,serif" font-size="14" text-anchor="middle" transform="translate(4 130.78)">:server:domain:shift</text>
        </g>
        <g stroke="#000" class="edge">
            <path fill="none" d="M156.79 55.21c16.25 4.69 33.84 9.76 50.5 14.57"/>
            <path d="m207.99 66.33 8.63 6.14-10.57.59z"/>
        </g>
        <g stroke="#ccc" class="edge">
            <path fill="none" stroke-dasharray="5,2" d="M346.87 35.25c62.11-1.47 155.03-3.67 214.87-5.09"/>
            <path fill="#ccc" d="m561.29 26.67 10.08 3.26-9.92 3.74z"/>
        </g>
        <g stroke="#ccc" class="edge">
            <path fill="none" stroke-dasharray="5,2" d="M344.1 79.41c62.01-11.38 156.7-28.76 217.44-39.9"/>
            <path fill="#ccc" d="m560.89 36.07 10.47 1.64-9.21 5.24z"/>
        </g>
        <g class="node">
            <path fill="#add8e6" stroke="#000" d="M537.25 94.78H382.5v36h154.75z"/>
            <text x="455.88" y="-12.95" font-family="Times New Roman,serif" font-size="14" text-anchor="middle" transform="translate(4 130.78)">:server:domain:employee</text>
        </g>
        <g stroke="#ccc" class="edge">
            <path fill="none" stroke-dasharray="5,2" d="M343.94 98.47c8.78 1.1 17.94 2.24 27.09 3.38"/>
            <path fill="#ccc" d="m371.18 98.34 9.49 4.71-10.36 2.23z"/>
        </g>
        <g stroke="#999" class="edge">
            <path fill="none" stroke-dasharray="5,2" d="M508.29 94.34c9.71-4.17 19.77-8.79 28.96-13.56 15.66-8.13 32.25-18.24 46.44-27.37"/>
            <path fill="#999" d="m581.53 50.64 10.28-2.54-6.46 8.4z"/>
        </g>
    </g>
</svg>
