<svg xmlns="http://www.w3.org/2000/svg" width="940pt" height="232pt" viewBox="0 0 940.25 232">
    <g class="graph">
        <path fill="#fff" d="M0 232V0h940.25v232z"/>
        <g class="node">
            <path fill="#90ee90" stroke="#000" d="M140.75 146H4v36h136.75z"/>
            <text x="68.38" y="-58.95" font-family="Times New Roman,serif" font-size="14" text-anchor="middle" transform="translate(4 228)">:server:controller:shift</text>
        </g>
        <g class="node">
            <path fill="#add8e6" stroke="#000" d="M299.25 146h-122.5v36h122.5z"/>
            <text x="234" y="-58.95" font-family="Times New Roman,serif" font-size="14" text-anchor="middle" transform="translate(4 228)">:server:service:shift</text>
        </g>
        <g stroke="#000" class="edge">
            <path fill="none" d="M140.87 164h24.3"/>
            <path d="m164.95 160.5 10 3.5-10 3.5z"/>
        </g>
        <g class="node">
            <path fill="#add8e6" stroke="#000" d="M608.75 4h-125.5v36h125.5z"/>
            <text x="542" y="-200.95" font-family="Times New Roman,serif" font-size="14" text-anchor="middle" transform="translate(4 228)">:server:domain:shift</text>
        </g>
        <g class="node">
            <path fill="#add8e6" stroke="#000" d="M804.75 46H650v36h154.75z"/>
            <text x="723.38" y="-158.95" font-family="Times New Roman,serif" font-size="14" text-anchor="middle" transform="translate(4 228)">:server:domain:employee</text>
        </g>
        <g stroke="#666" class="edge">
            <path fill="none" stroke-dasharray="5,2" d="M609.23 36.57c9.49 2.22 19.42 4.55 29.33 6.87"/>
            <path fill="#666" d="m639.29 40.02 8.94 5.68-10.53 1.13z"/>
        </g>
        <g class="node">
            <path fill="#add8e6" stroke="#000" d="M936.25 100h-95.5v36h95.5z"/>
            <text x="884.5" y="-104.95" font-family="Times New Roman,serif" font-size="14" text-anchor="middle" transform="translate(4 228)">:core:common</text>
        </g>
        <g stroke="#666" class="edge">
            <path fill="none" stroke-dasharray="5,2" d="M609.2 13.77C663.26 9.32 742.44 9.44 804.75 37c25.95 11.48 48.44 34.92 63.4 53.65"/>
            <path fill="#666" d="m870.83 88.39 3.31 10.07-8.86-5.8z"/>
        </g>
        <g stroke="#333" class="edge">
            <path fill="none" stroke-dasharray="5,2" d="M782.69 82.43c15.07 5.12 31.49 10.69 46.76 15.87"/>
            <path fill="#333" d="m830.56 94.98 8.34 6.53-10.59.1z"/>
        </g>
        <g class="node">
            <path fill="#add8e6" stroke="#000" d="M442 100H335.25v36H442z"/>
            <text x="384.62" y="-104.95" font-family="Times New Roman,serif" font-size="14" text-anchor="middle" transform="translate(4 228)">:server:data:shift</text>
        </g>
        <g stroke="#ccc" class="edge">
            <path fill="none" stroke-dasharray="5,2" d="M298.6 145.56c8.51-2.64 17.3-5.36 25.88-8.02"/>
            <path fill="#ccc" d="m323.18 134.28 10.58.39-8.51 6.3z"/>
        </g>
        <g stroke="#ccc" class="edge">
            <path fill="none" stroke-dasharray="5,2" d="M299.45 167.5c104.11 4.8 323.59 9.53 505.3-22.5 8.08-1.42 16.46-3.46 24.64-5.78"/>
            <path fill="#ccc" d="m828.35 135.87 10.59.47-8.56 6.24z"/>
        </g>
        <g class="node">
            <path fill="#add8e6" stroke="#000" d="M416.12 192h-55v36h55z"/>
            <text x="384.62" y="-12.95" font-family="Times New Roman,serif" font-size="14" text-anchor="middle" transform="translate(4 228)">:shared</text>
        </g>
        <g stroke="#ccc" class="edge">
            <path fill="none" stroke-dasharray="5,2" d="M298.6 182.44c17.41 5.4 35.95 11.13 51.58 15.97"/>
            <path fill="#ccc" d="m351.02 195.01 8.52 6.3-10.59.38z"/>
        </g>
        <g stroke="#999" class="edge">
            <path fill="none" stroke-dasharray="5,2" d="M409.87 99.51c17.19-15.03 43-36.02 68.13-50.51 2.16-1.25 4.39-2.46 6.67-3.65"/>
            <path fill="#999" d="m482.98 42.28 10.53-1.23-7.46 7.53z"/>
        </g>
        <g class="node">
            <path fill="#add8e6" stroke="#000" d="M792.38 100h-130v36h130z"/>
            <text x="723.38" y="-104.95" font-family="Times New Roman,serif" font-size="14" text-anchor="middle" transform="translate(4 228)">:server:core:database</text>
        </g>
        <g stroke="#999" class="edge">
            <path fill="none" stroke-dasharray="5,2" d="M442.24 118H650.9"/>
            <path fill="#999" d="m650.53 114.5 10 3.5-10 3.5z"/>
        </g>
        <g class="node">
            <path fill="#add8e6" stroke="#000" d="M614 58H478v36h136z"/>
            <text x="542" y="-146.95" font-family="Times New Roman,serif" font-size="14" text-anchor="middle" transform="translate(4 228)">:server:data:employee</text>
        </g>
        <g stroke="#999" class="edge">
            <path fill="none" stroke-dasharray="5,2" d="M442.23 103.78c7.89-2.13 16.18-4.37 24.47-6.61"/>
            <path fill="#999" d="m465.55 93.85 10.57.77-8.74 5.99z"/>
        </g>
        <g stroke="#666" class="edge">
            <path fill="none" stroke-dasharray="5,2" d="M792.64 118h36.76"/>
            <path fill="#666" d="m829.1 114.5 10 3.5-10 3.5z"/>
        </g>
        <g stroke="#666" class="edge">
            <path fill="none" stroke-dasharray="5,2" d="M614.3 71.5c7.84-.53 15.92-1.07 23.99-1.61"/>
            <path fill="#666" d="m637.93 66.41 10.21 2.82-9.74 4.16z"/>
        </g>
        <g stroke="#666" class="edge">
            <path fill="none" stroke-dasharray="5,2" d="M614.3 91.76c11.95 2.8 24.47 5.73 36.63 8.57"/>
            <path fill="#666" d="m651.55 96.89 8.94 5.68-10.53 1.13z"/>
        </g>
    </g>
</svg>
