<svg xmlns="http://www.w3.org/2000/svg" width="644pt" height="136pt" viewBox="0 0 643.5 136">
    <g class="graph">
        <path fill="#fff" d="M0 136V0h643.5v136z"/>
        <g class="node">
            <path fill="#90ee90" stroke="#000" d="M170 50H4v36h166z"/>
            <text x="83" y="-58.95" font-family="Times New Roman,serif" font-size="14" text-anchor="middle" transform="translate(4 132)">:server:controller:employee</text>
        </g>
        <g class="node">
            <path fill="#add8e6" stroke="#000" d="M342 50H206v36h136z"/>
            <text x="270" y="-58.95" font-family="Times New Roman,serif" font-size="14" text-anchor="middle" transform="translate(4 132)">:server:data:employee</text>
        </g>
        <g stroke="#000" class="edge">
            <path fill="none" d="M170.49 68h23.76"/>
            <path d="m194.13 64.5 10 3.5-10 3.5z"/>
        </g>
        <g class="node">
            <path fill="#add8e6" stroke="#000" d="M639.5 4H544v36h95.5z"/>
            <text x="587.75" y="-104.95" font-family="Times New Roman,serif" font-size="14" text-anchor="middle" transform="translate(4 132)">:core:common</text>
        </g>
        <g stroke="#ccc" class="edge">
            <path fill="none" stroke-dasharray="5,2" d="M338.64 49.54c12.94-3.25 26.52-6.3 39.36-8.54 51.7-9.02 111.26-13.87 154.19-16.41"/>
            <path fill="#ccc" d="m531.86 21.1 10.18 2.93-9.78 4.06z"/>
        </g>
        <g class="node">
            <path fill="#add8e6" stroke="#000" d="M619.25 96h-55v36h55z"/>
            <text x="587.75" y="-12.95" font-family="Times New Roman,serif" font-size="14" text-anchor="middle" transform="translate(4 132)">:shared</text>
        </g>
        <g stroke="#ccc" class="edge">
            <path fill="none" stroke-dasharray="5,2" d="M338.64 86.46c12.94 3.25 26.52 6.3 39.36 8.54 60.61 10.57 132.01 15.42 174.76 17.53"/>
            <path fill="#ccc" d="m552.69 109.02 9.83 3.96-10.15 3.03z"/>
        </g>
        <g class="node">
            <path fill="#add8e6" stroke="#000" d="M508 50H378v36h130z"/>
            <text x="439" y="-58.95" font-family="Times New Roman,serif" font-size="14" text-anchor="middle" transform="translate(4 132)">:server:core:database</text>
        </g>
        <g stroke="#ccc" class="edge">
            <path fill="none" stroke-dasharray="5,2" d="M342.44 68h23.66"/>
            <path fill="#ccc" d="m366.04 64.5 10 3.5-10 3.5z"/>
        </g>
        <g stroke="#999" class="edge">
            <path fill="none" stroke-dasharray="5,2" d="M502.84 49.56c9.85-3.09 20.07-6.29 29.89-9.37"/>
            <path fill="#999" d="m531.59 36.88 10.59.34-8.49 6.33z"/>
        </g>
        <g stroke="#999" class="edge">
            <path fill="none" stroke-dasharray="5,2" d="M502.84 86.44c17.07 5.36 35.23 11.05 50.59 15.86"/>
            <path fill="#999" d="m554.12 98.85 8.5 6.33-10.59.35z"/>
        </g>
    </g>
</svg>
