<svg xmlns="http://www.w3.org/2000/svg" width="641pt" height="376" viewBox="0 0 640.75 282">
    <g class="graph">
        <path fill="#fff" d="M0 282V0h640.75v282z"/>
        <g class="node">
            <path fill="#90ee90" stroke="#000" d="M89 134H4v36h85z"/>
            <text x="42.5" y="-120.95" font-family="Times New Roman,serif" font-size="14" text-anchor="middle" transform="translate(4 278)">:feature:shift</text>
        </g>
        <g class="node">
            <path fill="#add8e6" stroke="#000" d="M220.88 26h-92.5v36h92.5z"/>
            <text x="170.62" y="-228.95" font-family="Times New Roman,serif" font-size="14" text-anchor="middle" transform="translate(4 278)">:core:resource</text>
        </g>
        <g stroke="#000" class="edge">
            <path fill="none" d="M62.17 133.74C76.84 116.24 100.65 89.79 125 71c.97-.75 1.97-1.5 2.99-2.23"/>
            <path d="m126 65.89 10.26-2.63-6.38 8.46z"/>
        </g>
        <g class="node">
            <path fill="#add8e6" stroke="#000" d="M209.25 80H140v36h69.25z"/>
            <text x="170.62" y="-174.95" font-family="Times New Roman,serif" font-size="14" text-anchor="middle" transform="translate(4 278)">:data:auth</text>
        </g>
        <g stroke="#000" class="edge">
            <path fill="none" d="M89.5 134.02c12.76-5.47 26.83-11.49 39.74-17.02"/>
            <path d="m127.81 113.81 10.57-.72-7.82 7.15z"/>
        </g>
        <g class="node">
            <path fill="#add8e6" stroke="#000" d="M209.62 188h-70v36h70z"/>
            <text x="170.62" y="-66.95" font-family="Times New Roman,serif" font-size="14" text-anchor="middle" transform="translate(4 278)">:data:shift</text>
        </g>
        <g stroke="#000" class="edge">
            <path fill="none" d="M89.5 169.98c12.65 5.42 26.58 11.38 39.4 16.87"/>
            <path d="m130.15 183.58 7.82 7.15-10.57-.71z"/>
        </g>
        <g class="node">
            <path fill="#add8e6" stroke="#000" d="M224.25 134H125v36h99.25z"/>
            <text x="170.62" y="-120.95" font-family="Times New Roman,serif" font-size="14" text-anchor="middle" transform="translate(4 278)">:data:employee</text>
        </g>
        <g stroke="#000" class="edge">
            <path fill="none" d="M89.5 152h23.97"/>
            <path d="m113.31 148.5 10 3.5-10 3.5z"/>
        </g>
        <g class="node">
            <path fill="#add8e6" stroke="#000" d="M203.25 242H146v36h57.25z"/>
            <text x="170.62" y="-12.95" font-family="Times New Roman,serif" font-size="14" text-anchor="middle" transform="translate(4 278)">:core:ui</text>
        </g>
        <g stroke="#000" class="edge">
            <path fill="none" d="M62.17 170.26c14.67 17.5 38.48 43.95 62.83 62.74 3.47 2.68 7.24 5.25 11.09 7.68"/>
            <path d="m137.59 237.5 6.82 8.11-10.39-2.08z"/>
        </g>
        <g class="node">
            <path fill="#add8e6" stroke="#000" d="M333.25 134h-55v36h55z"/>
            <text x="301.75" y="-120.95" font-family="Times New Roman,serif" font-size="14" text-anchor="middle" transform="translate(4 278)">:shared</text>
        </g>
        <g stroke="#ccc" class="edge">
            <path fill="none" stroke-dasharray="5,2" d="M209.55 112.19c17.78 7.43 39.6 16.56 57.86 24.19"/>
            <path fill="#ccc" d="m268.7 133.13 7.87 7.09-10.57-.63z"/>
        </g>
        <g class="node">
            <path fill="#add8e6" stroke="#000" d="M351.25 188h-91v36h91z"/>
            <text x="301.75" y="-66.95" font-family="Times New Roman,serif" font-size="14" text-anchor="middle" transform="translate(4 278)">:core:network</text>
        </g>
        <g stroke="#ccc" class="edge">
            <path fill="none" stroke-dasharray="5,2" d="M209.75 114.18c5.14 3.2 10.17 6.83 14.5 10.82 21.21 19.55 15.17 34.04 36 54 .61.59 1.24 1.17 1.88 1.74"/>
            <path fill="#ccc" d="m264.15 177.88 5.68 8.94-10.02-3.45z"/>
        </g>
        <g class="node">
            <path fill="#add8e6" stroke="#000" d="M349.75 4h-88v36h88z"/>
            <text x="301.75" y="-250.95" font-family="Times New Roman,serif" font-size="14" text-anchor="middle" transform="translate(4 278)">:domain:auth</text>
        </g>
        <g stroke="#ccc" class="edge">
            <path fill="none" stroke-dasharray="5,2" d="M209.21 79.58c5.06-2.84 10.2-5.76 15.04-8.58 13.52-7.87 28.18-16.69 41.23-24.66"/>
            <path fill="#ccc" d="m263.46 43.47 10.35-2.24-6.7 8.21z"/>
        </g>
        <g class="node">
            <path fill="#add8e6" stroke="#000" d="M505.25 69h-118v36h118z"/>
            <text x="442.25" y="-185.95" font-family="Times New Roman,serif" font-size="14" text-anchor="middle" transform="translate(4 278)">:domain:employee</text>
        </g>
        <g stroke="#ccc" class="edge">
            <path fill="none" stroke-dasharray="5,2" d="M209.37 95.27c15.49-1.17 34.11-2.45 50.88-3.27 38.06-1.86 80.56-3.07 115.22-3.83"/>
            <path fill="#ccc" d="m375.32 84.67 10.07 3.29-9.93 3.71z"/>
        </g>
        <g stroke="#ccc" class="edge">
            <path fill="none" stroke-dasharray="5,2" d="M209.89 191.67c17.78-7.43 39.52-16.53 57.7-24.13"/>
            <path fill="#ccc" d="m266.14 164.35 10.57-.62-7.87 7.08z"/>
        </g>
        <g stroke="#ccc" class="edge">
            <path fill="none" stroke-dasharray="5,2" d="M209.89 206h38.78"/>
            <path fill="#ccc" d="m248.58 202.5 10 3.5-10 3.5z"/>
        </g>
        <g class="node">
            <path fill="#add8e6" stroke="#000" d="M350.12 242h-88.74v36h88.74z"/>
            <text x="301.75" y="-12.95" font-family="Times New Roman,serif" font-size="14" text-anchor="middle" transform="translate(4 278)">:domain:shift</text>
        </g>
        <g stroke="#ccc" class="edge">
            <path fill="none" stroke-dasharray="5,2" d="M209.89 220.33c12.5 5.23 26.97 11.28 40.77 17.05"/>
            <path fill="#ccc" d="m251.78 234.05 7.87 7.09-10.57-.63z"/>
        </g>
        <g class="node">
            <path fill="#add8e6" stroke="#000" d="M636.75 109h-95.5v36h95.5z"/>
            <text x="585" y="-145.95" font-family="Times New Roman,serif" font-size="14" text-anchor="middle" transform="translate(4 278)">:core:common</text>
        </g>
        <g stroke="#999" class="edge">
            <path fill="none" stroke-dasharray="5,2" d="M351.63 193.39c48.36-13.58 125.48-35.24 178.4-50.11"/>
            <path fill="#999" d="m528.91 139.96 10.57.67-8.68 6.07z"/>
        </g>
        <g stroke="#999" class="edge">
            <path fill="none" stroke-dasharray="5,2" d="M346.07 40.45c15.35 7.21 33.13 15.55 49.36 23.17"/>
            <path fill="#999" d="m396.9 60.44 7.56 7.42-10.54-1.08z"/>
        </g>
        <g stroke="#999" class="edge">
            <path fill="none" stroke-dasharray="5,2" d="M350.04 24.21C391.55 27.7 455.13 36.72 505.25 60c21.5 9.99 42.23 26.78 57.56 41.06"/>
            <path fill="#999" d="m564.86 98.18 4.79 9.44-9.64-4.39z"/>
        </g>
        <g stroke="#999" class="edge">
            <path fill="none" stroke-dasharray="5,2" d="M505.72 103.62c8.1 2.3 16.42 4.66 24.5 6.96"/>
            <path fill="#999" d="m530.95 107.15 8.66 6.1-10.57.63z"/>
        </g>
        <g stroke="#ccc" class="edge">
            <path fill="none" stroke-dasharray="5,2" d="M224.44 152h42.39"/>
            <path fill="#ccc" d="m266.43 148.5 10 3.5-10 3.5z"/>
        </g>
        <g stroke="#ccc" class="edge">
            <path fill="none" stroke-dasharray="5,2" d="M219.7 170.43c9.87 4.13 20.45 8.55 30.68 12.83"/>
            <path fill="#ccc" d="m251.6 179.98 7.88 7.09-10.58-.63z"/>
        </g>
        <g stroke="#ccc" class="edge">
            <path fill="none" stroke-dasharray="5,2" d="M224.59 135.41c11.62-3.67 24.02-7.37 35.66-10.41 37.93-9.92 80.78-18.86 115.69-25.57"/>
            <path fill="#ccc" d="m375.01 96.04 10.48 1.57-9.17 5.31z"/>
        </g>
        <g stroke="#999" class="edge">
            <path fill="none" stroke-dasharray="5,2" d="M350.42 247.74c41.23-12.44 104.12-33.7 154.83-60.74 18.28-9.75 37.1-23.09 52.17-34.71"/>
            <path fill="#999" d="m555.06 149.69 10.02-3.44-5.69 8.94z"/>
        </g>
    </g>
</svg>
