<svg xmlns="http://www.w3.org/2000/svg" width="754pt" height="448" viewBox="0 0 754 336">
    <g class="graph">
        <path fill="#fff" d="M0 336V0h754v336z"/>
        <g class="node">
            <path fill="#90ee90" stroke="#000" d="M95.75 204H4v36h91.75z"/>
            <text x="45.88" y="-104.95" font-family="Times New Roman,serif" font-size="14" text-anchor="middle" transform="translate(4 332)">:composeApp</text>
        </g>
        <g class="node">
            <path fill="#add8e6" stroke="#000" d="M247.88 150h-90.26v36h90.26z"/>
            <text x="198.75" y="-158.95" font-family="Times New Roman,serif" font-size="14" text-anchor="middle" transform="translate(4 332)">:feature:room</text>
        </g>
        <g stroke="#000" class="edge">
            <path fill="none" d="M96.14 205.8c15.88-5.68 33.89-12.13 50.49-18.07"/>
            <path d="m145.27 184.5 10.6-.08-8.24 6.67z"/>
        </g>
        <g class="node">
            <path fill="#add8e6" stroke="#000" d="M273.75 204h-142v36h142z"/>
            <text x="198.75" y="-104.95" font-family="Times New Roman,serif" font-size="14" text-anchor="middle" transform="translate(4 332)">:feature:imageAnalysis</text>
        </g>
        <g stroke="#000" class="edge">
            <path fill="none" d="M96.14 222h24"/>
            <path d="m119.88 218.5 10 3.5-10 3.5z"/>
        </g>
        <g class="node">
            <path fill="#add8e6" stroke="#000" d="M419.5 42H327v36h92.5z"/>
            <text x="369.25" y="-266.95" font-family="Times New Roman,serif" font-size="14" text-anchor="middle" transform="translate(4 332)">:core:resource</text>
        </g>
        <g stroke="#000" class="edge">
            <path fill="none" d="M64.79 203.79c14.8-18.23 39.78-45.92 66.96-62.79 57.6-35.75 132.83-57.79 183.7-69.68"/>
            <path d="m314.56 67.93 10.52 1.2-8.97 5.63z"/>
        </g>
        <g class="node">
            <path fill="#add8e6" stroke="#000" d="M251.25 296h-97v36h97z"/>
            <text x="198.75" y="-12.95" font-family="Times New Roman,serif" font-size="14" text-anchor="middle" transform="translate(4 332)">:feature:foryou</text>
        </g>
        <g stroke="#000" class="edge">
            <path fill="none" d="M73 240.4c15.78 12.61 37.83 29.24 58.75 41.6 4.98 2.94 10.27 5.8 15.63 8.52"/>
            <path d="m148.91 287.37 7.44 7.54-10.52-1.25z"/>
        </g>
        <g class="node">
            <path fill="#add8e6" stroke="#000" d="M401.88 258h-57.26v36h57.26z"/>
            <text x="369.25" y="-50.95" font-family="Times New Roman,serif" font-size="14" text-anchor="middle" transform="translate(4 332)">:core:ui</text>
        </g>
        <g stroke="#000" class="edge">
            <path fill="none" d="M96.17 238.98c11.48 3.79 23.87 7.44 35.58 10.02 69.79 15.39 153 22.25 201 25.12"/>
            <path d="m332.87 270.62 9.78 4.06-10.18 2.93z"/>
        </g>
        <g class="node">
            <path fill="#add8e6" stroke="#000" d="M432.25 150h-118v36h118z"/>
            <text x="369.25" y="-158.95" font-family="Times New Roman,serif" font-size="14" text-anchor="middle" transform="translate(4 332)">:domain:employee</text>
        </g>
        <g stroke="#ccc" class="edge">
            <path fill="none" stroke-dasharray="5,2" d="M248.02 168h54.64"/>
            <path fill="#ccc" d="m302.49 164.5 10 3.5-10 3.5z"/>
        </g>
        <g stroke="#ccc" class="edge">
            <path fill="none" stroke-dasharray="5,2" d="M224.58 149.61c20.62-17.59 53.6-44.11 85.17-62.61 2.15-1.26 4.38-2.5 6.65-3.71"/>
            <path fill="#ccc" d="m314.68 80.24 10.51-1.37-7.36 7.62z"/>
        </g>
        <g class="node">
            <path fill="#add8e6" stroke="#000" d="M410.88 96h-75.26v36h75.26z"/>
            <text x="369.25" y="-212.95" font-family="Times New Roman,serif" font-size="14" text-anchor="middle" transform="translate(4 332)">:data:room</text>
        </g>
        <g stroke="#ccc" class="edge">
            <path fill="none" stroke-dasharray="5,2" d="M248.02 153.81c23.59-7.56 52.63-16.86 76.7-24.58"/>
            <path fill="#ccc" d="m323.35 125.99 10.59.29-8.45 6.38z"/>
        </g>
        <g stroke="#ccc" class="edge">
            <path fill="none" stroke-dasharray="5,2" d="M248.18 180.4c9.03 3.77 18.05 8.57 25.57 14.6 22.51 18.04 13.85 35.52 36 54 7.02 5.86 15.5 10.64 23.92 14.46"/>
            <path fill="#ccc" d="m334.88 260.17 7.91 7.05-10.57-.57z"/>
        </g>
        <g class="node">
            <path fill="#add8e6" stroke="#000" d="M750 158h-95.5v36H750z"/>
            <text x="698.25" y="-150.95" font-family="Times New Roman,serif" font-size="14" text-anchor="middle" transform="translate(4 332)">:core:common</text>
        </g>
        <g stroke="#999" class="edge">
            <path fill="none" stroke-dasharray="5,2" d="M432.71 169.43c59.33 1.45 150.66 3.69 210.02 5.14"/>
            <path fill="#999" d="m642.73 171.07 9.91 3.74-10.08 3.26z"/>
        </g>
        <g class="node">
            <path fill="#add8e6" stroke="#000" d="M436.75 204h-127v36h127z"/>
            <text x="369.25" y="-104.95" font-family="Times New Roman,serif" font-size="14" text-anchor="middle" transform="translate(4 332)">:data:imageAnalysis</text>
        </g>
        <g stroke="#ccc" class="edge">
            <path fill="none" stroke-dasharray="5,2" d="M274.23 222h23.66"/>
            <path fill="#ccc" d="m297.78 218.5 10 3.5-10 3.5z"/>
        </g>
        <g stroke="#ccc" class="edge">
            <path fill="none" stroke-dasharray="5,2" d="M261.27 240.43c23.76 7.62 50.68 16.25 72.06 23.1"/>
            <path fill="#ccc" d="m334.37 260.19 8.46 6.38-10.59.28z"/>
        </g>
        <g class="node">
            <path fill="#add8e6" stroke="#000" d="M618.5 204H472.75v36H618.5z"/>
            <text x="541.62" y="-104.95" font-family="Times New Roman,serif" font-size="14" text-anchor="middle" transform="translate(4 332)">:domain:imageAnalysis</text>
        </g>
        <g stroke="#999" class="edge">
            <path fill="none" stroke-dasharray="5,2" d="M437.21 222h23.9"/>
            <path fill="#999" d="m460.92 218.5 10 3.5-10 3.5z"/>
        </g>
        <g class="node">
            <path fill="#add8e6" stroke="#000" d="M573.12 4h-55v36h55z"/>
            <text x="541.62" y="-304.95" font-family="Times New Roman,serif" font-size="14" text-anchor="middle" transform="translate(4 332)">:shared</text>
        </g>
        <g stroke="#999" class="edge">
            <path fill="none" stroke-dasharray="5,2" d="M411.26 100.94c8.73-3.85 17.74-8.52 25.49-13.94 19.07-13.33 16.62-25.14 36-38 10.35-6.87 22.69-12.32 34.21-16.47"/>
            <path fill="#999" d="m505.62 29.29 10.59.14-8.37 6.5z"/>
        </g>
        <g class="node">
            <path fill="#add8e6" stroke="#000" d="M591.12 58h-91v36h91z"/>
            <text x="541.62" y="-250.95" font-family="Times New Roman,serif" font-size="14" text-anchor="middle" transform="translate(4 332)">:core:network</text>
        </g>
        <g stroke="#999" class="edge">
            <path fill="none" stroke-dasharray="5,2" d="M411.22 105.75c22.68-5.05 52.15-11.63 77.63-17.31"/>
            <path fill="#999" d="m487.86 85.08 10.52 1.23-9 5.6z"/>
        </g>
        <g class="node">
            <path fill="#add8e6" stroke="#000" d="M592.62 112h-94v36h94z"/>
            <text x="541.62" y="-196.95" font-family="Times New Roman,serif" font-size="14" text-anchor="middle" transform="translate(4 332)">:domain:room</text>
        </g>
        <g stroke="#999" class="edge">
            <path fill="none" stroke-dasharray="5,2" d="M411.22 117.47c22.15 2.08 50.79 4.77 75.85 7.12"/>
            <path fill="#999" d="m487.16 121.09 9.63 4.42-10.29 2.55z"/>
        </g>
        <g stroke="#ccc" class="edge">
            <path fill="none" stroke-dasharray="5,2" d="M251.58 303.21c25.87-5.83 57.42-12.95 81.76-18.44"/>
            <path fill="#ccc" d="m332.32 281.42 10.52 1.21-8.98 5.62z"/>
        </g>
        <g stroke="#666" class="edge">
            <path fill="none" stroke-dasharray="5,2" d="M608.63 203.56c11.58-3.45 23.65-7.04 35.1-10.45"/>
            <path fill="#666" d="m642.44 189.84 10.58.51-8.58 6.2z"/>
        </g>
        <g stroke="#666" class="edge">
            <path fill="none" stroke-dasharray="5,2" d="M591.51 89.98c9.22 3.66 18.65 8.01 26.99 13.02 21.34 12.82 42.33 31.43 57.84 46.66"/>
            <path fill="#666" d="m678.71 147.08 4.57 9.55-9.53-4.61z"/>
        </g>
        <g stroke="#666" class="edge">
            <path fill="none" stroke-dasharray="5,2" d="M593.02 143.8c15.83 4.71 33.74 10.04 50.36 14.99"/>
            <path fill="#666" d="m644.05 155.33 8.59 6.21-10.59.5z"/>
        </g>
    </g>
</svg>
