<svg xmlns="http://www.w3.org/2000/svg" width="692" height="260pt" viewBox="0 0 519 260">
    <g class="graph">
        <path fill="#fff" d="M0 260V0h519v260z"/>
        <g class="node">
            <path fill="#90ee90" stroke="#000" d="M94.25 139H4v36h90.25z"/>
            <text x="45.12" y="-93.95" font-family="Times New Roman,serif" font-size="14" text-anchor="middle" transform="translate(4 256)">:feature:room</text>
        </g>
        <g class="node">
            <path fill="#add8e6" stroke="#000" d="M217.5 58h-75.25v36h75.25z"/>
            <text x="175.88" y="-174.95" font-family="Times New Roman,serif" font-size="14" text-anchor="middle" transform="translate(4 256)">:data:room</text>
        </g>
        <g stroke="#000" class="edge">
            <path fill="none" d="M76.1 138.67c15.5-10.74 35.7-24.36 54.15-35.67 1.61-.99 3.26-1.98 4.94-2.98"/>
            <path d="m133.2 97.13 10.41-2-6.89 8.05z"/>
        </g>
        <g class="node">
            <path fill="#add8e6" stroke="#000" d="M226.12 166h-92.5v36h92.5z"/>
            <text x="175.88" y="-66.95" font-family="Times New Roman,serif" font-size="14" text-anchor="middle" transform="translate(4 256)">:core:resource</text>
        </g>
        <g stroke="#000" class="edge">
            <path fill="none" d="M94.43 166.29c8.9 1.87 18.36 3.85 27.61 5.79"/>
            <path d="m122.62 168.63 9.07 5.47-10.51 1.38z"/>
        </g>
        <g class="node">
            <path fill="#add8e6" stroke="#000" d="M208.5 220h-57.25v36h57.25z"/>
            <text x="175.88" y="-12.95" font-family="Times New Roman,serif" font-size="14" text-anchor="middle" transform="translate(4 256)">:core:ui</text>
        </g>
        <g stroke="#000" class="edge">
            <path fill="none" d="M76.1 175.33c15.5 10.74 35.7 24.36 54.15 35.67 3.5 2.14 7.18 4.32 10.88 6.46"/>
            <path d="m142.58 214.26 6.97 7.98-10.43-1.89z"/>
        </g>
        <g class="node">
            <path fill="#add8e6" stroke="#000" d="M229.5 112h-99.25v36h99.25z"/>
            <text x="175.88" y="-120.95" font-family="Times New Roman,serif" font-size="14" text-anchor="middle" transform="translate(4 256)">:data:employee</text>
        </g>
        <g stroke="#000" class="edge">
            <path fill="none" d="M94.43 147.71c7.9-1.66 16.25-3.41 24.51-5.14"/>
            <path d="m118.09 139.17 10.51 1.37-9.07 5.48z"/>
        </g>
        <g class="node">
            <path fill="#add8e6" stroke="#000" d="M352 58h-55v36h55z"/>
            <text x="320.5" y="-174.95" font-family="Times New Roman,serif" font-size="14" text-anchor="middle" transform="translate(4 256)">:shared</text>
        </g>
        <g stroke="#ccc" class="edge">
            <path fill="none" stroke-dasharray="5,2" d="M217.98 76h67.6"/>
            <path fill="#ccc" d="m285.43 72.5 10 3.5-10 3.5z"/>
        </g>
        <g class="node">
            <path fill="#add8e6" stroke="#000" d="M370 112h-91v36h91z"/>
            <text x="320.5" y="-120.95" font-family="Times New Roman,serif" font-size="14" text-anchor="middle" transform="translate(4 256)">:core:network</text>
        </g>
        <g stroke="#ccc" class="edge">
            <path fill="none" stroke-dasharray="5,2" d="M217.98 90.05c15.37 5.82 33.54 12.7 50.42 19.09"/>
            <path fill="#ccc" d="m269.18 105.69 8.11 6.81-10.59-.26z"/>
        </g>
        <g class="node">
            <path fill="#add8e6" stroke="#000" d="M371.5 4h-94v36h94z"/>
            <text x="320.5" y="-228.95" font-family="Times New Roman,serif" font-size="14" text-anchor="middle" transform="translate(4 256)">:domain:room</text>
        </g>
        <g stroke="#ccc" class="edge">
            <path fill="none" stroke-dasharray="5,2" d="M217.98 61.95c14.82-5.61 32.24-12.2 48.6-18.4"/>
            <path fill="#ccc" d="m265.13 40.36 10.59-.27-8.11 6.81z"/>
        </g>
        <g class="node">
            <path fill="#add8e6" stroke="#000" d="M515 112h-95.5v36H515z"/>
            <text x="463.25" y="-120.95" font-family="Times New Roman,serif" font-size="14" text-anchor="middle" transform="translate(4 256)">:core:common</text>
        </g>
        <g stroke="#999" class="edge">
            <path fill="none" stroke-dasharray="5,2" d="M370.42 130H408"/>
            <path fill="#999" d="m407.82 126.5 10 3.5-10 3.5z"/>
        </g>
        <g stroke="#ccc" class="edge">
            <path fill="none" stroke-dasharray="5,2" d="M229.56 111.57c18.58-7.04 39.44-14.94 56.78-21.5"/>
            <path fill="#ccc" d="m284.62 86.98 10.59-.27-8.11 6.81z"/>
        </g>
        <g stroke="#ccc" class="edge">
            <path fill="none" stroke-dasharray="5,2" d="M229.96 130h37.52"/>
            <path fill="#ccc" d="m267.12 126.5 10 3.5-10 3.5z"/>
        </g>
        <g class="node">
            <path fill="#add8e6" stroke="#000" d="M383.5 166h-118v36h118z"/>
            <text x="320.5" y="-66.95" font-family="Times New Roman,serif" font-size="14" text-anchor="middle" transform="translate(4 256)">:domain:employee</text>
        </g>
        <g stroke="#ccc" class="edge">
            <path fill="none" stroke-dasharray="5,2" d="M229.56 148.43c11.24 4.26 23.33 8.83 34.96 13.24"/>
            <path fill="#ccc" d="m265.51 158.3 8.11 6.81-10.59-.26z"/>
        </g>
        <g stroke="#999" class="edge">
            <path fill="none" stroke-dasharray="5,2" d="M373.54 165.57c11.35-4.35 23.55-9.04 35.26-13.53"/>
            <path fill="#999" d="m407.37 148.84 10.59-.31-8.08 6.85z"/>
        </g>
        <g stroke="#999" class="edge">
            <path fill="none" stroke-dasharray="5,2" d="M369.16 40.34c4.98 2.66 9.86 5.56 14.34 8.66 22.39 15.49 44.24 37.25 59.86 54.32"/>
            <path fill="#999" d="m445.85 100.85 4.07 9.78-9.28-5.11z"/>
        </g>
    </g>
</svg>
