<svg xmlns="http://www.w3.org/2000/svg" width="656pt" height="314pt" viewBox="0 0 655.75 314">
    <g class="graph">
        <path fill="#fff" d="M0 314V0h655.75v314z"/>
        <g class="node">
            <path fill="#90ee90" stroke="#000" d="M101 166H4v36h97z"/>
            <text x="48.5" y="-120.95" font-family="Times New Roman,serif" font-size="14" text-anchor="middle" transform="translate(4 310)">:feature:foryou</text>
        </g>
        <g class="node">
            <path fill="#add8e6" stroke="#000" d="M224.25 58H149v36h75.25z"/>
            <text x="182.62" y="-228.95" font-family="Times New Roman,serif" font-size="14" text-anchor="middle" transform="translate(4 310)">:data:room</text>
        </g>
        <g stroke="#000" class="edge">
            <path fill="none" d="M69.88 165.51C85.9 148.08 111.54 121.9 137 103c1.13-.84 2.3-1.68 3.48-2.5"/>
            <path d="m138.32 97.73 10.29-2.5-6.49 8.38z"/>
        </g>
        <g class="node">
            <path fill="#add8e6" stroke="#000" d="M221.25 166H152v36h69.25z"/>
            <text x="182.62" y="-120.95" font-family="Times New Roman,serif" font-size="14" text-anchor="middle" transform="translate(4 310)">:data:auth</text>
        </g>
        <g stroke="#000" class="edge">
            <path fill="none" d="M101.2 184h39.23"/>
            <path d="m140.15 180.5 10 3.5-10 3.5z"/>
        </g>
        <g class="node">
            <path fill="#add8e6" stroke="#000" d="M215.25 220H158v36h57.25z"/>
            <text x="182.62" y="-66.95" font-family="Times New Roman,serif" font-size="14" text-anchor="middle" transform="translate(4 310)">:core:ui</text>
        </g>
        <g stroke="#000" class="edge">
            <path fill="none" d="M98.6 202.43c15.76 6.44 33.3 13.61 48.48 19.81"/>
            <path d="m148.32 218.97 7.93 7.02-10.58-.54z"/>
        </g>
        <g class="node">
            <path fill="#add8e6" stroke="#000" d="M236.25 112H137v36h99.25z"/>
            <text x="182.62" y="-174.95" font-family="Times New Roman,serif" font-size="14" text-anchor="middle" transform="translate(4 310)">:data:employee</text>
        </g>
        <g stroke="#000" class="edge">
            <path fill="none" d="M98.6 165.57c10.2-4.17 21.15-8.65 31.72-12.97"/>
            <path d="m128.75 149.47 10.58-.55-7.94 7.03z"/>
        </g>
        <g class="node">
            <path fill="#add8e6" stroke="#000" d="M232.88 274h-92.5v36h92.5z"/>
            <text x="182.62" y="-12.95" font-family="Times New Roman,serif" font-size="14" text-anchor="middle" transform="translate(4 310)">:core:resource</text>
        </g>
        <g stroke="#000" class="edge">
            <path fill="none" d="M69.88 202.49C85.9 219.92 111.54 246.1 137 265c1.13.84 2.3 1.68 3.48 2.5"/>
            <path d="m142.12 264.39 6.49 8.38-10.29-2.5z"/>
        </g>
        <g class="node">
            <path fill="#add8e6" stroke="#000" d="M346.75 112h-55v36h55z"/>
            <text x="315.25" y="-174.95" font-family="Times New Roman,serif" font-size="14" text-anchor="middle" transform="translate(4 310)">:shared</text>
        </g>
        <g stroke="#ccc" class="edge">
            <path fill="none" stroke-dasharray="5,2" d="M224.71 91.33c17.61 7.28 38.62 15.97 56.26 23.26"/>
            <path fill="#ccc" d="m282.15 111.29 7.91 7.06-10.58-.59z"/>
        </g>
        <g class="node">
            <path fill="#add8e6" stroke="#000" d="M364.75 58h-91v36h91z"/>
            <text x="315.25" y="-228.95" font-family="Times New Roman,serif" font-size="14" text-anchor="middle" transform="translate(4 310)">:core:network</text>
        </g>
        <g stroke="#ccc" class="edge">
            <path fill="none" stroke-dasharray="5,2" d="M224.71 76h37.49"/>
            <path fill="#ccc" d="m262.14 72.5 10 3.5-10 3.5z"/>
        </g>
        <g class="node">
            <path fill="#add8e6" stroke="#000" d="M366.25 4h-94v36h94z"/>
            <text x="315.25" y="-282.95" font-family="Times New Roman,serif" font-size="14" text-anchor="middle" transform="translate(4 310)">:domain:room</text>
        </g>
        <g stroke="#ccc" class="edge">
            <path fill="none" stroke-dasharray="5,2" d="M224.71 60.67c12.02-4.97 25.62-10.59 38.66-15.98"/>
            <path fill="#ccc" d="m261.68 41.6 10.58-.59-7.91 7.06z"/>
        </g>
        <g stroke="#ccc" class="edge">
            <path fill="none" stroke-dasharray="5,2" d="M221.6 169.95c18.2-7.52 40.66-16.8 59.34-24.53"/>
            <path fill="#ccc" d="m279.46 142.25 10.58-.59-7.9 7.06z"/>
        </g>
        <g stroke="#ccc" class="edge">
            <path fill="none" stroke-dasharray="5,2" d="M221.75 167.82c5.14-3.2 10.17-6.83 14.5-10.82 21.21-19.55 15.03-34.2 36-54 .61-.57 1.23-1.14 1.86-1.7"/>
            <path fill="#ccc" d="m271.66 98.77 10.04-3.38-5.74 8.91z"/>
        </g>
        <g class="node">
            <path fill="#add8e6" stroke="#000" d="M363.25 242h-88v36h88z"/>
            <text x="315.25" y="-44.95" font-family="Times New Roman,serif" font-size="14" text-anchor="middle" transform="translate(4 310)">:domain:auth</text>
        </g>
        <g stroke="#ccc" class="edge">
            <path fill="none" stroke-dasharray="5,2" d="M221.18 202.45c5.07 2.84 10.22 5.75 15.07 8.55 13.74 7.92 28.66 16.76 41.95 24.73"/>
            <path fill="#ccc" d="m279.95 232.69 6.76 8.15-10.37-2.15z"/>
        </g>
        <g class="node">
            <path fill="#add8e6" stroke="#000" d="M520.25 176h-118v36h118z"/>
            <text x="457.25" y="-110.95" font-family="Times New Roman,serif" font-size="14" text-anchor="middle" transform="translate(4 310)">:domain:employee</text>
        </g>
        <g stroke="#ccc" class="edge">
            <path fill="none" stroke-dasharray="5,2" d="M221.37 186.78c15.49 1.17 34.11 2.45 50.88 3.22 39.14 1.8 82.9 2.79 118.34 3.34"/>
            <path fill="#ccc" d="m390.33 189.83 9.95 3.65-10.05 3.35z"/>
        </g>
        <g class="node">
            <path fill="#add8e6" stroke="#000" d="M651.75 140h-95.5v36h95.5z"/>
            <text x="600" y="-146.95" font-family="Times New Roman,serif" font-size="14" text-anchor="middle" transform="translate(4 310)">:core:common</text>
        </g>
        <g stroke="#999" class="edge">
            <path fill="none" stroke-dasharray="5,2" d="M365.05 88.99c48.7 14.13 126.69 36.74 180.02 52.21"/>
            <path fill="#999" d="m545.97 137.82 8.63 6.14-10.58.58z"/>
        </g>
        <g stroke="#999" class="edge">
            <path fill="none" stroke-dasharray="5,2" d="M363.71 257.25c41.72-3.94 105.7-13.45 156.54-36.25 20.38-9.14 40.39-24.16 55.63-37.24"/>
            <path fill="#999" d="m573.32 181.35 9.81-4.01-5.17 9.25z"/>
        </g>
        <g stroke="#999" class="edge">
            <path fill="none" stroke-dasharray="5,2" d="M359.25 241.62c16.08-7.59 34.89-16.46 51.9-24.47"/>
            <path fill="#999" d="m409.55 214.03 10.54-1.1-7.55 7.43z"/>
        </g>
        <g stroke="#999" class="edge">
            <path fill="none" stroke-dasharray="5,2" d="M520.72 179.05c8.01-2.05 16.23-4.16 24.23-6.2"/>
            <path fill="#999" d="m544.05 169.47 10.55.91-8.82 5.87z"/>
        </g>
        <g stroke="#ccc" class="edge">
            <path fill="none" stroke-dasharray="5,2" d="M236.64 130h43.35"/>
            <path fill="#ccc" d="m279.83 126.5 10 3.5-10 3.5z"/>
        </g>
        <g stroke="#ccc" class="edge">
            <path fill="none" stroke-dasharray="5,2" d="M232.21 111.57c9.99-4.13 20.69-8.55 31.04-12.83"/>
            <path fill="#ccc" d="m261.89 95.51 10.57-.58-7.9 7.05z"/>
        </g>
        <g stroke="#ccc" class="edge">
            <path fill="none" stroke-dasharray="5,2" d="M236.57 146.66c11.62 3.67 24.03 7.35 35.68 10.34 38.81 9.98 82.72 18.76 118.34 25.26"/>
            <path fill="#ccc" d="m391.14 178.8 9.22 5.22-10.46 1.67z"/>
        </g>
        <g stroke="#999" class="edge">
            <path fill="none" stroke-dasharray="5,2" d="M366.71 37.79C408.02 52.54 469.56 76.24 520.25 103c16.64 8.79 34.13 20.07 48.72 30.13"/>
            <path fill="#999" d="m570.68 130.06 6.18 8.6-10.2-2.87z"/>
        </g>
    </g>
</svg>
