<svg xmlns="http://www.w3.org/2000/svg" width="463pt" height="116pt" viewBox="0 0 463.25 115.87">
    <g class="graph">
        <path fill="#fff" d="M0 115.87V0h463.25v115.87z"/>
        <g class="node">
            <path fill="#90ee90" stroke="#000" d="M116 21.87H4v36h112z"/>
            <text x="56" y="-66.95" font-family="Times New Roman,serif" font-size="14" text-anchor="middle" transform="translate(4 111.87)">:server:data:room</text>
        </g>
        <g class="node">
            <path fill="#add8e6" stroke="#000" d="M327.75 75.87H152v36h175.75z"/>
            <text x="235.88" y="-12.95" font-family="Times New Roman,serif" font-size="14" text-anchor="middle" transform="translate(4 111.87)">:server:domain:housekeeping</text>
        </g>
        <g stroke="#000" class="edge">
            <path fill="none" d="M116.31 56.66c16.06 4.88 33.84 10.27 50.76 15.41"/>
            <path d="m168.03 68.71 8.56 6.25-10.59.44z"/>
        </g>
        <g class="node">
            <path fill="#add8e6" stroke="#000" d="M459.25 21.87h-95.5v36h95.5z"/>
            <text x="407.5" y="-66.95" font-family="Times New Roman,serif" font-size="14" text-anchor="middle" transform="translate(4 111.87)">:core:common</text>
        </g>
        <g stroke="#000" class="edge">
            <path fill="none" d="M113.84 21.4c12.37-3.54 25.6-6.71 38.16-8.53 77.3-11.23 98.61-12.27 175.75 0 8.11 1.29 16.5 3.25 24.69 5.53"/>
            <path d="m353.41 15.04 8.58 6.21-10.59.49z"/>
        </g>
        <g class="node">
            <path fill="#add8e6" stroke="#000" d="M304.88 21.87h-130v36h130z"/>
            <text x="235.88" y="-66.95" font-family="Times New Roman,serif" font-size="14" text-anchor="middle" transform="translate(4 111.87)">:server:core:database</text>
        </g>
        <g stroke="#000" class="edge">
            <path fill="none" d="M116.31 39.87h46.92"/>
            <path d="m163.06 36.37 10 3.5-10 3.5z"/>
        </g>
        <g stroke="#ccc" class="edge">
            <path fill="none" stroke-dasharray="5,2" d="M300.73 75.39c9.06-2.83 18.29-5.74 27.02-8.52 8.01-2.55 16.45-5.27 24.74-7.96"/>
            <path fill="#ccc" d="m351.24 55.64 10.6.23-8.43 6.42z"/>
        </g>
        <g class="node">
            <path fill="#add8e6" stroke="#000" d="M439 75.87h-55v36h55z"/>
            <text x="407.5" y="-12.95" font-family="Times New Roman,serif" font-size="14" text-anchor="middle" transform="translate(4 111.87)">:shared</text>
        </g>
        <g stroke="#ccc" class="edge">
            <path fill="none" stroke-dasharray="5,2" d="M328.17 93.87h44.19"/>
            <path fill="#ccc" d="m372.32 90.37 10 3.5-10 3.5z"/>
        </g>
        <g stroke="#ccc" class="edge">
            <path fill="none" stroke-dasharray="5,2" d="M305 39.87h47.13"/>
            <path fill="#ccc" d="m351.95 36.37 10 3.5-10 3.5z"/>
        </g>
        <g stroke="#ccc" class="edge">
            <path fill="none" stroke-dasharray="5,2" d="M300.73 58.35c9.06 2.83 18.29 5.74 27.02 8.52 14.77 4.7 30.99 9.97 45.13 14.6"/>
            <path fill="#ccc" d="m373.85 78.11 8.41 6.44-10.59.21z"/>
        </g>
    </g>
</svg>
