<svg xmlns="http://www.w3.org/2000/svg" width="833pt" height="208" viewBox="0 0 832.75 156.13">
    <g class="graph">
        <path fill="#fff" d="M0 156.13V0h832.75v156.13z"/>
        <g class="node">
            <path fill="#90ee90" stroke="#000" d="M179.75 16.55H4v36h175.75z"/>
            <text x="87.88" y="-112.53" font-family="Times New Roman,serif" font-size="14" text-anchor="middle" transform="translate(4 152.13)">:server:domain:housekeeping</text>
        </g>
        <g class="node">
            <path fill="#add8e6" stroke="#000" d="M828.75 27.55h-95.5v36h95.5z"/>
            <text x="777" y="-101.53" font-family="Times New Roman,serif" font-size="14" text-anchor="middle" transform="translate(4 152.13)">:core:common</text>
        </g>
        <g stroke="#000" class="edge">
            <path fill="none" d="M164.56 16.07c16.69-3.54 34.47-6.71 51.19-8.52 122.69-13.32 448.71 16.67 481.5 21 8 1.05 16.38 2.44 24.61 3.97"/>
            <path d="m722.3 29.04 9.15 5.34-10.48 1.53z"/>
        </g>
        <g class="node">
            <path fill="#add8e6" stroke="#000" d="M346.5 16.55H215.75v36H346.5z"/>
            <text x="277.12" y="-112.53" font-family="Times New Roman,serif" font-size="14" text-anchor="middle" transform="translate(4 152.13)">:server:domain:room</text>
        </g>
        <g stroke="#000" class="edge">
            <path fill="none" d="M180.2 34.55h23.78"/>
            <path d="m203.8 31.05 10 3.5-10 3.5z"/>
        </g>
        <g class="node">
            <path fill="#add8e6" stroke="#000" d="M343.88 70.55h-125.5v36h125.5z"/>
            <text x="277.12" y="-58.53" font-family="Times New Roman,serif" font-size="14" text-anchor="middle" transform="translate(4 152.13)">:server:domain:shift</text>
        </g>
        <g stroke="#000" class="edge">
            <path fill="none" d="M156.79 52.98c16.25 4.69 33.84 9.76 50.5 14.56"/>
            <path d="m207.99 64.1 8.63 6.14-10.57.59z"/>
        </g>
        <g class="node">
            <path fill="#add8e6" stroke="#000" d="M697.25 92.55h-124v36h124z"/>
            <text x="631.25" y="-36.53" font-family="Times New Roman,serif" font-size="14" text-anchor="middle" transform="translate(4 152.13)">:server:domain:user</text>
        </g>
        <g stroke="#666" class="edge">
            <path fill="none" stroke-dasharray="5,2" d="M677.06 92.1c16.08-7.28 34.74-15.71 51.71-23.39"/>
            <path fill="#666" d="m727.16 65.6 10.55-.93-7.67 7.31z"/>
        </g>
        <g stroke="#ccc" class="edge">
            <path fill="none" stroke-dasharray="5,2" d="M346.96 35.98c97.71 2.16 281.21 6.21 374.85 8.28"/>
            <path fill="#ccc" d="m721.61 40.76 9.92 3.72-10.07 3.28z"/>
        </g>
        <g stroke="#ccc" class="edge">
            <path fill="none" stroke-dasharray="5,2" d="M344.17 83.19c96.85-8.36 282.61-24.41 377.27-32.58"/>
            <path fill="#ccc" d="m721.02 47.13 10.26 2.63-9.66 4.34z"/>
        </g>
        <g class="node">
            <path fill="#add8e6" stroke="#000" d="M537.25 92.55H382.5v36h154.75z"/>
            <text x="455.88" y="-36.53" font-family="Times New Roman,serif" font-size="14" text-anchor="middle" transform="translate(4 152.13)">:server:domain:employee</text>
        </g>
        <g stroke="#ccc" class="edge">
            <path fill="none" stroke-dasharray="5,2" d="M343.94 96.24c8.78 1.1 17.94 2.24 27.09 3.38"/>
            <path fill="#ccc" d="m371.18 96.11 9.49 4.7-10.36 2.24z"/>
        </g>
        <g stroke="#999" class="edge">
            <path fill="none" stroke-dasharray="5,2" d="M537.68 110.55h23.8"/>
            <path fill="#999" d="m561.34 107.05 10 3.5-10 3.5z"/>
        </g>
        <g stroke="#999" class="edge">
            <path fill="none" stroke-dasharray="5,2" d="M506.09 129.03c49.19 17.14 129.1 36.17 191.16 8.52 29.27-13.04 52.52-42.12 66.83-64.12"/>
            <path fill="#999" d="m760.96 71.83 8.26-6.64-2.32 10.34z"/>
        </g>
    </g>
</svg>
