<svg xmlns="http://www.w3.org/2000/svg" width="850pt" height="121pt" viewBox="0 0 850 121">
    <g class="graph">
        <path fill="#fff" d="M0 121V0h850v121z"/>
        <g class="node">
            <path fill="#90ee90" stroke="#000" d="M146 27H4v36h142z"/>
            <text x="71" y="-66.95" font-family="Times New Roman,serif" font-size="14" text-anchor="middle" transform="translate(4 117)">:server:controller:room</text>
        </g>
        <g class="node">
            <path fill="#add8e6" stroke="#000" d="M354.75 27H182v36h172.75z"/>
            <text x="264.38" y="-66.95" font-family="Times New Roman,serif" font-size="14" text-anchor="middle" transform="translate(4 117)">:server:service:housekeeping</text>
        </g>
        <g stroke="#000" class="edge">
            <path fill="none" d="M146.45 45h23.96"/>
            <path d="m170.3 41.5 10 3.5-10 3.5z"/>
        </g>
        <g class="node">
            <path fill="#add8e6" stroke="#000" d="M714.5 27H538.75v36H714.5z"/>
            <text x="622.62" y="-66.95" font-family="Times New Roman,serif" font-size="14" text-anchor="middle" transform="translate(4 117)">:server:domain:housekeeping</text>
        </g>
        <g class="node">
            <path fill="#add8e6" stroke="#000" d="M846 4h-95.5v36H846z"/>
            <text x="794.25" y="-89.95" font-family="Times New Roman,serif" font-size="14" text-anchor="middle" transform="translate(4 117)">:core:common</text>
        </g>
        <g stroke="#666" class="edge">
            <path fill="none" stroke-dasharray="5,2" d="M714.92 33.16c8.18-1.11 16.33-2.21 24.15-3.27"/>
            <path fill="#666" d="m738.36 26.45 10.38 2.13-9.44 4.81z"/>
        </g>
        <g stroke="#ccc" class="edge">
            <path fill="none" stroke-dasharray="5,2" d="M340.18 26.52c16.48-3.54 34.05-6.7 50.57-8.52 123.37-13.56 269.06-6.6 348.19-.92"/>
            <path fill="#ccc" d="m738.9 13.57 9.71 4.23-10.23 2.75z"/>
        </g>
        <g class="node">
            <path fill="#add8e6" stroke="#000" d="M502.75 27h-112v36h112z"/>
            <text x="442.75" y="-66.95" font-family="Times New Roman,serif" font-size="14" text-anchor="middle" transform="translate(4 117)">:server:data:room</text>
        </g>
        <g stroke="#ccc" class="edge">
            <path fill="none" stroke-dasharray="5,2" d="M355.24 45h23.55"/>
            <path fill="#ccc" d="m378.77 41.5 10 3.5-10 3.5z"/>
        </g>
        <g class="node">
            <path fill="#add8e6" stroke="#000" d="M474.25 81h-55v36h55z"/>
            <text x="442.75" y="-12.95" font-family="Times New Roman,serif" font-size="14" text-anchor="middle" transform="translate(4 117)">:shared</text>
        </g>
        <g stroke="#ccc" class="edge">
            <path fill="none" stroke-dasharray="5,2" d="M329.58 63.43c25.95 7.95 55.51 17 78.32 23.98"/>
            <path fill="#ccc" d="m408.85 84.04 8.53 6.28-10.58.41z"/>
        </g>
        <g stroke="#999" class="edge">
            <path fill="none" stroke-dasharray="5,2" d="M503.06 45h24.04"/>
            <path fill="#999" d="m526.83 41.5 10 3.5-10 3.5z"/>
        </g>
        <g class="node">
            <path fill="#add8e6" stroke="#000" d="M691.62 81h-130v36h130z"/>
            <text x="622.62" y="-12.95" font-family="Times New Roman,serif" font-size="14" text-anchor="middle" transform="translate(4 117)">:server:core:database</text>
        </g>
        <g stroke="#999" class="edge">
            <path fill="none" stroke-dasharray="5,2" d="M503.06 61.79c16.06 4.88 33.84 10.27 50.76 15.41"/>
            <path fill="#999" d="m554.78 73.84 8.56 6.25-10.59.44z"/>
        </g>
        <g stroke="#666" class="edge">
            <path fill="none" stroke-dasharray="5,2" d="M691.86 80.98c7.73-2.74 15.44-5.74 22.64-8.98 15.92-7.16 32.56-16.75 46.71-25.62"/>
            <path fill="#666" d="m758.99 43.65 10.31-2.44-6.54 8.34z"/>
        </g>
    </g>
</svg>
