<svg xmlns="http://www.w3.org/2000/svg" width="418pt" height="98pt" viewBox="0 0 418.25 98">
    <g class="graph">
        <path fill="#fff" d="M0 98V0h418.25v98z"/>
        <g class="node">
            <path fill="#90ee90" stroke="#000" d="M116 31H4v36h112z"/>
            <text x="56" y="-39.95" font-family="Times New Roman,serif" font-size="14" text-anchor="middle" transform="translate(4 94)">:server:data:room</text>
        </g>
        <g class="node">
            <path fill="#add8e6" stroke="#000" d="M282.75 4H152v36h130.75z"/>
            <text x="213.38" y="-66.95" font-family="Times New Roman,serif" font-size="14" text-anchor="middle" transform="translate(4 94)">:server:domain:room</text>
        </g>
        <g stroke="#000" class="edge">
            <path fill="none" d="M116.22 39.4c7.85-1.36 16.04-2.78 24.21-4.2"/>
            <path d="m139.57 31.79 10.45 1.74-9.25 5.16z"/>
        </g>
        <g class="node">
            <path fill="#add8e6" stroke="#000" d="M282.38 58h-130v36h130z"/>
            <text x="213.38" y="-12.95" font-family="Times New Roman,serif" font-size="14" text-anchor="middle" transform="translate(4 94)">:server:core:database</text>
        </g>
        <g stroke="#000" class="edge">
            <path fill="none" d="M116.22 58.6c7.97 1.38 16.29 2.83 24.58 4.27"/>
            <path d="m141.31 59.4 9.25 5.16-10.45 1.74z"/>
        </g>
        <g class="node">
            <path fill="#add8e6" stroke="#000" d="M414.25 31h-95.5v36h95.5z"/>
            <text x="362.5" y="-39.95" font-family="Times New Roman,serif" font-size="14" text-anchor="middle" transform="translate(4 94)">:core:common</text>
        </g>
        <g stroke="#ccc" class="edge">
            <path fill="none" stroke-dasharray="5,2" d="M282.91 33.84c8.08 1.49 16.31 3 24.29 4.46"/>
            <path fill="#ccc" d="m307.57 34.81 9.21 5.25-10.47 1.64z"/>
        </g>
        <g stroke="#ccc" class="edge">
            <path fill="none" stroke-dasharray="5,2" d="M282.48 64.24c8.21-1.51 16.58-3.05 24.69-4.54"/>
            <path fill="#ccc" d="m306.47 56.28 10.47 1.63-9.21 5.25z"/>
        </g>
    </g>
</svg>
