<svg xmlns="http://www.w3.org/2000/svg" width="1253pt" height="328pt" viewBox="0 0 1252.5 328">
    <g class="graph">
        <path fill="#fff" d="M0 328V0h1252.5v328z"/>
        <g class="node">
            <path fill="#90ee90" stroke="#000" d="M146 196H4v36h142z"/>
            <text x="71" y="-104.95" font-family="Times New Roman,serif" font-size="14" text-anchor="middle" transform="translate(4 324)">:server:controller:room</text>
        </g>
        <g class="node">
            <path fill="#add8e6" stroke="#000" d="M354.75 196H182v36h172.75z"/>
            <text x="264.38" y="-104.95" font-family="Times New Roman,serif" font-size="14" text-anchor="middle" transform="translate(4 324)">:server:service:housekeeping</text>
        </g>
        <g stroke="#000" class="edge">
            <path fill="none" d="M146.45 214h23.96"/>
            <path d="m170.3 210.5 10 3.5-10 3.5z"/>
        </g>
        <g class="node">
            <path fill="#add8e6" stroke="#000" d="M547.75 142h-157v36h157z"/>
            <text x="465.25" y="-158.95" font-family="Times New Roman,serif" font-size="14" text-anchor="middle" transform="translate(4 324)">:server:data:housekeeping</text>
        </g>
        <g class="node">
            <path fill="#add8e6" stroke="#000" d="M925.88 96h-130v36h130z"/>
            <text x="856.88" y="-204.95" font-family="Times New Roman,serif" font-size="14" text-anchor="middle" transform="translate(4 324)">:server:core:database</text>
        </g>
        <g stroke="#999" class="edge">
            <path fill="none" stroke-dasharray="5,2" d="M539.82 141.54c14.44-3.29 29.61-6.36 43.93-8.54 67.33-10.25 144.75-14.98 200.44-17.15"/>
            <path fill="#999" d="m783.75 112.36 10.12 3.13-9.86 3.87z"/>
        </g>
        <g class="node">
            <path fill="#add8e6" stroke="#000" d="M759.5 142H583.75v36H759.5z"/>
            <text x="667.62" y="-158.95" font-family="Times New Roman,serif" font-size="14" text-anchor="middle" transform="translate(4 324)">:server:domain:housekeeping</text>
        </g>
        <g stroke="#999" class="edge">
            <path fill="none" stroke-dasharray="5,2" d="M548.01 160h23.92"/>
            <path fill="#999" d="m571.75 156.5 10 3.5-10 3.5z"/>
        </g>
        <g class="node">
            <path fill="#add8e6" stroke="#000" d="M739.62 50h-136v36h136z"/>
            <text x="667.62" y="-250.95" font-family="Times New Roman,serif" font-size="14" text-anchor="middle" transform="translate(4 324)">:server:data:employee</text>
        </g>
        <g stroke="#999" class="edge">
            <path fill="none" stroke-dasharray="5,2" d="M501.97 141.77c22.46-12.54 53.49-29.15 81.78-41.77 7.37-3.29 15.18-6.51 22.99-9.58"/>
            <path fill="#999" d="m605.34 87.21 10.59-.32-8.08 6.86z"/>
        </g>
        <g class="node">
            <path fill="#add8e6" stroke="#000" d="M1248.5 142H1153v36h95.5z"/>
            <text x="1196.75" y="-158.95" font-family="Times New Roman,serif" font-size="14" text-anchor="middle" transform="translate(4 324)">:core:common</text>
        </g>
        <g stroke="#666" class="edge">
            <path fill="none" stroke-dasharray="5,2" d="M926.2 121.3c51.65 6.04 125.99 15.16 190.8 24.7 7.84 1.15 16.08 2.45 24.2 3.77"/>
            <path fill="#666" d="m1141.76 146.32 9.29 5.09-10.44 1.81z"/>
        </g>
        <g class="node">
            <path fill="#add8e6" stroke="#000" d="M923.62 4h-125.5v36h125.5z"/>
            <text x="856.88" y="-296.95" font-family="Times New Roman,serif" font-size="14" text-anchor="middle" transform="translate(4 324)">:server:domain:shift</text>
        </g>
        <g class="node">
            <path fill="#add8e6" stroke="#000" d="M1117 50H962.25v36H1117z"/>
            <text x="1035.62" y="-250.95" font-family="Times New Roman,serif" font-size="14" text-anchor="middle" transform="translate(4 324)">:server:domain:employee</text>
        </g>
        <g stroke="#666" class="edge">
            <path fill="none" stroke-dasharray="5,2" d="M923.69 38.09c10.68 2.78 21.93 5.7 33.04 8.6"/>
            <path fill="#666" d="m957.5 43.27 8.8 5.91-10.56.87z"/>
        </g>
        <g stroke="#666" class="edge">
            <path fill="none" stroke-dasharray="5,2" d="M923.88 12.39C978.38 7.1 1057.99 7.31 1117 41c35.11 20.05 58.75 61.8 71.48 90.13"/>
            <path fill="#666" d="m1191.65 129.65.73 10.57-7.16-7.81z"/>
        </g>
        <g stroke="#333" class="edge">
            <path fill="none" stroke-dasharray="5,2" d="M1082.84 86.48c11.28 5.31 23.33 11.35 34.16 17.52 16.45 9.37 33.9 20.92 48.52 31.1"/>
            <path fill="#333" d="m1167.28 132.06 6.16 8.62-10.19-2.9z"/>
        </g>
        <g stroke="#666" class="edge">
            <path fill="none" stroke-dasharray="5,2" d="M697.49 141.67c33.02-24.33 91.46-67.4 128.49-94.69"/>
            <path fill="#666" d="m823.56 44.41 10.13-3.11-5.98 8.75z"/>
        </g>
        <g stroke="#666" class="edge">
            <path fill="none" stroke-dasharray="5,2" d="M759.96 160h381.46"/>
            <path fill="#666" d="m1141.28 156.5 10 3.5-10 3.5z"/>
        </g>
        <g class="node">
            <path fill="#add8e6" stroke="#000" d="M926.25 188H795.5v36h130.75z"/>
            <text x="856.88" y="-112.95" font-family="Times New Roman,serif" font-size="14" text-anchor="middle" transform="translate(4 324)">:server:domain:room</text>
        </g>
        <g stroke="#666" class="edge">
            <path fill="none" stroke-dasharray="5,2" d="M747.71 178.44c11.99 2.95 24.41 6 36.43 8.95"/>
            <path fill="#666" d="m784.68 183.92 8.88 5.79-10.55 1.01z"/>
        </g>
        <g class="node">
            <path fill="#add8e6" stroke="#000" d="M522.62 50H415.88v36h106.74z"/>
            <text x="465.25" y="-250.95" font-family="Times New Roman,serif" font-size="14" text-anchor="middle" transform="translate(4 324)">:server:data:shift</text>
        </g>
        <g stroke="#999" class="edge">
            <path fill="none" stroke-dasharray="5,2" d="M523.11 50.66C582.19 34.09 680 15.15 759.5 41c28.48 9.26 55.62 29.98 74.48 46.99"/>
            <path fill="#999" d="m836.26 85.33 4.93 9.37-9.7-4.25z"/>
        </g>
        <g stroke="#999" class="edge">
            <path fill="none" stroke-dasharray="5,2" d="M504.41 49.71C526.38 39 555.93 26.53 583.75 21c67.74-13.47 146.69-11.46 202.78-7.13"/>
            <path fill="#999" d="m786.6 10.36 9.68 4.31-10.26 2.67z"/>
        </g>
        <g stroke="#999" class="edge">
            <path fill="none" stroke-dasharray="5,2" d="M522.9 68H592"/>
            <path fill="#999" d="m591.71 64.5 10 3.5-10 3.5z"/>
        </g>
        <g stroke="#666" class="edge">
            <path fill="none" stroke-dasharray="5,2" d="M739.96 84.54c14.46 3.55 29.82 7.33 44.56 10.95"/>
            <path fill="#666" d="m785.29 92.07 8.88 5.79-10.55 1.01z"/>
        </g>
        <g stroke="#666" class="edge">
            <path fill="none" stroke-dasharray="5,2" d="M739.76 68h210.61"/>
            <path fill="#666" d="m950.27 64.5 10 3.5-10 3.5z"/>
        </g>
        <g stroke="#ccc" class="edge">
            <path fill="none" stroke-dasharray="5,2" d="M337.26 195.57c16.87-4.58 35.08-9.53 52.42-14.24"/>
            <path fill="#ccc" d="m388.3 178.08 10.57.76-8.73 6z"/>
        </g>
        <g stroke="#ccc" class="edge">
            <path fill="none" stroke-dasharray="5,2" d="M355.15 229.57C436.17 242.92 561.24 260 670.62 260h191.26c107.78 0 227.24-47.37 291.26-76.9"/>
            <path fill="#ccc" d="m1151.39 180.05 10.54-1.07-7.57 7.41z"/>
        </g>
        <g stroke="#ccc" class="edge">
            <path fill="none" stroke-dasharray="5,2" d="M294.56 195.51c35.34-25.95 99.75-73.23 139.43-102.36"/>
            <path fill="#ccc" d="m431.91 90.33 10.14-3.09-5.99 8.74z"/>
        </g>
        <g class="node">
            <path fill="#add8e6" stroke="#000" d="M727.62 196h-112v36h112z"/>
            <text x="667.62" y="-104.95" font-family="Times New Roman,serif" font-size="14" text-anchor="middle" transform="translate(4 324)">:server:data:room</text>
        </g>
        <g stroke="#ccc" class="edge">
            <path fill="none" stroke-dasharray="5,2" d="M354.96 214h248.96"/>
            <path fill="#ccc" d="m603.85 210.5 10 3.5-10 3.5z"/>
        </g>
        <g class="node">
            <path fill="#add8e6" stroke="#000" d="M496.75 288h-55v36h55z"/>
            <text x="465.25" y="-12.95" font-family="Times New Roman,serif" font-size="14" text-anchor="middle" transform="translate(4 324)">:shared</text>
        </g>
        <g stroke="#ccc" class="edge">
            <path fill="none" stroke-dasharray="5,2" d="M305.19 232.5c24 12.2 56.44 28.31 85.56 41.5 13.05 5.91 27.53 12.01 40.4 17.28"/>
            <path fill="#ccc" d="m432.16 287.91 7.95 7-10.58-.51z"/>
        </g>
        <g stroke="#999" class="edge">
            <path fill="none" stroke-dasharray="5,2" d="M727.92 199.8c10.73-3.58 21.7-7.84 31.58-12.8 25.49-12.79 51.45-31.86 70.58-47.31"/>
            <path fill="#999" d="m827.78 137.05 9.94-3.64-5.5 9.05z"/>
        </g>
        <g stroke="#999" class="edge">
            <path fill="none" stroke-dasharray="5,2" d="M728.05 211.63c17.41-.74 36.95-1.58 55.55-2.37"/>
            <path fill="#999" d="m783.38 205.77 10.14 3.06-9.84 3.93z"/>
        </g>
        <g stroke="#666" class="edge">
            <path fill="none" stroke-dasharray="5,2" d="M926.73 198.64c51.62-6.04 125.68-15.13 190.27-24.64 7.84-1.15 16.08-2.45 24.2-3.77"/>
            <path fill="#666" d="m1140.61 166.78 10.44 1.81-9.29 5.09z"/>
        </g>
    </g>
</svg>
